<svg width="134" height="68" viewBox="0 0 134 68" fill="none" xmlns="http://www.w3.org/2000/svg">
<path d="M67.0194 67.0687C103.682 67.0687 133.403 66.7684 133.403 66.398C133.403 66.0276 103.682 65.7273 67.0194 65.7273C30.3567 65.7273 0.635742 66.0276 0.635742 66.398C0.635742 66.7684 30.3567 67.0687 67.0194 67.0687Z" fill="#58595B"/>
<path d="M128.634 38.9776H22.0474L24.4962 36.209L33.2038 36.1809L116.151 35.9206L126.398 35.8884L128.634 38.9776Z" fill="url(#paint0_linear_2570_8389)"/>
<path opacity="0.4" d="M116.15 35.9207C114.514 36.9072 112.619 38.0474 111.066 38.9776H39.213C37.6439 38.2399 35.0416 37.0246 33.2036 36.1809L116.15 35.9207Z" fill="url(#paint1_linear_2570_8389)"/>
<path d="M58.4634 52.6098L61.4453 48.6682L66.8753 50.2671L58.4634 52.6098Z" fill="#393939"/>
<path d="M108.616 61.4497H104.143L78.0497 53.7019L64.7394 49.7509L55.2606 46.9373L43.8755 43.5571L63.1489 43.4504L70.5892 45.6852L72.6384 46.3009L87.6947 50.8226H87.6961L107.125 56.6576L108.616 61.4497Z" fill="url(#paint2_linear_2570_8389)"/>
<path opacity="0.3" d="M70.5892 45.6852C67.7019 45.9179 60.5478 46.4954 55.2606 46.9373L43.8755 43.5571L63.1482 43.4504L70.5892 45.6852Z" fill="url(#paint3_linear_2570_8389)"/>
<path opacity="0.3" d="M87.6946 50.8226L78.0495 53.7018L64.7393 49.7508L72.6382 46.3008L87.6946 50.8226Z" fill="url(#paint4_linear_2570_8389)"/>
<path d="M105.221 43.6571L104.386 44.1661L97.0557 46.3687L46.8575 61.4497H44.0889L46.3251 56.1245L83.9928 45.254L89.8755 43.5571L105.221 43.6571Z" fill="url(#paint5_linear_2570_8389)"/>
<path opacity="0.3" d="M105.221 43.6571L104.386 44.1661L97.0555 46.3687L83.9927 45.254L89.8753 43.5571L105.221 43.6571Z" fill="url(#paint6_linear_2570_8389)"/>
<path d="M108.793 61.343H44.0889V63.5811H108.793V61.343Z" fill="#776B62"/>
<path d="M128.634 38.9775H22.0474V44.6214H128.634V38.9775Z" fill="#776A61"/>
<path opacity="0.3" d="M122.422 44.6214H104C104.509 42.8668 105.14 40.7005 105.653 38.9775H121.579L122.422 44.6214Z" fill="url(#paint7_linear_2570_8389)"/>
<path d="M116.286 31.9025C116.126 32.7267 116.02 33.2713 116.02 33.2713L31.2896 32.0272C31.2896 32.0272 31.0951 31.6543 30.8491 31.0004C30.5701 30.2546 30.2234 29.1399 30.0243 27.7918C29.8318 26.5028 29.7749 25.0018 30.0411 23.4028C30.0411 23.4028 30.9148 20.4746 32.8399 18.6913C32.8399 18.6913 32.8399 18.6913 32.8433 18.6913C33.0659 18.4813 33.3053 18.2875 33.5574 18.1178C35.9519 16.5048 46.4432 14.588 51.2885 13.9448C51.3469 13.9354 51.4005 13.928 51.4575 13.9213C51.4575 13.9213 51.9497 13.5719 52.7537 13.0032C55.4412 11.1031 61.6035 6.76243 64.4325 4.90932C68.1064 2.49887 75.3751 -0.218753 87.6467 0.0139752C93.0874 0.11592 97.4372 0.661185 100.593 1.24066C104.558 1.96232 106.641 2.73227 106.641 2.73227C106.641 2.73227 108.808 5.84224 111.046 9.42036C112.632 11.9589 114.254 14.7335 115.163 16.7993C115.258 17.0112 115.346 17.2144 115.43 17.4123C116.319 19.4592 116.847 20.7972 117.163 21.7188C117.54 22.8046 117.623 23.3103 117.663 23.7134C117.722 24.2975 116.764 29.4015 116.286 31.9025Z" fill="url(#paint8_linear_2570_8389)"/>
<path opacity="0.3" d="M100.592 1.23999C96.6714 3.7383 87.953 8.66852 77.7199 10.4639C68.516 12.0796 58.9011 12.7812 52.7529 13.0032C55.4405 11.1031 61.6027 6.76243 64.4318 4.90932C68.1057 2.49887 75.3743 -0.218753 87.6459 0.0139752C93.0867 0.115249 97.4358 0.660519 100.592 1.23999Z" fill="#7AB3B8"/>
<path opacity="0.4" d="M116.286 31.9026C116.126 32.7268 116.02 33.2714 116.02 33.2714L31.2897 32.0273C31.2897 32.0273 31.0952 31.6544 30.8491 31.0005C32.2935 31.1024 36.5266 30.8617 36.5266 30.8617C36.5266 30.8617 36.4495 21.9268 46.5324 21.9268C56.616 21.9268 55.8349 31.5619 55.8349 31.5619C55.8349 31.5619 91.1644 31.4847 91.4782 31.2507C91.79 31.0173 92.4156 20.4493 102.734 21.6149C111.808 22.6404 111.8 31.639 111.8 31.639L116.286 31.9026Z" fill="url(#paint9_linear_2570_8389)"/>
<path opacity="0.3" d="M116.02 33.2713L95.9793 32.9776L40.785 32.1681L31.2894 32.0272C31.2894 32.0272 30.3963 30.3217 30.0234 27.7918C33.1093 26.769 39.1918 25.0527 49.5805 23.2459C51.4097 22.9287 71.0774 19.1292 82.4102 17.5746C93.7437 16.0193 110.549 14.2339 110.549 14.2339L115.429 17.4109C117.368 21.8676 117.587 22.9689 117.662 23.712C117.74 24.4907 116.02 33.2713 116.02 33.2713Z" fill="url(#paint10_linear_2570_8389)"/>
<path opacity="0.4" d="M100.231 23.3252C100.231 23.3252 91.5553 26.356 95.9795 32.9784L40.7852 32.1689C40.7865 32.1548 40.7865 32.1461 40.7865 32.1461C47.2351 31.5626 69.5581 29.5452 84.2859 26.0844C94.3695 23.7135 100.231 23.3252 100.231 23.3252Z" fill="url(#paint11_linear_2570_8389)"/>
<path opacity="0.4" d="M100.734 11.1694L100.51 11.2352C101.228 13.6577 102.238 17.439 102.073 17.9259C101.947 18.3042 100.206 19.5872 98.5208 20.8273C97.2682 21.7495 95.9728 22.7032 95.0736 23.4698C93.0043 25.2331 91.3172 29.443 91.0798 30.054C90.3194 30.1257 83.7857 30.7334 80.2539 30.7455C80.0427 25.9789 81.1229 15.4397 81.2671 15.0534L81.1585 15.0105L81.0492 14.9675C80.8487 15.4645 79.8154 26.0788 80.0192 30.7461C76.1623 30.7515 57.8712 30.9614 56.3927 30.9788C55.232 26.1861 54.7834 16.5094 54.8518 16.1245L54.6245 16.0701C54.5319 16.4363 55.0107 26.3679 56.1875 31.1244L56.2096 31.2136L56.3028 31.2129C56.5033 31.2102 76.4332 30.9802 80.1413 30.9802C83.8561 30.9802 91.1019 30.286 91.1744 30.2793L91.2468 30.2719L91.2729 30.2049C91.2904 30.1573 93.0847 25.4705 95.2258 23.6462C96.1189 22.8857 97.4097 21.9346 98.6596 21.0145C100.821 19.4236 102.152 18.4263 102.295 18.0004C102.536 17.2861 100.92 11.7932 100.734 11.1694Z" fill="#2D4549"/>
<path d="M37.3864 32.1071C37.3864 32.1071 37.2302 22.9368 46.2195 22.9368C55.2087 22.9368 54.8963 32.3398 54.8963 32.3398L37.3864 32.1071Z" fill="#1E232B"/>
<path d="M92.7272 32.9596C92.7272 32.9596 92.571 23.3245 101.092 23.2467C109.611 23.1696 110.47 30.3962 110.393 33.2728L92.7272 32.9596Z" fill="#1E232B"/>
<path d="M53.9395 31.2284C53.9395 33.445 52.99 35.4437 51.4732 36.8421C50.0986 38.1083 48.26 38.8823 46.241 38.8823C41.9897 38.8823 38.5425 35.4551 38.5425 31.2284C38.5425 28.6925 39.7837 26.4451 41.6967 25.0527C42.9701 24.1225 44.5405 23.5752 46.241 23.5752C50.4929 23.5752 53.9395 27.0011 53.9395 31.2284Z" fill="#111419"/>
<path d="M51.4382 31.2276C51.4382 31.512 51.4154 31.7944 51.3685 32.068C51.2183 32.9976 50.8146 33.8453 50.2306 34.5388C49.3515 35.5851 48.064 36.2826 46.6083 36.3832C46.4862 36.3933 46.3642 36.3966 46.2402 36.3966C45.4965 36.3966 44.7911 36.2424 44.1534 35.9627C43.0812 35.4945 42.1995 34.679 41.653 33.6582C41.4659 33.3074 41.315 32.9345 41.2144 32.5429C41.1011 32.1223 41.0435 31.6824 41.0435 31.2276C41.0435 29.7937 41.6315 28.4932 42.5817 27.5563C43.0926 27.0519 43.7069 26.6535 44.3915 26.3953C44.9661 26.1794 45.5877 26.0593 46.2402 26.0593C46.9664 26.0593 47.6584 26.2062 48.2873 26.4745C48.7326 26.6643 49.1456 26.9124 49.5164 27.2142C50.6879 28.1619 51.4382 29.6079 51.4382 31.2276Z" fill="#B6C0CA"/>
<path d="M48.1703 27.2364C47.7995 28.1478 46.6962 30.4107 46.0986 30.345C45.5023 30.2766 44.4172 28.0975 44.1831 27.1968C44.6915 26.7314 45.5057 26.5181 46.1576 26.5181C46.884 26.5174 47.5842 26.8085 48.1703 27.2364Z" fill="#464A51"/>
<path d="M44.7503 30.6758C44.7503 31.1372 43.0233 31.6188 41.7798 32.1124C41.2526 31.4719 41.7684 29.2029 42.7181 28.2673C43.4773 29.1003 44.7503 30.164 44.7503 30.6758Z" fill="#464A51"/>
<path d="M50.8281 31.9574C49.4512 31.8595 47.9697 31.6529 47.857 30.9862C47.7329 30.2471 48.8127 28.7991 49.4606 27.9165C50.7108 28.771 51.258 30.7911 50.8281 31.9574Z" fill="#464A51"/>
<path d="M44.6719 35.8037C43.6001 35.3355 42.8342 34.7849 42.2876 33.7641C43.2333 32.968 45.3406 31.7655 45.6008 32.2188C45.8282 32.6132 45.405 34.4428 44.6719 35.8037Z" fill="#464A51"/>
<path d="M50.1775 34.1733C49.2982 35.2209 48.4579 35.8708 47.0011 35.9714C46.7295 34.6958 46.4022 32.5603 46.9421 32.2035C47.472 31.8514 49.0944 33.1921 50.1775 34.1733Z" fill="#464A51"/>
<path d="M45.6331 30.7836C45.6599 30.8849 45.6002 30.9908 45.4969 31.017C45.395 31.0452 45.2897 30.9841 45.2615 30.8835C45.234 30.7823 45.2944 30.6763 45.3977 30.6495C45.5003 30.6213 45.6056 30.6823 45.6331 30.7836Z" fill="#464A51"/>
<path d="M46.9521 30.4918C46.9796 30.5931 46.9193 30.6991 46.8167 30.7266C46.7147 30.7534 46.6088 30.693 46.5806 30.5918C46.5538 30.4912 46.6141 30.3859 46.7161 30.3577C46.8187 30.3289 46.924 30.3906 46.9521 30.4918Z" fill="#464A51"/>
<path d="M47.2449 31.5414C47.2724 31.642 47.2121 31.7466 47.1095 31.7754C47.0075 31.8029 46.9022 31.7419 46.874 31.6413C46.8472 31.5387 46.9076 31.434 47.0095 31.4065C47.1115 31.379 47.2168 31.4394 47.2449 31.5414Z" fill="#464A51"/>
<path d="M46.0722 31.9198C46.1004 32.0211 46.0393 32.1264 45.9367 32.1538C45.8341 32.1807 45.7288 32.1203 45.702 32.0197C45.6731 31.9178 45.7342 31.8131 45.8375 31.785C45.9394 31.7582 46.0447 31.8178 46.0722 31.9198Z" fill="#464A51"/>
<path opacity="0.3" d="M53.9395 31.2283C53.9395 33.445 52.99 35.4436 51.4733 36.842C51.0884 36.1659 50.666 35.39 50.2294 34.5382C48.8421 31.8199 44.4809 27.4162 41.6968 25.052C42.9701 24.1217 44.5405 23.5745 46.241 23.5745C50.4929 23.5751 53.9395 27.001 53.9395 31.2283Z" fill="#111919"/>
<path d="M109.075 31.4359C109.075 33.5693 108.125 35.4915 106.609 36.8376C105.235 38.0555 103.396 38.8007 101.377 38.8007C97.1255 38.8007 93.6782 35.5029 93.6782 31.4365C93.6782 28.9952 94.9201 26.8329 96.8331 25.4942C98.1065 24.5995 99.6776 24.071 101.377 24.071C105.629 24.0704 109.075 27.3675 109.075 31.4359Z" fill="#111419"/>
<path d="M106.574 31.4345C106.574 31.7081 106.551 31.9798 106.505 32.2427C106.354 33.1374 105.951 33.9536 105.367 34.6203C104.488 35.627 103.2 36.2983 101.745 36.3949C101.622 36.405 101.5 36.4083 101.377 36.4083C100.633 36.4083 99.9272 36.2608 99.2902 35.9912C98.218 35.5405 97.3362 34.7544 96.7897 33.7725C96.6019 33.4358 96.4517 33.0777 96.3512 32.6994C96.2385 32.297 96.1802 31.8725 96.1802 31.4338C96.1802 30.0536 96.7689 28.8027 97.7184 27.9013C98.23 27.4164 98.8436 27.0328 99.5282 26.7833C100.103 26.5747 100.724 26.4607 101.377 26.4607C102.103 26.4607 102.795 26.6022 103.423 26.8604C103.87 27.0422 104.282 27.2816 104.652 27.5714C105.824 28.4842 106.574 29.8765 106.574 31.4345Z" fill="#B6C0CA"/>
<path d="M103.307 27.5935C102.935 28.47 101.832 30.6484 101.235 30.5861C100.639 30.519 99.5543 28.4218 99.3188 27.5559C99.8272 27.1065 100.641 26.9006 101.293 26.9006C102.02 26.9013 102.72 27.1823 103.307 27.5935Z" fill="#464A51"/>
<path d="M99.8861 30.9032C99.8861 31.3472 98.1584 31.8113 96.915 32.2855C96.3872 31.6698 96.9029 29.4861 97.8526 28.584C98.6132 29.3868 99.8861 30.4109 99.8861 30.9032Z" fill="#464A51"/>
<path d="M105.963 32.136C104.588 32.0407 103.105 31.8435 102.993 31.2024C102.869 30.4908 103.948 29.0971 104.596 28.2473C105.847 29.0702 106.393 31.0139 105.963 32.136Z" fill="#464A51"/>
<path d="M99.8073 35.8367C98.7349 35.3867 97.9696 34.8568 97.4224 33.8736C98.368 33.109 100.476 31.9507 100.736 32.388C100.964 32.767 100.54 34.5282 99.8073 35.8367Z" fill="#464A51"/>
<path d="M105.313 34.268C104.434 35.2767 103.594 35.9018 102.137 35.9977C101.865 34.771 101.538 32.7147 102.077 32.3719C102.608 32.0339 104.23 33.325 105.313 34.268Z" fill="#464A51"/>
<path d="M100.769 31.0065C100.796 31.1045 100.736 31.2051 100.633 31.2312C100.531 31.2581 100.426 31.1997 100.398 31.1031C100.37 31.0052 100.431 30.9039 100.534 30.8771C100.635 30.8509 100.742 30.9093 100.769 31.0065Z" fill="#464A51"/>
<path d="M102.087 30.7262C102.116 30.8241 102.055 30.9247 101.952 30.9522C101.85 30.9777 101.745 30.92 101.717 30.8221C101.689 30.7242 101.75 30.6236 101.852 30.5974C101.954 30.5713 102.06 30.6283 102.087 30.7262Z" fill="#464A51"/>
<path d="M102.381 31.7362C102.409 31.8334 102.347 31.9347 102.245 31.9609C102.143 31.987 102.037 31.9293 102.009 31.8314C101.982 31.7342 102.043 31.6329 102.146 31.6067C102.248 31.5806 102.353 31.6369 102.381 31.7362Z" fill="#464A51"/>
<path d="M101.208 32.1011C101.236 32.199 101.175 32.299 101.073 32.3251C100.97 32.3526 100.866 32.2943 100.837 32.197C100.81 32.0991 100.87 31.9985 100.972 31.9717C101.075 31.9448 101.18 32.0025 101.208 32.1011Z" fill="#464A51"/>
<path opacity="0.3" d="M109.075 31.4358C109.075 33.5693 108.125 35.4914 106.609 36.8375C106.224 36.1856 105.802 35.4398 105.365 34.6202C103.977 32.0052 99.6159 27.7678 96.8325 25.4935C98.1059 24.5988 99.677 24.0703 101.377 24.0703C105.629 24.0703 109.075 27.3674 109.075 31.4358Z" fill="#111919"/>
<path d="M105.078 5.76185C105.078 5.76185 104.456 9.00462 101.235 11.34C100.89 11.5921 100.517 11.8296 100.112 12.0536C99.6479 12.3098 99.1409 12.5472 98.5897 12.7551C95.4804 13.9301 88.8702 14.7155 82.6516 15.2326C82.3626 15.2568 82.0763 15.2796 81.7907 15.303C81.2207 15.3493 80.6581 15.3916 80.1049 15.4332C76.1963 15.7222 72.678 15.9047 70.608 16.018C64.9004 16.3305 53.2544 16.1743 53.2544 16.1743C53.2544 16.1743 64.7455 6.77258 70.2164 4.44127C72.7766 3.35006 77.5159 2.71559 82.4558 2.48957C82.9393 2.46609 83.4228 2.44732 83.9062 2.43391C85.838 2.37489 87.7732 2.37757 89.5931 2.43793C92.6226 2.53786 95.3302 2.79474 97.1829 3.19581C97.6349 3.29373 98.064 3.39164 98.4697 3.48956C98.8492 3.57876 99.2113 3.66931 99.5506 3.75784H99.5526C103.76 4.85106 105.078 5.76185 105.078 5.76185Z" fill="#263A3A"/>
<path opacity="0.4" d="M105.078 5.76179C105.078 5.76179 104.457 9.00456 101.235 11.3399C100.891 11.5921 100.517 11.8295 100.112 12.0535C99.6481 12.3097 99.1412 12.5471 98.59 12.755C95.4807 13.9301 88.8705 14.7155 82.6519 15.2326C83.9856 13.6336 85.7229 11.5284 87.1592 9.7061C89.5202 6.71014 89.8159 4.65449 89.5933 2.43921C92.6228 2.53914 95.3305 2.79602 97.1832 3.19709C97.6351 3.29501 98.0643 3.39292 98.4699 3.49084C98.8495 3.58004 99.2116 3.67059 99.5509 3.75912H99.5529C103.761 4.851 105.078 5.76179 105.078 5.76179Z" fill="#263A3A"/>
<path d="M103.983 6.26739C103.983 6.26739 103.078 9.86428 99.2693 11.8556H99.2673C98.5291 12.2425 97.6842 12.5685 96.7132 12.7952C93.7957 13.4779 89.4278 14.0487 85.1745 14.4692C85.1745 14.4692 85.1745 14.4692 85.1712 14.4692C80.7067 14.9092 76.369 15.1822 73.9671 15.2432C69.278 15.3592 54.9727 15.5926 54.9727 15.5926C54.9727 15.5926 60.0332 11.5477 65.4955 8.093C66.7145 7.32171 67.9523 6.57993 69.16 5.91796C73.3629 3.61683 83.584 2.24864 93.4986 3.59873C94.7271 3.76439 95.9488 3.97163 97.1545 4.22582C99.1788 4.65037 101.155 5.20234 103.029 5.89986C103.35 6.01589 103.669 6.13996 103.983 6.26739Z" fill="#46676C"/>
<path opacity="0.4" d="M103.029 5.89993C102.18 7.46599 100.831 9.78589 99.2696 11.8563H99.2676C98.5293 12.2433 97.6844 12.5692 96.7135 12.7959C93.796 13.4787 89.4281 14.0495 85.1748 14.47C88.722 10.9757 93.6659 6.31776 97.154 4.22656C99.1777 4.64977 101.154 5.20175 103.029 5.89993Z" fill="#46676C"/>
<path d="M101.236 11.34C100.891 11.5921 100.518 11.8296 100.113 12.0536L98.4707 3.49023L99.5519 3.75851H99.5539L101.236 11.34Z" fill="#263A3A"/>
<path d="M40.0448 18.4284C40.0448 18.4284 38.8727 21.0716 36.0584 22.315C33.6498 23.3781 31.3559 22.9629 30.7444 22.8214C30.6411 22.7973 30.5854 22.7812 30.5854 22.7812C30.5854 22.7812 31.0025 21.4988 32.1699 20.3821C32.6018 19.9697 33.1362 19.578 33.7906 19.2842C34.2292 19.0864 34.7146 18.9348 35.2142 18.8134C37.4746 18.2721 40.0448 18.4284 40.0448 18.4284Z" fill="url(#paint12_linear_2570_8389)"/>
<path opacity="0.4" d="M36.3712 20.6826C36.3712 21.8416 35.4255 22.7805 34.2606 22.7805C33.0949 22.7805 32.1499 21.8416 32.1499 20.6826C32.1499 20.58 32.1573 20.4801 32.1707 20.3815C32.6026 19.969 33.1372 19.5773 33.7917 19.2836C34.2304 19.0857 34.716 18.9341 35.2156 18.8127C35.9017 19.1581 36.3712 19.8664 36.3712 20.6826Z" fill="#8DA5B0"/>
<path opacity="0.3" d="M40.0446 18.4285C40.0446 18.4285 38.8725 21.0716 36.0582 22.3151C33.6496 23.3781 31.3557 22.963 30.7441 22.8215C34.7922 21.9321 39.5785 19.2145 40.0446 18.4285Z" fill="#8DA5B0"/>
<path opacity="0.3" d="M52.1602 22.8193C52.1602 22.8193 65.8774 18.2734 78.658 16.2922C91.4378 14.3103 108.674 14.3103 108.674 14.3103C108.674 14.3103 91.5558 16.4082 79.478 18.1567C67.4016 19.9058 52.1602 22.8193 52.1602 22.8193Z" fill="#7AB3B8"/>
<path opacity="0.4" d="M93.4983 3.59873C90.9382 6.44915 86.5454 10.702 82.7609 11.1627C78.4279 11.6899 70.4243 9.36596 65.4951 8.093C66.7142 7.32171 67.952 6.57993 69.1596 5.91796C73.3626 3.61683 83.5837 2.24864 93.4983 3.59873Z" fill="#46676C"/>
<path d="M83.9066 2.43506C83.3667 5.54906 82.1239 13.2331 81.7906 15.3035C81.2205 15.3498 80.6578 15.3921 80.1045 15.4336C80.3835 13.1466 81.8959 5.06214 82.4559 2.49006C82.9402 2.46725 83.4237 2.44847 83.9066 2.43506Z" fill="#263A3A"/>
<path d="M74.5933 19.1285L78.3464 18.4297V18.9729C78.3464 18.9729 77.6422 19.8281 76.2351 19.9059C74.8273 19.983 74.5933 19.1285 74.5933 19.1285Z" fill="#2D4649"/>
<path d="M96.2061 16.1748L96.2818 16.7255C96.2818 16.7255 97.4951 17.1393 98.481 17.0709C99.4669 17.0025 99.9981 15.5544 99.9981 15.5544L96.2061 16.1748Z" fill="#2D4649"/>
<path d="M117.161 21.7175L112.19 19.4391L109.768 12.3687C109.768 12.3687 109.796 12.301 109.845 12.1897C110.108 11.578 110.952 9.61088 111.018 9.41504C111.018 9.41504 111.028 9.41705 111.045 9.41974C112.631 11.9583 114.253 14.7329 115.162 16.7986C115.257 17.0106 115.345 17.2138 115.429 17.4116C115.513 17.6068 115.596 17.7966 115.674 17.979C116.416 19.7101 116.876 20.8851 117.161 21.7175Z" fill="#EF1A21"/>
<path d="M117.161 21.7175L112.19 19.4392L109.768 12.3688C109.768 12.3688 109.796 12.301 109.845 12.1897C110.546 13.5116 111.937 16.0448 112.424 16.4083C112.783 16.6766 114.378 17.4036 115.672 17.9784C116.416 19.7101 116.876 20.8852 117.161 21.7175Z" fill="#BF1623"/>
<path d="M60.6419 15.749H56.7714L56.699 15.2922L56.5742 14.5042C56.5742 14.5042 56.6158 14.4344 56.705 14.3204C57.0571 13.8543 58.1362 12.649 59.8981 12.5229L60.3133 14.3204L60.6419 15.749Z" fill="#E8552D"/>
<path d="M56.9269 15.7859H54.5044L54.6077 15.7141L56.6928 14.2339L56.7063 14.3197L56.8478 15.2594L56.9222 15.749L56.9269 15.7859Z" fill="#181A18"/>
<path opacity="0.4" d="M56.9217 15.7489L56.9264 15.7864H54.5044L54.607 15.7147C55.1816 15.6121 55.9253 15.4625 56.6991 15.2921C56.748 15.2828 56.797 15.2714 56.8466 15.2593C58.1669 14.9635 59.5482 14.6114 60.3126 14.3203L60.6405 15.7489H56.9217Z" fill="url(#paint13_linear_2570_8389)"/>
<path opacity="0.3" d="M51.288 13.9448C49.6908 15.0588 44.6094 17.2714 39.3403 18.04C36.6582 18.4317 34.4494 18.6115 32.8428 18.6906C33.0654 18.4807 33.3048 18.2868 33.5569 18.1172C35.9507 16.5042 46.4427 14.588 51.288 13.9448Z" fill="#7AB3B8"/>
<path opacity="0.3" d="M110.082 17.6517C110.082 18.6389 109.276 19.4391 108.283 19.4391C107.29 19.4391 106.485 18.6389 106.485 17.6517C106.485 16.6651 107.29 15.865 108.283 15.865C109.276 15.865 110.082 16.6651 110.082 17.6517Z" fill="#669B9C"/>
<path d="M50.2842 20.7609L53.2546 20.4491C53.2546 20.4491 52.9421 19.828 52.3164 19.7495C51.6913 19.6717 50.2842 20.0607 50.2842 20.0607V20.7609Z" fill="#FF7F32"/>
<path d="M115.913 20.2277C115.887 20.2834 115.856 20.3485 115.822 20.4189C115.622 20.8354 115.345 21.443 115.345 21.443C115.21 21.4122 114.837 21.4323 114.43 21.4672C113.792 21.5228 113.077 21.6161 113.077 21.6161L112.904 20.7891C112.635 21.0587 112.231 21.2123 111.751 21.0587C111.678 21.0359 111.604 20.991 111.531 20.9293C111.12 20.5839 110.721 19.6503 110.559 18.2325C110.382 16.6912 110.726 15.7361 111.022 14.9957C111.047 14.9333 111.073 14.8703 111.096 14.8106C111.107 14.7865 111.117 14.7643 111.128 14.7422C111.377 14.8529 111.602 14.9105 111.577 15.0601C111.385 16.2526 112.019 17.0782 112.019 17.0782C112.213 16.7992 112.449 16.6335 112.649 16.7348C112.807 16.8133 112.942 17.0581 113.019 17.5396C113.192 18.6355 112.27 18.944 112.27 18.944C112.27 18.944 112.385 19.3284 112.634 19.7314C112.884 20.1365 112.999 20.0782 114.316 19.8468C115.266 19.6805 115.728 20.0238 115.913 20.2277Z" fill="url(#paint14_linear_2570_8389)"/>
<path d="M114.845 18.3472L114.979 17.9434C114.979 17.9434 112.941 14.8871 112.731 14.8099C112.525 14.7355 111.473 14.0896 111.128 14.7429C111.376 14.8529 111.601 14.9092 111.577 15.0601C111.384 16.2513 112.019 17.0776 112.019 17.0776C112.364 16.5786 112.845 16.4437 113.018 17.5397C113.191 18.6362 112.269 18.9427 112.269 18.9427C112.269 18.9427 112.384 19.327 112.633 19.7315C112.883 20.1352 112.999 20.0782 114.314 19.8461C115.265 19.6798 115.728 20.0232 115.912 20.2271C115.962 20.1285 115.999 20.0574 116.016 20.0386L114.845 18.3472Z" fill="url(#paint15_linear_2570_8389)"/>
<path d="M118.122 16.2305C118.108 16.6617 118.016 17.0776 117.842 17.4632C117.362 18.5189 116.017 20.3646 116.017 20.3646C116.017 20.3646 115.985 20.3069 115.913 20.2271C115.728 20.0226 115.266 19.6798 114.315 19.8455C112.999 20.0762 112.883 20.1346 112.634 19.7301C112.384 19.3271 112.269 18.9427 112.269 18.9427C112.269 18.9427 113.192 18.6342 113.019 17.5383C112.845 16.4431 112.364 16.5772 112.018 17.0769C112.018 17.0769 111.396 16.2667 111.572 15.093C111.573 15.0809 111.574 15.0709 111.577 15.0588C111.59 14.979 111.533 14.9253 111.44 14.8777C111.437 14.877 111.437 14.877 111.437 14.877C111.354 14.8328 111.244 14.7925 111.128 14.7416C110.823 14.6074 110.484 14.3968 110.51 13.8469C110.534 13.3646 110.659 13.0964 110.782 12.9502C110.801 12.9274 110.821 12.9066 110.839 12.8898C110.878 12.8536 110.913 12.8301 110.944 12.8107C111.002 12.7791 111.042 12.7718 111.042 12.7718C111.042 12.7718 110.984 12.1219 111.987 12.0622C112.003 12.0615 112.022 12.0615 112.039 12.0608C112.425 12.0474 112.759 12.1192 113.022 12.2184C113.234 12.2962 113.403 12.3915 113.526 12.4699C113.561 12.4927 113.592 12.5142 113.619 12.5337C113.704 12.594 113.749 12.6376 113.749 12.6376C113.749 12.6376 113.712 12.4921 113.72 12.3445C113.722 12.2721 113.735 12.199 113.766 12.1433C113.812 12.0615 113.9 12.0139 114.057 12.0588C114.103 12.0716 114.147 12.0923 114.191 12.1131C114.594 12.3264 114.845 12.9066 114.845 12.9066C114.845 12.9066 114.857 12.8697 114.881 12.814C114.942 12.6758 115.081 12.4223 115.299 12.3465C115.374 12.3204 115.457 12.3164 115.551 12.3445C115.582 12.3539 115.616 12.368 115.651 12.3874C116.013 12.5813 116.201 12.8442 116.286 12.9944C116.327 13.0702 116.343 13.1178 116.343 13.1178C116.343 13.1178 116.37 13.1004 116.422 13.0876C116.471 13.0749 116.545 13.0675 116.634 13.0856C116.681 13.0964 116.734 13.1118 116.789 13.1386C116.988 13.2345 117.241 13.4579 117.517 13.9448C117.527 13.9636 117.537 13.9803 117.545 13.9991C117.568 14.0387 117.588 14.0776 117.608 14.1172C117.963 14.8026 118.144 15.533 118.122 16.2305Z" fill="url(#paint16_linear_2570_8389)"/>
<path d="M111.437 16.3189C111.54 16.3417 110.791 15.6851 110.609 16.1673V16.4316C110.609 16.4316 111.128 16.2518 111.437 16.3189Z" fill="url(#paint17_linear_2570_8389)"/>
<path opacity="0.3" d="M112.414 17.0977C112.154 17.3284 111.951 17.8763 111.922 18.2801C111.922 18.2801 112.24 18.3223 112.325 18.0346C112.413 17.7469 112.298 17.7154 112.298 17.7154L112.414 17.0977Z" fill="#E78565"/>
<path opacity="0.3" d="M110.783 12.9502C110.743 13.8503 111.437 14.8771 111.437 14.8771C111.354 14.8328 111.245 14.7926 111.129 14.7416C110.823 14.6075 110.484 14.3969 110.51 13.8469C110.534 13.3647 110.659 13.0971 110.783 12.9502Z" fill="url(#paint18_linear_2570_8389)"/>
<path opacity="0.3" d="M118.122 16.2305C118.108 16.6618 118.016 17.0776 117.842 17.4632C117.363 18.5189 116.017 20.3646 116.017 20.3646C116.017 20.3646 115.985 20.3069 115.913 20.2271C115.728 20.0226 115.266 19.6798 114.315 19.8455C112.999 20.0762 112.883 20.1346 112.634 19.7301C112.384 19.3271 112.269 18.9428 112.269 18.9428C112.269 18.9428 113.192 18.6342 113.019 17.5383C112.845 16.4431 112.364 16.5772 112.018 17.0769C112.018 17.0769 111.396 16.2667 111.572 15.093C111.644 15.2077 111.755 15.3834 111.923 15.6551C112.408 16.4337 113.394 16.1158 115.21 16.309C116.676 16.4646 117.448 16.5068 118.122 16.2305Z" fill="url(#paint19_linear_2570_8389)"/>
<g opacity="0.2">
<path d="M112.019 17.0782C111.494 16.7274 111.385 15.3243 111.437 15.266C111.477 15.2237 111.233 15.1077 111.021 14.9957C111.047 14.9333 111.072 14.8703 111.096 14.8106C111.107 14.7865 111.117 14.7643 111.128 14.7422C111.376 14.8529 111.602 14.9105 111.577 15.0601C111.385 16.2526 112.019 17.0782 112.019 17.0782Z" fill="#E67F55"/>
<path d="M115.915 20.2279C115.888 20.2835 115.857 20.3486 115.823 20.419C115.341 20.5659 114.785 21.0843 114.431 21.4673C113.793 21.523 113.077 21.6162 113.077 21.6162L112.904 20.7892C112.635 21.0588 112.231 21.2124 111.751 21.0588C111.678 21.036 111.604 20.9911 111.531 20.9294C111.753 20.9388 111.981 20.8704 112.168 20.7188C112.588 20.3761 112.168 18.7577 112.168 18.7577C112.981 18.254 112.827 17.1742 112.649 16.7356C112.808 16.8141 112.943 17.0589 113.02 17.5404C113.193 18.6363 112.27 18.9448 112.27 18.9448C112.27 18.9448 112.386 19.3291 112.635 19.7322C112.885 20.1373 113 20.079 114.317 19.8476C115.268 19.6806 115.73 20.024 115.915 20.2279Z" fill="#E67F55"/>
</g>
<path d="M100.845 37.8739C100.845 38.0704 100.689 38.23 100.496 38.23C100.304 38.23 100.148 38.0704 100.148 37.8739V26.4454C100.148 26.2482 100.304 26.0879 100.496 26.0879C100.689 26.0879 100.845 26.2475 100.845 26.4454V37.8739Z" fill="#61727C"/>
<path d="M102.89 37.8739C102.89 38.0704 102.748 38.23 102.573 38.23C102.399 38.23 102.257 38.0704 102.257 37.8739V26.4454C102.257 26.2482 102.399 26.0879 102.573 26.0879C102.748 26.0879 102.89 26.2475 102.89 26.4454V37.8739Z" fill="#61727C"/>
<path d="M103.026 31.5217H99.9385V32.5888H103.026V31.5217Z" fill="#C3C3C3"/>
<path d="M99.5126 28.539L98.6602 25.8757L99.2457 25.6101L100.79 28.592L99.5126 28.539Z" fill="#C3C3C3"/>
<path d="M103.504 28.5391L104.624 25.6625L103.984 25.2903L102.174 28.5921L103.504 28.5391Z" fill="#C3C3C3"/>
<path d="M99.5658 35.6746L98.5537 38.1769L99.2459 38.3372L100.737 35.7799L99.5658 35.6746Z" fill="#C3C3C3"/>
<path d="M102.068 35.7275C102.174 35.8865 103.665 38.4438 103.665 38.4438L104.517 38.2829L103.504 35.8872L102.068 35.7275Z" fill="#C3C3C3"/>
<path d="M103.505 28.5391H99.5122V29.9227H103.505V28.5391Z" fill="#C3C3C3"/>
<path d="M103.505 34.5022H99.5122V35.8872H103.505V34.5022Z" fill="#C3C3C3"/>
<path d="M99.0864 31.0422L100.151 30.9355L100.257 33.7041H99.1394L99.0864 31.0422Z" fill="#323333"/>
<path d="M99.1401 34.4498C99.1401 34.7724 98.8786 35.036 98.5546 35.036C98.2314 35.036 97.9691 34.7724 97.9691 34.4498L97.9678 29.9233C97.9678 29.5994 98.23 29.3372 98.5539 29.3372C98.8765 29.3372 99.1395 29.5987 99.1395 29.9233L99.1401 34.4498Z" fill="#C3C3C3"/>
<path d="M99.3762 23.9956C99.3762 23.9956 99.3782 24.2177 99.3145 24.325L99.3125 24.3256C99.3024 24.3471 99.2856 24.3632 99.2695 24.3726C99.0663 24.492 98.8208 24.673 98.6471 24.8072C98.5103 24.9158 98.4144 24.995 98.4144 24.995C98.4144 24.995 97.9972 24.9775 97.6807 24.4524C97.3654 23.9266 96.6237 22.8635 96.7182 22.722C96.7189 22.722 96.7189 22.7207 96.7189 22.7207C96.7746 22.6462 96.9798 22.8407 97.1535 23.0319C97.1535 23.0325 97.1562 23.0325 97.1582 23.0346C97.2756 23.164 97.3809 23.2928 97.4157 23.337C97.4178 23.3404 97.4184 23.3417 97.4231 23.3444C97.3648 23.2425 96.7337 22.1472 96.8725 22.0339C96.8839 22.0232 96.9007 22.0211 96.9188 22.0245C97.0536 22.048 97.3433 22.3867 97.5257 22.616C97.5291 22.6187 97.5324 22.6228 97.5338 22.6261C97.6062 22.7207 97.6612 22.7931 97.6813 22.8186C97.676 22.8099 97.6666 22.7951 97.6545 22.773C97.6532 22.7716 97.6525 22.771 97.6525 22.769C97.5096 22.5289 97.0026 21.6476 97.1508 21.5919C97.1622 21.5872 97.1756 21.5892 97.1931 21.5986C97.4238 21.7012 98.1227 22.8152 98.1676 22.889C98.1656 22.883 98.1615 22.8716 98.1535 22.8555C98.1535 22.8535 98.1528 22.8515 98.1528 22.8501C98.0583 22.6335 97.6297 21.6308 97.7598 21.5637C97.7658 21.5604 97.7712 21.559 97.7779 21.5577C98.0475 21.4987 98.8067 22.9165 98.8067 22.9165C98.8067 22.9165 98.7893 22.3867 98.9248 22.27C98.9469 22.2505 98.9724 22.2418 99.0046 22.2498C99.2259 22.3015 99.3762 23.9956 99.3762 23.9956Z" fill="url(#paint20_linear_2570_8389)"/>
<g opacity="0.32">
<path d="M98.6466 24.8078C98.5098 24.9165 98.4139 24.9956 98.4139 24.9956C98.4139 24.9956 97.9967 24.9782 97.6802 24.453C97.3649 23.9272 96.6232 22.8642 96.7177 22.7227C96.9753 23.2183 97.5118 23.9165 97.8552 24.2988C98.1349 24.6073 98.4649 24.7501 98.6466 24.8078Z" fill="#E67F55"/>
<path d="M97.1577 23.0352C97.2751 23.1646 97.3804 23.2934 97.4153 23.3376C97.3348 23.2565 97.2442 23.1545 97.1577 23.0352Z" fill="#E67F55"/>
<path d="M97.6888 23.5758C97.6748 23.5671 97.5634 23.4886 97.4226 23.3451C97.3642 23.2431 96.7331 22.1479 96.8719 22.0345C96.8833 22.0238 96.9001 22.0218 96.9182 22.0252C97.0832 22.4195 97.4615 23.3089 97.6888 23.5758Z" fill="#E67F55"/>
<path d="M98.0275 23.1511C98.0107 23.1384 97.8531 23.0029 97.6546 22.7729C97.6532 22.7715 97.6526 22.7709 97.6526 22.7688C97.5097 22.5287 97.0027 21.6475 97.1509 21.5918C97.1623 21.5871 97.1757 21.5891 97.1931 21.5985C97.3293 21.9318 97.6546 22.6951 98.0275 23.1511Z" fill="#E67F55"/>
<path d="M98.5577 23.502C98.5094 23.4269 98.3424 23.1693 98.1539 22.8561C98.1539 22.8541 98.1532 22.8521 98.1532 22.8508C98.0587 22.6341 97.6301 21.6314 97.7602 21.5644C97.7663 21.561 97.7716 21.5597 97.7783 21.5583C97.9158 21.9594 98.3585 23.1553 98.5577 23.502Z" fill="#E67F55"/>
<path d="M99.376 23.9955C99.376 23.9955 99.378 24.2175 99.3143 24.3248L99.3123 24.3255C99.2902 24.3355 99.2774 24.3396 99.2774 24.3396C99.2761 24.0357 99.0105 22.687 98.9253 22.2712C98.9474 22.2517 98.9729 22.243 99.0051 22.251C99.2258 22.3013 99.376 23.9955 99.376 23.9955Z" fill="#E67F55"/>
</g>
<path d="M120.793 30.6467C120.744 30.8694 120.673 31.1021 120.583 31.3509C120.075 32.7319 117.985 34.2148 117.985 34.2148C117.985 34.2148 117.884 34.5186 117.944 34.803C117.994 35.0451 118.307 36.0404 118.404 36.3402C118.42 36.3965 118.431 36.4274 118.431 36.4274C118.262 36.5555 118.074 36.6722 117.864 36.7761H117.862C117.791 36.8117 117.72 36.8439 117.643 36.8781C116.393 37.4079 114.565 37.5313 112.646 37.4817C111.032 37.4394 110.038 37.1645 109.567 36.9928C109.344 36.9116 109.239 36.8539 109.239 36.8539C109.382 36.3261 109.746 33.5837 109.786 32.247C109.827 30.9043 109.4 27.8017 109.4 27.8017C106.479 29.6259 102.97 29.7909 102.97 29.7909C102.97 29.7909 102.643 29.8526 101.347 28.7742C100.048 27.6977 98.2612 25.1209 98.2612 25.1209C98.2907 25.0445 98.3531 24.9546 98.4289 24.8634C98.7252 24.5119 99.255 24.1068 99.255 24.1068C99.255 24.1068 100.331 24.797 101.204 25.5086C102.075 26.2175 103.921 27.1511 103.921 27.1511C103.921 27.1511 107.637 24.1364 108.815 22.9821C108.983 22.8158 109.156 22.6756 109.331 22.5515C109.761 22.249 110.2 22.07 110.589 21.958C111.145 21.7977 111.6 21.7769 111.794 21.7407L111.972 21.4999L112.344 21.0016C112.891 20.799 115.813 20.8205 115.813 20.8205L116.438 21.6193L116.46 21.6508C116.861 21.7601 117.37 21.907 117.805 22.0686C118.187 22.2135 118.511 22.3711 118.652 22.5247C118.66 22.5334 118.669 22.5415 118.677 22.5522C119.661 23.6407 120.56 26.0304 120.792 27.7198C120.966 28.9747 121.012 29.6427 120.793 30.6467Z" fill="#8D7B06"/>
<path opacity="0.24" d="M114.292 24.0452C114.313 24.188 114.577 30.2155 114.414 32.408C114.414 32.408 114.941 30.7433 114.86 28.3282C114.78 25.9137 114.292 24.0452 114.292 24.0452Z" fill="#222B2A"/>
<path opacity="0.24" d="M118.775 27.72C118.917 28.1653 119.384 30.1552 118.309 31.4939C118.309 31.4939 118.613 30.3377 118.653 29.4047C118.695 28.4698 118.775 27.72 118.775 27.72Z" fill="#222B2A"/>
<path opacity="0.24" d="M109.97 30.8032C110.024 32.5403 110.054 35.4537 109.567 36.993C109.345 36.9111 109.239 36.8528 109.239 36.8528C109.382 36.325 109.746 33.5845 109.787 32.2452C109.828 30.9051 109.4 27.8012 109.4 27.8012C106.48 29.6275 102.969 29.7905 102.969 29.7905C102.969 29.7905 102.645 29.8522 101.347 28.7737C100.048 27.6993 98.2627 25.1211 98.2627 25.1211C98.2922 25.044 98.3532 24.9535 98.431 24.8616C99.1559 25.8287 101.612 28.7623 102.999 29.156C102.999 29.156 107.837 28.5826 110.122 26.207C110.122 26.207 109.909 28.8253 109.97 30.8032Z" fill="#222B2A"/>
<path opacity="0.24" d="M120.793 30.6469C120.744 30.8689 120.676 31.1016 120.584 31.3518C120.075 32.7321 117.984 34.2143 117.984 34.2143C117.984 34.2143 117.883 34.5181 117.944 34.8032C117.995 35.0446 118.308 36.0406 118.405 36.3404C118.183 36.5241 117.995 36.6744 117.865 36.7757H117.864C117.741 36.8709 117.67 36.9245 117.67 36.9245C117.663 36.9185 117.655 36.9031 117.643 36.8783C117.499 36.5483 117.008 34.5704 117.519 33.2405C118.066 31.8085 118.757 29.779 118.776 27.7207C118.776 27.7207 119.557 30.0339 118.31 32.3216C118.31 32.3216 118.04 33.1197 118.16 33.4236C118.16 33.4236 119.849 32.329 120.793 30.6469Z" fill="#222B2A"/>
<path opacity="0.24" d="M121.413 28.541C121.398 28.1889 121.384 27.9729 121.384 27.9729C121.407 28.1654 121.417 28.3552 121.413 28.541Z" fill="#222B2A"/>
<path opacity="0.24" d="M116.439 21.6194C115.051 21.8018 112.887 21.555 111.975 21.4987L112.344 21.0024C112.891 20.7991 115.814 20.8199 115.814 20.8199L116.439 21.6194Z" fill="#222B2A"/>
<path d="M120.051 59.5247C120.051 59.5261 120.051 59.5267 120.051 59.5267C119.736 61.5797 119.377 63.3128 119.36 63.3624C119.343 63.4174 119.075 63.3899 118.845 63.3543C118.669 63.3282 118.516 63.296 118.516 63.296C118.516 63.296 116.566 54.6535 115.884 51.8923C115.203 49.1291 113.87 41.8193 113.87 41.8193L111.856 50.9782C111.856 50.9782 112.765 51.9889 112.534 55.3048C112.291 58.7796 110.037 64.8225 110.037 64.8225H109.248C108.363 59.4315 108.087 54.5227 108.217 48.6415C108.326 43.7683 108.885 39.1251 109.138 37.3189C109.19 36.9427 109.23 36.6919 109.247 36.5825C109.247 36.5825 111.335 36.8461 114.195 36.881C117.053 36.9165 118.451 35.8931 118.451 35.8931C119.263 38.1238 118.353 39.7488 118.353 39.7488L118.743 50.0372C118.743 50.0372 120.118 50.8125 120.475 53.8011C120.633 55.1237 120.365 57.4818 120.051 59.5247Z" fill="url(#paint21_linear_2570_8389)"/>
<path opacity="0.24" d="M120.051 59.5249C120.056 58.4759 120.049 57.1774 120.009 55.7911C119.917 52.4068 118.516 50.1708 118.516 50.0729C118.516 49.9749 117.964 39.5592 117.964 39.5592C118.192 38.2728 117.639 36.8831 117.639 36.8831C114.942 38.3734 110.446 37.5934 109.139 37.3204C109.191 36.9442 109.231 36.6933 109.248 36.584C109.248 36.584 111.336 36.8476 114.196 36.8824C117.054 36.918 118.451 35.8945 118.451 35.8945C119.263 38.1252 118.354 39.7503 118.354 39.7503L118.744 50.0386C118.744 50.0386 120.119 50.814 120.476 53.8025C120.633 55.1238 120.365 57.4819 120.051 59.5249Z" fill="#222B2A"/>
<path opacity="0.24" d="M116.21 50.3593C115.706 48.4559 114.173 42.2044 113.909 41.1313C115.675 40.9375 116.762 40.3586 116.762 40.3586C113.707 40.8516 111.196 40.5961 111.196 40.5961C111.196 40.5961 111.715 41.1675 113.253 41.1675C113.454 41.1675 113.642 41.1554 113.824 41.1373L111.044 51.1104C111.044 51.1104 111.661 53.4518 111.629 56.0172C111.599 58.3512 109.958 63.7207 109.634 64.8226H110.037C110.037 64.8226 112.292 58.7791 112.535 55.3049C112.766 51.989 111.856 50.9783 111.856 50.9783L113.871 41.8194C113.871 41.8194 115.204 49.1286 115.884 51.8925C116.567 54.6537 118.516 63.2961 118.516 63.2961C118.516 63.2961 118.67 63.3283 118.846 63.3545C118.817 61.2425 116.743 52.3707 116.21 50.3593Z" fill="#222B2A"/>
<path d="M109.981 65.6221C109.867 65.7723 109.667 65.9011 109.323 65.9614C109.246 65.9748 109.166 65.9843 109.083 65.9896C107.94 66.0795 106.224 65.5718 105.759 65.2887C105.759 65.2887 105.841 65.2062 105.983 65.0895C106.302 64.8273 106.925 64.4021 107.602 64.4021C108.372 64.4021 108.954 64.6657 109.164 64.7757C109.22 64.8058 109.25 64.8233 109.25 64.8233H110.038C110.038 64.8233 110.237 65.278 109.981 65.6221Z" fill="#3F342C"/>
<path opacity="0.25" d="M109.981 65.6221C109.867 65.7724 109.667 65.9011 109.323 65.9615C109.246 65.9749 109.166 65.9843 109.083 65.9897C107.94 66.0795 106.224 65.5718 105.759 65.2888C105.759 65.2888 105.841 65.2063 105.983 65.0896C107.135 65.488 108.345 65.6013 109.154 65.6248C109.532 65.6369 109.823 65.6268 109.981 65.6221Z" fill="#503F33"/>
<path opacity="0.25" d="M109.98 65.6222C109.867 65.7725 109.667 65.9012 109.323 65.9616C109.246 65.975 109.166 65.9844 109.082 65.9898C109.116 65.8677 109.14 65.747 109.153 65.6249C109.192 65.3258 109.18 65.03 109.163 64.7751C109.22 64.8053 109.249 64.8228 109.249 64.8228H110.038C110.038 64.8228 110.236 65.2782 109.98 65.6222Z" fill="#503F33"/>
<path d="M119.424 64.0995C119.395 64.2236 119.339 64.3296 119.231 64.402C119.231 64.402 119.019 64.4678 118.614 64.4798C117.985 64.4993 116.891 64.396 115.42 63.73C115.42 63.73 115.514 63.6703 115.679 63.5878C116.204 63.3242 117.437 62.8253 118.489 63.284C118.499 63.29 118.506 63.2927 118.516 63.2961L119.361 63.3625C119.361 63.3625 119.5 63.7743 119.424 64.0995Z" fill="#3F342C"/>
<path opacity="0.25" d="M119.424 64.0994C119.395 64.2234 119.339 64.3294 119.231 64.4019C119.231 64.4019 117.834 64.823 115.42 63.7298C115.42 63.7298 115.514 63.6701 115.679 63.5876C116.465 63.8291 118.319 64.3341 119.424 64.0994Z" fill="#503F33"/>
<path opacity="0.25" d="M119.423 64.0995C119.394 64.2236 119.338 64.3295 119.231 64.402C119.231 64.402 119.018 64.4677 118.613 64.4798C118.652 63.9888 118.579 63.5582 118.489 63.2839C118.499 63.29 118.506 63.2926 118.516 63.296L119.361 63.3624C119.361 63.3624 119.499 63.7742 119.423 64.0995Z" fill="#503F33"/>
<path d="M11.0264 54.6327C11.0707 54.8251 11.1183 55.015 11.1652 55.2021C10.9305 55.5092 9.98303 56.75 9.30579 57.8292C8.52461 59.0706 7.8487 61.3073 7.8487 61.3073L7.55701 60.8439L7.1748 60.2423C7.1748 60.2423 7.28142 55.8406 7.63547 53.0002C7.99085 50.1619 9.69537 47.7467 9.69537 47.7467C9.69537 47.7467 9.69537 46.5757 9.51835 44.6924C9.40972 43.5469 9.26287 41.1056 9.16296 39.3759C9.1006 38.2826 9.05769 37.4765 9.05568 37.4543C9.45867 38.2364 10.1567 38.8011 10.1567 38.8011L12.0731 48.7755C12.0731 48.7755 10.1212 50.6937 11.0264 54.6327Z" fill="url(#paint22_linear_2570_8389)"/>
<path opacity="0.3" d="M11.0273 54.6327C11.0715 54.8251 11.1191 55.015 11.1661 55.2021C10.9314 55.5092 9.98367 56.75 9.30628 57.8292C8.52493 59.0706 7.84888 61.3073 7.84888 61.3073L7.55713 60.8439C7.6584 60.2289 7.80394 59.4495 7.99106 58.7171C8.3814 57.19 9.58864 54.8828 9.58864 54.8828C9.58864 54.8828 9.62486 53.3557 9.80192 51.9003C9.97831 50.4435 10.7965 47.7105 10.7965 47.7105L9.80192 41.1445C9.80192 41.1445 9.43304 40.1391 9.16275 39.3759C9.10038 38.2826 9.05746 37.4765 9.05544 37.4543C9.45853 38.2364 10.1567 38.8011 10.1567 38.8011L12.0735 48.7755C12.0749 48.7749 10.1218 50.6937 11.0273 54.6327Z" fill="url(#paint23_linear_2570_8389)"/>
<path d="M6 61.8621C6 61.8621 6.48491 62.2471 7.14218 62.5831C7.45405 62.7427 7.80415 62.8923 8.16095 62.9842C9.0865 63.2222 9.60159 63.178 9.75182 63.125C9.78066 63.1143 9.79676 63.1035 9.7981 63.0941C9.80749 63.0385 8.85176 62.2967 8.503 61.8842C8.2354 61.569 8.04492 61.2645 7.89067 60.9956C7.7297 60.7179 7.51374 60.4751 7.36284 60.3195C7.25217 60.2075 7.17504 60.1411 7.17504 60.1411L6.30248 61.4174L6 61.8621Z" fill="#592A11"/>
<path d="M6 61.8622C6 61.8622 7.05365 62.6979 8.16162 62.9843C9.08717 63.2224 9.60226 63.1781 9.7525 63.1251C9.12674 63.0715 8.24144 62.8072 7.37625 62.3035C6.81757 61.9776 6.48692 61.6489 6.30315 61.4182L6 61.8622Z" fill="#AB9281"/>
<path opacity="0.3" d="M6 61.8621C6 61.8621 6.48491 62.2471 7.14218 62.5831C7.13749 62.3893 7.1348 62.1773 7.13145 61.9647C7.12541 61.3416 7.36284 60.6347 7.36284 60.3195C7.25217 60.2075 7.17504 60.1411 7.17504 60.1411L6.30248 61.4174L6 61.8621Z" fill="#592A11"/>
<path d="M28.6019 29.8769C28.6019 29.9426 28.5744 30.0258 28.4356 30.066C28.4296 30.0687 28.4249 30.0707 28.4189 30.0707C28.2036 30.117 28.0199 29.9111 27.9817 29.8641C27.9951 29.8849 28.0226 29.9339 28.0481 29.9875V29.9896C28.0863 30.0774 28.1071 30.1726 28.0092 30.1726C27.9703 30.1726 27.928 30.1659 27.8798 30.1559C27.7007 30.1197 27.4774 30.0291 27.4774 30.0291C27.4774 30.0291 27.4774 30.0291 27.4084 30.0291H27.1214C26.768 30.0291 25.8802 29.4973 25.8802 29.4973L25.5966 29.6743C25.5966 29.6743 24.106 29.96 22.3297 29.8534C20.5561 29.7468 17.6446 28.6462 17.4683 28.4691C17.4683 28.4691 17.5541 27.9621 17.6728 27.5201C17.7097 27.3873 17.7479 27.2619 17.7881 27.1552C17.9645 26.6931 18.7463 26.054 18.7463 26.054C18.7463 26.054 20.947 27.1552 22.1902 27.6173C23.4314 28.0774 25.3478 28.4691 25.3478 28.4691C25.3478 28.4691 25.9868 27.8648 26.5192 27.7937C27.0523 27.724 27.8677 28.6099 28.2942 29.072C28.5537 29.3544 28.6019 29.5563 28.5999 29.6703C28.5999 29.7448 28.5791 29.7816 28.5791 29.7816C28.5791 29.7816 28.5999 29.8246 28.6019 29.8769Z" fill="url(#paint24_linear_2570_8389)"/>
<path opacity="0.3" d="M27.1606 30.0298H27.1224C26.769 30.0298 25.8812 29.4979 25.8812 29.4979L25.5976 29.675C25.5976 29.675 24.1069 29.9607 22.3307 29.8541C20.5571 29.7474 17.6456 28.6468 17.4692 28.4698C17.4692 28.4698 17.5551 27.9627 17.6738 27.5208C18.1109 27.9124 19.8376 28.9044 21.7285 29.18C23.7529 29.4745 25.6431 29.392 25.6431 29.392L25.9355 29.2048C25.9342 29.2042 26.7006 29.8179 27.1606 30.0298Z" fill="#DD7553"/>
<path opacity="0.3" d="M27.8806 30.1564C27.7015 30.1202 27.4782 30.0297 27.4782 30.0297C27.4782 30.0297 27.4782 30.0297 27.4091 30.0297C26.9899 29.6849 26.6787 29.1665 26.6787 29.1665L26.8792 29.3382C27.1858 29.7004 27.6908 30.0344 27.8806 30.1564Z" fill="#DD7553"/>
<path opacity="0.3" d="M27.9826 29.8648C27.996 29.8856 28.0235 29.9345 28.049 29.9882C28.0403 29.9815 28.0316 29.9734 28.0235 29.9647C27.6996 29.6388 27.4796 29.2913 27.4541 29.2498C27.6868 29.5153 28.1992 29.9097 28.4192 30.072C28.2039 30.1176 28.0208 29.911 27.9826 29.8648Z" fill="#DD7553"/>
<path opacity="0.3" d="M28.602 29.8769C28.4109 29.6911 27.7355 29.0325 27.6651 28.9245C27.6047 28.8373 28.2486 29.3739 28.6 29.6696C28.6 29.7441 28.5792 29.781 28.5792 29.781C28.5792 29.781 28.6 29.8246 28.602 29.8769Z" fill="#DD7553"/>
<path d="M16.6997 15.6268C16.6997 15.6268 16.8647 15.7871 17.1303 15.9796C17.3684 16.1533 17.6849 16.3552 18.0344 16.494C18.7762 16.7918 19.6031 16.834 19.6031 16.834C19.6031 16.834 19.6031 16.834 19.9834 16.8555C20.365 16.8756 20.6185 16.6214 20.6185 16.6214C20.4918 16.5369 20.0666 15.881 19.9197 15.3082C19.7976 14.8408 19.8332 13.9474 19.8835 13.4283C19.8969 13.3129 19.9083 13.2157 19.9197 13.1479C19.9197 13.1479 18.3731 13.1694 17.589 14.1231C16.8057 15.0769 16.6997 15.6268 16.6997 15.6268Z" fill="url(#paint25_linear_2570_8389)"/>
<path opacity="0.3" d="M16.6997 15.6269C16.6997 15.6269 16.8647 15.7872 17.1303 15.9796C17.298 15.5819 17.4046 14.9756 17.4046 14.9756C17.4046 14.9756 17.7386 14.3405 18.3583 13.8791C18.8982 13.4766 19.4978 13.425 19.8835 13.429C19.8969 13.3137 19.9083 13.2164 19.9197 13.1487C19.9197 13.1487 18.3731 13.1701 17.589 14.1239C16.8057 15.0769 16.6997 15.6269 16.6997 15.6269Z" fill="#DD7553"/>
<path d="M14.7122 16.8484C14.9281 16.682 15.2037 16.5211 15.5289 16.4379C15.5289 16.4379 15.5457 16.6123 15.6409 17.2635C15.6985 17.6552 16.0372 18.4225 16.0372 18.4225V18.4252C16.1699 18.5533 16.3148 18.6767 16.4677 18.7826C17.0939 19.2179 17.8765 19.2387 18.4893 18.7847C18.6228 18.6874 18.7468 18.566 18.8595 18.4218C18.893 18.3796 18.9259 18.3373 18.956 18.295C19.1948 17.9651 19.3483 17.6451 19.4462 17.3903C19.5723 17.057 19.6024 16.8336 19.6024 16.8336C19.6024 16.8336 18.7763 16.7914 18.034 16.4936C17.2931 16.1978 16.7003 15.6264 16.7003 15.6264C16.7003 15.6264 16.7044 15.6063 16.7164 15.5647C16.7661 15.3983 16.9578 14.892 17.5895 14.1234C18.3733 13.1703 19.9196 13.1482 19.9196 13.1482C19.9196 13.1482 20.4279 13.4024 21.0837 13.0422C21.372 12.8833 21.6858 12.6526 21.9125 12.4131C22.2048 12.108 22.357 11.7921 22.1438 11.6009C21.7817 11.2797 21.0944 11.8759 21.026 11.9725C21.0676 11.8726 21.4089 11.0402 21.191 10.8819C20.9563 10.7123 20.216 11.3689 20.216 11.3689C20.216 11.3689 19.9397 9.98054 17.3568 9.74848C15.5779 9.58885 14.4701 10.2481 13.8935 11.4232C13.6313 11.9524 13.4777 12.5875 13.4194 13.2971C13.2866 14.8692 14.155 16.1817 14.7122 16.8484Z" fill="url(#paint26_linear_2570_8389)"/>
<path opacity="0.4" d="M14.7126 16.8482C14.9285 16.6819 15.2041 16.5209 15.5293 16.4378C15.5293 16.4378 15.5461 16.6121 15.6413 17.2634C15.6989 17.6551 16.0376 18.4223 16.0376 18.4223V18.425C16.1703 18.5531 16.3152 18.6765 16.468 18.7825C17.0943 19.2178 17.8769 19.2386 18.4897 18.7845C18.19 18.759 17.7904 18.6879 17.3572 18.5068C16.4466 18.1259 16.1086 17.4693 16.1288 16.7275C16.1402 16.4096 16.399 15.9703 16.7168 15.5645C16.7664 15.3982 16.9582 14.8918 17.5899 14.1232C18.3737 13.1702 19.92 13.148 19.92 13.148C19.92 13.148 20.4283 13.4022 21.0841 13.0421C21.3724 12.8831 21.6862 12.6524 21.9128 12.413C21.4327 12.7242 20.8199 12.9877 20.3022 12.8301C19.6035 12.6182 18.5011 12.4908 17.9513 12.7664C17.4001 13.0421 17.2727 13.2332 17.2727 13.2332C17.2727 13.2332 16.7229 12.5344 16.7866 12.1729C16.8503 11.8134 16.7235 11.8134 16.7235 11.8134C16.7235 11.8134 16.4057 12.8938 16.1522 13.148C15.9202 13.3794 14.0313 12.6598 13.8952 11.4224C13.633 11.9515 13.4794 12.5867 13.4211 13.2963C13.287 14.869 14.1553 16.1816 14.7126 16.8482Z" fill="url(#paint27_linear_2570_8389)"/>
<path d="M19.5168 14.1025C19.6489 14.0469 19.5953 13.6887 19.0715 13.6787C18.6899 13.6699 18.3619 13.9644 18.4035 14.0381C18.4397 14.0998 18.7013 13.9751 18.9447 14.0066C19.1875 14.0381 19.3894 14.1548 19.5168 14.1025Z" fill="#48210D"/>
<path d="M14.1636 17.4062C14.1636 17.4062 14.3614 17.4277 14.6364 17.5786C14.8336 17.6866 15.0703 17.8623 15.3017 18.1467C15.4935 18.3827 15.674 18.6175 15.849 18.8931L15.9161 18.7248L16.0368 18.425V18.4223C16.0368 18.4223 15.6981 17.6544 15.6404 17.2634C15.5452 16.6121 15.5284 16.4377 15.5284 16.4377C15.2031 16.5209 14.9275 16.6819 14.7115 16.8482C14.3601 17.1192 14.1636 17.4062 14.1636 17.4062Z" fill="url(#paint28_linear_2570_8389)"/>
<path d="M18.7465 26.0542C18.7465 26.0542 18.7056 26.1092 18.6405 26.201C18.6191 26.2292 18.5956 26.2627 18.5681 26.299C18.5614 26.3104 18.5527 26.3204 18.5446 26.3332C18.4025 26.5263 18.208 26.7933 18.0397 27.0193C18.029 27.032 18.0209 27.0448 18.0102 27.0575C17.9955 27.079 17.98 27.0998 17.9653 27.1199C17.9546 27.1326 17.9438 27.1467 17.9358 27.1621C17.8526 27.2815 17.7802 27.4351 17.7205 27.5934C17.5569 28.0132 17.4691 28.4706 17.4691 28.4706C17.3202 28.3848 17.1539 28.248 16.9876 28.079C16.6302 27.7208 16.2655 27.2352 16.0395 26.8965C16.0381 26.9053 16.0355 26.9113 16.0314 26.9207C16.0194 26.9569 16.008 26.9992 15.9959 27.0428C15.9335 27.2446 15.8658 27.4935 15.8189 27.7201C15.8108 27.7664 15.8001 27.8114 15.7934 27.8563C15.7914 27.8623 15.7914 27.867 15.7914 27.8704C15.7887 27.8791 15.7874 27.8865 15.7874 27.8932C15.7062 28.3875 15.7491 28.6356 15.8323 28.7604C15.8363 28.7691 15.8531 28.9891 15.8665 29.3103C15.8712 29.3653 15.8725 29.427 15.8772 29.4894C15.8913 29.8744 15.9047 30.362 15.898 30.8053C15.898 30.8663 15.898 30.9274 15.8967 30.9851C15.8967 31.0219 15.894 31.0548 15.894 31.0897C15.8812 31.525 15.8457 31.8865 15.7686 32.0032C15.6103 32.248 15.4729 32.4458 15.3468 32.6095C14.9592 33.1252 14.7527 33.2728 14.7527 33.2728C14.7527 33.2728 14.7185 33.2801 14.6568 33.2936C14.5737 33.3103 14.4416 33.3338 14.2713 33.3546C13.9521 33.3935 13.4981 33.423 12.9744 33.3828C12.7035 33.3606 12.4159 33.3204 12.1188 33.2547C12.0035 33.2292 11.8861 33.2003 11.7668 33.1634C11.6669 33.1359 11.565 33.1011 11.4624 33.0655C11.4583 33.0642 11.4543 33.0642 11.4496 33.0622C11.3906 33.0407 11.333 33.0186 11.2773 32.9971C11.2753 32.9971 11.2753 32.9971 11.2739 32.9971C11.1693 32.9549 11.0694 32.9113 10.9715 32.869C10.9695 32.869 10.9668 32.869 10.9628 32.8677C10.7073 32.7577 10.4834 32.6356 10.2728 32.5129C9.33809 31.9609 8.83317 31.3405 8.73929 31.03C8.73795 31.0179 8.73326 31.0085 8.73125 30.9958C8.72253 30.9609 8.7165 30.918 8.70778 30.8663C8.70309 30.8341 8.69973 30.7973 8.69504 30.7563C8.63938 30.2527 8.6139 29.1916 8.77416 27.8871C8.78087 27.8368 8.7869 27.7879 8.79294 27.7383C8.80031 27.6953 8.80367 27.6531 8.81104 27.6115C8.89218 27.0273 9.01019 26.4009 9.18118 25.7577C9.19392 25.7135 9.20465 25.6685 9.21739 25.6236C9.22812 25.5874 9.23684 25.5491 9.24958 25.5122C9.36625 25.0951 9.50707 24.6712 9.67269 24.25C9.88391 23.7081 10.0945 23.191 10.3057 22.7027C10.3164 22.6752 10.3291 22.6477 10.3399 22.6189C10.3593 22.578 10.3781 22.5371 10.3935 22.4968C10.653 21.9006 10.9092 21.3466 11.1559 20.8416C11.1754 20.8013 11.1968 20.7604 11.2163 20.7202C11.2498 20.6558 11.282 20.5907 11.3142 20.5264C11.6689 19.8255 12.0095 19.2293 12.3287 18.7631C12.3287 18.7611 12.3287 18.7591 12.3307 18.7591C12.3549 18.7229 12.3797 18.6867 12.4051 18.6504C12.6224 18.3419 12.8269 18.0944 13.0167 17.9181C13.0422 17.8919 13.0676 17.8711 13.0931 17.8496C13.1273 17.8175 13.1615 17.79 13.1937 17.7625C13.2165 17.743 13.2359 17.7256 13.2574 17.7095C13.5404 17.4814 13.7456 17.3896 13.8877 17.36C14.0922 17.3191 14.1667 17.409 14.1667 17.409C14.1667 17.409 14.569 17.4533 15.0209 17.8517C15.0592 17.8859 15.0974 17.9221 15.1376 17.9623C15.153 17.9771 15.1678 17.9918 15.1805 18.0086C15.1953 18.024 15.21 18.0381 15.2228 18.0535C15.2503 18.0837 15.2764 18.1172 15.3059 18.1494C15.497 18.3855 15.6761 18.6203 15.8511 18.8952C15.9637 19.0703 16.0717 19.2588 16.181 19.4787C16.3003 19.7128 16.415 19.9797 16.5323 20.2903C16.5484 20.3352 16.5665 20.3822 16.586 20.4284C16.6852 20.6974 16.8026 21.0314 16.9239 21.3915C17.0285 21.7048 17.1345 22.0441 17.2324 22.3761C17.347 22.7624 17.5006 23.4734 17.7266 24.2151C17.7963 24.4512 17.8754 24.6913 17.9626 24.924C17.9988 25.0206 18.035 25.1139 18.0732 25.2051C18.1094 25.2923 18.2798 25.5062 18.4394 25.6967C18.5969 25.8858 18.7465 26.0542 18.7465 26.0542Z" fill="url(#paint29_linear_2570_8389)"/>
<g opacity="0.5">
<path d="M13.0781 21.2397C13.0781 21.2397 13.1848 22.1928 13.3323 22.4892C13.3323 22.4892 14.4336 22.4047 14.8367 22.0231C15.1479 21.7267 16.1499 20.8185 16.5825 20.4269C16.565 20.3786 16.5462 20.3316 16.5302 20.2874C16.4121 19.9775 16.2961 19.7099 16.1787 19.4758C15.6395 19.9976 14.3068 21.3672 13.0781 21.2397Z" fill="url(#paint30_linear_2570_8389)"/>
<path d="M13.9888 24.0152C13.9888 24.0152 14.7668 24.8757 14.7969 24.8576C14.9492 24.7664 15.479 24.4102 16.2772 23.5061C16.7393 22.9823 17.0431 22.6135 17.2315 22.3727C17.1336 22.0387 17.027 21.702 16.9224 21.3875C16.414 22.1547 16.1336 22.3801 15.5159 23.0186C14.8566 23.6973 14.2436 23.9294 13.9888 24.0152Z" fill="url(#paint31_linear_2570_8389)"/>
<path d="M14.269 33.3525C14.4393 33.3331 14.5721 33.3096 14.6553 33.2922C14.717 33.2794 14.7518 33.2714 14.7518 33.2714C14.7518 33.2714 14.9584 33.1245 15.3461 32.6087C15.3461 32.6074 15.3461 32.6074 15.3461 32.6074C15.3032 32.2432 15.2508 31.7597 15.2381 31.4491C15.2173 30.8998 15.1737 29.7966 15.2381 28.5041C15.3018 27.2137 15.3649 26.2386 15.4292 25.7516C15.4292 25.7516 15.2173 25.4981 15.0054 25.1588C14.9302 25.0394 14.8585 24.9374 14.7961 24.8576C14.6828 24.7087 14.603 24.6289 14.603 24.6289C14.603 24.6289 14.6003 24.6376 14.5942 24.6685C14.5768 24.7677 14.5265 25.0977 14.4118 26.0903C14.2643 27.3834 14.1576 29.0353 14.1368 30.3915C14.1187 31.4793 14.2247 32.8542 14.269 33.3525Z" fill="url(#paint32_linear_2570_8389)"/>
<path d="M12.1181 33.2533C12.4152 33.321 12.7036 33.3592 12.9732 33.3814C12.9403 33.1795 12.9001 32.8958 12.8874 32.6979C12.8672 32.3599 12.8035 30.8126 12.8458 29.755C12.8874 28.6953 13.0772 27.3398 13.3327 26.1527C13.5862 24.9676 13.7774 24.0561 13.8625 23.5484C13.8625 23.5484 13.6935 23.2305 13.3756 22.5954C13.0584 21.9596 13.0584 21.4089 13.0584 21.4089C12.8672 21.9394 12.4226 23.5484 12.4018 24.0561C12.3797 24.5645 11.7881 27.8489 11.7029 30.3472C11.6493 31.8797 11.9095 32.7851 12.1181 33.2533Z" fill="url(#paint33_linear_2570_8389)"/>
<path d="M8.73712 31.0272C8.831 31.3377 9.33592 31.9574 10.2707 32.5094C10.2988 32.1761 10.331 31.6315 10.3042 31.109C10.2626 30.2841 10.2405 29.0346 10.2827 28.272C10.3256 27.5101 10.4725 26.6838 10.7709 25.4343C11.0666 24.1835 11.8712 22.0232 12.401 20.5202C12.8536 19.2352 13.4758 17.8723 13.8842 17.3579C13.7052 17.3941 13.4289 17.5309 13.0145 17.9146C12.1247 18.7409 10.8969 21.1138 9.66917 24.2479C8.44074 27.3833 8.61039 30.602 8.73712 31.0272Z" fill="url(#paint34_linear_2570_8389)"/>
</g>
<g opacity="0.4">
<path d="M18.6414 26.2013C18.62 26.2295 18.5965 26.263 18.569 26.2992C17.0372 24.9042 16.4282 23.3428 15.9218 22.0457C15.2826 20.4099 15.117 18.9552 15.0908 18.0243C15.0908 17.9961 15.1056 17.9747 15.1264 17.9646C15.1431 17.9773 15.1606 17.9921 15.178 18.0069C15.1861 18.0136 15.1968 18.0223 15.2075 18.031C15.2089 18.035 15.2162 18.0397 15.2182 18.0431C15.2182 18.0458 15.2183 18.0471 15.2203 18.0518C15.2478 18.9733 15.4141 20.3992 16.0398 22.0008C16.6616 23.6004 17.2793 24.9679 18.6414 26.2013Z" fill="url(#paint35_linear_2570_8389)"/>
<path d="M18.0096 27.0576C17.9949 27.079 17.9794 27.0998 17.9647 27.1199C17.954 27.1327 17.9432 27.1468 17.9352 27.1622C17.2224 26.5767 16.3058 25.6545 15.6694 24.4037C14.5489 22.2031 14.0098 19.9858 13.8864 18.7404C13.7631 18.672 13.3286 18.3997 13.0898 17.8477C13.124 17.8155 13.1582 17.788 13.1904 17.7605C13.4459 18.3762 13.9703 18.6378 13.9756 18.6418C13.9951 18.6505 14.0078 18.6713 14.0098 18.6928C14.1245 19.9221 14.6596 22.1421 15.7814 24.346C16.4063 25.5753 17.3069 26.4801 18.0096 27.0576Z" fill="url(#paint36_linear_2570_8389)"/>
<path d="M13.2502 19.8409C13.0946 19.6605 12.6472 19.14 12.3267 18.7564C12.3515 18.7195 12.377 18.684 12.4018 18.6484C12.662 18.9596 13.0295 19.3889 13.2971 19.7007C13.2777 19.7464 13.2636 19.7933 13.2502 19.8409Z" fill="url(#paint37_linear_2570_8389)"/>
<path d="M11.213 20.7183C11.8716 21.4366 12.8448 22.1462 13.2371 22.4225C13.2646 22.4889 13.2975 22.5539 13.3304 22.6183C13.3344 22.6284 13.3398 22.6391 13.3445 22.6498C13.3431 22.6498 13.3418 22.6498 13.3404 22.6492C13.3263 22.6391 12.0044 21.7538 11.1533 20.8397C11.1721 20.7981 11.1922 20.7572 11.213 20.7183Z" fill="url(#paint38_linear_2570_8389)"/>
<path d="M10.3907 22.4929C10.6851 22.782 11.3684 23.395 12.4325 24.002C13.4719 24.5962 14.5012 25.006 15.0114 25.1931C15.043 25.2541 15.0785 25.3132 15.1187 25.3668C14.6815 25.2126 13.5329 24.7766 12.3688 24.1113C11.3355 23.5211 10.6543 22.9235 10.3364 22.617C10.3559 22.5754 10.3733 22.5345 10.3907 22.4929Z" fill="url(#paint39_linear_2570_8389)"/>
<path d="M9.17871 25.7565C9.6662 25.6888 10.7652 25.6304 12.5569 26.0254C14.0502 26.3547 15.4295 26.839 15.9954 27.0395C16.0075 26.9966 16.0189 26.9557 16.0323 26.9188C15.4604 26.7142 14.0784 26.2313 12.5837 25.9C10.8477 25.5184 9.76275 25.5499 9.21425 25.621C9.20218 25.666 9.19078 25.7109 9.17871 25.7565Z" fill="url(#paint40_linear_2570_8389)"/>
<path d="M8.78955 27.7357C9.45406 27.8041 10.9829 27.9497 12.2925 27.998C12.674 28.0114 13.0441 28.0181 13.3942 28.0181C14.4375 28.0181 15.3086 27.9584 15.7914 27.8538C15.7994 27.8095 15.8081 27.7646 15.8182 27.7176C15.2234 27.8652 13.8588 27.9275 12.2978 27.8698C10.993 27.8229 9.47015 27.6787 8.80766 27.6096C8.80162 27.6519 8.79626 27.6941 8.78955 27.7357Z" fill="url(#paint41_linear_2570_8389)"/>
<path d="M15.8759 29.4875C15.3542 30.0335 14.4355 30.6928 12.7914 30.9188C11.98 31.0308 11.1754 31.0657 10.4726 31.0657C9.75045 31.0657 9.13557 31.0281 8.72855 30.9946C8.71983 30.9597 8.7138 30.9168 8.70508 30.8651C9.49297 30.9329 11.1184 31.0201 12.7726 30.7947C14.4724 30.562 15.377 29.8571 15.8651 29.3098C15.8698 29.3641 15.8712 29.4258 15.8759 29.4875Z" fill="url(#paint42_linear_2570_8389)"/>
<path d="M15.8969 30.8035C15.8969 30.8645 15.8969 30.9255 15.8955 30.9832C15.5247 31.3581 15.0714 31.731 14.5491 32.0147C13.4185 32.6264 12.5113 32.9792 11.2755 32.9959C11.2735 32.9959 11.2735 32.9959 11.2721 32.9959C11.1675 32.9537 11.0676 32.9101 10.9697 32.8678C12.339 32.9101 13.263 32.566 14.4894 31.9034C15.0473 31.6002 15.52 31.1965 15.8969 30.8035Z" fill="url(#paint43_linear_2570_8389)"/>
</g>
<path opacity="0.5" d="M17.9612 24.9206C17.6996 25.2064 17.1711 25.7624 16.6426 26.197C15.8975 26.8106 15.5272 27.0742 15.5272 27.0742L15.314 25.93C15.314 25.93 16.379 25.4512 17.0182 24.9441C17.3529 24.6799 17.5849 24.4103 17.7258 24.2124C17.7948 24.4478 17.874 24.6886 17.9612 24.9206Z" fill="url(#paint44_linear_2570_8389)"/>
<path opacity="0.3" d="M14.1636 17.4062C14.1636 17.4062 14.3614 17.4277 14.6364 17.5786C14.896 17.5746 15.4721 17.5652 15.5459 17.5652C15.6317 17.5652 15.7041 18.3801 15.9161 18.7248L16.0368 18.425V18.4223C16.0368 18.4223 15.6981 17.6544 15.6404 17.2634C15.5452 16.6121 15.5284 16.4377 15.5284 16.4377C15.2031 16.5209 14.9275 16.6819 14.7115 16.8482C14.3601 17.1192 14.1636 17.4062 14.1636 17.4062Z" fill="#DD7553"/>
<path opacity="0.3" d="M19.6018 16.8348C19.6018 16.8348 19.6018 16.8348 19.9821 16.8563C20.3637 16.8764 20.6172 16.6222 20.6172 16.6222C20.5327 16.5954 20.3416 16.5799 19.9613 16.6282C19.5797 16.6758 19.6018 16.8348 19.6018 16.8348Z" fill="#DD7553"/>
<path d="M15.9164 18.9945C15.9164 18.9945 15.6944 18.0522 15.2283 17.566C14.7628 17.0784 14.3812 17.0146 14.3812 17.0146C14.3812 17.0146 14.074 17.2581 14.0425 17.3755L14.1645 17.407C14.1645 17.407 14.5931 17.5237 14.8996 17.7987C15.2068 18.073 15.9164 18.9945 15.9164 18.9945Z" fill="#9D0012"/>
<path opacity="0.3" d="M8.69155 30.7535C9.20653 30.7737 11.5293 30.8508 12.973 30.6456C14.314 30.4537 15.5572 29.2995 15.9529 28.8977C15.8938 28.8347 15.8489 28.7864 15.8315 28.7589C15.7477 28.6348 15.7054 28.386 15.7859 27.8924C15.3869 28.0151 14.3824 28.209 12.2528 28.209C9.98369 28.209 9.04828 27.9756 8.77068 27.885C8.61042 29.1882 8.63724 30.2498 8.69155 30.7535Z" fill="#C93238"/>
<path opacity="0.3" d="M9.24561 25.5108C9.62178 25.4887 10.9267 25.4404 12.1242 25.7086C13.5438 26.0266 16.0315 26.9186 16.0315 26.9186L16.0442 26.9018C16.0442 26.9018 15.4495 25.879 15.0907 25.4337C15.0907 25.4337 12.0431 24.5987 10.301 22.7C10.0918 23.1889 9.88061 23.706 9.66872 24.2472C9.50444 24.6691 9.36295 25.0916 9.24561 25.5108Z" fill="#C93238"/>
<path opacity="0.5" d="M11.3105 20.5251C12.1375 21.7048 13.1844 22.173 13.1844 22.173C13.1844 22.173 13.0771 21.3467 13.0577 20.8604C13.0349 20.3715 13.2113 19.9798 13.2113 19.9798C13.2113 19.9798 13.3327 19.9905 13.2046 19.906C13.0952 19.8323 12.5346 19.0905 12.324 18.7605C12.0067 19.2273 11.6647 19.8229 11.3105 20.5251Z" fill="url(#paint45_linear_2570_8389)"/>
<path opacity="0.5" d="M13.2534 17.7068C13.4633 18.2983 14.0314 18.5284 14.0314 18.5284C14.24 18.2326 14.7926 17.9516 15.018 17.8483C14.5653 17.4492 14.1642 17.4063 14.1642 17.4063C14.1642 17.4063 14.0898 17.3158 13.8845 17.3574C13.743 17.3855 13.5378 17.4794 13.2534 17.7068Z" fill="url(#paint46_linear_2570_8389)"/>
<path opacity="0.5" d="M18.5447 26.3332C18.4025 26.5264 18.208 26.7933 18.0396 27.0193C17.5923 26.6652 17.0598 26.1709 16.6144 25.5619C15.6419 24.2273 14.6258 21.5365 14.3482 20.3715C14.0739 19.2078 14.0356 18.5988 14.0356 18.5988C14.0356 18.5988 14.3703 18.2327 14.6869 18.0838C15.0048 17.9369 15.1255 17.9651 15.1255 17.9651C15.0685 18.4017 15.047 19.6948 15.7452 21.6223C16.3374 23.2528 17.0048 25.0509 18.5447 26.3332Z" fill="url(#paint47_linear_2570_8389)"/>
<path opacity="0.3" d="M15.8925 31.0876C15.8798 31.5229 15.8442 31.8844 15.7671 32.0011C15.6088 32.2459 15.4713 32.4438 15.3453 32.6074C14.9576 33.1232 14.751 33.2707 14.751 33.2707C14.751 33.2707 14.7168 33.2781 14.6551 33.2915C14.5719 33.3083 14.4398 33.3318 14.2695 33.3526C13.9502 33.3915 13.4962 33.421 12.9724 33.3807C12.7014 33.3586 12.4137 33.3183 12.1166 33.2526C11.9006 33.2057 11.682 33.142 11.46 33.0635C12.4486 32.9508 13.865 32.531 14.6256 32.0856C15.0837 31.816 15.5203 31.4559 15.8925 31.0876Z" fill="url(#paint48_linear_2570_8389)"/>
<path d="M13.437 63.6373C13.437 63.6373 14.0125 63.8446 14.7355 63.9532C15.0789 64.0049 15.4544 64.0351 15.818 64.0096C16.7609 63.9412 17.2304 63.7373 17.3538 63.64C17.3786 63.6206 17.39 63.6058 17.3887 63.5971C17.3793 63.5421 16.2499 63.1464 15.7925 62.8694C15.4417 62.6581 15.1681 62.4321 14.9387 62.2289C14.6999 62.019 14.4202 61.8587 14.2298 61.7614C14.0916 61.691 13.9984 61.6521 13.9984 61.6521L13.5826 63.1249L13.437 63.6373Z" fill="#592A11"/>
<path d="M13.437 63.6374C13.437 63.6374 14.6892 64.0881 15.818 64.0096C16.7609 63.9412 17.2304 63.7373 17.3538 63.6401C16.7509 63.7876 15.8367 63.8178 14.8669 63.6173C14.2405 63.4878 13.828 63.2826 13.5826 63.125L13.437 63.6374Z" fill="#AB9281"/>
<path opacity="0.3" d="M13.437 63.6373C13.437 63.6373 14.0125 63.8446 14.7355 63.9532C14.6697 63.7721 14.6 63.575 14.5316 63.3771C14.3304 62.7949 14.3304 62.0565 14.2298 61.7614C14.0916 61.691 13.9984 61.6521 13.9984 61.6521L13.5826 63.1249L13.437 63.6373Z" fill="#592A11"/>
<path d="M18.1504 17.2258C18.1504 17.2258 18.3858 17.9676 18.9559 18.2963C19.1947 17.9663 19.3482 17.6463 19.4462 17.3915C19.2537 17.4103 18.6346 17.4472 18.1504 17.2258Z" fill="white"/>
<path d="M18.3516 14.9181C18.3516 14.9181 18.5206 15.1609 18.817 15.2138C18.8754 15.2246 18.9216 15.2306 18.9585 15.234C19.1135 15.248 19.1135 15.2138 19.1135 15.2138C19.1135 15.2138 19.3898 14.9912 19.367 14.5787C19.3643 14.4915 19.2516 14.4694 19.1161 14.4902C18.9968 14.5063 18.8579 14.5559 18.754 14.6203C18.5313 14.7591 18.3516 14.9181 18.3516 14.9181Z" fill="white"/>
<path d="M18.9586 15.234C19.1136 15.248 19.1136 15.2138 19.1136 15.2138C19.1136 15.2138 19.3899 14.9912 19.3671 14.5787C19.3644 14.4915 19.2517 14.4694 19.1163 14.4902C18.9875 14.5344 18.8795 14.6619 18.848 14.8282C18.8158 14.9892 18.8627 15.1427 18.9586 15.234Z" fill="#52280D"/>
<path d="M19.4126 14.5544C19.3764 14.4693 19.1504 14.3874 18.8808 14.4518C18.6105 14.5149 18.2617 14.9602 18.2617 14.9602C18.2617 14.9602 18.3576 14.9756 18.3972 14.9676C18.4368 14.9602 18.6749 14.6986 18.9136 14.6108C19.151 14.5229 19.369 14.6792 19.369 14.6792C19.369 14.6792 19.4374 14.6108 19.4126 14.5544Z" fill="#8A4511"/>
<path opacity="0.4" d="M19.3685 14.6786C19.3256 14.6632 19.0868 14.568 18.8434 14.7323C18.5999 14.8966 18.441 14.9657 18.3726 14.9657C18.3726 14.9657 18.5362 14.69 18.8494 14.5465C19.1613 14.4037 19.3685 14.6786 19.3685 14.6786Z" fill="#8C8580"/>
<path opacity="0.5" d="M17.7199 27.5921C17.5562 28.0119 17.4684 28.4693 17.4684 28.4693C17.0017 28.2057 16.3701 27.3935 16.0388 26.8952C16.0375 26.9039 16.0348 26.91 16.0308 26.9194C16.0187 26.9556 16.0073 26.9978 15.9952 27.0414C15.9329 27.2433 15.8651 27.4921 15.8182 27.7188C15.8102 27.7651 15.7994 27.81 15.7927 27.855C15.7907 27.861 15.7907 27.8657 15.7907 27.8691C15.788 27.8778 15.7867 27.8852 15.7867 27.8919C15.7055 28.3862 15.7485 28.6343 15.8316 28.7591C15.8356 28.7678 15.8524 28.9878 15.8658 29.309C15.8705 29.364 15.8718 29.4257 15.8765 29.4881C15.8906 29.8731 15.904 30.3607 15.8973 30.804C15.8973 30.865 15.8973 30.926 15.896 30.9837C15.896 31.0206 15.8933 31.0535 15.8933 31.0884C15.8806 31.5236 15.845 31.8851 15.7679 32.0018C15.6097 32.2466 15.4722 32.4445 15.3461 32.6081C14.9586 33.1239 14.752 33.2714 14.752 33.2714C14.752 33.2714 14.7178 33.2788 14.6561 33.2922C14.573 33.309 14.4409 33.3325 14.2706 33.3533C13.9514 33.3922 13.4975 33.4217 12.9738 33.3814C12.7029 33.3593 12.4152 33.3191 12.1181 33.2533C12.0028 33.2278 11.8855 33.199 11.7661 33.1621C11.8198 32.5652 11.8989 31.8281 12.0035 31.2386C12.216 30.03 12.5359 29.2151 13.0676 27.085C13.5994 24.9549 13.7073 23.9965 13.7073 23.9965L13.4934 23.1447C12.892 21.5472 13.2111 20.126 13.2111 20.126L13.3875 20.9777C13.3875 20.9777 14.7715 24.1025 15.6231 25.3084C16.4747 26.5163 17.5395 27.4043 17.6736 27.5203L17.7199 27.5921Z" fill="#B80E1B"/>
<path d="M16.0304 26.9185L16.0244 27.3538L15.9714 30.6428L15.9547 31.6931C15.9547 31.6931 15.9225 32.4027 15.8756 33.4953C15.8648 33.7414 15.8541 34.0097 15.8434 34.29C15.7287 37.1364 15.5705 41.5884 15.6047 43.7702C15.6576 47.1243 14.859 62.2483 14.859 62.2483L13.9008 62.0887C13.9008 62.0887 12.1178 58.9063 11.1643 55.2014C11.1181 55.0149 11.0704 54.8251 11.0255 54.632C10.1203 50.693 11.7712 48.7225 11.7712 48.7225L9.90773 38.7105C9.90773 38.7105 9.45847 38.2357 9.05547 37.4537C8.83821 37.0305 8.63638 36.5194 8.52373 35.9413C8.33195 34.9567 8.44259 33.3846 8.56195 32.2773C8.62565 31.6972 8.68935 31.2471 8.71551 31.0721C8.72422 31.0211 8.72825 30.9936 8.72825 30.9936C8.76647 31.0647 8.8134 31.1398 8.86906 31.2122C9.262 31.7334 10.072 32.2438 10.7828 32.6227C10.7895 32.6247 10.7942 32.6281 10.7982 32.6321C11.462 32.9842 12.0394 33.2223 12.1091 33.2518C12.1118 33.2518 12.1138 33.2531 12.1165 33.2531L12.7294 30.2444C12.7294 30.2444 13.1022 29.6053 13.581 28.5932C13.8029 28.1304 14.0242 27.2552 14.2005 26.4463C14.4071 25.4913 14.5526 24.6248 14.5526 24.6248L14.9375 25.2257C14.9375 25.2257 15.1205 25.4618 15.3693 25.8474C15.3995 25.8903 15.4276 25.9366 15.4571 25.9842C15.7917 26.5134 16.0304 26.9185 16.0304 26.9185Z" fill="url(#paint49_linear_2570_8389)"/>
<path d="M8.78998 31.2022C8.68336 30.936 8.49695 28.9655 9.00321 26.5691C9.5088 24.1727 11.3722 20.205 12.1185 19.0876C12.8628 17.9689 14.3005 17.213 15.1259 17.9642C15.1259 17.9642 15.7837 18.7764 15.9608 19.0608C15.9608 19.0608 15.4277 18.2794 15.2688 18.0313C15.1092 17.7824 14.6116 17.5075 14.4078 17.4458C14.2039 17.3834 13.6494 17.3572 12.598 18.2486C11.5459 19.1406 10.7211 21.2043 9.93593 23.054C9.15006 24.9045 8.74773 26.8072 8.55126 27.9138C8.19185 29.9373 8.69811 31.4417 8.69811 31.4417L8.78998 31.2022Z" fill="url(#paint50_linear_2570_8389)"/>
<path opacity="0.7" d="M16.0309 26.9187L15.9719 30.6437L14.9658 30.2688C14.9658 30.2688 15.045 29.8174 15.1523 28.9395C15.2415 28.2057 15.3287 26.4546 15.3709 25.8469C15.4011 25.8898 15.4293 25.9361 15.4588 25.9837C15.7921 26.5136 16.0309 26.9187 16.0309 26.9187Z" fill="url(#paint51_linear_2570_8389)"/>
<path opacity="0.3" d="M16.0308 26.9186L16.0248 27.3539L15.0194 26.4451C15.0194 26.4451 14.6297 26.3942 14.2012 26.4451C14.4077 25.4901 14.5533 24.6235 14.5533 24.6235L14.9383 25.2245C14.9383 25.2245 15.1214 25.4606 15.3702 25.8462C15.4004 25.8891 15.4285 25.9354 15.458 25.983C15.792 26.5135 16.0308 26.9186 16.0308 26.9186Z" fill="url(#paint52_linear_2570_8389)"/>
<path opacity="0.3" d="M13.7427 34.2559C13.565 34.6107 12.8909 35.8535 11.7897 35.7824C10.6891 35.712 9.62402 33.0125 9.62402 33.0125C9.62402 33.0125 10.2538 33.6617 11.6381 33.9447C13.0237 34.2284 13.7427 34.2559 13.7427 34.2559Z" fill="url(#paint53_linear_2570_8389)"/>
<g opacity="0.3">
<path d="M12.4116 37.1467C12.3753 37.1467 12.3452 37.1172 12.3425 37.0824C12.2835 35.9456 12.2835 35.7504 12.2888 35.7028C12.2928 35.6652 12.3237 35.6344 12.3639 35.6424C12.4015 35.6471 12.429 35.6806 12.4243 35.7175C12.4169 35.7846 12.4357 36.24 12.48 37.0743C12.4813 37.1119 12.4525 37.1447 12.4142 37.1461C12.4142 37.1461 12.4129 37.1467 12.4116 37.1467Z" fill="url(#paint54_linear_2570_8389)"/>
<path d="M13.4537 58.3223C13.4208 58.3223 13.3927 58.2995 13.3853 58.2666C13.1948 57.2546 13.0479 56.3713 12.948 55.6422C12.9433 55.604 12.9695 55.5705 13.007 55.5651C13.0466 55.5584 13.0788 55.5866 13.0841 55.6248C13.1834 56.3505 13.3296 57.2311 13.5201 58.2405C13.5275 58.2787 13.5026 58.3143 13.4658 58.3216C13.4611 58.3216 13.457 58.3223 13.4537 58.3223ZM12.887 53.05H12.8856C12.8474 53.0494 12.8172 53.0172 12.8179 52.9796C12.8481 51.9032 12.9574 50.9414 13.0426 50.3244C13.0473 50.2861 13.0801 50.26 13.1197 50.2654C13.1566 50.2714 13.1827 50.3056 13.178 50.3425C13.0929 50.9562 12.9842 51.9132 12.9547 52.983C12.9547 53.0199 12.9238 53.05 12.887 53.05ZM13.0379 47.7597C13.0023 47.7597 12.9721 47.7322 12.9695 47.6953C12.946 47.3365 12.9192 46.9193 12.8923 46.4357C12.8722 46.0709 12.844 45.5927 12.8112 45.0434C12.8092 45.0045 12.838 44.9723 12.8756 44.9696C12.9104 44.9689 12.9453 44.9964 12.948 45.0347C12.9802 45.586 13.009 46.0635 13.0291 46.429C13.0566 46.9112 13.0821 47.3284 13.1063 47.6879C13.109 47.7248 13.0801 47.757 13.0426 47.7597C13.0405 47.7597 13.0392 47.7597 13.0379 47.7597ZM12.72 42.4525C12.6844 42.4525 12.6542 42.4243 12.6522 42.3881C12.5986 41.5048 12.5436 40.592 12.4933 39.7349C12.4913 39.6967 12.5201 39.6645 12.5576 39.6625C12.5959 39.6604 12.6281 39.6886 12.6301 39.7275C12.6804 40.5833 12.7347 41.4981 12.7884 42.3807C12.7904 42.4183 12.7622 42.4512 12.724 42.4525C12.7226 42.4525 12.7213 42.4525 12.72 42.4525Z" fill="url(#paint55_linear_2570_8389)"/>
<path d="M14.2737 62.2641C14.2429 62.2641 14.2147 62.2427 14.2073 62.2111C14.2073 62.2111 14.0846 61.6806 13.9122 60.8738C13.9042 60.8362 13.9276 60.8014 13.9652 60.792C14.0014 60.7853 14.0383 60.8074 14.0464 60.8443C14.2187 61.6498 14.3408 62.1796 14.3408 62.1796C14.3495 62.2165 14.3267 62.2527 14.2898 62.2621C14.2838 62.2635 14.2791 62.2641 14.2737 62.2641Z" fill="url(#paint56_linear_2570_8389)"/>
</g>
<path d="M15.8756 33.496C15.8649 33.7421 15.8542 34.0104 15.8434 34.2907C15.2594 34.3571 14.0477 34.4014 12.1078 34.0419C10.3128 33.7106 9.16885 32.8662 8.56201 32.278C8.62571 31.6978 8.68941 31.2478 8.71557 31.0728C8.76452 31.1163 8.81347 31.164 8.86912 31.2129C9.3566 31.6428 10.0721 32.1908 10.7828 32.6234C10.7896 32.6254 10.7942 32.6288 10.7983 32.6328C11.2603 32.9084 11.7176 33.1391 12.1092 33.2525C12.1119 33.2525 12.1139 33.2538 12.1166 33.2538C13.1411 33.5489 14.9939 33.5288 15.8756 33.496Z" fill="#071E2B"/>
<path d="M14.54 33.3584L14.5669 34.5837L14.9129 34.5576L14.8861 33.3584H14.54Z" fill="url(#paint57_linear_2570_8389)"/>
<path d="M9.93556 32.0017L9.53516 33.1996L9.77526 33.4115L10.228 32.2136L9.93556 32.0017Z" fill="url(#paint58_linear_2570_8389)"/>
<path opacity="0.5" d="M18.7465 26.0541C18.7465 26.0541 18.7056 26.1091 18.6405 26.201C18.6191 26.2292 18.5956 26.2627 18.5681 26.2989C18.5614 26.3103 18.5527 26.3204 18.5446 26.3331C18.4025 26.5263 18.208 26.7932 18.0396 27.0192C18.0289 27.032 18.0208 27.0447 18.0101 27.0575C17.9953 27.0789 17.9799 27.0997 17.9652 27.1198C17.9544 27.1326 17.9437 27.1467 17.9357 27.1621C17.8525 27.2815 17.7801 27.4351 17.7204 27.5934C17.5567 28.0132 17.4689 28.4706 17.4689 28.4706C17.32 28.3848 17.1536 28.2479 16.9873 28.0789C17.1174 27.6913 17.2898 27.2117 17.4159 26.9186C17.6224 26.4371 18.1033 25.9965 18.438 25.6953C18.597 25.8858 18.7465 26.0541 18.7465 26.0541Z" fill="url(#paint59_linear_2570_8389)"/>
<path d="M16.1033 15.8824C16.0671 15.9321 16.0288 15.9716 15.9906 16.0126C15.8592 16.1594 15.4199 16.079 14.9383 15.2674C14.5828 14.6645 14.8297 14.14 15.1603 13.9435C15.275 13.8757 15.3991 13.8476 15.5111 13.8677C15.9524 13.9488 16.1147 14.9797 16.165 15.201C16.2508 15.5826 16.1932 15.7597 16.1033 15.8824Z" fill="url(#paint60_linear_2570_8389)"/>
<path opacity="0.3" d="M15.3394 14.3345C15.6056 14.6007 15.8846 15.1205 15.8846 15.5196C15.8846 15.5196 15.8048 15.8261 15.5251 15.6665C15.2455 15.5068 15.6318 15.0669 15.6318 15.0669L15.3394 14.3345Z" fill="#DD7553"/>
<path opacity="0.3" d="M16.1033 15.8825C16.0866 15.6357 16.0497 15.3285 15.9652 15.0395C15.7921 14.4492 15.5071 14.2004 15.1597 13.9442C15.2744 13.8765 15.3984 13.8483 15.5104 13.8684C15.9518 13.9496 16.1141 14.9804 16.1644 15.2018C16.2509 15.5827 16.1932 15.7598 16.1033 15.8825Z" fill="#DD7553"/>
<path d="M118.679 22.5517C118.543 23.3546 118.285 24.7563 117.933 26.0896C117.402 28.1131 115.378 31.2016 115.378 31.2016L113.727 31.095C112.392 28.6838 110.326 24.5303 109.332 22.5511C109.763 22.2486 110.201 22.0695 110.591 21.9575C110.976 22.6872 111.536 23.8032 112.024 25.0246C112.876 27.1547 114.366 29.7107 114.366 29.7107H115.059C115.059 29.7107 116.177 27.7938 116.869 26.036C117.369 24.7664 117.674 22.9669 117.807 22.0675C118.189 22.2124 118.513 22.37 118.654 22.5236C118.662 22.533 118.67 22.5417 118.679 22.5517Z" fill="url(#paint61_linear_2570_8389)"/>
<path d="M113.727 31.0957L113.265 36.9535C113.265 36.9535 114.509 37.1661 115.68 36.8475L115.377 31.2023L113.727 31.0957Z" fill="url(#paint62_linear_2570_8389)"/>
<path d="M45.4218 36.7563C45.4218 36.9534 45.2655 37.1131 45.0731 37.1131C44.8799 37.1131 44.7236 36.9534 44.7236 36.7563V25.3278C44.7236 25.1306 44.8799 24.9709 45.0731 24.9709C45.2655 24.9709 45.4218 25.1306 45.4218 25.3278V36.7563Z" fill="#61727C"/>
<path d="M47.4655 36.7563C47.4655 36.9534 47.3246 37.1131 47.1496 37.1131C46.9745 37.1131 46.833 36.9534 46.833 36.7563V25.3278C46.833 25.1306 46.9745 24.9709 47.1496 24.9709C47.3246 24.9709 47.4655 25.1306 47.4655 25.3278V36.7563Z" fill="#61727C"/>
<path d="M47.6032 30.4041H44.5146V31.4711H47.6032V30.4041Z" fill="#C3C3C3"/>
<path d="M44.0891 27.4216L43.2373 24.7583L43.8228 24.4927L45.3667 27.4746L44.0891 27.4216Z" fill="#C3C3C3"/>
<path d="M48.0825 27.4217L49.1998 24.5458L48.5613 24.1729L46.7505 27.4746L48.0825 27.4217Z" fill="#C3C3C3"/>
<path d="M44.1423 34.5576L43.1309 37.0606L43.823 37.2196L45.3139 34.6629L44.1423 34.5576Z" fill="#C3C3C3"/>
<path d="M46.6445 34.6106C46.7505 34.7702 48.2414 37.3262 48.2414 37.3262L49.0932 37.1666L48.0818 34.7709L46.6445 34.6106Z" fill="#C3C3C3"/>
<path d="M48.0828 27.4216H44.0889V28.8066H48.0828V27.4216Z" fill="#C3C3C3"/>
<path d="M48.0828 33.3853H44.0889V34.7702H48.0828V33.3853Z" fill="#C3C3C3"/>
<path d="M43.6626 29.9238L44.7276 29.8179L44.8343 32.5865H43.7169L43.6626 29.9238Z" fill="#323333"/>
<path d="M43.7175 33.3324C43.7175 33.655 43.4552 33.9186 43.1313 33.9186C42.808 33.9186 42.5464 33.6564 42.5451 33.3331L42.5444 28.8066C42.5444 28.4834 42.806 28.2205 43.1299 28.2205C43.4539 28.2205 43.7161 28.4834 43.7161 28.8046L43.7175 33.3324Z" fill="#C3C3C3"/>
<path d="M92.2181 47.604L96.0509 53.3551L84.6577 50.0533L92.2181 47.604Z" fill="#393939"/>
<path d="M37.0254 63.4028C37.0254 63.6824 36.9529 63.9474 36.8275 64.1761C36.5552 64.667 36.0307 65.0003 35.4284 65.0003C34.5465 65.0003 33.8315 64.2854 33.8315 63.4028C33.8315 63.1928 33.8718 62.9923 33.9462 62.8085C34.1823 62.219 34.7571 61.8052 35.4284 61.8052C36.3124 61.8052 37.0254 62.5188 37.0254 63.4028Z" fill="#2C3235"/>
<path opacity="0.5" d="M37.0254 63.4028C37.0254 63.6824 36.953 63.9474 36.8276 64.1761C35.8973 63.3987 34.7129 62.9474 33.9463 62.8085C34.1824 62.219 34.7571 61.8052 35.4285 61.8052C36.3125 61.8052 37.0254 62.5188 37.0254 63.4028Z" fill="#2C3235"/>
<path d="M35.7828 35.4631L23.7512 35.3565C23.7512 35.3565 23.544 34.0078 24.2555 33.2552C24.2635 33.2452 24.2722 33.2371 24.283 33.2264C25.0286 32.4806 28.7555 29.498 28.7555 29.498L34.7179 29.7107L35.2611 32.6483L35.7828 35.4631Z" fill="url(#paint63_linear_2570_8389)"/>
<path d="M36.7417 60.4913L30.9322 60.5356L22.5806 60.5973L23.7513 35.356L34.0475 35.4478L35.7829 35.4633L36.7417 60.4913Z" fill="#948579"/>
<path d="M26.1307 63.4731C26.1307 63.7501 26.0603 64.0096 25.9349 64.2356C25.6666 64.734 25.1381 65.07 24.5331 65.07C23.6492 65.07 22.9355 64.355 22.9355 63.4731C22.9355 63.2538 22.9805 63.0445 23.061 62.852C23.3017 62.2772 23.8685 61.8755 24.5331 61.8755C25.4151 61.8762 26.1307 62.5918 26.1307 63.4731Z" fill="#2C3235"/>
<path d="M29.394 27.7892H30.884C30.884 27.7892 31.9683 23.755 32.8902 20.3801C33.5427 17.9972 34.1133 15.9408 34.1616 15.8671L32.97 15.8074L31.2716 21.4975L29.394 27.7892Z" fill="#232323"/>
<path d="M32.9898 15.8469L32.0957 16.5424L28.9771 27.372L29.4338 27.7489L32.9898 15.8469Z" fill="#393939"/>
<path d="M32.7714 20.7744C32.7714 20.7744 34.2811 21.1124 34.043 22.1265C33.8049 23.1393 31.8968 29.8153 31.8968 29.8153H31.0625C31.0625 29.8153 32.6125 25.1064 33.0893 23.5564C33.5655 22.0065 33.5259 21.5491 32.6319 21.4297L32.7714 20.7744Z" fill="#505050"/>
<path d="M34.4005 29.2794L31.3603 29.2197L31.0625 29.816L34.2214 29.8757L34.4005 29.2794Z" fill="#2A2A2A"/>
<path opacity="0.3" d="M31.271 21.4975C31.711 21.195 32.3334 20.7651 32.89 20.3801C33.5426 17.9972 34.1134 15.9408 34.1617 15.8671L32.9698 15.8074L31.271 21.4975Z" fill="#505050"/>
<path opacity="0.4" d="M35.7828 35.4631L23.7512 35.3565C23.7512 35.3565 23.544 34.0077 24.2555 33.2552C26.4528 33.384 30.2689 33.3069 32.4461 33.1197C33.6893 33.0131 34.6308 32.8173 35.2604 32.6489L35.7828 35.4631Z" fill="url(#paint64_linear_2570_8389)"/>
<path opacity="0.5" d="M26.1303 63.4731C26.1303 63.7501 26.0599 64.0097 25.9344 64.2357C25.2329 63.6294 24.1149 63.0365 23.0605 62.8527C23.3013 62.278 23.8681 61.8762 24.5327 61.8762C25.4147 61.8762 26.1303 62.5918 26.1303 63.4731Z" fill="#2C3235"/>
<path d="M24.8881 62.0224C24.8546 62.5066 24.7432 62.9996 24.4481 62.9399C24.145 62.8809 24.0511 62.3725 24.0296 61.9144C24.0115 61.5174 24.0464 61.1599 24.0464 61.1599L24.8988 61.1357C24.8988 61.1357 24.925 61.5757 24.8881 62.0224Z" fill="#6A777C"/>
<path opacity="0.4" d="M24.8881 62.0224C24.597 61.9761 24.2952 61.9345 24.0296 61.9144C24.0115 61.5174 24.0464 61.1599 24.0464 61.1599L24.8988 61.1357C24.8988 61.1357 24.925 61.5757 24.8881 62.0224Z" fill="#6A777C"/>
<path d="M35.9964 61.1289C35.9964 61.1289 35.9964 61.5307 35.9455 61.9599C35.8858 62.4737 35.7536 63.0303 35.4632 63.0102C35.1339 62.9887 35.0635 62.2564 35.0568 61.703C35.0521 61.363 35.0742 61.0947 35.0742 61.0947L35.9964 61.1289Z" fill="#6A777C"/>
<path opacity="0.4" d="M35.9967 61.1289C35.9967 61.1289 35.9967 61.5307 35.9458 61.9599C35.6513 61.858 35.3301 61.7587 35.0578 61.703C35.0531 61.363 35.0752 61.0947 35.0752 61.0947L35.9967 61.1289Z" fill="#6A777C"/>
<path d="M23.3249 60.5275L23.29 61.2371L25.4906 61.166L25.3128 60.4202L23.3249 60.5275Z" fill="#83756A"/>
<path d="M34.3276 60.4202V61.1291L36.7059 61.2015L36.7421 60.4913L34.3276 60.4202Z" fill="#83756A"/>
<path d="M25.3481 39.1897V42.5988L31.2047 42.8121V39.2963L25.3481 39.1897Z" fill="#83756A"/>
<path d="M30.4588 50.7998C30.4588 51.1184 30.3877 53.8528 30.3877 53.8528L35.0379 53.8876L35.0024 50.7998H30.4588Z" fill="#83756A"/>
<path opacity="0.3" d="M36.7417 60.4912L30.9321 60.5355C31.5007 57.2994 32.3208 52.5228 32.589 50.3739C32.9484 47.4812 33.847 40.2915 34.0468 35.4478L35.7828 35.4625L36.7417 60.4912Z" fill="#948579"/>
<path d="M26.6258 39.1553L26.6969 42.6334L25.3481 42.5986V39.1895L26.6258 39.1553Z" fill="url(#paint65_linear_2570_8389)"/>
<path d="M31.666 50.7998L31.5956 53.9232L30.3877 53.8528L30.4588 50.7998H31.666Z" fill="url(#paint66_linear_2570_8389)"/>
<path d="M133 64.4314H122.564L122.778 42.7058H131.722L133 64.4314Z" fill="#948579"/>
<path d="M131.722 42.7059H122.778L123.629 39.0835H131.19L131.722 42.7059Z" fill="url(#paint67_linear_2570_8389)"/>
<path opacity="0.4" d="M130.657 41.5329H124.375L124.911 39.0835H130.046L130.657 41.5329Z" fill="url(#paint68_linear_2570_8389)"/>
<path opacity="0.3" d="M127.712 64.4314H122.564L122.777 42.7058H124.573C124.581 42.801 124.587 42.8728 124.587 42.9184C124.588 43.2692 126.893 58.8975 127.712 64.4314Z" fill="#948579"/>
<path d="M131.936 65.4965H124.056L123.629 64.3254H132.361L131.936 65.4965Z" fill="#70645C"/>
<path opacity="0.5" d="M130.977 43.4504H123.843V44.8361H130.977V43.4504Z" fill="#83756A"/>
<defs>
<linearGradient id="paint0_linear_2570_8389" x1="22.0471" y1="37.4331" x2="128.634" y2="37.4331" gradientUnits="userSpaceOnUse">
<stop offset="0.0051" stop-color="#504133"/>
<stop offset="1" stop-color="#493233"/>
</linearGradient>
<linearGradient id="paint1_linear_2570_8389" x1="33.2037" y1="37.4492" x2="116.151" y2="37.4492" gradientUnits="userSpaceOnUse">
<stop offset="0.0051" stop-color="#504133"/>
<stop offset="1" stop-color="#493233"/>
</linearGradient>
<linearGradient id="paint2_linear_2570_8389" x1="43.8757" y1="52.4499" x2="108.616" y2="52.4499" gradientUnits="userSpaceOnUse">
<stop offset="0.0051" stop-color="#504133"/>
<stop offset="1" stop-color="#493233"/>
</linearGradient>
<linearGradient id="paint3_linear_2570_8389" x1="43.8757" y1="45.1939" x2="70.589" y2="45.1939" gradientUnits="userSpaceOnUse">
<stop offset="0.0051" stop-color="#504133"/>
<stop offset="1" stop-color="#493233"/>
</linearGradient>
<linearGradient id="paint4_linear_2570_8389" x1="64.7393" y1="50.0012" x2="87.6945" y2="50.0012" gradientUnits="userSpaceOnUse">
<stop offset="0.0051" stop-color="#504133"/>
<stop offset="1" stop-color="#493233"/>
</linearGradient>
<linearGradient id="paint5_linear_2570_8389" x1="46.3994" y1="60.4669" x2="95.7021" y2="42.9006" gradientUnits="userSpaceOnUse">
<stop offset="0.0051" stop-color="#504133"/>
<stop offset="1" stop-color="#493233"/>
</linearGradient>
<linearGradient id="paint6_linear_2570_8389" x1="83.9929" y1="44.963" x2="105.221" y2="44.963" gradientUnits="userSpaceOnUse">
<stop offset="0.0051" stop-color="#504133"/>
<stop offset="1" stop-color="#493233"/>
</linearGradient>
<linearGradient id="paint7_linear_2570_8389" x1="104.001" y1="41.7994" x2="122.422" y2="41.7994" gradientUnits="userSpaceOnUse">
<stop offset="0.0051" stop-color="#504133"/>
<stop offset="1" stop-color="#493233"/>
</linearGradient>
<linearGradient id="paint8_linear_2570_8389" x1="40.7086" y1="10.958" x2="110.344" y2="26.5464" gradientUnits="userSpaceOnUse">
<stop stop-color="#FF6531"/>
<stop offset="1" stop-color="#FF591F"/>
</linearGradient>
<linearGradient id="paint9_linear_2570_8389" x1="30.8485" y1="27.3984" x2="116.286" y2="27.3984" gradientUnits="userSpaceOnUse">
<stop stop-color="#FF6531"/>
<stop offset="1" stop-color="#FF591F"/>
</linearGradient>
<linearGradient id="paint10_linear_2570_8389" x1="30.0232" y1="23.7525" x2="117.664" y2="23.7525" gradientUnits="userSpaceOnUse">
<stop stop-color="#FF6531"/>
<stop offset="1" stop-color="#FF591F"/>
</linearGradient>
<linearGradient id="paint11_linear_2570_8389" x1="40.7848" y1="28.1515" x2="100.232" y2="28.1515" gradientUnits="userSpaceOnUse">
<stop stop-color="#FF6531"/>
<stop offset="1" stop-color="#FF591F"/>
</linearGradient>
<linearGradient id="paint12_linear_2570_8389" x1="31.957" y1="22.0072" x2="45.1302" y2="16.645" gradientUnits="userSpaceOnUse">
<stop stop-color="#455C79"/>
<stop offset="0.99" stop-color="#668DA2"/>
</linearGradient>
<linearGradient id="paint13_linear_2570_8389" x1="54.5047" y1="15.0529" x2="60.6413" y2="15.0529" gradientUnits="userSpaceOnUse">
<stop stop-color="#FF6531"/>
<stop offset="1" stop-color="#FF591F"/>
</linearGradient>
<linearGradient id="paint14_linear_2570_8389" x1="110.892" y1="15.1923" x2="113.354" y2="19.9796" gradientUnits="userSpaceOnUse">
<stop stop-color="#F1C194"/>
<stop offset="1" stop-color="#F29D7A"/>
</linearGradient>
<linearGradient id="paint15_linear_2570_8389" x1="111.711" y1="14.7722" x2="114.172" y2="19.5583" gradientUnits="userSpaceOnUse">
<stop stop-color="#F1C194"/>
<stop offset="1" stop-color="#F29D7A"/>
</linearGradient>
<linearGradient id="paint16_linear_2570_8389" x1="111.891" y1="11.6659" x2="116.89" y2="19.7775" gradientUnits="userSpaceOnUse">
<stop stop-color="#734022"/>
<stop offset="1" stop-color="#613828"/>
</linearGradient>
<linearGradient id="paint17_linear_2570_8389" x1="110.835" y1="15.9967" x2="111.018" y2="16.353" gradientUnits="userSpaceOnUse">
<stop stop-color="#6B4634"/>
<stop offset="1" stop-color="#613828"/>
</linearGradient>
<linearGradient id="paint18_linear_2570_8389" x1="110.389" y1="13.1427" x2="111.447" y2="14.8604" gradientUnits="userSpaceOnUse">
<stop stop-color="#734022"/>
<stop offset="1" stop-color="#613828"/>
</linearGradient>
<linearGradient id="paint19_linear_2570_8389" x1="112.965" y1="14.0638" x2="116.604" y2="19.9677" gradientUnits="userSpaceOnUse">
<stop stop-color="#734022"/>
<stop offset="1" stop-color="#613828"/>
</linearGradient>
<linearGradient id="paint20_linear_2570_8389" x1="97.3428" y1="21.6812" x2="98.5751" y2="23.7477" gradientUnits="userSpaceOnUse">
<stop stop-color="#F1C194"/>
<stop offset="1" stop-color="#F29D7A"/>
</linearGradient>
<linearGradient id="paint21_linear_2570_8389" x1="102.161" y1="45.8865" x2="121.525" y2="53.2927" gradientUnits="userSpaceOnUse">
<stop offset="0.01" stop-color="#002440"/>
<stop offset="1" stop-color="#002D4E"/>
</linearGradient>
<linearGradient id="paint22_linear_2570_8389" x1="9.59908" y1="58.5034" x2="9.70561" y2="41.8539" gradientUnits="userSpaceOnUse">
<stop offset="0.01" stop-color="#002440"/>
<stop offset="1" stop-color="#002D4E"/>
</linearGradient>
<linearGradient id="paint23_linear_2570_8389" x1="9.7926" y1="58.5046" x2="9.8991" y2="41.8551" gradientUnits="userSpaceOnUse">
<stop offset="0.01" stop-color="#002440"/>
<stop offset="1" stop-color="#002D4E"/>
</linearGradient>
<linearGradient id="paint24_linear_2570_8389" x1="30.6159" y1="29.337" x2="17.3401" y2="27.5271" gradientUnits="userSpaceOnUse">
<stop stop-color="#EDC4A0"/>
<stop offset="1" stop-color="#EDA687"/>
</linearGradient>
<linearGradient id="paint25_linear_2570_8389" x1="20.576" y1="16.6313" x2="17.4945" y2="13.5815" gradientUnits="userSpaceOnUse">
<stop stop-color="#F1C7A3"/>
<stop offset="1" stop-color="#F0A98B"/>
</linearGradient>
<linearGradient id="paint26_linear_2570_8389" x1="17.9947" y1="10.3697" x2="17.4545" y2="17.5665" gradientUnits="userSpaceOnUse">
<stop stop-color="#48210D"/>
<stop offset="0.995" stop-color="#4C2112"/>
</linearGradient>
<linearGradient id="paint27_linear_2570_8389" x1="17.7504" y1="11.713" x2="17.1959" y2="19.0998" gradientUnits="userSpaceOnUse">
<stop stop-color="#48210D"/>
<stop offset="0.995" stop-color="#4C2112"/>
</linearGradient>
<linearGradient id="paint28_linear_2570_8389" x1="15.7779" y1="19.251" x2="15.079" y2="17.5038" gradientUnits="userSpaceOnUse">
<stop stop-color="#EDC4A0"/>
<stop offset="1" stop-color="#EDA687"/>
</linearGradient>
<linearGradient id="paint29_linear_2570_8389" x1="10.5526" y1="22.2468" x2="16.7268" y2="31.9668" gradientUnits="userSpaceOnUse">
<stop stop-color="#B80E1B"/>
<stop offset="0.995" stop-color="#A3000F"/>
</linearGradient>
<linearGradient id="paint30_linear_2570_8389" x1="16.5826" y1="20.9825" x2="13.0779" y2="20.9825" gradientUnits="userSpaceOnUse">
<stop stop-color="#B80E1B"/>
<stop offset="0.995" stop-color="#A3000F"/>
</linearGradient>
<linearGradient id="paint31_linear_2570_8389" x1="17.2305" y1="23.123" x2="13.9884" y2="23.123" gradientUnits="userSpaceOnUse">
<stop stop-color="#B80E1B"/>
<stop offset="0.995" stop-color="#A3000F"/>
</linearGradient>
<linearGradient id="paint32_linear_2570_8389" x1="15.4292" y1="28.9907" x2="14.1349" y2="28.9907" gradientUnits="userSpaceOnUse">
<stop stop-color="#B80E1B"/>
<stop offset="0.995" stop-color="#A3000F"/>
</linearGradient>
<linearGradient id="paint33_linear_2570_8389" x1="13.8622" y1="27.3954" x2="11.6952" y2="27.3954" gradientUnits="userSpaceOnUse">
<stop stop-color="#B80E1B"/>
<stop offset="0.995" stop-color="#A3000F"/>
</linearGradient>
<linearGradient id="paint34_linear_2570_8389" x1="13.8843" y1="24.9336" x2="8.64935" y2="24.9336" gradientUnits="userSpaceOnUse">
<stop stop-color="#B80E1B"/>
<stop offset="0.995" stop-color="#A3000F"/>
</linearGradient>
<linearGradient id="paint35_linear_2570_8389" x1="15.0902" y1="22.1317" x2="18.6411" y2="22.1317" gradientUnits="userSpaceOnUse">
<stop stop-color="#B80E1B"/>
<stop offset="0.995" stop-color="#A3000F"/>
</linearGradient>
<linearGradient id="paint36_linear_2570_8389" x1="13.09" y1="22.4605" x2="18.0097" y2="22.4605" gradientUnits="userSpaceOnUse">
<stop stop-color="#B80E1B"/>
<stop offset="0.995" stop-color="#A3000F"/>
</linearGradient>
<linearGradient id="paint37_linear_2570_8389" x1="13.2973" y1="19.2444" x2="12.3263" y2="19.2444" gradientUnits="userSpaceOnUse">
<stop stop-color="#B80E1B"/>
<stop offset="0.995" stop-color="#A3000F"/>
</linearGradient>
<linearGradient id="paint38_linear_2570_8389" x1="13.3442" y1="21.6839" x2="11.153" y2="21.6839" gradientUnits="userSpaceOnUse">
<stop stop-color="#B80E1B"/>
<stop offset="0.995" stop-color="#A3000F"/>
</linearGradient>
<linearGradient id="paint39_linear_2570_8389" x1="15.1191" y1="23.9301" x2="10.3366" y2="23.9301" gradientUnits="userSpaceOnUse">
<stop stop-color="#B80E1B"/>
<stop offset="0.995" stop-color="#A3000F"/>
</linearGradient>
<linearGradient id="paint40_linear_2570_8389" x1="16.0323" y1="26.3085" x2="9.17884" y2="26.3085" gradientUnits="userSpaceOnUse">
<stop stop-color="#B80E1B"/>
<stop offset="0.995" stop-color="#A3000F"/>
</linearGradient>
<linearGradient id="paint41_linear_2570_8389" x1="15.8185" y1="27.8138" x2="8.78962" y2="27.8138" gradientUnits="userSpaceOnUse">
<stop stop-color="#B80E1B"/>
<stop offset="0.995" stop-color="#A3000F"/>
</linearGradient>
<linearGradient id="paint42_linear_2570_8389" x1="8.70515" y1="30.1874" x2="15.8759" y2="30.1874" gradientUnits="userSpaceOnUse">
<stop stop-color="#B80E1B"/>
<stop offset="0.995" stop-color="#A3000F"/>
</linearGradient>
<linearGradient id="paint43_linear_2570_8389" x1="10.9695" y1="31.8998" x2="15.897" y2="31.8998" gradientUnits="userSpaceOnUse">
<stop stop-color="#B80E1B"/>
<stop offset="0.995" stop-color="#A3000F"/>
</linearGradient>
<linearGradient id="paint44_linear_2570_8389" x1="15.3134" y1="25.643" x2="17.961" y2="25.643" gradientUnits="userSpaceOnUse">
<stop stop-color="#B80E1B"/>
<stop offset="0.995" stop-color="#A3000F"/>
</linearGradient>
<linearGradient id="paint45_linear_2570_8389" x1="13.2635" y1="20.4663" x2="11.3105" y2="20.4663" gradientUnits="userSpaceOnUse">
<stop stop-color="#B80E1B"/>
<stop offset="0.995" stop-color="#A3000F"/>
</linearGradient>
<linearGradient id="paint46_linear_2570_8389" x1="15.0181" y1="17.9376" x2="13.2533" y2="17.9376" gradientUnits="userSpaceOnUse">
<stop stop-color="#B80E1B"/>
<stop offset="0.995" stop-color="#A3000F"/>
</linearGradient>
<linearGradient id="paint47_linear_2570_8389" x1="14.0358" y1="22.4907" x2="18.5447" y2="22.4907" gradientUnits="userSpaceOnUse">
<stop stop-color="#B80E1B"/>
<stop offset="0.995" stop-color="#A3000F"/>
</linearGradient>
<linearGradient id="paint48_linear_2570_8389" x1="11.4603" y1="32.2443" x2="15.8928" y2="32.2443" gradientUnits="userSpaceOnUse">
<stop stop-color="#B80E1B"/>
<stop offset="0.995" stop-color="#A3000F"/>
</linearGradient>
<linearGradient id="paint49_linear_2570_8389" x1="12.9249" y1="32.6576" x2="10.7233" y2="59.0353" gradientUnits="userSpaceOnUse">
<stop offset="0.01" stop-color="#002440"/>
<stop offset="1" stop-color="#002D4E"/>
</linearGradient>
<linearGradient id="paint50_linear_2570_8389" x1="8.42172" y1="24.4305" x2="15.96" y2="24.4305" gradientUnits="userSpaceOnUse">
<stop offset="0.01" stop-color="#002440"/>
<stop offset="1" stop-color="#002D4E"/>
</linearGradient>
<linearGradient id="paint51_linear_2570_8389" x1="15.4981" y1="31.2551" x2="15.4981" y2="27.6075" gradientUnits="userSpaceOnUse">
<stop stop-color="#07364E"/>
<stop offset="1" stop-color="#002D4E"/>
</linearGradient>
<linearGradient id="paint52_linear_2570_8389" x1="15.1137" y1="27.0277" x2="15.1258" y2="25.1294" gradientUnits="userSpaceOnUse">
<stop offset="0.01" stop-color="#002440"/>
<stop offset="1" stop-color="#002D4E"/>
</linearGradient>
<linearGradient id="paint53_linear_2570_8389" x1="11.6717" y1="35.4587" x2="11.684" y2="33.534" gradientUnits="userSpaceOnUse">
<stop offset="0.01" stop-color="#002440"/>
<stop offset="1" stop-color="#002D4E"/>
</linearGradient>
<linearGradient id="paint54_linear_2570_8389" x1="12.232" y1="60.1716" x2="12.3889" y2="35.6422" gradientUnits="userSpaceOnUse">
<stop offset="0.01" stop-color="#002440"/>
<stop offset="1" stop-color="#002D4E"/>
</linearGradient>
<linearGradient id="paint55_linear_2570_8389" x1="12.932" y1="60.7652" x2="13.0908" y2="35.9351" gradientUnits="userSpaceOnUse">
<stop offset="0.01" stop-color="#002440"/>
<stop offset="1" stop-color="#002D4E"/>
</linearGradient>
<linearGradient id="paint56_linear_2570_8389" x1="14.1217" y1="62.2629" x2="14.2782" y2="37.7896" gradientUnits="userSpaceOnUse">
<stop offset="0.01" stop-color="#002440"/>
<stop offset="1" stop-color="#002D4E"/>
</linearGradient>
<linearGradient id="paint57_linear_2570_8389" x1="14.7548" y1="33.6194" x2="14.6815" y2="34.4978" gradientUnits="userSpaceOnUse">
<stop offset="0.01" stop-color="#002440"/>
<stop offset="1" stop-color="#002D4E"/>
</linearGradient>
<linearGradient id="paint58_linear_2570_8389" x1="9.91476" y1="32.3089" x2="9.8314" y2="33.3077" gradientUnits="userSpaceOnUse">
<stop offset="0.01" stop-color="#002440"/>
<stop offset="1" stop-color="#002D4E"/>
</linearGradient>
<linearGradient id="paint59_linear_2570_8389" x1="16.9868" y1="27.0814" x2="18.7463" y2="27.0814" gradientUnits="userSpaceOnUse">
<stop stop-color="#B80E1B"/>
<stop offset="0.995" stop-color="#A3000F"/>
</linearGradient>
<linearGradient id="paint60_linear_2570_8389" x1="15.044" y1="15.4892" x2="16.2581" y2="14.2876" gradientUnits="userSpaceOnUse">
<stop stop-color="#F1C7A3"/>
<stop offset="1" stop-color="#F0A98B"/>
</linearGradient>
<linearGradient id="paint61_linear_2570_8389" x1="113.903" y1="23.7778" x2="113.354" y2="30.3499" gradientUnits="userSpaceOnUse">
<stop offset="0.01" stop-color="#002440"/>
<stop offset="1" stop-color="#002D4E"/>
</linearGradient>
<linearGradient id="paint62_linear_2570_8389" x1="114.83" y1="32.4475" x2="114.483" y2="36.615" gradientUnits="userSpaceOnUse">
<stop offset="0.01" stop-color="#002440"/>
<stop offset="1" stop-color="#002D4E"/>
</linearGradient>
<linearGradient id="paint63_linear_2570_8389" x1="23.7233" y1="32.4805" x2="35.783" y2="32.4805" gradientUnits="userSpaceOnUse">
<stop offset="0.0051" stop-color="#504133"/>
<stop offset="1" stop-color="#493233"/>
</linearGradient>
<linearGradient id="paint64_linear_2570_8389" x1="23.7233" y1="34.0558" x2="35.783" y2="34.0558" gradientUnits="userSpaceOnUse">
<stop offset="0.0051" stop-color="#504133"/>
<stop offset="1" stop-color="#493233"/>
</linearGradient>
<linearGradient id="paint65_linear_2570_8389" x1="25.3481" y1="40.8942" x2="26.697" y2="40.8942" gradientUnits="userSpaceOnUse">
<stop offset="0.0051" stop-color="#504133"/>
<stop offset="1" stop-color="#493233"/>
</linearGradient>
<linearGradient id="paint66_linear_2570_8389" x1="30.3877" y1="52.3615" x2="31.6662" y2="52.3615" gradientUnits="userSpaceOnUse">
<stop offset="0.0051" stop-color="#504133"/>
<stop offset="1" stop-color="#493233"/>
</linearGradient>
<linearGradient id="paint67_linear_2570_8389" x1="127.195" y1="37.1643" x2="127.302" y2="47.924" gradientUnits="userSpaceOnUse">
<stop offset="0.0051" stop-color="#504133"/>
<stop offset="1" stop-color="#493233"/>
</linearGradient>
<linearGradient id="paint68_linear_2570_8389" x1="127.479" y1="37.7826" x2="127.551" y2="45.0672" gradientUnits="userSpaceOnUse">
<stop offset="0.0051" stop-color="#504133"/>
<stop offset="1" stop-color="#493233"/>
</linearGradient>
</defs>
</svg>
