<svg width="70" height="55" viewBox="0 0 70 55" fill="none" xmlns="http://www.w3.org/2000/svg">
<path opacity="0.0476" d="M68.3172 49.75C68.3172 53.7552 38.2779 54.9961 18.2551 53.6647C6.29565 52.8752 2.25439 51.2339 2.25439 49.75C2.25439 48.266 6.29565 46.6247 18.2551 45.8344C38.2779 44.5038 68.3172 45.7447 68.3172 49.75Z" fill="#FCFCFC"/>
<path opacity="0.0952" d="M67.0332 49.7498C67.0332 53.5725 38.3314 54.7655 19.1073 53.501C7.54306 52.7507 3.53955 51.1771 3.53955 49.7498C3.53955 48.3224 7.54306 46.7488 19.1073 45.9986C38.3314 44.734 67.0332 45.927 67.0332 49.7498Z" fill="#FAFAFA"/>
<path opacity="0.1429" d="M65.7483 49.7498C65.7483 53.3894 38.384 54.5352 19.9585 53.3374C8.78949 52.6265 4.82373 51.1213 4.82373 49.7498C4.82373 48.3791 8.78949 46.8731 19.9585 46.1622C38.3847 44.9645 65.7483 46.1103 65.7483 49.7498Z" fill="#F7F7F7"/>
<path opacity="0.1905" d="M64.4639 49.7499C64.4639 53.207 38.4377 54.3049 20.8101 53.1732C10.0364 52.5016 6.1084 51.064 6.1084 49.7499C6.1084 48.435 10.0364 46.9975 20.8101 46.3267C38.4377 45.195 64.4639 46.2928 64.4639 49.7499Z" fill="#F4F5F5"/>
<path opacity="0.2381" d="M63.1792 49.7499C63.1792 53.0246 38.4905 54.0744 21.6616 53.0096C11.2831 52.3781 7.39355 51.0074 7.39355 49.7499C7.39355 48.4917 11.2838 47.1217 21.6616 46.4902C38.4905 45.4254 63.1792 46.4753 63.1792 49.7499Z" fill="#F2F2F2"/>
<path opacity="0.2857" d="M61.8951 49.7497C61.8951 52.8419 38.5438 53.8438 22.5135 52.8451C12.5303 52.2529 8.67773 50.9506 8.67773 49.7497C8.67773 48.5489 12.5303 47.2466 22.5135 46.6536C38.5438 45.6556 61.8951 46.6575 61.8951 49.7497Z" fill="#EFEFF0"/>
<path opacity="0.3333" d="M60.6099 49.7499C60.6099 52.6588 38.5961 53.6135 23.3644 52.6816C13.7764 52.1288 9.9624 50.8941 9.9624 49.7499C9.9624 48.6056 13.7772 47.371 23.3644 46.8181C38.5969 45.8862 60.6099 46.8409 60.6099 49.7499Z" fill="#ECEDED"/>
<path opacity="0.381" d="M59.326 49.7498C59.326 52.4763 38.6504 53.383 24.2166 52.518C15.0246 52.0045 11.2476 50.8382 11.2476 49.7498C11.2476 48.6614 15.0246 47.4951 24.2166 46.9816C38.6504 46.1165 59.326 47.0233 59.326 49.7498Z" fill="#E9EAEB"/>
<path opacity="0.4286" d="M58.0411 49.7498C58.0411 52.2938 38.7045 53.1204 25.0678 52.3536C16.2718 51.859 12.5317 50.7808 12.5317 49.7498C12.5317 48.718 16.271 47.6194 25.0678 47.1452C38.703 46.347 58.0411 47.2057 58.0411 49.7498Z" fill="#E7E7E8"/>
<path opacity="0.4762" d="M56.7567 49.7499C56.7567 52.1115 38.7575 52.8885 25.9195 52.1902C17.5187 51.7333 13.8164 50.7251 13.8164 49.7499C13.8164 48.7748 17.5179 47.7438 25.9195 47.3097C38.756 46.5775 56.7567 47.3891 56.7567 49.7499Z" fill="#E4E5E6"/>
<path opacity="0.5238" d="M55.4717 49.7499C55.4717 51.9283 38.8108 52.6557 26.7707 52.0266C18.7651 51.6074 15.1006 50.6684 15.1006 49.7499C15.1006 48.8314 18.7644 47.868 26.7707 47.4732C38.8093 46.8079 55.4717 47.5715 55.4717 49.7499Z" fill="#E1E2E3"/>
<path opacity="0.5714" d="M54.1878 49.7497C54.1878 51.7456 38.8643 52.4243 27.6228 51.862C20.0125 51.4814 16.3857 50.6108 16.3857 49.7497C16.3857 48.8878 20.0118 47.9928 27.6228 47.6374C38.8629 47.0381 54.1878 47.7538 54.1878 49.7497Z" fill="#DFE0E1"/>
<path opacity="0.619" d="M52.9029 49.7498C52.9029 51.5633 38.9169 52.1932 28.474 51.6985C21.2589 51.3564 17.6699 50.5551 17.6699 49.7498C17.6699 48.9445 21.2582 48.1172 28.474 47.801C38.9154 47.2686 52.9029 47.9363 52.9029 49.7498Z" fill="#DCDDDE"/>
<path opacity="0.6667" d="M51.6185 49.7498C51.6185 51.3808 38.9699 51.9628 29.3257 51.535C22.5059 51.2322 18.9546 50.4985 18.9546 49.7498C18.9546 49.0012 22.5051 48.2415 29.3257 47.9646C38.9685 47.4991 51.6185 48.1196 51.6185 49.7498Z" fill="#D9DADC"/>
<path opacity="0.7143" d="M50.3336 49.7497C50.3336 51.1975 39.0225 51.733 30.1769 51.3705C23.7523 51.107 20.2388 50.441 20.2388 49.7497C20.2388 49.0576 23.7515 48.3656 30.1769 48.1289C39.0217 47.7294 50.3336 48.3019 50.3336 49.7497Z" fill="#D7D8D9"/>
<path opacity="0.7619" d="M49.0496 49.7497C49.0496 51.0151 39.076 51.505 31.029 51.207C24.9997 50.9836 21.5239 50.3852 21.5239 49.7497C21.5239 49.1143 24.999 48.4899 31.029 48.2925C39.0753 47.9599 49.0496 48.4844 49.0496 49.7497Z" fill="#D4D5D7"/>
<path opacity="0.8095" d="M47.7647 49.7499C47.7647 50.8328 39.1286 51.2779 31.8802 51.0427C26.2461 50.8603 22.8081 50.3279 22.8081 49.7499C22.8081 49.1711 26.2454 48.6143 31.8802 48.4562C39.1278 48.1904 47.7647 48.667 47.7647 49.7499Z" fill="#D1D3D4"/>
<path opacity="0.8571" d="M46.4803 49.7498C46.4803 50.6502 39.1816 51.0521 32.7319 50.8791C27.4931 50.7391 24.0928 50.272 24.0928 49.7498C24.0928 49.2276 27.4923 48.7384 32.7319 48.6205C39.1809 48.4207 46.4803 48.8501 46.4803 49.7498Z" fill="#CED0D2"/>
<path opacity="0.9048" d="M45.1954 49.7499C45.1954 50.4671 39.2342 50.8281 33.5831 50.7156C28.7388 50.6189 25.377 50.2155 25.377 49.7499C25.377 49.2844 28.7388 48.8636 33.5831 48.7842C39.2342 48.6513 45.1954 49.0327 45.1954 49.7499Z" fill="#CCCDCF"/>
<path opacity="0.9524" d="M43.9115 49.7498C43.9115 50.2846 39.2877 50.6062 34.4352 50.5511C29.9862 50.5008 26.6621 50.1587 26.6621 49.7498C26.6621 49.3409 29.9862 48.9878 34.4352 48.9484C39.2877 48.8816 43.9115 49.215 43.9115 49.7498Z" fill="#C9CBCD"/>
<path d="M35.2864 50.3876C39.3403 50.3876 42.6266 50.1021 42.6266 49.7498C42.6266 49.3976 39.3403 49.1121 35.2864 49.1121C31.2326 49.1121 27.9463 49.3976 27.9463 49.7498C27.9463 50.1021 31.2326 50.3876 35.2864 50.3876Z" fill="#BFBFBF"/>
<path d="M19.2253 32.976C19.2253 32.976 18.905 31.3694 18.543 30.9848C18.1811 30.6003 15.5147 30.937 14.8066 31.6893C14.0985 32.4417 14.2345 33.2897 14.8066 33.5458C15.3788 33.8019 18.7257 34.4479 18.7257 34.4479L19.2253 32.976Z" fill="#10303E"/>
<path d="M48.4926 54.28H50.9471C51.4742 54.28 51.9012 53.8263 51.9012 53.2663V45.0083H47.5376V53.2663C47.5384 53.8254 47.9655 54.28 48.4926 54.28Z" fill="#10303E"/>
<path d="M20.7122 54.28H18.2577C17.7306 54.28 17.3027 53.8263 17.3027 53.2663V45.0083H21.6663V53.2663C21.6663 53.8254 21.2393 54.28 20.7122 54.28Z" fill="#10303E"/>
<path d="M51.8771 40.6847C51.7053 36.8433 50.8529 35.4768 50.3909 34.2176C49.9088 32.9052 47.8296 25.5741 45.9614 24.0376C44.7137 23.0114 39.0015 22.7571 34.602 22.7571C30.2034 22.7571 24.4904 23.0114 23.2427 24.0376C21.3745 25.5741 19.2961 32.9052 18.8132 34.2176C18.3512 35.4759 17.4988 36.8424 17.327 40.6847C17.1052 45.6453 18.4121 49.0083 19.7373 49.0083C21.0626 49.0083 34.6012 49.0083 34.6012 49.0083C34.6012 49.0083 48.1398 49.0083 49.4651 49.0083C50.792 49.0083 52.0989 45.6462 51.8771 40.6847Z" fill="#FFD300"/>
<path d="M49.98 32.976C49.98 32.976 50.3002 31.3694 50.6622 30.9848C51.0233 30.6003 53.6905 30.937 54.3986 31.6893C55.1067 32.4417 54.9707 33.2897 54.3986 33.5458C53.8265 33.8019 50.4796 34.4479 50.4796 34.4479L49.98 32.976Z" fill="#10303E"/>
<path d="M48.9896 33.2897C48.8387 32.4735 46.1273 25.9427 45.4192 25.1903C44.7111 24.438 37.8563 24.2297 34.6028 24.2297C31.3485 24.2297 24.4945 24.438 23.7864 25.1903C23.0783 25.9427 20.3669 32.4735 20.216 33.2897C20.1134 33.8462 20.5946 34.1147 21.2243 34.0465C22.0884 33.9534 27.2518 33.0974 34.6028 33.0974C41.9547 33.0974 47.1173 33.9534 47.9821 34.0465C48.611 34.1147 49.0922 33.8462 48.9896 33.2897Z" fill="#5BB9FF"/>
<path d="M42.0748 31.3792C40.7346 31.3792 39.5536 32.0987 38.853 33.194C39.1925 33.209 39.5269 33.225 39.8513 33.2427C40.4135 32.6224 41.2008 32.2343 42.0748 32.2343C43.1174 32.2343 44.0373 32.7846 44.5969 33.6255C44.9547 33.6636 45.28 33.7009 45.5869 33.7381C44.9605 32.3451 43.6253 31.3792 42.0748 31.3792Z" fill="#10303E"/>
<path d="M52.1983 42.604H34.6021H17.006C15.4998 42.604 16.4072 49.0312 18.2954 49.0312H34.6021H50.9089C52.7979 49.0312 53.7053 42.604 52.1983 42.604Z" fill="#525B66"/>
<path d="M22.9824 40.689C21.954 40.689 20.9324 40.6154 20.442 40.5056C19.9882 40.4037 19.6838 39.9872 19.5854 39.3305C19.4545 38.455 19.7189 37.1373 20.2451 36.8148C20.3844 36.7297 20.6254 36.6863 20.9607 36.6863C22.5612 36.6863 25.6929 37.6229 26.034 39.8782C26.0507 39.9889 26.0215 40.0953 25.9481 40.1866C25.6145 40.6022 24.1508 40.689 22.9824 40.689Z" fill="#525B66"/>
<path d="M25.843 39.9102C25.9522 40.6306 21.6253 40.5606 20.4811 40.3045C19.336 40.0484 19.7129 37.3776 20.3409 36.9921C20.969 36.6075 25.4426 37.2704 25.843 39.9102Z" fill="white"/>
<path d="M46.2232 40.689C45.0548 40.689 43.5911 40.6013 43.2575 40.1866C43.1841 40.0953 43.1549 39.9889 43.1716 39.8782C43.5135 37.6229 46.6444 36.6863 48.2449 36.6863C48.5802 36.6863 48.8212 36.7297 48.9605 36.8148C49.4859 37.1382 49.7511 38.455 49.6202 39.3305C49.5218 39.9872 49.2174 40.4037 48.7637 40.5056C48.2724 40.6154 47.2516 40.689 46.2232 40.689Z" fill="#525B66"/>
<path d="M43.3619 39.9102C43.2526 40.6306 47.5787 40.5606 48.7238 40.3045C49.8689 40.0484 49.4919 37.3776 48.8639 36.9921C48.2359 36.6075 43.7622 37.2704 43.3619 39.9102Z" fill="white"/>
<path d="M49.7144 44.9958C49.651 44.9019 49.5485 44.8469 49.44 44.8469H19.7648C19.6564 44.8469 19.5538 44.9028 19.4904 44.9958C19.427 45.0897 19.4095 45.2102 19.4429 45.3192L19.7198 46.2125C19.9883 47.0791 20.7498 47.664 21.608 47.664H47.596C48.4542 47.664 49.2157 47.0791 49.4842 46.2125L49.7611 45.3192C49.7962 45.2093 49.7786 45.0888 49.7144 44.9958Z" fill="#10303E"/>
<path d="M35.0447 44.8469H34.1606V47.664H35.0447V44.8469Z" fill="#525B66"/>
<path d="M44.2609 45.9927H24.9434V46.5173H44.2609V45.9927Z" fill="#525B66"/>
<path d="M38.5193 44.8469H37.6353V47.664H38.5193V44.8469Z" fill="#525B66"/>
<path d="M38.8521 33.1942C38.8521 33.1942 37.1099 28.1556 34.8438 25.2695C34.5586 24.9061 34.2617 24.5597 33.9623 24.2327C30.527 24.2575 24.4503 24.4843 23.7864 25.1906C23.0783 25.9429 20.3669 32.4738 20.216 33.29C20.1134 33.8465 20.5946 34.115 21.2243 34.0467C22.0884 33.9537 27.2518 33.0977 34.6028 33.0977C36.1207 33.0977 37.5394 33.1358 38.8521 33.1942Z" fill="#0891FF"/>
<path d="M30.6858 47.6631H31.5698V44.846H30.6858V47.6631Z" fill="#525B66"/>
<path d="M24.8709 46.2549C24.8709 47.033 24.2771 47.663 23.5448 47.663C22.8126 47.663 22.2188 47.0321 22.2188 46.2549C22.2188 45.4769 22.8126 44.8459 23.5448 44.8459C24.2771 44.8459 24.8709 45.4769 24.8709 46.2549Z" fill="white"/>
<path d="M44.334 46.2549C44.334 47.033 44.9278 47.663 45.6601 47.663C46.3924 47.663 46.9853 47.0321 46.9853 46.2549C46.9853 45.4769 46.3915 44.8459 45.6601 44.8459C44.9286 44.8459 44.334 45.4769 44.334 46.2549Z" fill="white"/>
<path d="M34.442 42.7671C31.7581 42.7671 28.4162 42.6156 27.7381 41.896C27.1927 41.3165 26.1093 39.2039 26.2136 38.3621C26.2594 37.9935 26.4704 37.8127 26.5922 37.7374C27.417 37.2314 32.3453 37.0541 34.4261 37.001C36.522 37.0533 41.4644 37.2296 42.2918 37.7374C42.4135 37.8118 42.6246 37.9917 42.6704 38.3621C42.7747 39.2039 41.6913 41.3165 41.1458 41.896C40.4678 42.6165 37.1259 42.7671 34.442 42.7671Z" fill="#525B66"/>
<path d="M34.4422 42.5626C32.2746 42.5626 28.539 42.4571 27.8743 41.7508C27.3088 41.15 26.3138 39.1208 26.4047 38.3888C26.4398 38.1061 26.5982 37.9705 26.6892 37.9147C27.4965 37.4194 32.8184 37.2475 34.4314 37.2058C36.066 37.2466 41.3887 37.4194 42.1961 37.9147C42.287 37.9705 42.4454 38.1061 42.4805 38.3888C42.5714 39.1199 41.5764 41.15 41.0109 41.7508C40.3454 42.4571 36.6098 42.5626 34.4422 42.5626Z" fill="white"/>
<path d="M41.954 38.3585C41.1901 37.8897 34.442 37.7178 34.442 37.7178C34.442 37.7178 27.6931 37.8897 26.9292 38.3585C26.6506 38.5295 27.5922 40.7271 28.2144 41.3891C28.8366 42.051 34.4412 42.051 34.4412 42.051C34.4412 42.051 40.045 42.051 40.668 41.3891C41.2918 40.7271 42.2326 38.5295 41.954 38.3585Z" fill="#10303E"/>
<path d="M41.9941 38.6226H26.8892C26.9075 38.759 26.955 38.9371 27.0234 39.1401H41.859C41.9282 38.9371 41.9757 38.759 41.9941 38.6226Z" fill="white"/>
<path d="M27.491 40.2443H41.3916C41.4775 40.0733 41.5584 39.8987 41.6327 39.7268H27.25C27.3242 39.8978 27.406 40.0724 27.491 40.2443Z" fill="white"/>
<path d="M34.0534 42.472H34.8307C34.8357 40.8273 34.8399 39.1489 34.844 37.498H34.04C34.0442 39.1489 34.0484 40.8273 34.0534 42.472Z" fill="white"/>
<path d="M28.18 41.3476H40.7044C40.8204 41.2164 40.9455 41.0374 41.0714 40.8301H27.813C27.9389 41.0374 28.0632 41.2164 28.18 41.3476Z" fill="white"/>
<path d="M36.2367 25.2693H32.9682C32.8097 25.2693 32.6821 25.5564 32.6821 25.91C32.6821 26.2635 32.8106 26.5507 32.9682 26.5507H36.2367C36.3952 26.5507 36.5228 26.2635 36.5228 25.91C36.5228 25.5564 36.3952 25.2693 36.2367 25.2693Z" fill="#10303E"/>
<path d="M49.0033 41.7889C49.0033 42.0025 48.8406 42.1753 48.6405 42.1753H44.7206C44.5196 42.1753 44.3569 42.0025 44.3569 41.7889V41.4513C44.3569 41.2386 44.5196 41.0649 44.7206 41.0649H48.6405C48.8406 41.0649 49.0033 41.2377 49.0033 41.4513V41.7889Z" fill="#FA7500"/>
<path d="M20.5648 42.1753H24.4847C24.6857 42.1753 24.8483 42.0025 24.8483 41.7889V41.4513C24.8483 41.2386 24.6857 41.0649 24.4847 41.0649H20.5648C20.3638 41.0649 20.2012 41.2377 20.2012 41.4513V41.7889C20.202 42.0025 20.3646 42.1753 20.5648 42.1753Z" fill="#FA7500"/>
<path d="M54.6803 54.2799L54.6686 53.6676L55.8121 53.6189L55.8112 53.4372L55.1474 53.4221L55.1373 52.8107L56.2416 52.7407V52.6468L54.5452 52.5954V51.9148L57.536 51.8803L57.5385 51.7792L55.7629 51.6578L55.7679 51.2227L54.5444 51.1607L54.5452 50.5493L55.5869 50.5005L55.5852 50.326L54.5293 50.2958V49.5922L55.0689 49.5683V49.1784L56.0723 49.1438L54.1782 49.1119V48.3498L55.7103 48.2745V48.2293L54.4384 48.1957V47.4894L56.8037 47.3964L54.5877 47.2652L54.5811 46.6547L56.6252 46.4783L56.6244 46.3649L54.7504 46.3188V45.8013L54.6369 45.7924V45.1074L55.1632 45.0738L54.6061 45.064V44.2213L55.1715 44.2107L54.6369 44.177V43.492L54.7504 43.4831V42.9665L56.6244 42.9196L56.6252 42.8061L54.5811 42.6298L54.5877 42.0201L56.8037 41.8881L54.4384 41.795V41.0888L55.7103 41.0551V41.0099L54.1782 40.9337V40.1725L56.0723 40.1397L55.0689 40.106V39.7161L54.5293 39.6931V38.9886L55.5852 38.9594L55.5869 38.7839L54.5452 38.7352L54.5444 38.1237L55.7679 38.0617L55.7629 37.6266L57.5385 37.5052L57.536 37.4051L54.5452 37.3696V36.6891L56.2416 36.6386V36.5437L55.1373 36.4746L55.1474 35.8623L55.8112 35.8472L55.8121 35.6647L54.6686 35.6168L54.6745 35.3111H54.6369V34.9106L55.1715 34.876L54.6061 34.8663V34.0235L55.1715 34.0138L54.6369 33.9801V33.2942L54.7504 33.2854V33.0479H54.6803L54.6686 32.4365L55.8121 32.3877L55.8112 32.2052L55.1474 32.191L55.1373 31.5787L56.2416 31.5095V31.4138L54.5452 31.3633V30.6837L57.536 30.6482L57.5385 30.5481L55.7629 30.4258V30.4143H54.1782V29.8073L54.4618 29.7727L56.0723 29.7452L55.0689 29.7107V29.3208L54.5293 29.2977V29.2543H54.1782V28.6562L54.4535 28.5791L55.7103 28.517V28.4718L54.4384 28.4382V27.731L56.8062 27.638L54.5877 27.5059L54.5811 26.8963L56.6252 26.7199L56.6244 26.6065L54.7504 26.5604V26.0562H54.5293V25.4519L54.8104 25.3881L55.5852 25.3659L55.5869 25.1904L54.5452 25.1408L54.5444 24.5303L55.7679 24.4682L55.7629 24.0331L57.5385 23.9117L57.536 23.8116L54.5452 23.7753V23.0956L56.2416 23.0451V22.9503L55.1373 22.8803L55.1474 22.2688L55.8112 22.2538L55.8121 22.0712L54.6686 22.0234L54.6803 21.4181L54.5811 21.4093L54.5877 20.7987L56.8037 20.6667L54.4384 20.5736V19.8674L55.7103 19.8337V19.7885L54.1782 19.7132V18.9759H54.5444L54.5452 18.4921L55.5869 18.4424L55.5852 18.267L54.5293 18.2369V17.5333L55.0689 17.5102V17.1203L56.0723 17.0849L54.1782 17.0539V16.3423H68.5742L68.5851 16.9546L67.4416 17.0025L67.4425 17.185L68.1063 17.2001L68.1163 17.8115L67.0121 17.8815V17.9755L68.7085 18.026V18.7065L65.7177 18.742L65.716 18.8421L67.4917 18.9644L67.4858 19.3995L68.7093 19.4615L68.7085 20.0721L67.6676 20.1217L67.6685 20.2963L68.7243 20.3264V21.03L68.1847 21.053V21.4429L67.1814 21.4784L69.0755 21.5094V22.2715L67.5442 22.3468V22.3929L68.8161 22.4274V23.1328L66.4508 23.2259L68.666 23.357L68.6726 23.9676L66.6293 24.1439L66.6301 24.2564L68.5033 24.3034V24.82L68.6176 24.8289V25.5148L68.0905 25.5485L68.6476 25.5582V26.4009L68.0821 26.4116L68.6176 26.4452V27.1302L68.5033 27.1391V27.6557L66.6301 27.7018L66.6293 27.8152L68.6726 27.9915L68.666 28.6012L66.4433 28.7341L68.8161 28.8272V29.5334L67.5442 29.5671V29.6123L69.0755 29.6876V30.4488L67.1814 30.4816L68.1847 30.5162V30.9052L68.7243 30.9282V31.6327L67.6685 31.662L67.6676 31.8374L68.7085 31.8871L68.7093 32.4985L67.4858 32.5605L67.4908 32.9947L65.716 33.117L65.7177 33.2171L68.7085 33.2526V33.9323L67.0121 33.9837V34.0785L68.1163 34.1476L68.1063 34.7599L67.4425 34.775L67.4416 34.9566L68.5851 35.0054L68.5792 35.3111H68.6176V35.7117L68.0821 35.7453L68.6476 35.756V36.5978L68.0821 36.6075L68.6176 36.6421V37.3271L68.5033 37.3359V37.5743H68.5742L68.5851 38.1858L67.4416 38.2345L67.4425 38.4162L68.1063 38.4312L68.1163 39.0436L67.0121 39.1127V39.2075L68.7085 39.2589V39.9386L65.7177 39.974L65.716 40.0741L67.4908 40.1964V40.2071H69.0755V40.815L68.7919 40.8486L67.1814 40.877L68.1847 40.9107V41.3006L68.7243 41.3236V41.367H69.0755V41.9661L68.8011 42.0432L67.5442 42.1052V42.1504L68.8161 42.1841V42.8903L66.4483 42.9842L68.666 43.1154L68.6726 43.7259L66.6293 43.9023L66.6301 44.0148L68.5033 44.0618V44.566H68.7243V45.1704L68.4441 45.2333L67.6685 45.2554L67.6676 45.4318L68.7085 45.4796L68.7093 46.0911L67.4858 46.1531L67.4908 46.5891L65.716 46.7105L65.7177 46.8106L68.7085 46.8461V47.5266L67.0121 47.5771V47.6711L68.1163 47.7402L68.1063 48.3525L67.4425 48.3676L67.4416 48.5501L68.5851 48.5989L68.5742 49.2041L68.6726 49.213L68.666 49.8235L66.4508 49.9547L68.8161 50.0486V50.754L67.5442 50.7876V50.8337L69.0755 50.909V51.6463H68.7093L68.7085 52.1301L67.6676 52.1798L67.6685 52.3552L68.7243 52.3854V53.089L68.1847 53.112V53.501L67.1814 53.5373L69.0755 53.5684V54.2799H54.6803Z" fill="#5BB9FF"/>
<path d="M68.7877 21.8106L63.8804 21.7309L67.1672 21.5545L62.9321 21.3144L68.1764 21.1372L63.0238 20.9688L68.4358 20.7366V20.625L62.7645 20.4646L67.656 20.1916L62.8862 20.0392L68.696 19.7672L62.8103 19.4703L67.4725 19.2701L62.3516 18.9174L65.6994 18.7649L62.3208 18.4761L68.4208 18.4043V18.3237L62.5501 18.1473L66.7235 18.0268V17.947L62.611 17.8504L68.0997 17.5057L62.8103 17.3861L67.4275 17.0972L63.1006 16.881L68.5734 16.6479H61.6269H54.4668V16.7525L59.3742 16.8323L56.0873 17.0095L60.3216 17.2496L55.0781 17.426L60.2299 17.5943L54.8179 17.8265V17.9391L60.4901 18.0995L55.5977 18.3715L60.3675 18.5239L54.5585 18.7969L60.4442 19.0937L56.0606 19.2816H54.4668V19.4207L60.169 19.7016L55.7203 19.862L60.184 20.0224L54.7262 20.1668V20.2785L60.1999 20.4947L57.3408 20.6312L60.1381 20.7756L54.6044 21.1044L60.0923 21.5776L56.7337 21.7176H54.6803L60.154 21.9498L55.8271 22.166L60.4442 22.4549L55.154 22.5754L60.6427 22.9201L56.5302 23.0158V23.0964L60.7036 23.2169L54.8329 23.3933V23.473L60.933 23.5448L57.5543 23.8337L60.9029 23.9861L55.7812 24.3388L60.4442 24.5391L54.5585 24.8359L60.3675 25.1089L55.5977 25.2604L60.4901 25.5333L54.8179 25.6937V25.7495H54.9247L59.9705 26.135L54.757 26.2547L59.9855 26.3831L56.6369 26.5834L60.0923 26.7279L54.6044 27.2011L60.1381 27.5298L57.3408 27.6742L60.1999 27.8098L54.7262 28.0269V28.1386L60.184 28.283L55.7203 28.4434L60.169 28.6038L54.4668 28.8847V28.9485H54.8179V29.0044L60.2299 29.2374L55.0781 29.4058L60.3216 29.5821L56.0873 29.8223L59.3742 29.9986L54.4668 30.0784V30.1076H56.0606L55.7812 30.12L60.9029 30.4727L57.5543 30.6251L60.933 30.914L54.8329 30.9858V31.0664L60.7036 31.2428L56.5302 31.3624V31.443L60.6427 31.5387L55.154 31.8834L60.4442 32.004L55.8271 32.2928L60.154 32.5091L54.6803 32.7412H56.7337L56.6369 32.7457L59.9855 32.9459L54.757 33.0744L59.9705 33.1949L54.9247 33.5795V33.6912L59.9396 34.012L55.9038 34.1245L60.536 34.2211L54.8946 34.3248V34.4453V34.5649L60.536 34.6695L55.9038 34.7661L59.9396 34.8777L54.9247 35.1985V35.3111H54.6803L60.154 35.5432L55.8271 35.7594L60.4442 36.0483L55.154 36.1688L60.6427 36.5136L56.5302 36.6093V36.6899L60.7036 36.8104L54.8329 36.9868V37.0665L60.933 37.1392L57.5543 37.4272L60.9029 37.5796L55.7812 37.9323L60.4442 38.1325L54.5585 38.4294L60.3675 38.7014L55.5977 38.8539L60.4901 39.1268L54.8179 39.2872V39.3997L60.2299 39.6319L55.0781 39.8003L60.3216 39.9766L56.0873 40.2168L59.3742 40.3931L54.4668 40.4737V40.6421L60.169 40.9221L55.7203 41.0825L60.184 41.2429L54.7262 41.3874V41.4999L60.1999 41.7161L57.3408 41.8526L60.1381 41.997L54.6044 42.3258L60.0923 42.7981L56.6369 42.9425L59.9855 43.1428L54.757 43.2713L59.9705 43.3918L54.9247 43.7764V43.8889L59.9396 44.2088L55.9038 44.3214L60.536 44.418L54.8946 44.5217V44.6422V44.7627L60.536 44.8664L55.9038 44.963L59.9396 45.0755L54.9247 45.3954V45.5079L59.9705 45.8925L54.757 46.013L59.9855 46.1415L56.6369 46.3418L60.0923 46.4862L54.6044 46.9594L60.1381 47.2873L57.3408 47.4317L60.1999 47.5682L54.7262 47.7844V47.897L60.184 48.0414L55.7203 48.2018L60.169 48.3622L54.4668 48.6422V48.8106L59.3742 48.8912L56.0873 49.0676L60.3216 49.3077L55.0781 49.4841L60.2299 49.6524L54.8179 49.8846V49.9971L60.4901 50.1575L55.5977 50.4305L60.3675 50.5829L54.5585 50.8549L60.4442 51.1518L55.7812 51.3521L60.9029 51.7047L57.5543 51.8572L60.933 52.146L54.8329 52.2178V52.2985L60.7036 52.4748L56.5302 52.5944V52.6751L60.6427 52.7708L55.154 53.1155L60.4442 53.236L55.8271 53.5249L60.154 53.7411L54.6803 53.9733H61.6269H68.7877V53.8696L63.8804 53.789L67.1672 53.6126L62.9321 53.3725L68.1764 53.1961L63.0238 53.0278L68.4358 52.7947V52.683L62.7645 52.5226L67.656 52.2497L62.8862 52.0973L68.696 51.8253L62.8103 51.5284L67.1931 51.3397H68.7877V51.2014L63.0856 50.9205L67.5342 50.7601L63.0697 50.5997L68.5275 50.4553V50.3436L63.0547 50.1265L65.9137 49.99L63.1156 49.8465L68.6501 49.5177L63.1614 49.0445L66.52 48.9045H68.5734L63.1006 48.6715L67.4275 48.4552L62.8103 48.1664L68.0997 48.0467L62.611 47.702L66.7235 47.6054V47.5257L62.5501 47.4052L68.4208 47.2288V47.1482L62.3208 47.0764L65.6994 46.7875L62.3516 46.636L67.4725 46.2833L62.8103 46.0822L68.696 45.7862L62.8862 45.5133L67.656 45.3608L62.7645 45.0888L68.4358 44.9284V44.8717H68.329L63.2841 44.4871L68.4975 44.3666L63.269 44.239L66.6168 44.0387L63.1614 43.8943L68.6501 43.4211L63.1156 43.0923L65.9137 42.9479L63.0547 42.8114L68.5275 42.5952V42.4826L63.0697 42.3391L67.5342 42.1787L63.0856 42.0183L68.7877 41.7374V41.6736H68.4358V41.6169L63.0238 41.3847L68.1764 41.2163L62.9321 41.04L67.1672 40.7998L63.8804 40.6235L68.7877 40.5429V40.5136H67.1931L67.4725 40.5021L62.3516 40.1485L65.6994 39.9961L62.3208 39.7081L68.4208 39.6354V39.5557L62.5501 39.3793L66.7235 39.2588V39.1791L62.611 39.0825L68.0997 38.7378L62.8103 38.6173L67.4275 38.3293L63.1006 38.113L68.5734 37.88H66.52L66.6168 37.8764L63.269 37.6762L68.4975 37.5477L63.2841 37.4272L68.329 37.0426V36.93L63.3149 36.6093L67.3507 36.4976L62.7186 36.401L68.3599 36.2965V36.1768V36.0563L62.7186 35.9526L67.3507 35.856L63.3149 35.7435L68.329 35.4236V35.3111H68.5734L63.1006 35.078L67.4275 34.8618L62.8103 34.5738L68.0997 34.4533L62.611 34.1086L66.7235 34.012V33.9322L62.5501 33.8117L68.4208 33.6354V33.5556L62.3208 33.4829L65.6994 33.1949L62.3516 33.0425L67.4725 32.6898L62.8103 32.4887L68.696 32.1927L62.8862 31.9198L67.656 31.7674L62.7645 31.4953L68.4358 31.3349V31.2224L63.0238 30.9902L68.1764 30.8218L62.9321 30.6455L67.1672 30.4045L63.8804 30.2281L68.7877 30.1484V29.98L63.0856 29.6991L67.5342 29.5387L63.0697 29.3783L68.5275 29.2348V29.1222L63.0547 28.906L65.9137 28.7695L63.1156 28.6251L68.6501 28.2963L63.1614 27.8231L66.6168 27.6787L63.269 27.4784L68.4975 27.3508L63.2841 27.2303L68.329 26.8457V26.7332L63.3149 26.4124L67.3507 26.2998L62.7186 26.2041L68.3599 26.0996V25.98V25.8594L62.7186 25.7549L67.3507 25.6592L63.3149 25.5466L68.329 25.2258V25.1142L63.2841 24.7287L68.4975 24.6091L63.269 24.4806L66.6168 24.2803L63.1614 24.1359L68.6501 23.6627L63.1156 23.3339L65.9137 23.1895L63.0547 23.0539L68.5275 22.8368V22.7251L63.0697 22.5807L67.5342 22.4203L63.0856 22.2599L68.7877 21.979V21.8106Z" fill="#0891FF"/>
<path d="M60.1601 53.8209L60.1609 53.5878L58.5504 53.5072L60.4528 53.3884L60.447 53.0827L58.7322 53.0446L60.6513 52.9232L60.6472 52.629L60.7089 52.6272V52.3215L60.2293 52.3065L60.9349 52.2985L60.9449 51.9928L59.8982 51.9033L60.909 51.8581L60.9115 51.5523L58.5229 51.3875L60.4503 51.3051L60.4512 50.9985L57.7056 50.8603L60.3744 50.7362L60.3719 50.4296L59.0909 50.3888L60.4979 50.3109L60.4937 50.0042L57.5429 49.921L60.236 49.8058L60.2351 49.4991L59.6997 49.4823L60.3261 49.461L60.3294 49.1553L58.8615 49.072L59.3811 49.0446L59.3761 48.7379L56.5688 48.6919L60.1759 48.5146L60.1743 48.2089L59.9783 48.2018L60.1893 48.1947L60.1876 47.8881L57.6672 47.8217L60.2051 47.7215L60.206 47.4149L60.1451 47.4132L60.1459 47.1349L56.7114 46.9302L60.1051 46.6387L60.0984 46.3329L59.6555 46.3143L59.9941 46.294L59.9891 45.9882H59.9749L59.9808 45.7401L56.3136 45.4601L59.9483 45.2279L59.9449 45.0321L60.5387 45.0197V44.714L56.6672 44.6422L60.5387 44.5713V44.2647L59.9449 44.2532L59.9483 44.0573L56.3086 43.8243L59.9808 43.5443L59.9749 43.2961H59.9891L59.9941 42.9913L59.648 42.97L60.0984 42.9514L60.1051 42.6457L56.7114 42.3542L60.1459 42.1495L60.1451 41.8721L60.206 41.8694L60.2051 41.5637L57.6614 41.4636L60.1876 41.3962L60.1893 41.0896L59.9774 41.0825L60.1743 41.0754L60.1759 40.7697L56.5663 40.5925L59.3761 40.5464L59.3811 40.2407L58.8615 40.2123L60.3294 40.1299L60.3261 39.8233L59.6997 39.8029L60.2351 39.7852L60.236 39.4786L57.5379 39.3634L60.4937 39.2792L60.4979 38.9735L59.0967 38.8955L60.3719 38.8557L60.3744 38.549L57.7056 38.4241L60.4512 38.2859L60.4503 37.9793L58.5196 37.8968L60.9115 37.732L60.909 37.4263L59.8982 37.3802L60.9449 37.2907L60.9349 36.985L60.2268 36.977L60.7089 36.9628V36.6562L60.6472 36.6554L60.6513 36.3612L58.7381 36.2406L60.447 36.2016L60.4528 35.8959L58.5504 35.7772L60.1609 35.6965L60.1593 35.3899L56.648 35.242L59.9483 35.0302L59.9449 34.8343L60.5387 34.8228V34.5162L56.6672 34.4453L60.5387 34.3735V34.0678L59.9449 34.0554L59.9483 33.8596L56.3136 33.6274L59.9808 33.3474L59.9749 33.0993H59.9891L59.9941 32.7935L58.7781 32.72L60.1593 32.6624L60.1609 32.3558L58.5504 32.2751L60.4528 32.1564L60.447 31.8507L58.7381 31.8117L60.6513 31.6921L60.6472 31.397L60.7089 31.3961V31.0895L60.2268 31.0753L60.9349 31.0673L60.9449 30.7616L59.8982 30.6721L60.909 30.626L60.9115 30.3212L58.6405 30.1643L59.3761 30.1519L59.3811 29.8453L58.8615 29.8179L60.3294 29.7354L60.3261 29.4288L59.6889 29.4076L60.2351 29.3898L60.236 29.0832L56.6514 28.9299L60.1759 28.7571L60.1743 28.4505L59.9674 28.4434L60.1893 28.4363L60.1876 28.1297L57.6672 28.0633L60.2051 27.9632L60.206 27.6566L60.1451 27.6548L60.1459 27.3774L56.7114 27.1727L60.1051 26.8803L60.0984 26.5755L59.648 26.5568L59.9941 26.5356L59.9891 26.2299H59.9749L59.9808 25.9817L57.2936 25.7761L60.4937 25.6866L60.4979 25.38L59.0909 25.3029L60.3719 25.2622L60.3744 24.9556L57.7056 24.8306L60.4512 24.6924L60.4503 24.3858L58.5229 24.3043L60.9115 24.1386L60.909 23.8337L59.894 23.7876L60.9449 23.6973L60.9349 23.3915L60.2452 23.3836L60.7089 23.3703V23.0637L60.6472 23.0619L60.6513 22.7677L58.7381 22.6472L60.447 22.6082L60.4528 22.3025L58.5504 22.1837L60.1609 22.1031L60.1593 21.7965L59.3336 21.7619L60.0984 21.73L60.1051 21.4252L56.7114 21.1327L60.1459 20.928L60.1451 20.6498L60.206 20.648L60.2051 20.3414L57.6672 20.2413L60.1876 20.1748L60.1893 19.8691L59.9774 19.8611L60.1743 19.8549L60.1759 19.5483L57.0183 19.3932L60.4503 19.2461L60.4512 18.9404L57.7056 18.8022L60.3744 18.6772L60.3719 18.3706L59.0967 18.3308L60.4979 18.2528L60.4937 17.9462L57.5429 17.8629L60.236 17.7477L60.2351 17.4411L59.6889 17.4233L60.3261 17.403L60.3294 17.0963L58.8615 17.0131L59.3811 16.9856L59.3786 16.8013H63.0942L63.0933 17.0343L64.7038 17.1141L62.8023 17.2337L62.8073 17.5394L64.517 17.5784L62.6029 17.698L62.6079 17.9931L62.5462 17.994V18.3006L63.0258 18.3148L62.3194 18.3228L62.3102 18.6285L63.3569 18.718L62.3452 18.7641L62.3427 19.0689L64.7364 19.2346L62.8048 19.317L62.8031 19.6236L65.5445 19.761L62.8807 19.8859L62.8823 20.1917L64.1642 20.2333L62.7572 20.3113L62.7614 20.617L65.7113 20.7012L63.0183 20.8164L63.0199 21.1221L63.5654 21.1398L62.9282 21.1611L62.9249 21.4677L64.3927 21.5501L63.8731 21.5776L63.8781 21.8842L66.6813 21.9294L63.0792 22.1066L63.08 22.4132L63.2768 22.4203L63.0658 22.4274L63.0666 22.734L65.5879 22.8005L63.0491 22.9006V23.2063L63.1092 23.209L63.1084 23.4863L66.5428 23.691L63.15 23.9835L63.1559 24.2892L63.5996 24.3069L63.2601 24.3282L63.2651 24.6339H63.2802L63.2735 24.8811L66.9407 25.1612L63.306 25.3942L63.3085 25.5901L62.7155 25.6016V25.9082L66.5879 25.98L62.7155 26.0508V26.3566L63.3085 26.369L63.306 26.5648L66.9423 26.7979L63.2735 27.0779L63.2802 27.326H63.2651L63.2601 27.6317L63.5996 27.6521L63.1559 27.6698L63.15 27.9756L66.5428 28.268L63.1084 28.4727L63.1092 28.7509L63.0491 28.7527V29.0593L65.5929 29.1595L63.0666 29.2259L63.0658 29.5316L63.2768 29.5396L63.08 29.5458L63.0792 29.8524L66.6813 30.0296L63.8781 30.0748L63.8731 30.3814L64.3927 30.4089L62.9249 30.4922L62.9282 30.7979L63.5654 30.8192L63.0199 30.8369L63.0183 31.1435L65.7113 31.2587L62.7614 31.342L62.7572 31.6486L64.1575 31.7257L62.8823 31.7665L62.8807 32.0722L65.5487 32.1972L62.8031 32.3354L62.8048 32.642L64.7364 32.7253L62.3427 32.8901L62.3452 33.1958L63.3569 33.241L62.3102 33.3305L62.3194 33.6363L63.0258 33.6442L62.5462 33.6584V33.965L62.6079 33.9668L62.6029 34.261L64.517 34.3815L62.8073 34.4196L62.8023 34.7253L64.7038 34.845L63.0933 34.9247L63.095 35.2313L66.6021 35.3811L63.306 35.5911L63.3085 35.7869L62.7155 35.7993V36.1051L66.5737 36.1768L62.7155 36.2477V36.5543L63.3085 36.5659L63.306 36.7617L66.9423 36.9947L63.2735 37.2748L63.2802 37.5229H63.2651L63.2601 37.8277L64.477 37.9013L63.095 37.9598L63.0933 38.2655L64.7038 38.3461L62.8023 38.4649L62.8073 38.7706L64.517 38.8096L62.6029 38.9301L62.6079 39.2252L62.5462 39.2269V39.5327L63.0091 39.546L62.3194 39.5548L62.3102 39.8605L63.3611 39.95L62.3452 39.9961L62.3427 40.3018L64.6096 40.4578L63.8781 40.4693L63.8731 40.7759L64.3927 40.8034L62.9249 40.8867L62.9274 41.1933L63.5646 41.2137L63.0199 41.2314L63.0183 41.538L66.6062 41.6922L63.0792 41.865L63.08 42.1716L63.2768 42.1787L63.0658 42.1858L63.0666 42.4924L65.5879 42.5589L63.0491 42.6581V42.9647L63.1092 42.9674L63.1084 43.2447L66.5428 43.4485L63.15 43.7419L63.1559 44.0476L63.5996 44.0653L63.2601 44.0866L63.2651 44.3914H63.2802L63.2735 44.6395L65.964 44.8451L62.7614 44.9355L62.7572 45.2421L64.1584 45.3201L62.8823 45.36L62.8807 45.6666L65.5487 45.7906L62.8031 45.9289L62.8048 46.2355L64.7322 46.3179L62.3427 46.4827L62.3452 46.7884L63.3611 46.8336L62.3102 46.924L62.3194 47.2297L63.0275 47.2377L62.5462 47.2519V47.5585L62.6079 47.5603L62.6029 47.8545L64.517 47.975L62.8073 48.0131L62.8023 48.3188L64.7038 48.4375L63.0933 48.5182L63.095 48.8248L63.9215 48.8602L63.1559 48.8913L63.15 49.197L66.5428 49.4894L63.1084 49.6941L63.1092 49.9715L63.0491 49.9741V50.2798L65.5929 50.38L63.0666 50.4464L63.0658 50.753L63.2768 50.7601L63.08 50.7672L63.0792 51.0738L66.2317 51.228L62.8048 51.3751L62.8031 51.6817L65.5487 51.82L62.8807 51.9449L62.8823 52.2506L64.1642 52.2923L62.7572 52.3694L62.7614 52.676L65.7122 52.7593L63.0183 52.8745L63.0199 53.1811L63.5545 53.1979L62.9282 53.2192L62.9249 53.5249L64.3927 53.6082L63.8731 53.6357L63.8765 53.8209H60.1601Z" fill="#0081EF"/>
<path d="M14.7881 16.3423L14.7989 16.9546L13.6563 17.0025V17.185L14.3202 17.2001L14.331 17.8115L13.226 17.8815V17.9755L14.9232 18.026V18.7065L11.9316 18.742L11.9299 18.843L13.7047 18.9644L13.7005 19.3995L14.9232 19.4615V20.0721L13.8815 20.1217L13.8832 20.2963L14.9382 20.3264V21.03L14.3994 21.053V21.4429L13.3953 21.4784L15.2902 21.5094V22.2715L13.7581 22.3468V22.3929L15.03 22.4266V23.1328L12.6647 23.2259L14.8798 23.357L14.8873 23.9676L12.8432 24.1439L12.844 24.2564L14.7172 24.3034V24.8209L14.8315 24.8298V25.5148L14.3052 25.5485L14.8615 25.5582V26.4009L14.296 26.4116L14.8315 26.4452V27.1302L14.7172 27.1391V27.6557L12.844 27.7018L12.8432 27.8161L14.8873 27.9915L14.8798 28.6021L12.6647 28.7341L15.03 28.8272V29.5334L13.7581 29.5671V29.6123L15.2902 29.6876V30.4488L13.3953 30.4816L14.3994 30.5162V30.9052L14.9382 30.9282V31.6327L13.8832 31.6629L13.8815 31.8374L14.9232 31.8871V32.4985L13.7005 32.5605L13.7047 32.9947L11.9299 33.117L11.9316 33.2171L14.9232 33.2526V33.9323L13.226 33.9837V34.0785L14.331 34.1476L14.3202 34.7599L13.6563 34.775V34.9566L14.7989 35.0054L14.7939 35.3111H14.8315V35.7117L14.296 35.7453L14.8615 35.756V36.5978L14.296 36.6075L14.8315 36.6421V37.3271L14.7172 37.3359V37.5743H14.7881L14.7989 38.1858L13.6563 38.2345V38.4162L14.3202 38.4312L14.331 39.0436L13.226 39.1127V39.2075L14.9232 39.2589V39.9386L11.9316 39.974L11.9299 40.0741L13.7047 40.1964V40.2071H15.2902V40.815L15.0058 40.8495L13.3953 40.877L14.3994 40.9107V41.3006L14.9382 41.3245V41.367H15.2902V41.9661L15.015 42.0432L13.7581 42.1052V42.1504L15.03 42.1841V42.8903L12.6613 42.9842L14.8798 43.1154L14.8873 43.7259L12.8432 43.9023L12.844 44.0148L14.7172 44.0618V44.566H14.9382V45.1704L14.658 45.2333L13.8832 45.2554L13.8815 45.4318L14.9232 45.4805V46.092L13.7005 46.154L13.7047 46.5891L11.9299 46.7105L11.9316 46.8106L14.9232 46.8461V47.5266L13.226 47.5771V47.6719L14.331 47.7411L14.3202 48.3534L13.6563 48.3685V48.5501L14.7989 48.5989L14.7881 49.2041L14.8873 49.213L14.8798 49.8235L12.6647 49.9547L15.03 50.0486V50.754L13.7581 50.7876V50.8337L15.2902 50.909V51.6463H14.9232V52.1301L13.8815 52.1798L13.8832 52.3552L14.9382 52.3854V53.089L14.3994 53.112V53.501L13.3953 53.5373L15.2902 53.5684V54.2799H0.894174L0.883331 53.6676L2.02593 53.6189V53.4372L1.36205 53.4221L1.35122 52.8107L2.45629 52.7407V52.6468L0.75906 52.5954V51.9148L3.75069 51.8803L3.75236 51.7801L1.97673 51.6578L1.98174 51.2227L0.75822 51.1607L0.75906 50.5493L1.80074 50.5005L1.79908 50.326L0.744043 50.2958V49.5922L1.28283 49.5683V49.1784L2.28614 49.1438L0.39209 49.1119V48.3498L1.92419 48.2745V48.2293L0.651474 48.1948V47.4894L3.01675 47.3964L0.802431 47.2652L0.794923 46.6547L2.83827 46.4783L2.83744 46.3649L0.964231 46.3188V45.8022L0.850803 45.7933V45.1074L1.37707 45.0738L0.820782 45.064V44.2213L1.3854 44.2107L0.850803 44.177V43.492L0.964231 43.4831V42.9665L2.83744 42.9196L2.83827 42.807L0.794923 42.6307L0.802431 42.0201L3.02509 41.8881L0.651474 41.795V41.0888L1.92419 41.0551V41.0099L0.39209 40.9337V40.1725L2.28614 40.1397L1.28283 40.106V39.7161L0.744043 39.6931V38.9895L1.79908 38.9594L1.80074 38.7839L0.75906 38.7352L0.75822 38.1237L1.98174 38.0617L1.97673 37.6266L3.75236 37.5052L3.75069 37.4051L0.75906 37.3696V36.6891L2.45629 36.6386V36.5437L1.35122 36.4746L1.36205 35.8623L2.02593 35.8472V35.6647L0.883331 35.6168L0.888332 35.3111H0.850803V34.9106L1.3854 34.8769L0.820782 34.8663V34.0235L1.3854 34.0138L0.850803 33.9801V33.2942L0.964231 33.2854V33.0479H0.894174L0.883331 32.4365L2.02593 32.3877V32.2052L1.36205 32.191L1.35122 31.5787L2.45629 31.5095V31.4138L0.75906 31.3633V30.6837L3.75069 30.6482L3.75236 30.5481L1.97673 30.4258V30.4143H0.39209V29.8073L0.676493 29.7727L2.28614 29.7452L1.28283 29.7107V29.3217L0.744043 29.2986V29.2543H0.39209V28.6562L0.667318 28.5791L1.92419 28.517V28.4718L0.651474 28.4382V27.731L3.02009 27.638L0.802431 27.5059L0.794923 26.8963L2.83827 26.7199L2.83744 26.6065L0.964231 26.5604V26.0562H0.744043V25.4519L1.02427 25.3881L1.79908 25.3659L1.80074 25.1904L0.75906 25.1417L0.75822 24.5312L1.98174 24.4691L1.97673 24.0331L3.75236 23.9117L3.75069 23.8116L0.75906 23.7753V23.0956L2.45629 23.0451V22.9512L1.35122 22.8811L1.36205 22.2697L2.02593 22.2546V22.0712L0.883331 22.0234L0.894174 21.4181L0.794923 21.4093L0.802431 20.7987L3.01675 20.6667L0.651474 20.5736V19.8674L1.92419 19.8337V19.7885L0.39209 19.7132V18.9759H0.75822L0.75906 18.4921L1.80074 18.4424L1.79908 18.267L0.744043 18.2369V17.5333L1.28283 17.5102V17.1203L2.28614 17.0849L0.39209 17.0539V16.3423H14.7881Z" fill="#5BB9FF"/>
<path d="M0.680664 48.8107L5.58802 48.8913L2.30116 49.0677L6.53547 49.3078L1.29199 49.4842L6.44373 49.6525L1.03178 49.8856V49.9972L6.70395 50.1576L1.81158 50.4306L6.58135 50.583L0.772407 50.855L6.65807 51.1519L1.99507 51.3522L7.11679 51.7048L3.7682 51.8573L7.14765 52.1461L1.04762 52.2179V52.2986L6.91828 52.4749L2.74403 52.5945V52.6752L6.85657 52.7709L1.36873 53.1156L6.65807 53.2361L2.04095 53.525L6.36784 53.7412L0.89417 53.9734H7.84071H15.0016V53.8697L10.0942 53.7891L13.3811 53.6127L9.14595 53.3726L14.3903 53.1962L9.23769 53.0279L14.6505 52.7957V52.6831L8.97831 52.5228L13.8707 52.2498L9.10007 52.0983L14.9099 51.8254L9.02419 51.5285L13.407 51.3406H15.0016V51.2015L9.29942 50.9206L13.7481 50.7602L9.28356 50.5998L14.7422 50.4554V50.3437L9.26856 50.1266L12.1276 49.991L9.32944 49.8466L14.864 49.5178L9.3753 49.0446L12.7339 48.9046H14.7873L9.31442 48.6716L13.6413 48.4553L9.02419 48.1665L14.3135 48.0468L8.82486 47.7021L12.9374 47.6055V47.5258L8.76397 47.4053L14.6346 47.2289V47.1492L8.53462 47.0765L11.9132 46.7876L8.56548 46.6361L13.6872 46.2834L9.02419 46.0823L14.9099 45.7863L9.10007 45.5133L13.8707 45.3609L8.97831 45.0889L14.6505 44.9285V44.8718H14.5429L9.49791 44.4872L14.7114 44.3676L9.4829 44.2391L12.8306 44.0388L9.3753 43.8944L14.864 43.4212L9.32944 43.0924L12.1276 42.948L9.26856 42.8115L14.7422 42.5953V42.4827L9.28356 42.3392L13.7481 42.1788L9.29942 42.0184L15.0016 41.7375V41.6737H14.6505V41.6178L9.23769 41.3848L14.3903 41.2164L9.14595 41.0401L13.3811 40.7999L10.0942 40.6236L15.0016 40.543V40.5137H13.407L13.6872 40.5022L8.56548 40.1495L11.9132 39.9971L8.53462 39.7082L14.6346 39.6355V39.5558L8.76397 39.3794L12.9374 39.2589V39.1792L8.82486 39.0826L14.3135 38.7379L9.02419 38.6182L13.6413 38.3294L9.31442 38.1131L14.7873 37.8801H12.7339L12.8306 37.8765L9.4829 37.6763L14.7114 37.5478L9.49791 37.4273L14.5429 37.0427V36.9301L9.52877 36.6102L13.5646 36.4977L8.93245 36.4011L14.5737 36.2974V36.1769V36.0564L8.93245 35.9527L13.5646 35.8561L9.52877 35.7445L14.5429 35.4237V35.3112H14.7873L9.31442 35.079L13.6413 34.8619L9.02419 34.5739L14.3135 34.4534L8.82486 34.1087L12.9374 34.0121V33.9323L8.76397 33.8118L14.6346 33.6355V33.5557L8.53462 33.483L11.9132 33.195L8.56548 33.0426L13.6872 32.6899L9.02419 32.4888L14.9099 32.1928L9.10007 31.9199L13.8707 31.7675L8.97831 31.4954L14.6505 31.335V31.2225L9.23769 30.9903L14.3903 30.8219L9.14595 30.6456L13.3811 30.4046L10.0942 30.2282L15.0016 30.1485V29.9801L9.29942 29.6992L13.7481 29.5388L9.28356 29.3784L14.7422 29.2349V29.1223L9.26856 28.9061L12.1276 28.7696L9.32944 28.6252L14.864 28.2964L9.3753 27.8232L12.8306 27.6797L9.4829 27.4785L14.7114 27.3509L9.49791 27.2304L14.5429 26.8458V26.7333L9.52877 26.4125L13.5646 26.3008L8.93245 26.2042L14.5737 26.0997V25.98V25.8595L8.93245 25.755L13.5646 25.6593L9.52877 25.5467L14.5429 25.2259V25.1143L9.49791 24.7288L14.7114 24.6092L9.4829 24.4807L12.8306 24.2804L9.3753 24.136L14.864 23.6628L9.32944 23.334L12.1276 23.1896L9.26856 23.054L14.7422 22.8369V22.7252L9.28356 22.5808L13.7481 22.4204L9.29942 22.26L15.0016 21.9791V21.8107L10.0942 21.731L13.3811 21.5546L9.14595 21.3145L14.3903 21.1373L9.23769 20.9698L14.6505 20.7367V20.6251L8.97831 20.4647L13.8707 20.1917L9.10007 20.0393L14.9099 19.7673L9.02419 19.4704L13.6872 19.2702L8.56548 18.9175L11.9132 18.765L8.53462 18.4762L14.6346 18.4044V18.3238L8.76397 18.1474L12.9374 18.0278V17.9471L8.82486 17.8505L14.3135 17.5058L9.02419 17.3862L13.6413 17.0973L9.31442 16.8811L14.7873 16.6489H7.84071H0.680664V16.7526L5.58802 16.8333L2.30116 17.0096L6.53547 17.2497L1.29199 17.4261L6.44373 17.5944L1.03178 17.8266V17.9392L6.70395 18.0996L1.81158 18.3716L6.58135 18.524L0.772407 18.797L6.65807 19.0938L2.2753 19.2817H0.680664V19.4208L6.38284 19.7017L1.93419 19.8621L6.39786 20.0225L0.940035 20.1669V20.2786L6.41371 20.4948L3.55469 20.6313L6.35198 20.7757L0.818272 21.1045L6.30612 21.5777L2.94836 21.7177H0.89417L6.36784 21.9499L2.04095 22.167L6.65807 22.455L1.36873 22.5755L6.85657 22.9202L2.74403 23.0168V23.0965L6.91828 23.217L1.04762 23.3934V23.4731L7.14765 23.5458L3.7682 23.8338L7.11679 23.9862L1.99507 24.3389L6.65807 24.5392L0.772407 24.836L6.58135 25.109L1.81158 25.2614L6.70395 25.5334L1.03178 25.6938V25.7496H1.13936L6.18436 26.1351L0.970896 26.2548L6.19936 26.3832L2.85161 26.5835L6.30612 26.728L0.818272 27.2011L6.35198 27.5299L3.55469 27.6743L6.41371 27.8099L0.940035 28.027V28.1387L6.39786 28.2831L1.93419 28.4435L6.38284 28.6039L0.680664 28.8848V28.9486H1.03178V29.0045L6.44373 29.2375L1.29199 29.4059L6.53547 29.5822L2.30116 29.8224L5.58802 29.9987L0.680664 30.0793V30.1086H2.2753L1.99507 30.1201L7.11679 30.4728L3.7682 30.6252L7.14765 30.9141L1.04762 30.9859V31.0665L6.91828 31.2429L2.74403 31.3634V31.4431L6.85657 31.5397L1.36873 31.8835L6.65807 32.0041L2.04095 32.2929L6.36784 32.5092L0.89417 32.7413H2.94836L2.85161 32.7458L6.19936 32.946L0.970896 33.0745L6.18436 33.195L1.13936 33.5796V33.6922L6.15349 34.0121L2.11767 34.1246L6.74981 34.2212L1.10852 34.3249V34.4454V34.5659L6.74981 34.6696L2.11767 34.7662L6.15349 34.8778L1.13936 35.1986V35.3112H0.89417L6.36784 35.5433L2.04095 35.7604L6.65807 36.0484L1.36873 36.1689L6.85657 36.5137L2.74403 36.6102V36.69L6.91828 36.8105L1.04762 36.9869V37.0666L7.14765 37.1393L3.7682 37.4273L7.11679 37.5797L1.99507 37.9324L6.65807 38.1326L0.772407 38.4295L6.58135 38.7024L1.81158 38.854L6.70395 39.1269L1.03178 39.2873V39.3998L6.44373 39.632L1.29199 39.8004L6.53547 39.9767L2.30116 40.2169L5.58802 40.3932L0.680664 40.4738V40.6422L6.38284 40.9231L1.93419 41.0826L6.39786 41.243L0.940035 41.3875V41.5L6.41371 41.7162L3.55469 41.8527L6.35198 41.9971L0.818272 42.3259L6.30612 42.7982L2.85161 42.9426L6.19936 43.1429L0.970896 43.2714L6.18436 43.3919L1.13936 43.7765V43.889L6.15349 44.2098L2.11767 44.3215L6.74981 44.4181L1.10852 44.5218V44.6423V44.7628L6.74981 44.8665L2.11767 44.9631L6.15349 45.0756L1.13936 45.3964V45.508L6.18436 45.8926L0.970896 46.0131L6.19936 46.1416L2.85161 46.3419L6.30612 46.4863L0.818272 46.9595L6.35198 47.2874L3.55469 47.4318L6.41371 47.5683L0.940035 47.7845V47.8971L6.39786 48.0415L1.93419 48.2019L6.38284 48.3623L0.680664 48.6423V48.8107Z" fill="#0891FF"/>
<path d="M9.30813 16.8013V17.0334L10.9178 17.1141L9.01621 17.2328L9.02123 17.5385L10.7368 17.5775L8.81688 17.6989L8.82189 17.9931L8.76018 17.9949V18.3006L9.23974 18.3148L8.53332 18.3237L8.52415 18.6285L9.57084 18.7189L8.56001 18.7641L8.55667 19.0698L10.9461 19.2346L9.01872 19.317L9.01705 19.6227L11.7626 19.761L9.09462 19.8859L9.09711 20.1925L10.3782 20.2333L8.97118 20.3113L8.97535 20.617L11.9261 20.7012L9.23223 20.8164L9.23389 21.1221L9.76933 21.1398L9.14215 21.1602L9.13882 21.4659L10.6067 21.5501L10.0871 21.5776L10.0921 21.8833L12.9002 21.9303L9.29311 22.1066L9.29395 22.4132L9.49077 22.4203L9.27977 22.4274L9.2806 22.734L11.8018 22.8005L9.26393 22.9006L9.26309 23.2072L9.32314 23.209L9.3223 23.4872L12.7576 23.6919L9.36401 23.9835L9.37068 24.2892L9.81354 24.3069L9.4741 24.3282L9.4791 24.6339H9.49411L9.48744 24.882L13.1555 25.162L9.5208 25.3942L9.5233 25.5901L8.93031 25.6016V25.9082L12.8018 25.98L8.93031 26.0508V26.3575L9.5233 26.369L9.5208 26.5648L13.1605 26.7979L9.48744 27.0779L9.49411 27.3251H9.4791L9.4741 27.6308L9.82021 27.6521L9.37068 27.6707L9.36401 27.9756L12.7576 28.268L9.3223 28.4727L9.32314 28.75L9.26309 28.7527L9.26393 29.0584L11.8077 29.1586L9.2806 29.2259L9.27977 29.5325L9.49161 29.5396L9.29395 29.5467L9.29311 29.8524L12.9027 30.0296L10.0921 30.0748L10.0871 30.3814L10.6067 30.4089L9.13882 30.4922L9.14215 30.7988L9.76933 30.8192L9.23389 30.8369L9.23223 31.1426L11.9311 31.2587L8.97535 31.342L8.97118 31.6486L10.3723 31.7266L9.09711 31.7665L9.09462 32.0731L11.7626 32.198L9.01705 32.3363L9.01872 32.642L10.9495 32.7253L8.55667 32.8901L8.56001 33.1958L9.57084 33.241L8.52415 33.3305L8.53332 33.6363L9.2414 33.6451L8.76018 33.6593V33.965L8.82189 33.9668L8.81688 34.261L10.731 34.3815L9.02123 34.4205L9.01621 34.7253L10.9178 34.845L9.30813 34.9256L9.30895 35.2313L12.8202 35.3802L9.5208 35.592L9.5233 35.7869L8.93031 35.7993V36.1059L12.8018 36.1768L8.93031 36.2486V36.5543L9.5233 36.5667L9.5208 36.7626L13.1555 36.9947L9.48744 37.2748L9.49411 37.5229H9.4791L9.4741 37.8286L10.6909 37.9013L9.30895 37.9598L9.30813 38.2664L10.9178 38.347L9.01621 38.4658L9.02123 38.7715L10.731 38.8096L8.81688 38.9301L8.82189 39.2243L8.76018 39.2261V39.5327L9.2414 39.5469L8.53332 39.5548L8.52415 39.8605L9.57084 39.95L8.56001 39.9952L8.55667 40.301L10.8285 40.4578L10.0921 40.4702L10.0871 40.7759L10.6067 40.8043L9.13882 40.8867L9.14215 41.1933L9.77935 41.2137L9.23389 41.2323L9.23223 41.538L12.8177 41.6922L9.29311 41.865L9.29395 42.1707L9.50079 42.1787L9.27977 42.1858L9.2806 42.4924L11.8018 42.5589L9.26393 42.659L9.26309 42.9656L9.32314 42.9674L9.3223 43.2447L12.7576 43.4494L9.36401 43.741L9.37068 44.0467L9.82021 44.0653L9.4741 44.0866L9.4791 44.3923H9.49411L9.48744 44.6404L12.1755 44.8451L8.97535 44.9355L8.97118 45.2412L10.3782 45.3192L9.09711 45.36L9.09462 45.6666L11.7626 45.7915L9.01705 45.9298L9.01872 46.2355L10.9461 46.3179L8.55667 46.4827L8.56001 46.7884L9.57501 46.8345L8.52415 46.9249L8.53332 47.2297L9.22305 47.2386L8.76018 47.2519V47.5585L8.82189 47.5594L8.81688 47.8545L10.731 47.975L9.02123 48.014L9.01621 48.3197L10.9178 48.4384L9.30813 48.5191L9.30895 48.8248L10.1355 48.8602L9.37068 48.8913L9.36401 49.197L12.7576 49.4894L9.3223 49.6941L9.32314 49.9715L9.26309 49.9741L9.26393 50.2807L11.8018 50.3809L9.2806 50.4473L9.27977 50.753L9.49161 50.761L9.29395 50.7672L9.29311 51.0738L12.4499 51.228L9.01872 51.3751L9.01705 51.6817L11.7626 51.82L9.09462 51.9449L9.09711 52.2515L10.3723 52.2914L8.97118 52.3694L8.97535 52.6751L11.9261 52.7593L9.23223 52.8745L9.23389 53.1802L9.77935 53.1988L9.14215 53.2192L9.13882 53.5258L10.6067 53.6082L10.0871 53.6366L10.0904 53.8209H6.37404L6.37488 53.5878L4.76522 53.5081L6.66678 53.3884L6.66095 53.0827L4.95204 53.0437L6.86612 52.9232L6.86111 52.629L6.92283 52.6272V52.3215L6.44327 52.3073L7.14885 52.2994L7.15886 51.9936L6.11216 51.9041L7.123 51.8581L7.12633 51.5523L4.73269 51.3875L6.66429 51.3042L6.66511 50.9985L3.9237 50.8611L6.58839 50.7362L6.58588 50.4296L5.30483 50.3888L6.71182 50.3109L6.70766 50.0051L3.75689 49.921L6.44994 49.8058L6.44911 49.5L5.90282 49.4814L6.54002 49.461L6.54419 49.1544L5.07548 49.072L5.59508 49.0437L5.59006 48.7379L2.78776 48.6919L6.38989 48.5155L6.38822 48.2089L6.1914 48.2018L6.40324 48.1947L6.40157 47.8881L3.88116 47.8217L6.41908 47.7215L6.41992 47.4158L6.35987 47.4132L6.36071 47.1349L2.92538 46.9302L6.319 46.6387L6.31233 46.3329L5.86946 46.3152L6.20808 46.294L6.20307 45.9882H6.18889L6.19473 45.7401L2.52839 45.4601L6.16304 45.2279L6.15971 45.0321L6.75352 45.0206V44.714L2.88118 44.6422L6.75352 44.5713V44.2647L6.15971 44.2532L6.16304 44.0573L2.52672 43.8243L6.19473 43.5443L6.18889 43.2961H6.20307L6.20808 42.9904L5.86946 42.97L6.31233 42.9514L6.319 42.6466L2.92538 42.3542L6.36071 42.1495L6.35987 41.8712L6.41992 41.8694L6.41908 41.5628L3.87616 41.4627L6.40157 41.3962L6.40324 41.0896L6.1914 41.0825L6.38822 41.0754L6.38989 40.7697L2.78776 40.5925L5.59006 40.5464L5.59508 40.2407L5.07548 40.2132L6.54419 40.1299L6.54002 39.8233L5.90282 39.8029L6.44911 39.7852L6.44994 39.4786L3.75689 39.3634L6.70766 39.2801L6.71182 38.9735L5.3115 38.8955L6.58588 38.8557L6.58839 38.549L3.91953 38.4241L6.66511 38.2868L6.66429 37.9801L4.73269 37.8968L7.12633 37.732L7.123 37.4263L6.11216 37.3811L7.15886 37.2916L7.14885 36.9859L6.44327 36.977L6.92283 36.9628V36.6571L6.86111 36.6554L6.86612 36.3612L4.95204 36.2406L6.66095 36.2016L6.66678 35.8959L4.76522 35.7772L6.37488 35.6965L6.37321 35.3908L2.86616 35.2411L6.16304 35.0302L6.15971 34.8352L6.75352 34.8228V34.5162L2.89536 34.4444L6.75352 34.3735V34.0678L6.15971 34.0554L6.16304 33.8596L2.52588 33.6265L6.19473 33.3465L6.18889 33.0993H6.20307L6.20808 32.7935L4.99207 32.7209L6.37321 32.6624L6.37488 32.3558L4.76522 32.2751L6.66678 32.1564L6.66095 31.8507L4.95204 31.8126L6.86612 31.6921L6.86111 31.397L6.92283 31.3952V31.0886L6.45912 31.0753L7.14885 31.0673L7.15886 30.7616L6.10799 30.6712L7.123 30.626L7.12633 30.3203L4.85947 30.1643L5.59006 30.1519L5.59508 29.8462L5.07548 29.8187L6.54419 29.7354L6.54084 29.4288L5.90366 29.4085L6.44911 29.3898L6.44994 29.0841L2.86199 28.9299L6.38989 28.7571L6.38822 28.4505L6.19222 28.4434L6.40324 28.4363L6.40157 28.1297L3.88116 28.0633L6.41908 27.9632L6.41992 27.6574L6.35987 27.6548L6.36071 27.3765L2.92538 27.1727L6.319 26.8803L6.31233 26.5746L5.86946 26.5568L6.20808 26.5356L6.20307 26.2299H6.18889L6.19473 25.9817L3.50501 25.777L6.70766 25.6866L6.71182 25.38L5.31067 25.3021L6.58588 25.2622L6.58839 24.9556L3.91953 24.8306L6.66511 24.6924L6.66429 24.3867L4.73686 24.3043L7.12633 24.1394L7.123 23.8337L6.10799 23.7876L7.15886 23.6973L7.14885 23.3924L6.44161 23.3836L6.92283 23.3694V23.0637L6.86111 23.0619L6.86612 22.7677L4.95204 22.6472L6.66095 22.6082L6.66678 22.3025L4.76522 22.1837L6.37488 22.1031L6.37321 21.7974L5.54753 21.7619L6.31233 21.7309L6.319 21.4252L2.92538 21.1327L6.36071 20.928L6.35987 20.6507L6.41992 20.648L6.41908 20.3414L3.87616 20.2413L6.40157 20.1748L6.40324 19.8691L6.1914 19.8611L6.38822 19.8549L6.38989 19.5483L3.23729 19.3941L6.66429 19.2461L6.66511 18.9404L3.91953 18.8022L6.58839 18.6772L6.58588 18.3715L5.30483 18.3299L6.71182 18.2519L6.70766 17.9462L3.75689 17.8629L6.44994 17.7468L6.44911 17.4411L5.91366 17.4242L6.54002 17.403L6.54419 17.0963L5.07548 17.0139L5.59508 16.9856L5.59257 16.8013H9.30813Z" fill="#0081EF"/>
<path d="M8.43888 7.71289H7.24707V16.3422H8.43888V7.71289Z" fill="#525B66"/>
<path d="M62.8183 7.71289H61.6265V16.3422H62.8183V7.71289Z" fill="#525B66"/>
<path d="M65.5984 7.713H3.60742V1.71292C3.60742 0.766515 4.32885 0 5.21958 0H63.9862C64.8761 0 65.5984 0.766515 65.5984 1.71292V7.713Z" fill="#FA7500"/>
<path d="M35.2861 55.0001C54.2383 55.0001 69.6021 54.7234 69.6021 54.3821C69.6021 54.0408 54.2383 53.7642 35.2861 53.7642C16.334 53.7642 0.970215 54.0408 0.970215 54.3821C0.970215 54.7234 16.334 55.0001 35.2861 55.0001Z" fill="#58595B"/>
</svg>
