<svg width="18" height="18" viewBox="0 0 18 18" fill="none" xmlns="http://www.w3.org/2000/svg">
<path d="M8.83333 9.66667H2.16668C1.97734 9.66667 1.81912 9.60267 1.69201 9.47467C1.5649 9.34667 1.5009 9.188 1.50001 8.99867C1.49912 8.80933 1.56312 8.65111 1.69201 8.524C1.8209 8.39689 1.97912 8.33333 2.16668 8.33333H8.83333V1.66668C8.83333 1.47734 8.89733 1.31912 9.02533 1.19201C9.15333 1.0649 9.312 1.0009 9.50133 1.00001C9.69067 0.99912 9.84889 1.06312 9.976 1.19201C10.1031 1.3209 10.1667 1.47912 10.1667 1.66668V8.33333H16.8333C17.0227 8.33333 17.1809 8.39733 17.308 8.52533C17.4351 8.65333 17.4991 8.812 17.5 9.00133C17.5009 9.19067 17.4369 9.34889 17.308 9.476C17.1791 9.60311 17.0209 9.66667 16.8333 9.66667H10.1667V16.3333C10.1667 16.5227 10.1027 16.6809 9.97467 16.808C9.84667 16.9351 9.688 16.9991 9.49867 17C9.30933 17.0009 9.15111 16.9369 9.024 16.808C8.89689 16.6791 8.83333 16.5209 8.83333 16.3333V9.66667Z" fill="#1A1A1A"/>
</svg>
