<svg width="118" height="40" viewBox="0 0 118 40" fill="none" xmlns="http://www.w3.org/2000/svg">
<path d="M13.3335 13.3333H19.1896C19.5311 13.3333 19.8693 13.4005 20.1849 13.5312C20.5004 13.662 20.7872 13.8536 21.0286 14.0951L23.7335 16.8M15.9335 21.1333H13.3335M18.9668 15.9333L20.7002 17.6666C20.814 17.7805 20.9043 17.9156 20.9659 18.0643C21.0274 18.213 21.0591 18.3724 21.0591 18.5333C21.0591 18.6943 21.0274 18.8536 20.9659 19.0023C20.9043 19.1511 20.814 19.2862 20.7002 19.4C20.5864 19.5138 20.4512 19.6041 20.3025 19.6657C20.1538 19.7273 19.9945 19.759 19.8335 19.759C19.6725 19.759 19.5132 19.7273 19.3645 19.6657C19.2158 19.6041 19.0806 19.5138 18.9668 19.4L17.6668 18.1C16.9215 18.8453 15.7402 18.9294 14.8961 18.2967L14.6335 18.1" stroke="#898989" stroke-width="1.25" stroke-linecap="round" stroke-linejoin="round"/>
<path d="M15.9336 18.9667V22.8667C15.9336 24.5012 15.9336 25.3176 16.4415 25.8255C16.9493 26.3333 17.7657 26.3333 19.4003 26.3333H27.2003C28.8348 26.3333 29.6512 26.3333 30.1591 25.8255C30.6669 25.3176 30.6669 24.5012 30.6669 22.8667V20.2667C30.6669 18.6321 30.6669 17.8157 30.1591 17.3079C29.6512 16.8 28.8348 16.8 27.2003 16.8H19.8336" stroke="#898989" stroke-width="1.25" stroke-linecap="round" stroke-linejoin="round"/>
<path d="M24.817 21.5666C24.817 21.9688 24.6572 22.3546 24.3728 22.639C24.0884 22.9235 23.7026 23.0833 23.3004 23.0833C22.8981 23.0833 22.5123 22.9235 22.2279 22.639C21.9435 22.3546 21.7837 21.9688 21.7837 21.5666C21.7837 21.1643 21.9435 20.7786 22.2279 20.4941C22.5123 20.2097 22.8981 20.0499 23.3004 20.0499C23.7026 20.0499 24.0884 20.2097 24.3728 20.4941C24.6572 20.7786 24.817 21.1643 24.817 21.5666Z" stroke="#898989" stroke-width="1.25" stroke-linecap="round" stroke-linejoin="round"/>
<path d="M43.1186 25V14.8182H46.8473C47.5698 14.8182 48.1681 14.9375 48.642 15.1761C49.116 15.4115 49.4706 15.7313 49.706 16.1357C49.9413 16.5367 50.0589 16.9891 50.0589 17.4929C50.0589 17.9171 49.9811 18.2751 49.8253 18.5668C49.6695 18.8551 49.4607 19.0871 49.1989 19.2628C48.9403 19.4351 48.6553 19.5611 48.3438 19.6406V19.7401C48.6818 19.7566 49.0116 19.866 49.3331 20.0682C49.6579 20.267 49.9264 20.5504 50.1385 20.9183C50.3506 21.2862 50.4567 21.7337 50.4567 22.2607C50.4567 22.781 50.334 23.2483 50.0888 23.6626C49.8468 24.0736 49.4723 24.4001 48.9652 24.642C48.4581 24.8807 47.8101 25 47.0213 25H43.1186ZM44.6548 23.6825H46.8722C47.608 23.6825 48.1349 23.54 48.4531 23.255C48.7713 22.9699 48.9304 22.6136 48.9304 22.1861C48.9304 21.8646 48.8492 21.5696 48.6868 21.3011C48.5244 21.0327 48.2924 20.8189 47.9908 20.6598C47.6925 20.5007 47.3378 20.4212 46.9268 20.4212H44.6548V23.6825ZM44.6548 19.223H46.7131C47.0578 19.223 47.3677 19.1567 47.6428 19.0241C47.9212 18.8916 48.1416 18.706 48.304 18.4673C48.4697 18.2254 48.5526 17.9403 48.5526 17.6122C48.5526 17.1913 48.4051 16.8383 48.1101 16.5533C47.8151 16.2682 47.3627 16.1257 46.7528 16.1257H44.6548V19.223ZM56.7168 21.8331V17.3636H58.2083V25H56.7466V23.6776H56.6671C56.4914 24.0852 56.2097 24.425 55.8219 24.6967C55.4374 24.9652 54.9585 25.0994 54.3851 25.0994C53.8946 25.0994 53.4604 24.9917 53.0826 24.7763C52.708 24.5575 52.4131 24.2344 52.1976 23.8068C51.9855 23.3793 51.8794 22.8506 51.8794 22.2209V17.3636H53.366V22.0419C53.366 22.5623 53.5101 22.9766 53.7985 23.2848C54.0868 23.593 54.4614 23.7472 54.9221 23.7472C55.2005 23.7472 55.4772 23.6776 55.7523 23.5384C56.0307 23.3991 56.2611 23.1887 56.4434 22.907C56.629 22.6252 56.7201 22.2673 56.7168 21.8331ZM60.8652 27.8636C60.6432 27.8636 60.441 27.8454 60.2587 27.8089C60.0764 27.7758 59.9405 27.7393 59.851 27.6996L60.209 26.4815C60.4808 26.5545 60.7227 26.5859 60.9349 26.576C61.147 26.5661 61.3342 26.4865 61.4966 26.3374C61.6624 26.1882 61.8082 25.9446 61.9341 25.6065L62.1181 25.0994L59.3241 17.3636H60.915L62.8489 23.2898H62.9285L64.8624 17.3636H66.4583L63.3113 26.0192C63.1654 26.4169 62.9798 26.7533 62.7545 27.0284C62.5291 27.3068 62.2606 27.5156 61.9491 27.6548C61.6375 27.794 61.2762 27.8636 60.8652 27.8636ZM73.9635 25.1442C73.2807 25.1442 72.6924 25.0199 72.1985 24.7713C71.708 24.5227 71.3302 24.1847 71.065 23.7571C70.7999 23.3262 70.6673 22.839 70.6673 22.2955C70.6673 21.8812 70.7535 21.5133 70.9258 21.1918C71.0982 20.867 71.3385 20.567 71.6467 20.2919C71.9549 20.0168 72.3112 19.7401 72.7156 19.4616L74.3562 18.3033C74.6346 18.121 74.8517 17.9287 75.0075 17.7266C75.1633 17.5211 75.2411 17.2675 75.2411 16.9659C75.2411 16.7273 75.1384 16.4986 74.9329 16.2798C74.7274 16.0611 74.4523 15.9517 74.1076 15.9517C73.869 15.9517 73.6585 16.0097 73.4762 16.1257C73.2973 16.2417 73.1564 16.3909 73.0536 16.5732C72.9542 16.7521 72.9045 16.9411 72.9045 17.1399C72.9045 17.3719 72.9675 17.6056 73.0934 17.8409C73.2227 18.0762 73.3884 18.3198 73.5906 18.5717C73.7928 18.8203 74.0049 19.0788 74.2269 19.3473L78.9549 25H77.2745L73.3619 20.4013C73.0338 20.0135 72.7288 19.6489 72.4471 19.3075C72.1654 18.9628 71.9367 18.6148 71.761 18.2635C71.5887 17.9089 71.5025 17.526 71.5025 17.1151C71.5025 16.6477 71.6086 16.2334 71.8207 15.8722C72.0361 15.5076 72.3361 15.2225 72.7206 15.017C73.105 14.8116 73.5558 14.7088 74.0728 14.7088C74.5965 14.7088 75.0456 14.8116 75.4201 15.017C75.798 15.2192 76.088 15.4893 76.2902 15.8274C76.4956 16.1622 76.5984 16.5284 76.5984 16.9261C76.5984 17.41 76.4774 17.8376 76.2355 18.2088C75.9968 18.5767 75.667 18.9148 75.2461 19.223L73.2028 20.7294C72.8051 21.0211 72.5283 21.3094 72.3725 21.5945C72.2201 21.8762 72.1438 22.0966 72.1438 22.2557C72.1438 22.5473 72.2184 22.8175 72.3676 23.0661C72.52 23.3146 72.7322 23.5135 73.0039 23.6626C73.279 23.8118 73.6005 23.8864 73.9684 23.8864C74.3463 23.8864 74.7142 23.8052 75.0721 23.6428C75.4334 23.477 75.7599 23.2401 76.0515 22.9318C76.3465 22.6236 76.5802 22.254 76.7525 21.8232C76.9249 21.3923 77.011 20.91 77.011 20.3764H78.3534C78.3534 21.0327 78.2788 21.5878 78.1296 22.0419C77.9805 22.4927 77.7999 22.8606 77.5877 23.1456C77.3789 23.4273 77.1817 23.6477 76.9961 23.8068C76.9365 23.8598 76.8801 23.9129 76.8271 23.9659C76.7741 24.0189 76.7177 24.072 76.6581 24.125C76.3134 24.473 75.8957 24.7299 75.4052 24.8956C74.918 25.0613 74.4374 25.1442 73.9635 25.1442ZM88.9372 17.4929C88.8842 17.0223 88.6654 16.6577 88.2809 16.3991C87.8965 16.1373 87.4126 16.0064 86.8292 16.0064C86.4116 16.0064 86.0504 16.0727 85.7454 16.2053C85.4405 16.3345 85.2035 16.5135 85.0345 16.7422C84.8688 16.9676 84.7859 17.2244 84.7859 17.5128C84.7859 17.7547 84.8423 17.9635 84.9549 18.1392C85.0709 18.3149 85.2218 18.4624 85.4074 18.5817C85.5963 18.6977 85.7985 18.7955 86.0139 18.875C86.2293 18.9512 86.4365 19.0142 86.6353 19.0639L87.6297 19.3224C87.9545 19.402 88.2876 19.5097 88.6289 19.6456C88.9703 19.7815 89.2869 19.9605 89.5785 20.1825C89.8702 20.4046 90.1055 20.6797 90.2845 21.0078C90.4668 21.3359 90.5579 21.7287 90.5579 22.1861C90.5579 22.7628 90.4088 23.2749 90.1105 23.7223C89.8155 24.1697 89.3863 24.5227 88.8228 24.7812C88.2627 25.0398 87.5849 25.169 86.7895 25.169C86.0271 25.169 85.3676 25.0481 84.8108 24.8061C84.2539 24.5642 83.8181 24.2211 83.5032 23.777C83.1884 23.3295 83.0144 22.7992 82.9812 22.1861H84.5224C84.5522 22.554 84.6716 22.8606 84.8804 23.1058C85.0925 23.3478 85.3626 23.5284 85.6907 23.6477C86.0222 23.7637 86.3851 23.8217 86.7795 23.8217C87.2137 23.8217 87.5998 23.7538 87.9379 23.6179C88.2793 23.4787 88.5477 23.2865 88.7433 23.0412C88.9388 22.7926 89.0366 22.5026 89.0366 22.1712C89.0366 21.8696 88.9504 21.6226 88.7781 21.4304C88.6091 21.2382 88.3787 21.0791 88.087 20.9531C87.7987 20.8272 87.4722 20.7161 87.1076 20.62L85.9045 20.2919C85.0892 20.0698 84.4429 19.7434 83.9656 19.3125C83.4916 18.8816 83.2547 18.3116 83.2547 17.6023C83.2547 17.0156 83.4137 16.5036 83.7319 16.0661C84.0501 15.6286 84.481 15.2888 85.0245 15.0469C85.5681 14.8016 86.1813 14.679 86.864 14.679C87.5534 14.679 88.1616 14.8 88.6886 15.0419C89.2189 15.2839 89.6365 15.617 89.9414 16.0412C90.2464 16.4621 90.4055 16.946 90.4187 17.4929H88.9372ZM95.2856 25.1541C94.5332 25.1541 93.8852 24.9934 93.3417 24.6719C92.8014 24.3471 92.3838 23.8913 92.0888 23.3047C91.7972 22.7147 91.6513 22.0237 91.6513 21.2315C91.6513 20.4493 91.7972 19.7599 92.0888 19.1634C92.3838 18.5668 92.7948 18.1011 93.3218 17.7663C93.8521 17.4316 94.4719 17.2642 95.1812 17.2642C95.612 17.2642 96.0296 17.3355 96.434 17.478C96.8384 17.6205 97.2013 17.8442 97.5228 18.1491C97.8443 18.4541 98.0978 18.8501 98.2834 19.3374C98.469 19.8213 98.5618 20.4096 98.5618 21.1023V21.6293H92.4915V20.5156H97.1052C97.1052 20.1245 97.0256 19.7782 96.8665 19.4766C96.7074 19.1716 96.4837 18.9313 96.1954 18.7557C95.9103 18.58 95.5756 18.4922 95.1911 18.4922C94.7735 18.4922 94.4089 18.5949 94.0974 18.8004C93.7891 19.0026 93.5505 19.2678 93.3814 19.5959C93.2157 19.9207 93.1329 20.2737 93.1329 20.6548V21.5249C93.1329 22.0353 93.2224 22.4695 93.4013 22.8274C93.5836 23.1854 93.8372 23.4588 94.162 23.6477C94.4868 23.8333 94.8663 23.9261 95.3005 23.9261C95.5822 23.9261 95.8391 23.8864 96.0711 23.8068C96.3031 23.724 96.5036 23.6013 96.6726 23.4389C96.8417 23.2765 96.9709 23.076 97.0604 22.8374L98.4674 23.0909C98.3547 23.5052 98.1525 23.8681 97.8608 24.1797C97.5725 24.4879 97.2096 24.7282 96.7721 24.9006C96.3379 25.0696 95.8424 25.1541 95.2856 25.1541ZM101.418 14.8182V25H99.9312V14.8182H101.418ZM104.624 14.8182V25H103.137V14.8182H104.624Z" fill="#898989"/>
</svg>
