<svg width="361" height="290" viewBox="0 0 361 290" fill="none" xmlns="http://www.w3.org/2000/svg">
<g opacity="0.3">
<path d="M15.0701 26.874C15.0701 26.874 14.9988 28.328 14.8645 31.0558C14.7749 33.7837 14.6278 37.7919 14.7292 42.8939C14.8197 47.9951 15.0628 54.1974 15.878 61.2872C16.2983 64.8311 16.8649 68.5971 17.8016 72.5249C18.285 74.4851 18.8361 76.4901 19.601 78.4951C20.3147 80.5111 21.2697 82.5252 22.5016 84.4708C23.7207 86.4036 25.3848 88.2999 27.7023 89.4879C28.2552 89.8123 28.9114 89.9631 29.5219 90.1989C30.1432 90.4164 30.8186 90.4228 31.472 90.5343C32.1885 90.6229 32.6518 90.5882 33.2942 90.5973C33.8928 90.5882 34.4923 90.58 35.0964 90.5708C39.8521 90.4374 44.7092 90.1121 49.7108 89.7794C59.7075 89.0885 70.2296 88.2825 81.1045 87.3403C91.9794 86.4256 103.216 85.4797 114.634 84.5193C126.047 83.5515 137.645 82.6111 149.245 81.7695C160.841 80.8876 172.443 80.0889 183.861 79.5241C195.271 79.0169 206.535 78.4969 217.309 78.952C219.993 79.0845 222.654 79.2737 225.191 79.6694C226.447 79.8787 227.689 80.1273 228.777 80.4928L229.524 80.7898L230.406 81.2102L232.183 82.0674C236.903 84.3484 241.505 86.622 245.965 88.8656C254.891 93.3544 263.255 97.7446 270.89 101.947C278.513 106.169 285.454 110.127 291.488 113.826C297.526 117.52 302.651 120.966 306.706 124.022C310.758 127.079 313.775 129.708 315.619 131.712C316.518 132.73 317.218 133.511 317.606 134.099C318.022 134.667 318.237 134.961 318.237 134.961C318.237 134.961 318.039 134.656 317.653 134.067C317.293 133.455 316.638 132.637 315.787 131.562C314.03 129.461 311.175 126.605 307.203 123.387C303.247 120.15 298.236 116.48 292.322 112.526C286.419 108.556 279.612 104.298 272.039 99.915C264.48 95.5102 256.199 90.8998 247.358 86.1797C242.938 83.8192 238.38 81.4268 233.699 79.0206L231.939 78.1177L231.041 77.6635L229.953 77.1965C228.528 76.6975 227.148 76.417 225.765 76.1657C223.008 75.7014 220.264 75.4766 217.5 75.3048C206.462 74.7327 195.151 75.017 183.669 75.5232C172.193 76.045 160.557 76.7907 148.935 77.6361C137.313 78.5271 125.705 79.5177 114.284 80.5339C102.863 81.5346 91.6376 82.6723 80.7737 83.7123C69.9143 84.7751 59.4196 85.8032 49.4668 86.7774C44.4954 87.2307 39.6474 87.6721 34.9958 87.9161C34.4219 87.938 33.8508 87.9608 33.2823 87.9837C32.7614 87.9901 32.056 88.0321 31.6246 87.9663C31.1448 87.8813 30.6367 87.9151 30.1752 87.7561C29.721 87.5761 29.2312 87.5039 28.8026 87.259C27.0316 86.4146 25.5621 84.8958 24.4325 83.1804C22.115 79.7489 20.8146 75.7682 19.7216 72.0259C18.6579 68.2471 17.9487 64.5588 17.3949 61.077C16.3102 54.1033 15.8204 47.9394 15.528 42.8647C14.9614 32.7053 15.0701 26.874 15.0701 26.874Z" fill="#1A1A1A"/>
<path d="M318.238 134.962C316.945 136.638 315.743 138.381 314.582 140.153C313.45 141.942 312.332 143.747 311.32 145.617C310.302 147.483 309.322 149.388 308.479 151.37C308.058 152.361 307.658 153.369 307.302 154.407C307.104 154.915 306.96 155.455 306.798 155.987C306.63 156.513 306.481 157.054 306.376 157.623L306.209 158.466C306.128 158.879 306.137 159.031 306.096 159.326L305.922 160.89L305.572 164.023C305.468 165.071 305.302 166.099 305.279 167.176L305.122 170.374C305.015 172.509 304.905 174.645 304.875 176.749C304.854 178.86 304.834 180.971 304.854 183.094L304.882 186.077L307.617 184.961C310.547 183.768 313.369 182.447 316.19 181.073C317.595 180.379 319.007 179.705 320.381 178.946C321.768 178.215 323.134 177.439 324.504 176.678C325.867 175.892 327.207 175.077 328.528 174.215C329.861 173.386 331.155 172.473 332.427 171.546L334.294 170.082C334.919 169.601 335.48 169.024 336.069 168.502C336.667 167.993 337.175 167.352 337.704 166.775C338.241 166.198 338.613 165.463 339.056 164.838C338.463 165.367 337.978 165.958 337.331 166.394C336.683 166.827 336.133 167.344 335.45 167.722C334.158 168.551 332.819 169.303 331.473 170.042C330.09 170.724 328.745 171.454 327.345 172.106C325.974 172.796 324.541 173.386 323.159 174.055C320.354 175.334 317.503 176.512 314.673 177.735L310.394 179.491L306.122 181.213L308.886 183.082C308.902 181.003 308.96 178.913 309.015 176.824C309.018 174.726 309.086 172.665 309.153 170.601C309.225 168.534 309.248 166.483 309.396 164.371L309.58 161.224L309.671 159.649C309.69 159.424 309.693 159.044 309.724 158.944L309.829 158.235C309.879 157.762 309.959 157.281 310.072 156.794C310.174 156.307 310.255 155.821 310.398 155.334C310.641 154.356 310.93 153.38 311.247 152.405C311.903 150.463 312.554 148.492 313.342 146.564C314.12 144.633 314.878 142.678 315.725 140.76C316.545 138.83 317.382 136.896 318.238 134.962Z" fill="#1A1A1A"/>
<path d="M-11.2162 94.7795C-11.2162 94.7795 -10.0081 95.7281 -7.89158 97.3849C-5.76046 99.0153 -2.73285 101.358 0.95182 104.09C4.63193 106.826 8.90696 110.039 13.5622 113.366C15.8742 115.051 18.231 116.84 20.6857 118.567C23.1357 120.306 25.626 122.067 28.0678 123.895C30.5498 125.668 33.031 127.443 35.4728 129.186C36.6992 130.054 37.9155 130.913 39.1173 131.762C40.3107 132.622 41.4887 133.475 42.6475 134.311C47.2661 137.682 51.7257 140.642 55.4387 143.325C62.8848 148.663 68.1021 151.951 68.1021 151.951C68.1021 151.951 63.7777 147.59 56.911 141.453C56.051 140.69 55.171 139.873 54.2279 139.067C53.272 138.277 52.2859 137.461 51.2706 136.621C49.2373 134.947 47.1007 133.169 44.8426 131.39C42.5917 129.604 40.2989 127.711 37.8442 125.957C35.417 124.166 32.9514 122.346 30.484 120.527C28.0038 118.728 25.4725 117 22.9859 115.293C20.5093 113.57 18.0108 111.965 15.6256 110.364C13.2277 108.783 10.8525 107.34 8.61815 105.945C6.39017 104.541 4.25634 103.257 2.26048 102.111C-1.70384 99.7811 -5.06683 97.9342 -7.452 96.6913C-8.63178 96.0516 -9.58498 95.5929 -10.2274 95.2694C-10.8726 94.9514 -11.2162 94.7795 -11.2162 94.7795Z" fill="#1A1A1A"/>
<path d="M68.1011 151.953C68.1011 151.953 71.5308 152.693 77.5321 153.986C83.5307 155.27 92.0698 157.263 102.225 159.891C107.297 161.224 112.756 162.78 118.449 164.594C119.859 165.078 121.287 165.568 122.734 166.065C124.151 166.616 125.585 167.173 127.035 167.738C128.459 168.342 129.845 169.027 131.279 169.661C131.941 170.039 132.605 170.419 133.274 170.802L134.279 171.373L135.289 172.044C140.653 175.669 145.986 179.851 151.364 184.11C156.722 188.397 162.1 192.876 167.234 197.539C168.509 198.7 169.796 199.877 170.943 201.058C171.221 201.349 171.499 201.648 171.699 201.895L171.81 202.04C171.831 202.059 171.839 202.113 171.744 201.881C171.706 201.785 171.68 201.682 171.667 201.581C171.607 201.255 171.63 200.834 171.838 200.422C172.078 199.767 172.995 199.363 173.075 199.385C173.195 199.289 173.924 199.337 173.733 199.327L173.407 199.28L170.813 198.901C167.358 198.397 163.916 197.894 160.499 197.396C153.673 196.377 146.941 195.495 140.434 194.576C133.922 193.7 127.626 192.853 121.657 192.051C115.695 191.266 110.057 190.526 104.853 189.843C94.4412 188.485 85.7322 187.536 79.6422 186.784C76.5991 186.408 74.1956 186.18 72.5617 185.997C70.9249 185.82 70.0531 185.727 70.0531 185.727C70.0531 185.727 70.914 185.899 72.5278 186.22C74.1435 186.531 76.5068 187.033 79.528 187.584C85.5713 188.688 94.1927 190.389 104.58 192.21C114.965 194.082 127.093 196.138 140.078 198.211C146.577 199.237 153.284 200.363 160.112 201.383C163.523 201.906 166.964 202.433 170.417 202.961L173.009 203.357L173.333 203.408C173.195 203.411 173.978 203.441 174.153 203.34C174.292 203.368 175.239 202.906 175.521 202.218C175.745 201.759 175.764 201.279 175.708 200.899C175.678 200.746 175.636 200.591 175.581 200.444C175.403 200.009 175.292 199.878 175.19 199.717L174.907 199.337C174.558 198.902 174.239 198.561 173.914 198.215C172.625 196.875 171.335 195.673 170.018 194.472C164.735 189.741 159.299 185.277 153.847 180.975C148.393 176.678 142.881 172.648 137.287 169.001L136.235 168.331L135.1 167.71C134.343 167.299 133.59 166.89 132.842 166.484C131.313 165.832 129.804 165.154 128.292 164.576C126.774 164.045 125.271 163.519 123.787 163C122.291 162.544 120.815 162.093 119.357 161.649C113.513 159.971 107.933 158.674 102.769 157.584C97.6068 156.487 92.8493 155.627 88.6245 154.928C84.4043 154.209 80.7142 153.652 77.6747 153.198C74.6388 152.731 72.2382 152.463 70.6069 152.253C68.972 152.056 68.1011 151.953 68.1011 151.953Z" fill="#1A1A1A"/>
<path d="M341.307 164.965C342.979 164.609 344.722 165.123 346.077 166.057C347.417 167.033 348.531 168.328 349.263 169.831C350.815 172.786 351.605 176.092 352.102 179.404C352.339 181.065 352.447 182.749 352.614 184.418L352.764 189.465L352.637 194.519C352.619 194.926 352.635 195.389 352.588 195.751C352.499 196.131 352.461 196.429 352.319 196.807L351.911 197.907L351.346 198.966C351.011 199.69 350.505 200.333 350.027 200.988L349.314 201.97L348.469 202.865C347.901 203.454 347.358 204.065 346.776 204.641L344.887 206.242C343.683 207.368 342.259 208.247 340.893 209.19C340.201 209.647 339.539 210.148 338.822 210.571L336.629 211.782C330.85 215.126 324.525 217.497 318.219 219.765C315.038 220.842 311.783 221.724 308.57 222.714C306.972 223.231 305.327 223.605 303.688 223.998L298.776 225.182L293.864 226.358L288.9 227.34C285.59 227.982 282.291 228.678 278.97 229.277L268.962 230.83C265.627 231.353 262.295 231.896 258.932 232.241L248.872 233.471L243.842 234.085L238.808 234.549L228.679 235.468L223.614 235.925L218.561 236.231C211.824 236.632 205.102 237.19 198.341 237.338L188.21 237.697L178.076 237.771C171.318 237.9 164.566 237.661 157.811 237.556C154.435 237.452 151.064 237.245 147.69 237.095C146.003 237.007 144.316 236.946 142.63 236.835L137.58 236.445C130.838 236.02 124.117 235.334 117.411 234.548C110.71 233.712 104.019 232.764 97.3907 231.491C90.767 230.261 84.1333 228.78 77.7473 226.859L78.1503 227.133C77.6102 226.505 77.0455 225.794 76.5346 225.076C76.0073 224.366 75.5257 223.618 75.0341 222.876C74.0827 221.37 73.2073 219.815 72.4113 218.217C72.0375 217.406 71.6327 216.607 71.2827 215.786L70.2765 213.298L69.4221 210.751C69.1205 209.906 68.9496 209.024 68.7074 208.162L68.3665 206.861L68.1235 205.538C67.9754 204.655 67.7652 203.777 67.6656 202.885L67.3842 200.203C67.2535 199.31 67.3065 198.409 67.2571 197.51C67.2544 196.61 67.1493 195.706 67.2334 194.806L67.3869 192.103C67.4052 191.196 67.5779 190.308 67.7022 189.412L68.0997 186.723L67.5569 189.387C67.3842 190.279 67.1602 191.163 67.0945 192.07L66.791 194.783C66.6576 195.686 66.7134 196.6 66.6659 197.511C66.6622 198.421 66.5745 199.337 66.6704 200.246L66.8459 202.98C66.9099 203.891 67.0862 204.79 67.2014 205.698L67.3961 207.056L67.6866 208.396C67.8987 209.287 68.0385 210.198 68.3126 211.073L69.0793 213.714L70.0078 216.305C70.3341 217.162 70.7143 217.999 71.0661 218.849C71.8191 220.527 72.6562 222.166 73.5774 223.764C74.0535 224.552 74.5223 225.348 75.045 226.114C75.5568 226.894 76.0859 227.629 76.6973 228.397L76.8463 228.582L77.1021 228.671C83.6207 230.934 90.2324 232.488 96.8981 233.928C103.557 235.378 110.277 236.501 117.01 237.509C123.75 238.47 130.509 239.327 137.292 239.925L142.376 240.385C144.073 240.519 145.774 240.601 147.471 240.713C150.87 240.908 154.265 241.157 157.665 241.305C164.467 241.484 171.27 241.855 178.076 241.751L188.284 241.721L198.485 241.401C205.286 241.274 212.089 240.764 218.891 240.353L223.989 240.021L229.054 239.543L239.179 238.583L244.272 238.092L249.336 237.453L259.463 236.17C262.842 235.779 266.198 235.189 269.555 234.62L279.629 232.925C282.974 232.277 286.303 231.533 289.641 230.841L294.642 229.785C296.302 229.393 297.945 228.918 299.596 228.488L304.541 227.165C306.19 226.727 307.843 226.308 309.459 225.741C312.702 224.655 315.976 223.68 319.188 222.504C325.567 220.031 331.944 217.46 337.84 213.86L340.067 212.554C340.798 212.098 341.482 211.559 342.191 211.065C343.591 210.047 345.036 209.101 346.293 207.877L348.238 206.138C348.849 205.513 349.406 204.829 349.986 204.173L350.846 203.181L351.587 202.077C352.078 201.341 352.593 200.624 352.946 199.789L353.528 198.577L353.953 197.276C354.094 196.855 354.163 196.303 354.233 195.854C354.269 195.373 354.231 194.986 354.234 194.547L354.156 189.429L353.797 184.317C353.56 182.621 353.381 180.921 353.071 179.237C352.418 175.889 351.512 172.517 349.736 169.549C348.902 168.046 347.663 166.75 346.225 165.821C344.769 164.934 342.957 164.517 341.307 164.965Z" fill="#1A1A1A"/>
<path d="M354.245 204.637C355.752 207.804 356.901 211.126 357.812 214.495C358.713 217.866 359.384 221.3 359.646 224.764C359.94 228.222 359.809 231.702 359.253 235.095C358.641 238.474 357.592 241.77 355.978 244.767C354.332 247.743 352.357 250.578 349.64 252.523C347.015 254.492 343.903 256.158 340.775 257.576C334.484 260.453 327.87 262.69 321.202 264.699C314.533 266.721 307.742 268.368 300.942 269.936C294.141 271.514 287.294 272.906 280.421 274.17C276.99 274.829 273.536 275.369 270.094 275.972L259.738 277.605C252.822 278.628 245.893 279.568 238.948 280.397C232.005 281.229 225.044 281.921 218.085 282.608L207.633 283.536L197.17 284.329L186.696 284.975L176.216 285.516C169.227 285.833 162.234 286.12 155.237 286.256C151.738 286.347 148.239 286.424 144.74 286.442C141.242 286.48 137.74 286.586 134.241 286.57L123.74 286.575L113.238 286.428C109.737 286.394 106.238 286.244 102.737 286.156C99.2355 286.075 95.7373 285.933 92.239 285.765C85.2398 285.488 78.2433 285.128 71.2432 284.752L71.4086 284.786C69.0673 284.027 66.7305 283.142 64.4331 282.201C62.1357 281.255 59.8611 280.245 57.6495 279.112C57.0893 278.84 56.5438 278.546 55.9973 278.248C55.4545 277.947 54.8961 277.669 54.3651 277.35C53.2822 276.736 52.2176 276.095 51.1849 275.403C50.6521 275.079 50.1595 274.701 49.656 274.336C49.1534 273.968 48.6425 273.612 48.1774 273.197C47.7104 272.789 47.2087 272.414 46.7664 271.972L45.4486 270.645L46.6951 272.046C47.1137 272.512 47.5953 272.913 48.044 273.352C48.49 273.795 48.9825 274.182 49.4678 274.579C49.9548 274.975 50.4337 275.382 50.9491 275.739C51.9535 276.494 52.9898 277.2 54.048 277.877C54.5662 278.233 55.119 278.53 55.6555 278.858C56.1928 279.18 56.7329 279.502 57.2858 279.798C59.4717 281.033 61.7235 282.145 64.0027 283.195C66.2891 284.238 68.5884 285.223 70.9662 286.103L71.033 286.126L71.1317 286.136C78.1208 286.77 85.1082 287.513 92.1175 287.94C95.6194 288.196 99.1241 288.426 102.631 288.596C106.139 288.771 109.643 289.009 113.154 289.132L123.684 289.54L134.219 289.797C141.245 289.924 148.273 290.008 155.299 289.887C162.326 289.84 169.353 289.64 176.379 289.412C183.405 289.187 190.423 288.771 197.44 288.356L207.958 287.604L218.467 286.717C225.471 286.085 232.46 285.299 239.442 284.451C246.421 283.589 253.388 282.613 260.343 281.554C267.294 280.469 274.224 279.239 281.129 277.88C288.034 276.518 294.916 275.028 301.758 273.348C308.584 271.606 315.39 269.767 322.094 267.556C328.798 265.353 335.449 262.924 341.843 259.806C345.05 258.241 348.14 256.527 351.067 254.213C351.791 253.617 352.571 253.038 353.113 252.378L354.008 251.415L354.12 251.293L354.176 251.233C354.183 251.23 354.323 251.063 354.287 251.101L354.485 250.824L354.881 250.273C355.961 248.819 356.838 247.225 357.647 245.613C359.229 242.361 360.189 238.849 360.681 235.311C361.117 231.761 361.102 228.178 360.66 224.661C359.791 217.627 357.543 210.826 354.245 204.637Z" fill="#1A1A1A"/>
<path d="M17.2865 172.281C17.2865 172.281 17.7608 171.902 18.7148 171.324C19.6662 170.761 21.1219 169.954 23.0557 169.47C24.9638 168.974 27.4358 168.952 29.5395 170.335C30.584 171.022 31.5838 171.949 32.3925 173.192C33.2525 174.373 33.9662 175.81 34.6315 177.337C35.91 180.446 36.7553 184.113 37.4608 188.028C38.1489 191.952 38.5848 196.172 38.9065 200.564C39.2602 204.947 39.3991 209.52 39.5316 214.165C39.6202 218.815 39.6577 223.55 39.602 228.292C39.5965 233.04 39.4749 237.782 39.325 242.425C39.1377 247.07 38.9202 251.632 38.4834 255.987C38.0438 260.328 37.5037 264.527 36.4528 268.171C35.9319 269.972 35.2282 271.65 34.4021 272.772C33.5093 273.888 32.9692 274.176 31.7958 273.924C30.6169 273.627 29.322 272.652 28.2135 271.659C27.0821 270.649 26.0796 269.526 25.174 268.438C23.3901 266.231 21.9289 264.161 20.7802 262.425C18.4846 258.939 17.2855 256.84 17.2855 256.84C17.2855 256.84 17.4491 257.42 17.8146 258.49C18.1912 259.555 18.7258 261.131 19.5675 263.075C20.4045 265.022 21.4573 267.384 23.01 269.961C23.7913 271.248 24.6714 272.605 25.7954 273.965C26.9459 275.297 28.2747 276.723 30.4871 277.674C31.5865 278.127 33.0551 278.348 34.4734 277.96C35.8926 277.578 37.0221 276.715 37.8839 275.822C39.5809 273.984 40.4985 271.921 41.3319 269.858C42.9138 265.702 43.866 261.309 44.5651 256.762C45.2743 252.215 45.7275 247.525 46.0209 242.765C46.3334 237.996 46.4678 233.169 46.5116 228.349C46.5281 223.522 46.4678 218.687 46.2228 213.923C46.0794 211.539 45.9843 209.179 45.7367 206.841C45.5338 204.505 45.3181 202.198 44.9846 199.932C44.4289 195.397 43.5562 191.026 42.4806 186.92C41.4278 182.811 40.0561 178.966 38.1855 175.613C36.3422 172.293 33.8648 169.345 30.7467 167.998C29.2288 167.297 27.6121 167.074 26.2176 167.215C24.8166 167.334 23.6012 167.709 22.6005 168.18C20.5681 169.081 19.318 170.262 18.4735 171.012C17.6474 171.795 17.2865 172.281 17.2865 172.281Z" fill="#1A1A1A"/>
<path d="M226.752 78.1488C226.752 78.1488 225.895 77.1591 224.29 75.3039C222.674 73.4589 220.327 70.7282 217.249 67.336C214.182 63.9355 210.434 59.825 206.081 55.157C201.724 50.4927 196.771 45.2609 191.166 39.7384C185.536 34.2361 179.471 28.2494 172.162 22.7096C170.288 21.3562 168.427 19.9763 166.058 18.9198C164.943 18.5086 163.822 18.0946 162.693 17.6788C161.644 17.2365 160.751 16.7348 159.735 16.2432C157.668 15.1301 155.519 14.0353 153.31 12.9588C152.2 12.4406 151.058 11.9654 149.926 11.4628L148.212 10.7253L146.457 10.0819C137.076 6.57637 126.976 4.45713 116.69 2.97942C114.111 2.69064 111.521 2.40004 108.923 2.10761C107.623 1.9687 106.323 1.80329 105.02 1.68449L101.101 1.42496C98.4863 1.25133 95.8636 1.07769 93.2408 0.903148C90.6171 0.690219 87.9898 0.724946 85.3615 0.623508C80.1068 0.512017 74.8503 0.332896 69.6231 0.480941C67.0076 0.515667 64.3985 0.552219 61.7968 0.586946C59.1941 0.627155 56.5988 0.628076 54.0217 0.777035C48.863 1.01829 43.7463 1.25864 38.6908 1.49624C36.1622 1.59403 33.6555 1.7905 31.1679 1.98789C28.6795 2.17889 26.2085 2.36806 23.7602 2.5554C18.8638 2.96207 14.0368 3.22982 9.33591 3.73244C4.63411 4.22867 0.0346375 4.71484 -4.44235 5.1873C-6.6813 5.42399 -8.88828 5.65703 -11.0623 5.88732C-13.2501 6.15051 -15.3419 6.25378 -17.5526 6.69243C-21.8111 7.49479 -25.7992 8.6755 -29.5368 10.0545C-37.0177 12.7988 -43.4366 16.4287 -48.5387 20.3784C-51.0417 22.4117 -53.3904 24.3089 -55.2875 26.3559C-57.3264 28.2585 -58.8689 30.3093 -60.3384 32.0803C-61.1033 32.9439 -61.6927 33.8623 -62.2566 34.7204C-62.8168 35.5776 -63.3423 36.3809 -63.8321 37.1285C-64.8721 38.5824 -65.456 39.9998 -66.0454 41.0763C-67.1667 43.2586 -67.7635 44.4238 -67.7635 44.4238C-67.7635 44.4238 -67.0982 43.2979 -65.8481 41.186C-64.6893 39.0302 -62.5792 36.1049 -59.7124 32.5884C-58.1808 30.9051 -56.5816 28.9595 -54.4925 27.1802C-52.5451 25.2574 -50.1571 23.501 -47.6303 21.6267C-42.4716 18.0014 -36.0746 14.76 -28.75 12.3017C-25.0891 11.0817 -21.1733 10.0618 -17.0929 9.42944C-15.1391 9.10502 -12.9229 9.01545 -10.7671 8.81349C-8.59305 8.63437 -6.38519 8.45343 -4.14807 8.26974C0.326187 7.90146 4.92287 7.52404 9.62009 7.13748C14.3192 6.76645 19.127 6.52154 24.0106 6.19895C26.4534 6.04634 28.9162 5.8919 31.3964 5.73654C33.8775 5.57479 36.3751 5.41394 38.89 5.35271C43.9218 5.16354 49.0119 4.97255 54.1441 4.78064C56.7094 4.64356 59.2855 4.65544 61.8681 4.62711C64.4515 4.60427 67.0423 4.58142 69.6377 4.55766C74.833 4.43155 80.0337 4.64174 85.2381 4.76693C87.8381 4.85558 90.449 4.80623 93.037 5.00728C95.6287 5.1672 98.2168 5.32713 100.801 5.48614L104.673 5.72557C105.958 5.83614 107.237 5.99332 108.514 6.12492C111.071 6.39908 113.62 6.67324 116.159 6.94557C126.246 8.37667 136.134 10.2263 145.187 13.4979L146.885 14.0919L148.539 14.7773C149.634 15.2452 150.734 15.683 151.814 16.1691C153.946 17.1817 156.074 18.2025 158.19 19.2772C159.304 19.7926 160.496 20.3884 161.607 20.8188C162.678 21.1844 163.744 21.5481 164.802 21.91C166.68 22.6831 168.564 23.968 170.349 25.2072C173.934 27.7596 177.263 30.5651 180.45 33.303C183.635 36.051 186.652 38.7898 189.523 41.4501C200.967 52.1358 210.241 61.3667 216.663 67.8862C223.084 74.4175 226.752 78.1488 226.752 78.1488Z" fill="#1A1A1A"/>
<path d="M213.795 76.9864C213.795 76.9864 213.249 76.3166 212.223 75.0582C211.189 73.808 209.703 71.9483 207.734 69.6482C203.796 65.0496 198.236 58.415 191.254 50.7231C187.768 46.8721 183.956 42.7277 179.792 38.4555C175.607 34.1969 171.232 29.6925 166.081 25.4778C164.739 24.4424 163.47 23.3887 161.76 22.4785C161.556 22.3615 161.276 22.2592 161.035 22.1532L160.657 21.9987L160.468 21.9229C160.556 21.9411 160.239 21.858 160.245 21.8598L160.169 21.8452L158.954 21.5975C158.151 21.423 157.328 21.2667 156.44 21.1753C152.902 20.6773 149.579 20.4269 146.148 20.1591C139.322 19.7086 132.394 19.3376 125.465 19.1319C122 19.0159 118.534 18.962 115.083 18.9181C111.632 18.8514 108.193 18.8359 104.782 18.8377C103.077 18.8349 101.378 18.8313 99.6873 18.8276C97.9966 18.8569 96.3151 18.887 94.6428 18.9163C91.299 18.9839 87.9972 19.0159 84.7503 19.1457C81.5015 19.2709 78.3085 19.3229 75.1849 19.5011C72.0623 19.6794 69.0063 19.8539 66.0317 20.0239C60.088 20.457 54.4687 20.84 49.2981 21.4614C46.7146 21.7584 44.2326 21.9731 41.8831 22.3049C39.5381 22.6549 37.3128 22.9875 35.221 23.2991C33.1283 23.5806 31.1827 23.9507 29.3861 24.3035C27.5903 24.6452 25.9399 24.9605 24.4512 25.2447C21.4784 25.8433 19.192 26.5616 17.6165 26.9363C16.0474 27.3457 15.2112 27.5641 15.2112 27.5641C15.2112 27.5641 16.0657 27.4225 17.6677 27.1565C19.2724 26.9089 21.6027 26.4629 24.5919 26.0407C26.0907 25.8588 27.7503 25.6578 29.557 25.4376C31.3609 25.2082 33.3101 24.9715 35.4129 24.8317C37.5066 24.6617 39.7346 24.4817 42.0859 24.2925C44.4382 24.1472 46.9111 23.9946 49.4927 23.8356C52.0735 23.6665 54.762 23.5221 57.5511 23.4481C60.3393 23.3576 63.2152 23.1913 66.1779 23.1173C72.1052 22.9702 78.3533 22.8541 84.8206 22.7983C91.2853 22.7326 97.9701 22.781 104.759 22.8422C108.154 22.8651 111.576 22.9034 115.011 22.9948C118.445 23.0606 121.893 23.1447 125.337 23.2745C132.232 23.4298 139.117 23.7515 145.876 24.1499C149.231 24.4003 152.648 24.6133 155.729 24.9596C156.505 25.0117 157.318 25.1451 158.14 25.3078L159.36 25.5289L159.437 25.5427C159.496 25.5545 159.227 25.4887 159.361 25.5262L159.459 25.5692L159.654 25.6496C159.788 25.7099 159.905 25.73 160.06 25.8168C161.282 26.4209 162.588 27.4161 163.822 28.3363C168.772 32.2577 173.339 36.5711 177.617 40.6423C181.873 44.7583 185.872 48.6925 189.533 52.3562C196.835 59.7054 202.939 65.8291 207.138 70.1873C211.375 74.5145 213.795 76.9864 213.795 76.9864Z" fill="#1A1A1A"/>
<path d="M6.53101 229.955C6.53101 229.955 2.89567 224.998 -3.15224 218.087C-6.15883 214.617 -9.76673 210.658 -13.7548 206.528C-15.7616 204.478 -17.8105 202.332 -19.9809 200.239C-22.1467 198.143 -24.3601 196.025 -26.5991 193.93C-28.8673 191.868 -31.1583 189.829 -33.4438 187.852C-35.7139 185.857 -38.0488 184.008 -40.3097 182.218C-42.555 180.413 -44.8195 178.773 -46.9945 177.258C-49.154 175.723 -51.2778 174.377 -53.28 173.201C-55.2704 172.005 -57.1776 171.033 -58.9039 170.254C-60.6329 169.471 -62.2048 168.93 -63.5299 168.592C-64.1714 168.372 -64.8047 168.34 -65.3219 168.25C-65.5824 168.213 -65.8227 168.178 -66.0448 168.146C-66.2696 168.151 -66.4752 168.155 -66.6589 168.16C-67.38 168.179 -67.7638 168.19 -67.7638 168.19C-67.7638 168.19 -67.3863 168.257 -66.6808 168.384C-66.509 168.417 -66.3153 168.451 -66.1033 168.491C-65.8976 168.565 -65.672 168.646 -65.4307 168.734C-64.9537 168.932 -64.387 169.055 -63.7994 169.372C-62.5995 169.906 -61.2087 170.692 -59.6524 171.654C-58.108 172.641 -56.4137 173.832 -54.5997 175.183C-52.793 176.546 -50.8775 178.079 -48.867 179.726C-46.8593 181.375 -44.7894 183.174 -42.64 185.031C-40.4814 186.875 -38.3357 188.886 -36.0941 190.859C-33.8642 192.847 -31.6326 194.907 -29.4101 196.976C-27.1602 199.018 -24.9313 201.085 -22.7481 203.132C-20.5548 205.174 -18.3981 207.181 -16.3099 209.126C-14.2199 211.07 -12.1967 212.95 -10.2803 214.734C-8.3539 216.51 -6.53163 218.19 -4.85105 219.741C1.88043 225.945 6.53101 229.955 6.53101 229.955Z" fill="#1A1A1A"/>
</g>
</svg>
