<svg width="12" height="12" viewBox="0 0 12 12" fill="none" xmlns="http://www.w3.org/2000/svg">
<path fill-rule="evenodd" clip-rule="evenodd" d="M2.57881 2.3726L1.86001 5.1908C1.58886 5.246 1.34511 5.39323 1.17005 5.60754C0.994996 5.82185 0.899386 6.09007 0.899414 6.3668V8.1002C0.899414 8.41846 1.02584 8.72368 1.25089 8.94872C1.47593 9.17377 1.78115 9.3002 2.09941 9.3002H9.89942C10.2177 9.3002 10.5229 9.17377 10.7479 8.94872C10.973 8.72368 11.0994 8.41846 11.0994 8.1002V6.3668C11.0994 6.09007 11.0038 5.82185 10.8288 5.60754C10.6537 5.39323 10.41 5.246 10.1388 5.1908L9.42062 2.3726C9.36659 2.16047 9.25557 1.96717 9.09958 1.81361C8.94358 1.66005 8.74856 1.55208 8.53561 1.5014C7.7051 1.30218 6.85408 1.20109 6.00001 1.2002C5.15361 1.2002 4.30801 1.3006 3.46321 1.5014C3.25027 1.55208 3.05525 1.66005 2.89925 1.81361C2.74326 1.96717 2.63284 2.16047 2.57881 2.3726ZM2.10001 5.7668C2.16669 5.76688 2.2315 5.74474 2.2842 5.70389C2.33689 5.66304 2.37448 5.60579 2.39101 5.5412L3.16021 2.5202C3.18725 2.4141 3.24281 2.31742 3.32086 2.24064C3.39891 2.16385 3.49649 2.10989 3.60301 2.0846C4.38814 1.89636 5.19264 1.80091 6.00001 1.8002C6.79801 1.8002 7.59701 1.8952 8.39701 2.0852C8.50343 2.11059 8.60088 2.16459 8.67882 2.24137C8.75676 2.31815 8.81223 2.41477 8.83921 2.5208L9.60841 5.5412C9.62495 5.60579 9.66254 5.66304 9.71523 5.70389C9.76793 5.74474 9.83274 5.76688 9.89942 5.7668C10.0585 5.7668 10.2112 5.83001 10.3237 5.94253C10.4362 6.05505 10.4994 6.20767 10.4994 6.3668V8.1002C10.4994 8.25933 10.4362 8.41194 10.3237 8.52446C10.2112 8.63698 10.0585 8.7002 9.89942 8.7002H2.09941C1.94028 8.7002 1.78767 8.63698 1.67515 8.52446C1.56263 8.41194 1.49941 8.25933 1.49941 8.1002V6.3668C1.49941 6.20767 1.56263 6.05505 1.67515 5.94253C1.78767 5.83001 1.94088 5.7668 2.10001 5.7668Z" fill="#1A1A1A"/>
<path fill-rule="evenodd" clip-rule="evenodd" d="M3.3 9.6002C3.3 9.3615 3.20518 9.13258 3.0364 8.9638C2.86761 8.79502 2.63869 8.7002 2.4 8.7002C2.16131 8.7002 1.93239 8.79502 1.7636 8.9638C1.59482 9.13258 1.5 9.3615 1.5 9.6002V10.2002C1.5 10.4389 1.59482 10.6678 1.7636 10.8366C1.93239 11.0054 2.16131 11.1002 2.4 11.1002C2.63869 11.1002 2.86761 11.0054 3.0364 10.8366C3.20518 10.6678 3.3 10.4389 3.3 10.2002V9.6002ZM2.1 9.6002C2.1 9.52063 2.13161 9.44432 2.18787 9.38806C2.24413 9.3318 2.32044 9.3002 2.4 9.3002C2.47956 9.3002 2.55587 9.3318 2.61213 9.38806C2.66839 9.44432 2.7 9.52063 2.7 9.6002V10.2002C2.7 10.2798 2.66839 10.3561 2.61213 10.4123C2.55587 10.4686 2.47956 10.5002 2.4 10.5002C2.32044 10.5002 2.24413 10.4686 2.18787 10.4123C2.13161 10.3561 2.1 10.2798 2.1 10.2002V9.6002ZM10.5 9.6002C10.5 9.3615 10.4052 9.13258 10.2364 8.9638C10.0676 8.79502 9.8387 8.7002 9.6 8.7002C9.36131 8.7002 9.13239 8.79502 8.9636 8.9638C8.79482 9.13258 8.7 9.3615 8.7 9.6002V10.2002C8.7 10.4389 8.79482 10.6678 8.9636 10.8366C9.13239 11.0054 9.36131 11.1002 9.6 11.1002C9.8387 11.1002 10.0676 11.0054 10.2364 10.8366C10.4052 10.6678 10.5 10.4389 10.5 10.2002V9.6002ZM9.3 9.6002C9.3 9.52063 9.33161 9.44432 9.38787 9.38806C9.44413 9.3318 9.52044 9.3002 9.6 9.3002C9.67957 9.3002 9.75587 9.3318 9.81213 9.38806C9.86839 9.44432 9.9 9.52063 9.9 9.6002V10.2002C9.9 10.2798 9.86839 10.3561 9.81213 10.4123C9.75587 10.4686 9.67957 10.5002 9.6 10.5002C9.52044 10.5002 9.44413 10.4686 9.38787 10.4123C9.33161 10.3561 9.3 10.2798 9.3 10.2002V9.6002ZM9 8.1002C9.2387 8.1002 9.46761 8.00537 9.6364 7.83659C9.80518 7.66781 9.9 7.43889 9.9 7.2002C9.9 6.9615 9.80518 6.73258 9.6364 6.5638C9.46761 6.39502 9.2387 6.3002 9 6.3002C8.76131 6.3002 8.53239 6.39502 8.3636 6.5638C8.19482 6.73258 8.1 6.9615 8.1 7.2002C8.1 7.43889 8.19482 7.66781 8.3636 7.83659C8.53239 8.00537 8.76131 8.1002 9 8.1002ZM9 6.9002C9.07957 6.9002 9.15587 6.9318 9.21213 6.98806C9.26839 7.04432 9.3 7.12063 9.3 7.2002C9.3 7.27976 9.26839 7.35607 9.21213 7.41233C9.15587 7.46859 9.07957 7.5002 9 7.5002C8.92044 7.5002 8.84413 7.46859 8.78787 7.41233C8.73161 7.35607 8.7 7.27976 8.7 7.2002C8.7 7.12063 8.73161 7.04432 8.78787 6.98806C8.84413 6.9318 8.92044 6.9002 9 6.9002ZM3 8.1002C3.23869 8.1002 3.46761 8.00537 3.6364 7.83659C3.80518 7.66781 3.9 7.43889 3.9 7.2002C3.9 6.9615 3.80518 6.73258 3.6364 6.5638C3.46761 6.39502 3.23869 6.3002 3 6.3002C2.76131 6.3002 2.53239 6.39502 2.3636 6.5638C2.19482 6.73258 2.1 6.9615 2.1 7.2002C2.1 7.43889 2.19482 7.66781 2.3636 7.83659C2.53239 8.00537 2.76131 8.1002 3 8.1002ZM3 6.9002C3.07957 6.9002 3.15587 6.9318 3.21213 6.98806C3.26839 7.04432 3.3 7.12063 3.3 7.2002C3.3 7.27976 3.26839 7.35607 3.21213 7.41233C3.15587 7.46859 3.07957 7.5002 3 7.5002C2.92044 7.5002 2.84413 7.46859 2.78787 7.41233C2.73161 7.35607 2.7 7.27976 2.7 7.2002C2.7 7.12063 2.73161 7.04432 2.78787 6.98806C2.84413 6.9318 2.92044 6.9002 3 6.9002ZM7.5888 2.7002H4.4112C4.20976 2.70018 4.01413 2.76775 3.85564 2.89209C3.69714 3.01642 3.58494 3.19034 3.537 3.386L3.243 4.586C3.21053 4.7185 3.20861 4.85664 3.23738 4.99C3.26615 5.12335 3.32486 5.24842 3.40907 5.35575C3.49328 5.46308 3.60079 5.54986 3.72346 5.60953C3.84614 5.6692 3.98078 5.70021 4.1172 5.7002H7.8828C8.01922 5.70021 8.15386 5.6692 8.27654 5.60953C8.39921 5.54986 8.50672 5.46308 8.59093 5.35575C8.67514 5.24842 8.73385 5.12335 8.76262 4.99C8.79139 4.85664 8.78947 4.7185 8.757 4.586L8.463 3.386C8.41503 3.19024 8.30274 3.01625 8.14413 2.8919C7.98551 2.76756 7.79035 2.70005 7.5888 2.7002ZM4.1196 3.5288C4.13559 3.46354 4.17302 3.40555 4.22589 3.3641C4.27876 3.32265 4.34402 3.30015 4.4112 3.3002H7.5888C7.65588 3.30028 7.721 3.32284 7.77375 3.36428C7.8265 3.40572 7.86384 3.46364 7.8798 3.5288L8.1738 4.7288C8.18462 4.77293 8.18526 4.81894 8.17569 4.86337C8.16613 4.90779 8.14659 4.94945 8.11857 4.98522C8.09054 5.02099 8.05476 5.04992 8.01392 5.06984C7.97307 5.08976 7.92824 5.10014 7.8828 5.1002H4.1172C4.07171 5.10023 4.02681 5.08992 3.98589 5.07004C3.94497 5.05016 3.90911 5.02124 3.88102 4.98546C3.85293 4.94968 3.83334 4.90798 3.82374 4.86351C3.81414 4.81905 3.81477 4.77298 3.8256 4.7288L4.1196 3.5288Z" fill="#1A1A1A"/>
</svg>
