<svg width="83" height="40" viewBox="0 0 83 40" fill="none" xmlns="http://www.w3.org/2000/svg">
<path d="M20.333 27.0833C21.0234 27.0833 21.583 26.5236 21.583 25.8333C21.583 25.1429 21.0234 24.5833 20.333 24.5833C19.6427 24.5833 19.083 25.1429 19.083 25.8333C19.083 26.5236 19.6427 27.0833 20.333 27.0833Z" stroke="#898989" stroke-width="0.833333"/>
<path d="M26.1665 27.0833C26.8569 27.0833 27.4165 26.5236 27.4165 25.8333C27.4165 25.1429 26.8569 24.5833 26.1665 24.5833C25.4761 24.5833 24.9165 25.1429 24.9165 25.8333C24.9165 26.5236 25.4761 27.0833 26.1665 27.0833Z" stroke="#898989" stroke-width="0.833333"/>
<path d="M14.9165 13.3333H16.5832L19.5032 22.5H26.1665" stroke="#898989" stroke-width="0.833333" stroke-linecap="round" stroke-linejoin="round"/>
<path d="M18.8533 20.4166L17.25 15.4166H27.6725C27.7386 15.4165 27.8037 15.4322 27.8625 15.4622C27.9213 15.4923 27.9722 15.5359 28.0109 15.5894C28.0495 15.643 28.0749 15.705 28.0849 15.7703C28.0949 15.8356 28.0892 15.9023 28.0683 15.965L26.6792 20.1316C26.6515 20.2146 26.5985 20.2867 26.5276 20.3379C26.4568 20.389 26.3716 20.4166 26.2842 20.4166H18.8533Z" stroke="#898989" stroke-width="0.833333" stroke-linecap="round" stroke-linejoin="round"/>
<path d="M51.5753 18.1293H50.0241C49.9645 17.7978 49.8535 17.5062 49.6911 17.2543C49.5286 17.0024 49.3298 16.7886 49.0945 16.6129C48.8591 16.4373 48.5956 16.3047 48.304 16.2152C48.0156 16.1257 47.709 16.081 47.3842 16.081C46.7976 16.081 46.2723 16.2285 45.8082 16.5234C45.3475 16.8184 44.983 17.2509 44.7145 17.821C44.4493 18.3911 44.3168 19.0871 44.3168 19.9091C44.3168 20.7377 44.4493 21.437 44.7145 22.0071C44.983 22.5772 45.3492 23.008 45.8132 23.2997C46.2772 23.5914 46.7992 23.7372 47.3793 23.7372C47.7008 23.7372 48.0057 23.6941 48.294 23.608C48.5857 23.5185 48.8492 23.3875 49.0845 23.2152C49.3198 23.0429 49.5187 22.8324 49.6811 22.5838C49.8468 22.3319 49.9612 22.0436 50.0241 21.7188L51.5753 21.7237C51.4924 22.2242 51.3317 22.6849 51.093 23.1058C50.8577 23.5234 50.5545 23.8847 50.1832 24.1896C49.8153 24.4912 49.3944 24.7249 48.9205 24.8906C48.4465 25.0563 47.9295 25.1392 47.3693 25.1392C46.4877 25.1392 45.7022 24.9304 45.0128 24.5128C44.3234 24.0919 43.7798 23.4903 43.3821 22.7081C42.9877 21.9259 42.7905 20.9929 42.7905 19.9091C42.7905 18.822 42.9893 17.889 43.3871 17.1101C43.7848 16.3279 44.3284 15.728 45.0178 15.3104C45.7071 14.8894 46.491 14.679 47.3693 14.679C47.9096 14.679 48.4134 14.7569 48.8807 14.9126C49.3513 15.0651 49.7739 15.2905 50.1484 15.5888C50.523 15.8838 50.8329 16.245 51.0781 16.6726C51.3234 17.0968 51.4891 17.5824 51.5753 18.1293ZM55.2365 25.169C54.7526 25.169 54.3151 25.0795 53.924 24.9006C53.5329 24.7183 53.223 24.4548 52.9943 24.1101C52.7689 23.7654 52.6563 23.3428 52.6563 22.8423C52.6563 22.4115 52.7391 22.0568 52.9048 21.7784C53.0706 21.5 53.2943 21.2796 53.576 21.1172C53.8577 20.9548 54.1726 20.8321 54.5206 20.7493C54.8686 20.6664 55.2233 20.6035 55.5845 20.5604C56.0419 20.5073 56.4131 20.4643 56.6982 20.4311C56.9832 20.3946 57.1903 20.3366 57.3196 20.2571C57.4489 20.1776 57.5135 20.0483 57.5135 19.8693V19.8345C57.5135 19.4003 57.3909 19.0639 57.1456 18.8253C56.9037 18.5866 56.5424 18.4673 56.0618 18.4673C55.5613 18.4673 55.1669 18.5784 54.8786 18.8004C54.5935 19.0192 54.3963 19.2628 54.2869 19.5312L52.8899 19.2131C53.0556 18.7491 53.2976 18.3745 53.6158 18.0895C53.9373 17.8011 54.3068 17.5923 54.7244 17.4631C55.1421 17.3305 55.5812 17.2642 56.0419 17.2642C56.3468 17.2642 56.67 17.3007 57.0114 17.3736C57.3561 17.4432 57.6776 17.5724 57.9759 17.7614C58.2775 17.9503 58.5244 18.2204 58.7166 18.5717C58.9089 18.9197 59.005 19.3722 59.005 19.929V25H57.5533V23.956H57.4936C57.3975 24.1482 57.2533 24.3371 57.0611 24.5227C56.8689 24.7083 56.6219 24.8625 56.3203 24.9851C56.0187 25.1077 55.6574 25.169 55.2365 25.169ZM55.5597 23.9759C55.9707 23.9759 56.322 23.8946 56.6136 23.7322C56.9086 23.5698 57.1323 23.3577 57.2848 23.0959C57.4406 22.8307 57.5185 22.5473 57.5185 22.2457V21.2614C57.4654 21.3144 57.3627 21.3641 57.2102 21.4105C57.0611 21.4536 56.8904 21.4917 56.6982 21.5249C56.5059 21.5547 56.3187 21.5829 56.1364 21.6094C55.9541 21.6326 55.8016 21.6525 55.679 21.669C55.3906 21.7055 55.1271 21.7668 54.8885 21.853C54.6532 21.9392 54.4643 22.0634 54.3217 22.2259C54.1825 22.3849 54.1129 22.5971 54.1129 22.8622C54.1129 23.2301 54.2488 23.5085 54.5206 23.6974C54.7924 23.883 55.1387 23.9759 55.5597 23.9759ZM60.7049 25V17.3636H62.1417V18.5767H62.2213C62.3605 18.1657 62.6057 17.8426 62.957 17.6072C63.3117 17.3686 63.7127 17.2493 64.1602 17.2493C64.253 17.2493 64.3623 17.2526 64.4883 17.2592C64.6176 17.2659 64.7186 17.2741 64.7916 17.2841V18.706C64.7319 18.6894 64.6258 18.6712 64.4734 18.6513C64.3209 18.6281 64.1685 18.6165 64.016 18.6165C63.6647 18.6165 63.3515 18.6911 63.0764 18.8402C62.8046 18.986 62.5891 19.1899 62.4301 19.4517C62.271 19.7102 62.1914 20.0052 62.1914 20.3366V25H60.7049ZM69.8138 17.3636V18.5568H65.6426V17.3636H69.8138ZM66.7612 15.5341H68.2477V22.7578C68.2477 23.0462 68.2908 23.2633 68.377 23.4091C68.4631 23.5516 68.5742 23.6494 68.7101 23.7024C68.8493 23.7521 69.0001 23.777 69.1625 23.777C69.2818 23.777 69.3862 23.7687 69.4757 23.7521C69.5652 23.7356 69.6348 23.7223 69.6845 23.7124L69.953 24.9403C69.8668 24.9735 69.7442 25.0066 69.5851 25.0398C69.426 25.0762 69.2271 25.0961 68.9885 25.0994C68.5974 25.1061 68.2328 25.0365 67.8947 24.8906C67.5567 24.7448 67.2832 24.5194 67.0744 24.2145C66.8656 23.9096 66.7612 23.5268 66.7612 23.0661V15.5341Z" fill="#898989"/>
</svg>
