<svg width="98" height="78" viewBox="0 0 98 78" fill="none" xmlns="http://www.w3.org/2000/svg">
<path d="M92.2654 63.2435L92.2658 63.2431C95.597 60.1358 96.5 56.5694 96.5 54.75C96.5 52.8272 95.7362 50.9831 94.3765 49.6235C93.0169 48.2638 91.1728 47.5 89.25 47.5H63.7174C63.8184 47.6648 63.9168 47.8315 64.0125 48H89.25C91.0402 48 92.7571 48.7112 94.023 49.977C95.2888 51.2429 96 52.9598 96 54.75C96 56.434 95.1532 59.8671 91.9225 62.8811L92.2654 63.2435ZM92.2654 63.2435C88.9254 66.3615 83.1711 69 73.5 69C69.5306 69 66.2206 68.5536 63.4712 67.8157M92.2654 63.2435L63.4712 67.8157M63.4712 67.8157C63.5488 67.6643 63.6247 67.5128 63.6987 67.361C66.3874 68.0726 69.6194 68.5 73.5 68.5C83.0782 68.5 88.7024 65.8889 91.9216 62.8819L63.4712 67.8157ZM7.04798 68.9314L7.04791 68.9314C2.83312 64.94 1.5 60.0574 1.5 56.5C1.5 54.113 2.44821 51.8239 4.13604 50.136C5.82387 48.4482 8.11305 47.5 10.5 47.5H49C51.387 47.5 53.6761 48.4482 55.364 50.136C57.0518 51.8239 58 54.113 58 56.5C58 60.0574 56.6669 64.94 52.4521 68.9314L52.4516 68.9319C48.2375 72.9263 41.1662 76 29.7465 76C18.3276 76 11.2627 72.9233 7.04798 68.9314ZM52.1108 68.5683L52.1109 68.5682C56.2074 64.6854 57.5 59.9438 57.5 56.5C57.5 54.2457 56.6045 52.0837 55.0104 50.4896C53.4163 48.8955 51.2543 48 49 48H10.5C8.24566 48 6.08365 48.8955 4.48959 50.4896C2.89553 52.0837 2 54.2457 2 56.5C2 59.9438 3.29257 64.6854 7.38913 68.5682L7.38975 68.5688C11.4872 72.4479 18.4218 75.5 29.75 75.5C41.0775 75.5 48.0128 72.4518 52.1108 68.5683ZM13.8131 13.1487C12.9462 15.2416 12.5 17.4847 12.5 19.75C12.5 24.325 14.3174 28.7126 17.5524 31.9476C20.7874 35.1826 25.175 37 29.75 37C34.325 37 38.7126 35.1826 41.9476 31.9476C45.1826 28.7126 47 24.325 47 19.75C47 17.4847 46.5538 15.2416 45.6869 13.1487C44.82 11.0558 43.5494 9.15422 41.9476 7.55241C40.3458 5.9506 38.4442 4.67997 36.3513 3.81308C34.2584 2.94618 32.0153 2.5 29.75 2.5C27.4847 2.5 25.2416 2.94618 23.1487 3.81308C21.0558 4.67997 19.1542 5.9506 17.5524 7.55241C15.9506 9.15422 14.68 11.0558 13.8131 13.1487ZM17.1989 7.19886C20.5276 3.87008 25.0424 2 29.75 2C34.4576 2 38.9724 3.87008 42.3011 7.19886C45.6299 10.5276 47.5 15.0424 47.5 19.75C47.5 24.4576 45.6299 28.9724 42.3011 32.3011C38.9724 35.6299 34.4576 37.5 29.75 37.5C25.0424 37.5 20.5276 35.6299 17.1989 32.3011C13.8701 28.9724 12 24.4576 12 19.75C12 15.0424 13.8701 10.5276 17.1989 7.19886ZM65.0147 16.5147C62.7643 18.7652 61.5 21.8174 61.5 25C61.5 28.1826 62.7643 31.2348 65.0147 33.4853C67.2652 35.7357 70.3174 37 73.5 37C76.6826 37 79.7348 35.7357 81.9853 33.4853C84.2357 31.2348 85.5 28.1826 85.5 25C85.5 21.8174 84.2357 18.7652 81.9853 16.5147C79.7348 14.2643 76.6826 13 73.5 13C70.3174 13 67.2652 14.2643 65.0147 16.5147ZM64.6612 16.1612C67.0054 13.817 70.1848 12.5 73.5 12.5C76.8152 12.5 79.9946 13.817 82.3388 16.1612C84.683 18.5054 86 21.6848 86 25C86 28.3152 84.683 31.4946 82.3388 33.8388C79.9946 36.183 76.8152 37.5 73.5 37.5C70.1848 37.5 67.0054 36.183 64.6612 33.8388C62.317 31.4946 61 28.3152 61 25C61 21.6848 62.317 18.5054 64.6612 16.1612Z" stroke="#898989" stroke-width="3"/>
</svg>
