<svg width="18" height="18" viewBox="0 0 18 18" fill="none" xmlns="http://www.w3.org/2000/svg">
<path d="M13.5 14.25C13.5 14.8467 13.2629 15.419 12.841 15.841C12.419 16.2629 11.8467 16.5 11.25 16.5H6C5.40326 16.5 4.83097 16.2629 4.40901 15.841C3.98705 15.419 3.75 14.8467 3.75 14.25V5.25H3V3H6.375L7.125 2.25H10.125L10.875 3H14.25V5.25H13.5V14.25ZM4.5 5.25V14.25C4.5 14.6478 4.65804 15.0294 4.93934 15.3107C5.22064 15.592 5.60218 15.75 6 15.75H11.25C11.6478 15.75 12.0294 15.592 12.3107 15.3107C12.592 15.0294 12.75 14.6478 12.75 14.25V5.25H4.5ZM13.5 4.5V3.75H10.5L9.75 3H7.5L6.75 3.75H3.75V4.5H13.5ZM6 6.75H6.75V14.25H6V6.75ZM10.5 6.75H11.25V14.25H10.5V6.75Z" fill="white"/>
</svg>
