<svg width="37" height="38" viewBox="0 0 37 38" fill="none" xmlns="http://www.w3.org/2000/svg">
<path d="M11 19H21M11 23H25M11 27H17M31 29V15L21 5H11C9.93913 5 8.92172 5.42143 8.17157 6.17157C7.42143 6.92172 7 7.93913 7 9V29C7 30.0609 7.42143 31.0783 8.17157 31.8284C8.92172 32.5786 9.93913 33 11 33H27C28.0609 33 29.0783 32.5786 29.8284 31.8284C30.5786 31.0783 31 30.0609 31 29Z" stroke="#1A1A1A" stroke-linecap="round" stroke-linejoin="round"/>
<path d="M21.0001 5V11C21.0001 12.0609 21.4215 13.0783 22.1716 13.8284C22.9218 14.5786 23.9392 15 25.0001 15H31.0001" stroke="#1A1A1A" stroke-linecap="round" stroke-linejoin="round"/>
<rect x="19.1667" y="19.6667" width="17.6667" height="17.6667" rx="8.83333" fill="white"/>
<rect x="19.1667" y="19.6667" width="17.6667" height="17.6667" rx="8.83333" stroke="#1A1A1A" stroke-width="0.333333"/>
<path d="M31.0852 27.747C30.9836 26.094 29.8888 24.5 27.881 24.5C26.0445 24.5 24.6283 25.9332 24.5533 27.846C23.5486 28.1742 23 29.3032 23 30.125C23 31.3903 24.0014 32.5 25.1429 32.5H26.6905C26.722 32.5 26.7523 32.4868 26.7747 32.4634C26.797 32.4399 26.8095 32.4082 26.8095 32.375C26.8095 32.3418 26.797 32.3101 26.7747 32.2866C26.7523 32.2632 26.722 32.25 26.6905 32.25H25.1429C24.1281 32.25 23.2381 31.257 23.2381 30.125C23.2381 29.3622 23.8748 28 25.1429 28H25.5C25.5316 28 25.5619 27.9868 25.5842 27.9634C25.6065 27.9399 25.619 27.9082 25.619 27.875C25.619 27.8418 25.6065 27.8101 25.5842 27.7866C25.5619 27.7632 25.5316 27.75 25.5 27.75H25.1429C25.0217 27.75 24.9071 27.7643 24.7955 27.7847C24.8888 26.2873 25.9729 24.75 27.881 24.75C29.9257 24.75 30.8571 26.4347 30.8571 28V28.375C30.8571 28.4082 30.8697 28.4399 30.892 28.4634C30.9143 28.4868 30.9446 28.5 30.9762 28.5C31.0078 28.5 31.038 28.4868 31.0604 28.4634C31.0827 28.4399 31.0952 28.4082 31.0952 28.375V27.9978C31.814 28.0805 32.7619 28.8905 32.7619 30.125C32.7619 31.0815 31.8831 32.25 30.8571 32.25H29.0714C28.3005 32.25 28 31.9345 28 31.125V27.6957L28.971 28.7133C28.9819 28.7252 28.995 28.7347 29.0096 28.7413C29.0241 28.7479 29.0397 28.7514 29.0555 28.7515C29.0713 28.7517 29.087 28.7486 29.1016 28.7423C29.1163 28.736 29.1296 28.7268 29.1408 28.715C29.1519 28.7033 29.1608 28.6894 29.1668 28.674C29.1728 28.6587 29.1759 28.6422 29.1757 28.6256C29.1756 28.609 29.1724 28.5926 29.1661 28.5774C29.1599 28.5621 29.1509 28.5483 29.1395 28.5367L28.0774 27.4237C27.936 27.2757 27.8262 27.2757 27.685 27.4237L26.6229 28.5367C26.6012 28.5603 26.5892 28.5919 26.5894 28.6247C26.5897 28.6574 26.6022 28.6888 26.6243 28.712C26.6464 28.7352 26.6762 28.7483 26.7075 28.7486C26.7387 28.7489 26.7687 28.7363 26.7912 28.7135L27.7619 27.6957V31.125C27.7619 32.076 28.1657 32.5 29.0714 32.5H30.8571C32.0112 32.5 33 31.194 33 30.125C33 28.8333 31.9945 27.823 31.0852 27.747Z" fill="#898989"/>
</svg>
