<svg width="388" height="131" viewBox="0 0 388 131" fill="none" xmlns="http://www.w3.org/2000/svg">
<rect x="0.5" y="1" width="387" height="129" rx="3.5" fill="#F1CB13" fill-opacity="0.05"/>
<rect x="0.5" y="1" width="387" height="129" rx="3.5" stroke="#F6D21F" stroke-dasharray="5 5"/>
<path d="M31 65.5H41M31 69.5H45M31 73.5H37M51 75.5V61.5L41 51.5H31C29.9391 51.5 28.9217 51.9214 28.1716 52.6716C27.4214 53.4217 27 54.4391 27 55.5V75.5C27 76.5609 27.4214 77.5783 28.1716 78.3284C28.9217 79.0786 29.9391 79.5 31 79.5H47C48.0609 79.5 49.0783 79.0786 49.8284 78.3284C50.5786 77.5783 51 76.5609 51 75.5Z" stroke="#1A1A1A" stroke-linecap="round" stroke-linejoin="round"/>
<path d="M41 51.5V57.5C41 58.5609 41.4214 59.5783 42.1716 60.3284C42.9217 61.0786 43.9391 61.5 45 61.5H51" stroke="#1A1A1A" stroke-linecap="round" stroke-linejoin="round"/>
<rect x="39.1667" y="66.1667" width="17.6667" height="17.6667" rx="8.83333" fill="white"/>
<rect x="39.1667" y="66.1667" width="17.6667" height="17.6667" rx="8.83333" stroke="#1A1A1A" stroke-width="0.333333"/>
<path d="M51.0852 74.247C50.9836 72.594 49.8888 71 47.881 71C46.0445 71 44.6283 72.4332 44.5533 74.346C43.5486 74.6742 43 75.8032 43 76.625C43 77.8903 44.0014 79 45.1429 79H46.6905C46.722 79 46.7523 78.9868 46.7747 78.9634C46.797 78.9399 46.8095 78.9082 46.8095 78.875C46.8095 78.8418 46.797 78.8101 46.7747 78.7866C46.7523 78.7632 46.722 78.75 46.6905 78.75H45.1429C44.1281 78.75 43.2381 77.757 43.2381 76.625C43.2381 75.8622 43.8748 74.5 45.1429 74.5H45.5C45.5316 74.5 45.5619 74.4868 45.5842 74.4634C45.6065 74.4399 45.619 74.4082 45.619 74.375C45.619 74.3418 45.6065 74.3101 45.5842 74.2866C45.5619 74.2632 45.5316 74.25 45.5 74.25H45.1429C45.0217 74.25 44.9071 74.2643 44.7955 74.2847C44.8888 72.7873 45.9729 71.25 47.881 71.25C49.9257 71.25 50.8571 72.9347 50.8571 74.5V74.875C50.8571 74.9082 50.8697 74.9399 50.892 74.9634C50.9143 74.9868 50.9446 75 50.9762 75C51.0078 75 51.038 74.9868 51.0604 74.9634C51.0827 74.9399 51.0952 74.9082 51.0952 74.875V74.4978C51.814 74.5805 52.7619 75.3905 52.7619 76.625C52.7619 77.5815 51.8831 78.75 50.8571 78.75H49.0714C48.3005 78.75 48 78.4345 48 77.625V74.1957L48.971 75.2133C48.9819 75.2252 48.995 75.2347 49.0096 75.2413C49.0241 75.2479 49.0397 75.2514 49.0555 75.2515C49.0713 75.2517 49.087 75.2486 49.1016 75.2423C49.1163 75.236 49.1296 75.2268 49.1408 75.215C49.1519 75.2033 49.1608 75.1894 49.1668 75.174C49.1728 75.1587 49.1759 75.1422 49.1757 75.1256C49.1756 75.109 49.1724 75.0926 49.1661 75.0774C49.1599 75.0621 49.1509 75.0483 49.1395 75.0367L48.0774 73.9237C47.936 73.7757 47.8262 73.7757 47.685 73.9237L46.6229 75.0367C46.6012 75.0603 46.5892 75.0919 46.5894 75.1247C46.5897 75.1574 46.6022 75.1888 46.6243 75.212C46.6464 75.2352 46.6762 75.2483 46.7075 75.2486C46.7387 75.2489 46.7687 75.2363 46.7912 75.2135L47.7619 74.1957V77.625C47.7619 78.576 48.1657 79 49.0714 79H50.8571C52.0112 79 53 77.694 53 76.625C53 75.3333 51.9945 74.323 51.0852 74.247Z" fill="#898989"/>
<path d="M80.6017 38.16V43.476C80.6017 44.108 80.7657 44.584 81.0937 44.904C81.4297 45.224 81.8937 45.384 82.4857 45.384C83.0857 45.384 83.5497 45.224 83.8777 44.904C84.2137 44.584 84.3817 44.108 84.3817 43.476V38.16H85.7497V43.452C85.7497 44.132 85.6017 44.708 85.3057 45.18C85.0097 45.652 84.6137 46.004 84.1177 46.236C83.6217 46.468 83.0737 46.584 82.4737 46.584C81.8737 46.584 81.3257 46.468 80.8297 46.236C80.3417 46.004 79.9537 45.652 79.6657 45.18C79.3777 44.708 79.2337 44.132 79.2337 43.452V38.16H80.6017ZM88.8989 40.86C89.1309 40.556 89.4469 40.3 89.8469 40.092C90.2469 39.884 90.6989 39.78 91.2029 39.78C91.7789 39.78 92.3029 39.924 92.7749 40.212C93.2549 40.492 93.6309 40.888 93.9029 41.4C94.1749 41.912 94.3109 42.5 94.3109 43.164C94.3109 43.828 94.1749 44.424 93.9029 44.952C93.6309 45.472 93.2549 45.88 92.7749 46.176C92.3029 46.464 91.7789 46.608 91.2029 46.608C90.6989 46.608 90.2509 46.508 89.8589 46.308C89.4669 46.1 89.1469 45.844 88.8989 45.54V49.644H87.5309V39.888H88.8989V40.86ZM92.9189 43.164C92.9189 42.708 92.8229 42.316 92.6309 41.988C92.4469 41.652 92.1989 41.4 91.8869 41.232C91.5829 41.056 91.2549 40.968 90.9029 40.968C90.5589 40.968 90.2309 41.056 89.9189 41.232C89.6149 41.408 89.3669 41.664 89.1749 42C88.9909 42.336 88.8989 42.732 88.8989 43.188C88.8989 43.644 88.9909 44.044 89.1749 44.388C89.3669 44.724 89.6149 44.98 89.9189 45.156C90.2309 45.332 90.5589 45.42 90.9029 45.42C91.2549 45.42 91.5829 45.332 91.8869 45.156C92.1989 44.972 92.4469 44.708 92.6309 44.364C92.8229 44.02 92.9189 43.62 92.9189 43.164ZM97.0317 37.62V46.5H95.6637V37.62H97.0317ZM101.696 46.608C101.072 46.608 100.508 46.468 100.004 46.188C99.4997 45.9 99.1037 45.5 98.8157 44.988C98.5277 44.468 98.3837 43.868 98.3837 43.188C98.3837 42.516 98.5317 41.92 98.8277 41.4C99.1237 40.88 99.5277 40.48 100.04 40.2C100.552 39.92 101.124 39.78 101.756 39.78C102.388 39.78 102.96 39.92 103.472 40.2C103.984 40.48 104.388 40.88 104.684 41.4C104.98 41.92 105.128 42.516 105.128 43.188C105.128 43.86 104.976 44.456 104.672 44.976C104.368 45.496 103.952 45.9 103.424 46.188C102.904 46.468 102.328 46.608 101.696 46.608ZM101.696 45.42C102.048 45.42 102.376 45.336 102.68 45.168C102.992 45 103.244 44.748 103.436 44.412C103.628 44.076 103.724 43.668 103.724 43.188C103.724 42.708 103.632 42.304 103.448 41.976C103.264 41.64 103.02 41.388 102.716 41.22C102.412 41.052 102.084 40.968 101.732 40.968C101.38 40.968 101.052 41.052 100.748 41.22C100.452 41.388 100.216 41.64 100.04 41.976C99.8637 42.304 99.7757 42.708 99.7757 43.188C99.7757 43.9 99.9557 44.452 100.316 44.844C100.684 45.228 101.144 45.42 101.696 45.42ZM106.024 43.164C106.024 42.5 106.16 41.912 106.432 41.4C106.712 40.888 107.088 40.492 107.56 40.212C108.04 39.924 108.568 39.78 109.144 39.78C109.664 39.78 110.116 39.884 110.5 40.092C110.892 40.292 111.204 40.544 111.436 40.848V39.888H112.816V46.5H111.436V45.516C111.204 45.828 110.888 46.088 110.488 46.296C110.088 46.504 109.632 46.608 109.12 46.608C108.552 46.608 108.032 46.464 107.56 46.176C107.088 45.88 106.712 45.472 106.432 44.952C106.16 44.424 106.024 43.828 106.024 43.164ZM111.436 43.188C111.436 42.732 111.34 42.336 111.148 42C110.964 41.664 110.72 41.408 110.416 41.232C110.112 41.056 109.784 40.968 109.432 40.968C109.08 40.968 108.752 41.056 108.448 41.232C108.144 41.4 107.896 41.652 107.704 41.988C107.52 42.316 107.428 42.708 107.428 43.164C107.428 43.62 107.52 44.02 107.704 44.364C107.896 44.708 108.144 44.972 108.448 45.156C108.76 45.332 109.088 45.42 109.432 45.42C109.784 45.42 110.112 45.332 110.416 45.156C110.72 44.98 110.964 44.724 111.148 44.388C111.34 44.044 111.436 43.644 111.436 43.188ZM114.157 43.164C114.157 42.5 114.293 41.912 114.565 41.4C114.845 40.888 115.221 40.492 115.693 40.212C116.173 39.924 116.705 39.78 117.289 39.78C117.721 39.78 118.145 39.876 118.561 40.068C118.985 40.252 119.321 40.5 119.569 40.812V37.62H120.949V46.5H119.569V45.504C119.345 45.824 119.033 46.088 118.633 46.296C118.241 46.504 117.789 46.608 117.277 46.608C116.701 46.608 116.173 46.464 115.693 46.176C115.221 45.88 114.845 45.472 114.565 44.952C114.293 44.424 114.157 43.828 114.157 43.164ZM119.569 43.188C119.569 42.732 119.473 42.336 119.281 42C119.097 41.664 118.853 41.408 118.549 41.232C118.245 41.056 117.917 40.968 117.565 40.968C117.213 40.968 116.885 41.056 116.581 41.232C116.277 41.4 116.029 41.652 115.837 41.988C115.653 42.316 115.561 42.708 115.561 43.164C115.561 43.62 115.653 44.02 115.837 44.364C116.029 44.708 116.277 44.972 116.581 45.156C116.893 45.332 117.221 45.42 117.565 45.42C117.917 45.42 118.245 45.332 118.549 45.156C118.853 44.98 119.097 44.724 119.281 44.388C119.473 44.044 119.569 43.644 119.569 43.188ZM128.587 38.16C129.475 38.16 130.251 38.332 130.915 38.676C131.587 39.012 132.103 39.5 132.463 40.14C132.831 40.772 133.015 41.512 133.015 42.36C133.015 43.208 132.831 43.944 132.463 44.568C132.103 45.192 131.587 45.672 130.915 46.008C130.251 46.336 129.475 46.5 128.587 46.5H125.863V38.16H128.587ZM128.587 45.384C129.563 45.384 130.311 45.12 130.831 44.592C131.351 44.064 131.611 43.32 131.611 42.36C131.611 41.392 131.351 40.636 130.831 40.092C130.311 39.548 129.563 39.276 128.587 39.276H127.231V45.384H128.587ZM137.239 46.608C136.615 46.608 136.051 46.468 135.547 46.188C135.043 45.9 134.647 45.5 134.359 44.988C134.071 44.468 133.927 43.868 133.927 43.188C133.927 42.516 134.075 41.92 134.371 41.4C134.667 40.88 135.071 40.48 135.583 40.2C136.095 39.92 136.667 39.78 137.299 39.78C137.931 39.78 138.503 39.92 139.015 40.2C139.527 40.48 139.931 40.88 140.227 41.4C140.523 41.92 140.671 42.516 140.671 43.188C140.671 43.86 140.519 44.456 140.215 44.976C139.911 45.496 139.495 45.9 138.967 46.188C138.447 46.468 137.871 46.608 137.239 46.608ZM137.239 45.42C137.591 45.42 137.919 45.336 138.223 45.168C138.535 45 138.787 44.748 138.979 44.412C139.171 44.076 139.267 43.668 139.267 43.188C139.267 42.708 139.175 42.304 138.991 41.976C138.807 41.64 138.563 41.388 138.259 41.22C137.955 41.052 137.627 40.968 137.275 40.968C136.923 40.968 136.595 41.052 136.291 41.22C135.995 41.388 135.759 41.64 135.583 41.976C135.407 42.304 135.319 42.708 135.319 43.188C135.319 43.9 135.499 44.452 135.859 44.844C136.227 45.228 136.687 45.42 137.239 45.42ZM141.567 43.188C141.567 42.508 141.703 41.912 141.975 41.4C142.255 40.88 142.639 40.48 143.127 40.2C143.615 39.92 144.175 39.78 144.807 39.78C145.607 39.78 146.267 39.972 146.787 40.356C147.315 40.732 147.671 41.272 147.855 41.976H146.379C146.259 41.648 146.067 41.392 145.803 41.208C145.539 41.024 145.207 40.932 144.807 40.932C144.247 40.932 143.799 41.132 143.463 41.532C143.135 41.924 142.971 42.476 142.971 43.188C142.971 43.9 143.135 44.456 143.463 44.856C143.799 45.256 144.247 45.456 144.807 45.456C145.599 45.456 146.123 45.108 146.379 44.412H147.855C147.663 45.084 147.303 45.62 146.775 46.02C146.247 46.412 145.591 46.608 144.807 46.608C144.175 46.608 143.615 46.468 143.127 46.188C142.639 45.9 142.255 45.5 141.975 44.988C141.703 44.468 141.567 43.868 141.567 43.188ZM155.206 39.888V46.5H153.838V45.72C153.622 45.992 153.338 46.208 152.986 46.368C152.642 46.52 152.274 46.596 151.882 46.596C151.362 46.596 150.894 46.488 150.478 46.272C150.07 46.056 149.746 45.736 149.506 45.312C149.274 44.888 149.158 44.376 149.158 43.776V39.888H150.514V43.572C150.514 44.164 150.662 44.62 150.958 44.94C151.254 45.252 151.658 45.408 152.17 45.408C152.682 45.408 153.086 45.252 153.382 44.94C153.686 44.62 153.838 44.164 153.838 43.572V39.888H155.206ZM165.015 39.78C165.535 39.78 165.999 39.888 166.407 40.104C166.823 40.32 167.147 40.64 167.379 41.064C167.619 41.488 167.739 42 167.739 42.6V46.5H166.383V42.804C166.383 42.212 166.235 41.76 165.939 41.448C165.643 41.128 165.239 40.968 164.727 40.968C164.215 40.968 163.807 41.128 163.503 41.448C163.207 41.76 163.059 42.212 163.059 42.804V46.5H161.703V42.804C161.703 42.212 161.555 41.76 161.259 41.448C160.963 41.128 160.559 40.968 160.047 40.968C159.535 40.968 159.127 41.128 158.823 41.448C158.527 41.76 158.379 42.212 158.379 42.804V46.5H157.011V39.888H158.379V40.644C158.603 40.372 158.887 40.16 159.231 40.008C159.575 39.856 159.943 39.78 160.335 39.78C160.863 39.78 161.335 39.892 161.751 40.116C162.167 40.34 162.487 40.664 162.711 41.088C162.911 40.688 163.223 40.372 163.647 40.14C164.071 39.9 164.527 39.78 165.015 39.78ZM175.54 43.032C175.54 43.28 175.524 43.504 175.492 43.704H170.44C170.48 44.232 170.676 44.656 171.028 44.976C171.38 45.296 171.812 45.456 172.324 45.456C173.06 45.456 173.58 45.148 173.884 44.532H175.36C175.16 45.14 174.796 45.64 174.268 46.032C173.748 46.416 173.1 46.608 172.324 46.608C171.692 46.608 171.124 46.468 170.62 46.188C170.124 45.9 169.732 45.5 169.444 44.988C169.164 44.468 169.024 43.868 169.024 43.188C169.024 42.508 169.16 41.912 169.432 41.4C169.712 40.88 170.1 40.48 170.596 40.2C171.1 39.92 171.676 39.78 172.324 39.78C172.948 39.78 173.504 39.916 173.992 40.188C174.48 40.46 174.86 40.844 175.132 41.34C175.404 41.828 175.54 42.392 175.54 43.032ZM174.112 42.6C174.104 42.096 173.924 41.692 173.572 41.388C173.22 41.084 172.784 40.932 172.264 40.932C171.792 40.932 171.388 41.084 171.052 41.388C170.716 41.684 170.516 42.088 170.452 42.6H174.112ZM180.222 39.78C180.742 39.78 181.206 39.888 181.614 40.104C182.03 40.32 182.354 40.64 182.586 41.064C182.818 41.488 182.934 42 182.934 42.6V46.5H181.578V42.804C181.578 42.212 181.43 41.76 181.134 41.448C180.838 41.128 180.434 40.968 179.922 40.968C179.41 40.968 179.002 41.128 178.698 41.448C178.402 41.76 178.254 42.212 178.254 42.804V46.5H176.886V39.888H178.254V40.644C178.478 40.372 178.762 40.16 179.106 40.008C179.458 39.856 179.83 39.78 180.222 39.78ZM186.275 41.004V44.664C186.275 44.912 186.331 45.092 186.443 45.204C186.563 45.308 186.763 45.36 187.043 45.36H187.883V46.5H186.803C186.187 46.5 185.715 46.356 185.387 46.068C185.059 45.78 184.895 45.312 184.895 44.664V41.004H184.115V39.888H184.895V38.244H186.275V39.888H187.883V41.004H186.275ZM191.544 46.608C191.024 46.608 190.556 46.516 190.14 46.332C189.732 46.14 189.408 45.884 189.168 45.564C188.928 45.236 188.8 44.872 188.784 44.472H190.2C190.224 44.752 190.356 44.988 190.596 45.18C190.844 45.364 191.152 45.456 191.52 45.456C191.904 45.456 192.2 45.384 192.408 45.24C192.624 45.088 192.732 44.896 192.732 44.664C192.732 44.416 192.612 44.232 192.372 44.112C192.14 43.992 191.768 43.86 191.256 43.716C190.76 43.58 190.356 43.448 190.044 43.32C189.732 43.192 189.46 42.996 189.228 42.732C189.004 42.468 188.892 42.12 188.892 41.688C188.892 41.336 188.996 41.016 189.204 40.728C189.412 40.432 189.708 40.2 190.092 40.032C190.484 39.864 190.932 39.78 191.436 39.78C192.188 39.78 192.792 39.972 193.248 40.356C193.712 40.732 193.96 41.248 193.992 41.904H192.624C192.6 41.608 192.48 41.372 192.264 41.196C192.048 41.02 191.756 40.932 191.388 40.932C191.028 40.932 190.752 41 190.56 41.136C190.368 41.272 190.272 41.452 190.272 41.676C190.272 41.852 190.336 42 190.464 42.12C190.592 42.24 190.748 42.336 190.932 42.408C191.116 42.472 191.388 42.556 191.748 42.66C192.228 42.788 192.62 42.92 192.924 43.056C193.236 43.184 193.504 43.376 193.728 43.632C193.952 43.888 194.068 44.228 194.076 44.652C194.076 45.028 193.972 45.364 193.764 45.66C193.556 45.956 193.26 46.188 192.876 46.356C192.5 46.524 192.056 46.608 191.544 46.608Z" fill="#0F0F0F"/>
<path d="M80.98 72.57C80.52 72.57 80.1067 72.49 79.74 72.33C79.38 72.1633 79.0967 71.9367 78.89 71.65C78.6833 71.3567 78.5767 71.02 78.57 70.64H79.54C79.5733 70.9667 79.7067 71.2433 79.94 71.47C80.18 71.69 80.5267 71.8 80.98 71.8C81.4133 71.8 81.7533 71.6933 82 71.48C82.2533 71.26 82.38 70.98 82.38 70.64C82.38 70.3733 82.3067 70.1567 82.16 69.99C82.0133 69.8233 81.83 69.6967 81.61 69.61C81.39 69.5233 81.0933 69.43 80.72 69.33C80.26 69.21 79.89 69.09 79.61 68.97C79.3367 68.85 79.1 68.6633 78.9 68.41C78.7067 68.15 78.61 67.8033 78.61 67.37C78.61 66.99 78.7067 66.6533 78.9 66.36C79.0933 66.0667 79.3633 65.84 79.71 65.68C80.0633 65.52 80.4667 65.44 80.92 65.44C81.5733 65.44 82.1067 65.6033 82.52 65.93C82.94 66.2567 83.1767 66.69 83.23 67.23H82.23C82.1967 66.9633 82.0567 66.73 81.81 66.53C81.5633 66.3233 81.2367 66.22 80.83 66.22C80.45 66.22 80.14 66.32 79.9 66.52C79.66 66.7133 79.54 66.9867 79.54 67.34C79.54 67.5933 79.61 67.8 79.75 67.96C79.8967 68.12 80.0733 68.2433 80.28 68.33C80.4933 68.41 80.79 68.5033 81.17 68.61C81.63 68.7367 82 68.8633 82.28 68.99C82.56 69.11 82.8 69.3 83 69.56C83.2 69.8133 83.3 70.16 83.3 70.6C83.3 70.94 83.21 71.26 83.03 71.56C82.85 71.86 82.5833 72.1033 82.23 72.29C81.8767 72.4767 81.46 72.57 80.98 72.57ZM89.4991 67.02V72.5H88.5891V71.69C88.4158 71.97 88.1725 72.19 87.8591 72.35C87.5525 72.5033 87.2125 72.58 86.8391 72.58C86.4125 72.58 86.0291 72.4933 85.6891 72.32C85.3491 72.14 85.0791 71.8733 84.8791 71.52C84.6858 71.1667 84.5891 70.7367 84.5891 70.23V67.02H85.4891V70.11C85.4891 70.65 85.6258 71.0667 85.8991 71.36C86.1725 71.6467 86.5458 71.79 87.0191 71.79C87.5058 71.79 87.8891 71.64 88.1691 71.34C88.4491 71.04 88.5891 70.6033 88.5891 70.03V67.02H89.4991ZM91.9456 68.03C92.1256 67.7167 92.3923 67.4567 92.7456 67.25C93.1056 67.0367 93.5223 66.93 93.9956 66.93C94.4823 66.93 94.9223 67.0467 95.3156 67.28C95.7156 67.5133 96.029 67.8433 96.2556 68.27C96.4823 68.69 96.5956 69.18 96.5956 69.74C96.5956 70.2933 96.4823 70.7867 96.2556 71.22C96.029 71.6533 95.7156 71.99 95.3156 72.23C94.9223 72.47 94.4823 72.59 93.9956 72.59C93.529 72.59 93.1156 72.4867 92.7556 72.28C92.4023 72.0667 92.1323 71.8033 91.9456 71.49V75.1H91.0356V67.02H91.9456V68.03ZM95.6656 69.74C95.6656 69.3267 95.5823 68.9667 95.4156 68.66C95.249 68.3533 95.0223 68.12 94.7356 67.96C94.4556 67.8 94.1456 67.72 93.8056 67.72C93.4723 67.72 93.1623 67.8033 92.8756 67.97C92.5956 68.13 92.369 68.3667 92.1956 68.68C92.029 68.9867 91.9456 69.3433 91.9456 69.75C91.9456 70.1633 92.029 70.5267 92.1956 70.84C92.369 71.1467 92.5956 71.3833 92.8756 71.55C93.1623 71.71 93.4723 71.79 93.8056 71.79C94.1456 71.79 94.4556 71.71 94.7356 71.55C95.0223 71.3833 95.249 71.1467 95.4156 70.84C95.5823 70.5267 95.6656 70.16 95.6656 69.74ZM98.7034 68.03C98.8834 67.7167 99.1501 67.4567 99.5034 67.25C99.8634 67.0367 100.28 66.93 100.753 66.93C101.24 66.93 101.68 67.0467 102.073 67.28C102.473 67.5133 102.787 67.8433 103.013 68.27C103.24 68.69 103.353 69.18 103.353 69.74C103.353 70.2933 103.24 70.7867 103.013 71.22C102.787 71.6533 102.473 71.99 102.073 72.23C101.68 72.47 101.24 72.59 100.753 72.59C100.287 72.59 99.8734 72.4867 99.5134 72.28C99.1601 72.0667 98.8901 71.8033 98.7034 71.49V75.1H97.7934V67.02H98.7034V68.03ZM102.423 69.74C102.423 69.3267 102.34 68.9667 102.173 68.66C102.007 68.3533 101.78 68.12 101.493 67.96C101.213 67.8 100.903 67.72 100.563 67.72C100.23 67.72 99.9201 67.8033 99.6334 67.97C99.3534 68.13 99.1268 68.3667 98.9534 68.68C98.7868 68.9867 98.7034 69.3433 98.7034 69.75C98.7034 70.1633 98.7868 70.5267 98.9534 70.84C99.1268 71.1467 99.3534 71.3833 99.6334 71.55C99.9201 71.71 100.23 71.79 100.563 71.79C100.903 71.79 101.213 71.71 101.493 71.55C101.78 71.3833 102.007 71.1467 102.173 70.84C102.34 70.5267 102.423 70.16 102.423 69.74ZM106.941 72.59C106.428 72.59 105.961 72.4733 105.541 72.24C105.128 72.0067 104.801 71.6767 104.561 71.25C104.328 70.8167 104.211 70.3167 104.211 69.75C104.211 69.19 104.331 68.6967 104.571 68.27C104.818 67.8367 105.151 67.5067 105.571 67.28C105.991 67.0467 106.461 66.93 106.981 66.93C107.501 66.93 107.971 67.0467 108.391 67.28C108.811 67.5067 109.141 67.8333 109.381 68.26C109.628 68.6867 109.751 69.1833 109.751 69.75C109.751 70.3167 109.625 70.8167 109.371 71.25C109.125 71.6767 108.788 72.0067 108.361 72.24C107.935 72.4733 107.461 72.59 106.941 72.59ZM106.941 71.79C107.268 71.79 107.575 71.7133 107.861 71.56C108.148 71.4067 108.378 71.1767 108.551 70.87C108.731 70.5633 108.821 70.19 108.821 69.75C108.821 69.31 108.735 68.9367 108.561 68.63C108.388 68.3233 108.161 68.0967 107.881 67.95C107.601 67.7967 107.298 67.72 106.971 67.72C106.638 67.72 106.331 67.7967 106.051 67.95C105.778 68.0967 105.558 68.3233 105.391 68.63C105.225 68.9367 105.141 69.31 105.141 69.75C105.141 70.1967 105.221 70.5733 105.381 70.88C105.548 71.1867 105.768 71.4167 106.041 71.57C106.315 71.7167 106.615 71.79 106.941 71.79ZM111.858 67.91C112.018 67.5967 112.244 67.3533 112.538 67.18C112.838 67.0067 113.201 66.92 113.628 66.92V67.86H113.388C112.368 67.86 111.858 68.4133 111.858 69.52V72.5H110.948V67.02H111.858V67.91ZM115.788 67.77V71C115.788 71.2667 115.845 71.4567 115.958 71.57C116.072 71.6767 116.268 71.73 116.548 71.73H117.218V72.5H116.398C115.892 72.5 115.512 72.3833 115.258 72.15C115.005 71.9167 114.878 71.5333 114.878 71V67.77H114.168V67.02H114.878V65.64H115.788V67.02H117.218V67.77H115.788ZM123.321 69.55C123.321 69.7233 123.311 69.9067 123.291 70.1H118.911C118.944 70.64 119.127 71.0633 119.461 71.37C119.801 71.67 120.211 71.82 120.691 71.82C121.084 71.82 121.411 71.73 121.671 71.55C121.937 71.3633 122.124 71.1167 122.231 70.81H123.211C123.064 71.3367 122.771 71.7667 122.331 72.1C121.891 72.4267 121.344 72.59 120.691 72.59C120.171 72.59 119.704 72.4733 119.291 72.24C118.884 72.0067 118.564 71.6767 118.331 71.25C118.097 70.8167 117.981 70.3167 117.981 69.75C117.981 69.1833 118.094 68.6867 118.321 68.26C118.547 67.8333 118.864 67.5067 119.271 67.28C119.684 67.0467 120.157 66.93 120.691 66.93C121.211 66.93 121.671 67.0433 122.071 67.27C122.471 67.4967 122.777 67.81 122.991 68.21C123.211 68.6033 123.321 69.05 123.321 69.55ZM122.381 69.36C122.381 69.0133 122.304 68.7167 122.151 68.47C121.997 68.2167 121.787 68.0267 121.521 67.9C121.261 67.7667 120.971 67.7 120.651 67.7C120.191 67.7 119.797 67.8467 119.471 68.14C119.151 68.4333 118.967 68.84 118.921 69.36H122.381ZM124.182 69.74C124.182 69.18 124.295 68.69 124.522 68.27C124.749 67.8433 125.059 67.5133 125.452 67.28C125.852 67.0467 126.299 66.93 126.792 66.93C127.219 66.93 127.615 67.03 127.982 67.23C128.349 67.4233 128.629 67.68 128.822 68V65.1H129.742V72.5H128.822V71.47C128.642 71.7967 128.375 72.0667 128.022 72.28C127.669 72.4867 127.255 72.59 126.782 72.59C126.295 72.59 125.852 72.47 125.452 72.23C125.059 71.99 124.749 71.6533 124.522 71.22C124.295 70.7867 124.182 70.2933 124.182 69.74ZM128.822 69.75C128.822 69.3367 128.739 68.9767 128.572 68.67C128.405 68.3633 128.179 68.13 127.892 67.97C127.612 67.8033 127.302 67.72 126.962 67.72C126.622 67.72 126.312 67.8 126.032 67.96C125.752 68.12 125.529 68.3533 125.362 68.66C125.195 68.9667 125.112 69.3267 125.112 69.74C125.112 70.16 125.195 70.5267 125.362 70.84C125.529 71.1467 125.752 71.3833 126.032 71.55C126.312 71.71 126.622 71.79 126.962 71.79C127.302 71.79 127.612 71.71 127.892 71.55C128.179 71.3833 128.405 71.1467 128.572 70.84C128.739 70.5267 128.822 70.1633 128.822 69.75ZM136.176 67.77H135.026V72.5H134.116V67.77H133.406V67.02H134.116V66.63C134.116 66.0167 134.272 65.57 134.586 65.29C134.906 65.0033 135.416 64.86 136.116 64.86V65.62C135.716 65.62 135.432 65.7 135.266 65.86C135.106 66.0133 135.026 66.27 135.026 66.63V67.02H136.176V67.77ZM139.627 72.59C139.113 72.59 138.647 72.4733 138.227 72.24C137.813 72.0067 137.487 71.6767 137.247 71.25C137.013 70.8167 136.897 70.3167 136.897 69.75C136.897 69.19 137.017 68.6967 137.257 68.27C137.503 67.8367 137.837 67.5067 138.257 67.28C138.677 67.0467 139.147 66.93 139.667 66.93C140.187 66.93 140.657 67.0467 141.077 67.28C141.497 67.5067 141.827 67.8333 142.067 68.26C142.313 68.6867 142.437 69.1833 142.437 69.75C142.437 70.3167 142.31 70.8167 142.057 71.25C141.81 71.6767 141.473 72.0067 141.047 72.24C140.62 72.4733 140.147 72.59 139.627 72.59ZM139.627 71.79C139.953 71.79 140.26 71.7133 140.547 71.56C140.833 71.4067 141.063 71.1767 141.237 70.87C141.417 70.5633 141.507 70.19 141.507 69.75C141.507 69.31 141.42 68.9367 141.247 68.63C141.073 68.3233 140.847 68.0967 140.567 67.95C140.287 67.7967 139.983 67.72 139.657 67.72C139.323 67.72 139.017 67.7967 138.737 67.95C138.463 68.0967 138.243 68.3233 138.077 68.63C137.91 68.9367 137.827 69.31 137.827 69.75C137.827 70.1967 137.907 70.5733 138.067 70.88C138.233 71.1867 138.453 71.4167 138.727 71.57C139 71.7167 139.3 71.79 139.627 71.79ZM144.543 67.91C144.703 67.5967 144.93 67.3533 145.223 67.18C145.523 67.0067 145.887 66.92 146.313 66.92V67.86H146.073C145.053 67.86 144.543 68.4133 144.543 69.52V72.5H143.633V67.02H144.543V67.91ZM153.954 66.92C154.38 66.92 154.76 67.01 155.094 67.19C155.427 67.3633 155.69 67.6267 155.884 67.98C156.077 68.3333 156.174 68.7633 156.174 69.27V72.5H155.274V69.4C155.274 68.8533 155.137 68.4367 154.864 68.15C154.597 67.8567 154.234 67.71 153.774 67.71C153.3 67.71 152.924 67.8633 152.644 68.17C152.364 68.47 152.224 68.9067 152.224 69.48V72.5H151.324V69.4C151.324 68.8533 151.187 68.4367 150.914 68.15C150.647 67.8567 150.284 67.71 149.824 67.71C149.35 67.71 148.974 67.8633 148.694 68.17C148.414 68.47 148.274 68.9067 148.274 69.48V72.5H147.364V67.02H148.274V67.81C148.454 67.5233 148.694 67.3033 148.994 67.15C149.3 66.9967 149.637 66.92 150.004 66.92C150.464 66.92 150.87 67.0233 151.224 67.23C151.577 67.4367 151.84 67.74 152.014 68.14C152.167 67.7533 152.42 67.4533 152.774 67.24C153.127 67.0267 153.52 66.92 153.954 66.92ZM157.326 69.74C157.326 69.18 157.44 68.69 157.666 68.27C157.893 67.8433 158.203 67.5133 158.596 67.28C158.996 67.0467 159.44 66.93 159.926 66.93C160.406 66.93 160.823 67.0333 161.176 67.24C161.53 67.4467 161.793 67.7067 161.966 68.02V67.02H162.886V72.5H161.966V71.48C161.786 71.8 161.516 72.0667 161.156 72.28C160.803 72.4867 160.39 72.59 159.916 72.59C159.43 72.59 158.99 72.47 158.596 72.23C158.203 71.99 157.893 71.6533 157.666 71.22C157.44 70.7867 157.326 70.2933 157.326 69.74ZM161.966 69.75C161.966 69.3367 161.883 68.9767 161.716 68.67C161.55 68.3633 161.323 68.13 161.036 67.97C160.756 67.8033 160.446 67.72 160.106 67.72C159.766 67.72 159.456 67.8 159.176 67.96C158.896 68.12 158.673 68.3533 158.506 68.66C158.34 68.9667 158.256 69.3267 158.256 69.74C158.256 70.16 158.34 70.5267 158.506 70.84C158.673 71.1467 158.896 71.3833 159.176 71.55C159.456 71.71 159.766 71.79 160.106 71.79C160.446 71.79 160.756 71.71 161.036 71.55C161.323 71.3833 161.55 71.1467 161.716 70.84C161.883 70.5267 161.966 70.1633 161.966 69.75ZM165.534 67.77V71C165.534 71.2667 165.591 71.4567 165.704 71.57C165.818 71.6767 166.014 71.73 166.294 71.73H166.964V72.5H166.144C165.638 72.5 165.258 72.3833 165.004 72.15C164.751 71.9167 164.624 71.5333 164.624 71V67.77H163.914V67.02H164.624V65.64H165.534V67.02H166.964V67.77H165.534ZM168.357 72.56C168.184 72.56 168.037 72.5 167.917 72.38C167.797 72.26 167.737 72.1133 167.737 71.94C167.737 71.7667 167.797 71.62 167.917 71.5C168.037 71.38 168.184 71.32 168.357 71.32C168.524 71.32 168.664 71.38 168.777 71.5C168.897 71.62 168.957 71.7667 168.957 71.94C168.957 72.1133 168.897 72.26 168.777 72.38C168.664 72.5 168.524 72.56 168.357 72.56ZM168.357 68.28C168.184 68.28 168.037 68.22 167.917 68.1C167.797 67.98 167.737 67.8333 167.737 67.66C167.737 67.4867 167.797 67.34 167.917 67.22C168.037 67.1 168.184 67.04 168.357 67.04C168.524 67.04 168.664 67.1 168.777 67.22C168.897 67.34 168.957 67.4867 168.957 67.66C168.957 67.8333 168.897 67.98 168.777 68.1C168.664 68.22 168.524 68.28 168.357 68.28ZM177.522 67.57C177.522 68.15 177.322 68.6333 176.922 69.02C176.528 69.4 175.925 69.59 175.112 69.59H173.772V72.5H172.862V65.53H175.112C175.898 65.53 176.495 65.72 176.902 66.1C177.315 66.48 177.522 66.97 177.522 67.57ZM175.112 68.84C175.618 68.84 175.992 68.73 176.232 68.51C176.472 68.29 176.592 67.9767 176.592 67.57C176.592 66.71 176.098 66.28 175.112 66.28H173.772V68.84H175.112ZM180.823 65.53C181.583 65.53 182.239 65.6733 182.793 65.96C183.353 66.24 183.779 66.6433 184.073 67.17C184.373 67.6967 184.523 68.3167 184.523 69.03C184.523 69.7433 184.373 70.3633 184.073 70.89C183.779 71.41 183.353 71.81 182.793 72.09C182.239 72.3633 181.583 72.5 180.823 72.5H178.653V65.53H180.823ZM180.823 71.75C181.723 71.75 182.409 71.5133 182.883 71.04C183.356 70.56 183.593 69.89 183.593 69.03C183.593 68.1633 183.353 67.4867 182.873 67C182.399 66.5133 181.716 66.27 180.823 66.27H179.563V71.75H180.823ZM189.663 65.53V66.27H186.633V68.62H189.093V69.36H186.633V72.5H185.723V65.53H189.663ZM191.702 71.24L190.582 73.93H189.972L190.702 71.24H191.702ZM204.171 65.53L202.151 72.5H201.131L199.511 66.89L197.831 72.5L196.821 72.51L194.871 65.53H195.841L197.361 71.44L199.041 65.53H200.061L201.661 71.42L203.191 65.53H204.171ZM207.556 72.59C207.043 72.59 206.576 72.4733 206.156 72.24C205.743 72.0067 205.416 71.6767 205.176 71.25C204.943 70.8167 204.826 70.3167 204.826 69.75C204.826 69.19 204.946 68.6967 205.186 68.27C205.433 67.8367 205.766 67.5067 206.186 67.28C206.606 67.0467 207.076 66.93 207.596 66.93C208.116 66.93 208.586 67.0467 209.006 67.28C209.426 67.5067 209.756 67.8333 209.996 68.26C210.243 68.6867 210.366 69.1833 210.366 69.75C210.366 70.3167 210.24 70.8167 209.986 71.25C209.74 71.6767 209.403 72.0067 208.976 72.24C208.55 72.4733 208.076 72.59 207.556 72.59ZM207.556 71.79C207.883 71.79 208.19 71.7133 208.476 71.56C208.763 71.4067 208.993 71.1767 209.166 70.87C209.346 70.5633 209.436 70.19 209.436 69.75C209.436 69.31 209.35 68.9367 209.176 68.63C209.003 68.3233 208.776 68.0967 208.496 67.95C208.216 67.7967 207.913 67.72 207.586 67.72C207.253 67.72 206.946 67.7967 206.666 67.95C206.393 68.0967 206.173 68.3233 206.006 68.63C205.84 68.9367 205.756 69.31 205.756 69.75C205.756 70.1967 205.836 70.5733 205.996 70.88C206.163 71.1867 206.383 71.4167 206.656 71.57C206.93 71.7167 207.23 71.79 207.556 71.79ZM212.473 67.91C212.633 67.5967 212.86 67.3533 213.153 67.18C213.453 67.0067 213.816 66.92 214.243 66.92V67.86H214.003C212.983 67.86 212.473 68.4133 212.473 69.52V72.5H211.563V67.02H212.473V67.91ZM214.953 69.74C214.953 69.18 215.067 68.69 215.293 68.27C215.52 67.8433 215.83 67.5133 216.223 67.28C216.623 67.0467 217.07 66.93 217.563 66.93C217.99 66.93 218.387 67.03 218.753 67.23C219.12 67.4233 219.4 67.68 219.593 68V65.1H220.513V72.5H219.593V71.47C219.413 71.7967 219.147 72.0667 218.793 72.28C218.44 72.4867 218.027 72.59 217.553 72.59C217.067 72.59 216.623 72.47 216.223 72.23C215.83 71.99 215.52 71.6533 215.293 71.22C215.067 70.7867 214.953 70.2933 214.953 69.74ZM219.593 69.75C219.593 69.3367 219.51 68.9767 219.343 68.67C219.177 68.3633 218.95 68.13 218.663 67.97C218.383 67.8033 218.073 67.72 217.733 67.72C217.393 67.72 217.083 67.8 216.803 67.96C216.523 68.12 216.3 68.3533 216.133 68.66C215.967 68.9667 215.883 69.3267 215.883 69.74C215.883 70.16 215.967 70.5267 216.133 70.84C216.3 71.1467 216.523 71.3833 216.803 71.55C217.083 71.71 217.393 71.79 217.733 71.79C218.073 71.79 218.383 71.71 218.663 71.55C218.95 71.3833 219.177 71.1467 219.343 70.84C219.51 70.5267 219.593 70.1633 219.593 69.75ZM222.991 71.24L221.871 73.93H221.261L221.991 71.24H222.991ZM231.36 67.57C231.36 68.15 231.16 68.6333 230.76 69.02C230.366 69.4 229.763 69.59 228.95 69.59H227.61V72.5H226.7V65.53H228.95C229.736 65.53 230.333 65.72 230.74 66.1C231.153 66.48 231.36 66.97 231.36 67.57ZM228.95 68.84C229.456 68.84 229.83 68.73 230.07 68.51C230.31 68.29 230.43 67.9767 230.43 67.57C230.43 66.71 229.936 66.28 228.95 66.28H227.61V68.84H228.95ZM237.151 67.57C237.151 68.15 236.951 68.6333 236.551 69.02C236.157 69.4 235.554 69.59 234.741 69.59H233.401V72.5H232.491V65.53H234.741C235.527 65.53 236.124 65.72 236.531 66.1C236.944 66.48 237.151 66.97 237.151 67.57ZM234.741 68.84C235.247 68.84 235.621 68.73 235.861 68.51C236.101 68.29 236.221 67.9767 236.221 67.57C236.221 66.71 235.727 66.28 234.741 66.28H233.401V68.84H234.741ZM242.572 65.53V66.27H240.672V72.5H239.762V66.27H237.852V65.53H242.572Z" fill="#676767"/>
<path d="M86.1291 83.58V90.5H85.2191V85.34L82.9191 90.5H82.2791L79.9691 85.33V90.5H79.0591V83.58H80.0391L82.5991 89.3L85.1591 83.58H86.1291ZM87.3323 87.74C87.3323 87.18 87.4457 86.69 87.6723 86.27C87.899 85.8433 88.209 85.5133 88.6023 85.28C89.0023 85.0467 89.4457 84.93 89.9323 84.93C90.4123 84.93 90.829 85.0333 91.1823 85.24C91.5357 85.4467 91.799 85.7067 91.9723 86.02V85.02H92.8923V90.5H91.9723V89.48C91.7923 89.8 91.5223 90.0667 91.1623 90.28C90.809 90.4867 90.3957 90.59 89.9223 90.59C89.4357 90.59 88.9957 90.47 88.6023 90.23C88.209 89.99 87.899 89.6533 87.6723 89.22C87.4457 88.7867 87.3323 88.2933 87.3323 87.74ZM91.9723 87.75C91.9723 87.3367 91.889 86.9767 91.7223 86.67C91.5557 86.3633 91.329 86.13 91.0423 85.97C90.7623 85.8033 90.4523 85.72 90.1123 85.72C89.7723 85.72 89.4623 85.8 89.1823 85.96C88.9023 86.12 88.679 86.3533 88.5123 86.66C88.3457 86.9667 88.2623 87.3267 88.2623 87.74C88.2623 88.16 88.3457 88.5267 88.5123 88.84C88.679 89.1467 88.9023 89.3833 89.1823 89.55C89.4623 89.71 89.7723 89.79 90.1123 89.79C90.4523 89.79 90.7623 89.71 91.0423 89.55C91.329 89.3833 91.5557 89.1467 91.7223 88.84C91.889 88.5267 91.9723 88.1633 91.9723 87.75ZM97.2902 90.5L95.9902 88.46L94.7402 90.5H93.7902L95.5602 87.78L93.7902 85.02H94.8202L96.1202 87.05L97.3602 85.02H98.3102L96.5502 87.73L98.3202 90.5H97.2902ZM105.821 83.53V84.27H102.791V86.62H105.251V87.36H102.791V90.5H101.881V83.53H105.821ZM107.39 84.13C107.217 84.13 107.07 84.07 106.95 83.95C106.83 83.83 106.77 83.6833 106.77 83.51C106.77 83.3367 106.83 83.19 106.95 83.07C107.07 82.95 107.217 82.89 107.39 82.89C107.557 82.89 107.697 82.95 107.81 83.07C107.93 83.19 107.99 83.3367 107.99 83.51C107.99 83.6833 107.93 83.83 107.81 83.95C107.697 84.07 107.557 84.13 107.39 84.13ZM107.83 85.02V90.5H106.92V85.02H107.83ZM110.291 83.1V90.5H109.381V83.1H110.291ZM116.842 87.55C116.842 87.7233 116.832 87.9067 116.812 88.1H112.432C112.466 88.64 112.649 89.0633 112.982 89.37C113.322 89.67 113.732 89.82 114.212 89.82C114.606 89.82 114.932 89.73 115.192 89.55C115.459 89.3633 115.646 89.1167 115.752 88.81H116.732C116.586 89.3367 116.292 89.7667 115.852 90.1C115.412 90.4267 114.866 90.59 114.212 90.59C113.692 90.59 113.226 90.4733 112.812 90.24C112.406 90.0067 112.086 89.6767 111.852 89.25C111.619 88.8167 111.502 88.3167 111.502 87.75C111.502 87.1833 111.616 86.6867 111.842 86.26C112.069 85.8333 112.386 85.5067 112.792 85.28C113.206 85.0467 113.679 84.93 114.212 84.93C114.732 84.93 115.192 85.0433 115.592 85.27C115.992 85.4967 116.299 85.81 116.512 86.21C116.732 86.6033 116.842 87.05 116.842 87.55ZM115.902 87.36C115.902 87.0133 115.826 86.7167 115.672 86.47C115.519 86.2167 115.309 86.0267 115.042 85.9C114.782 85.7667 114.492 85.7 114.172 85.7C113.712 85.7 113.319 85.8467 112.992 86.14C112.672 86.4333 112.489 86.84 112.442 87.36H115.902ZM122.649 90.59C122.229 90.59 121.853 90.52 121.519 90.38C121.186 90.2333 120.923 90.0333 120.729 89.78C120.536 89.52 120.429 89.2233 120.409 88.89H121.349C121.376 89.1633 121.503 89.3867 121.729 89.56C121.963 89.7333 122.266 89.82 122.639 89.82C122.986 89.82 123.259 89.7433 123.459 89.59C123.659 89.4367 123.759 89.2433 123.759 89.01C123.759 88.77 123.653 88.5933 123.439 88.48C123.226 88.36 122.896 88.2433 122.449 88.13C122.043 88.0233 121.709 87.9167 121.449 87.81C121.196 87.6967 120.976 87.5333 120.789 87.32C120.609 87.1 120.519 86.8133 120.519 86.46C120.519 86.18 120.603 85.9233 120.769 85.69C120.936 85.4567 121.173 85.2733 121.479 85.14C121.786 85 122.136 84.93 122.529 84.93C123.136 84.93 123.626 85.0833 123.999 85.39C124.373 85.6967 124.573 86.1167 124.599 86.65H123.689C123.669 86.3633 123.553 86.1333 123.339 85.96C123.133 85.7867 122.853 85.7 122.499 85.7C122.173 85.7 121.913 85.77 121.719 85.91C121.526 86.05 121.429 86.2333 121.429 86.46C121.429 86.64 121.486 86.79 121.599 86.91C121.719 87.0233 121.866 87.1167 122.039 87.19C122.219 87.2567 122.466 87.3333 122.779 87.42C123.173 87.5267 123.493 87.6333 123.739 87.74C123.986 87.84 124.196 87.9933 124.369 88.2C124.549 88.4067 124.643 88.6767 124.649 89.01C124.649 89.31 124.566 89.58 124.399 89.82C124.233 90.06 123.996 90.25 123.689 90.39C123.389 90.5233 123.043 90.59 122.649 90.59ZM126.404 84.13C126.231 84.13 126.084 84.07 125.964 83.95C125.844 83.83 125.784 83.6833 125.784 83.51C125.784 83.3367 125.844 83.19 125.964 83.07C126.084 82.95 126.231 82.89 126.404 82.89C126.571 82.89 126.711 82.95 126.824 83.07C126.944 83.19 127.004 83.3367 127.004 83.51C127.004 83.6833 126.944 83.83 126.824 83.95C126.711 84.07 126.571 84.13 126.404 84.13ZM126.844 85.02V90.5H125.934V85.02H126.844ZM129.075 89.75H131.765V90.5H128.035V89.75L130.695 85.76H128.055V85.02H131.745V85.76L129.075 89.75ZM137.946 87.55C137.946 87.7233 137.936 87.9067 137.916 88.1H133.536C133.569 88.64 133.752 89.0633 134.086 89.37C134.426 89.67 134.836 89.82 135.316 89.82C135.709 89.82 136.036 89.73 136.296 89.55C136.562 89.3633 136.749 89.1167 136.856 88.81H137.836C137.689 89.3367 137.396 89.7667 136.956 90.1C136.516 90.4267 135.969 90.59 135.316 90.59C134.796 90.59 134.329 90.4733 133.916 90.24C133.509 90.0067 133.189 89.6767 132.956 89.25C132.722 88.8167 132.606 88.3167 132.606 87.75C132.606 87.1833 132.719 86.6867 132.946 86.26C133.172 85.8333 133.489 85.5067 133.896 85.28C134.309 85.0467 134.782 84.93 135.316 84.93C135.836 84.93 136.296 85.0433 136.696 85.27C137.096 85.4967 137.402 85.81 137.616 86.21C137.836 86.6033 137.946 87.05 137.946 87.55ZM137.006 87.36C137.006 87.0133 136.929 86.7167 136.776 86.47C136.622 86.2167 136.412 86.0267 136.146 85.9C135.886 85.7667 135.596 85.7 135.276 85.7C134.816 85.7 134.422 85.8467 134.096 86.14C133.776 86.4333 133.592 86.84 133.546 87.36H137.006ZM139.437 90.56C139.264 90.56 139.117 90.5 138.997 90.38C138.877 90.26 138.817 90.1133 138.817 89.94C138.817 89.7667 138.877 89.62 138.997 89.5C139.117 89.38 139.264 89.32 139.437 89.32C139.604 89.32 139.744 89.38 139.857 89.5C139.977 89.62 140.037 89.7667 140.037 89.94C140.037 90.1133 139.977 90.26 139.857 90.38C139.744 90.5 139.604 90.56 139.437 90.56ZM139.437 86.28C139.264 86.28 139.117 86.22 138.997 86.1C138.877 85.98 138.817 85.8333 138.817 85.66C138.817 85.4867 138.877 85.34 138.997 85.22C139.117 85.1 139.264 85.04 139.437 85.04C139.604 85.04 139.744 85.1 139.857 85.22C139.977 85.34 140.037 85.4867 140.037 85.66C140.037 85.8333 139.977 85.98 139.857 86.1C139.744 86.22 139.604 86.28 139.437 86.28ZM143.662 89.2V87.82L146.822 83.3H148.732V87.72H149.552V89.2H148.732V90.5H147.022V89.2H143.662ZM147.142 85.18L145.462 87.72H147.142V85.18ZM158.509 83.48V90.5H156.799V86.29L155.229 90.5H153.849L152.269 86.28V90.5H150.559V83.48H152.579L154.549 88.34L156.499 83.48H158.509ZM163.989 86.9C164.396 86.9867 164.722 87.19 164.969 87.51C165.216 87.8233 165.339 88.1833 165.339 88.59C165.339 89.1767 165.132 89.6433 164.719 89.99C164.312 90.33 163.742 90.5 163.009 90.5H159.739V83.48H162.899C163.612 83.48 164.169 83.6433 164.569 83.97C164.976 84.2967 165.179 84.74 165.179 85.3C165.179 85.7133 165.069 86.0567 164.849 86.33C164.636 86.6033 164.349 86.7933 163.989 86.9ZM161.449 86.32H162.569C162.849 86.32 163.062 86.26 163.209 86.14C163.362 86.0133 163.439 85.83 163.439 85.59C163.439 85.35 163.362 85.1667 163.209 85.04C163.062 84.9133 162.849 84.85 162.569 84.85H161.449V86.32ZM162.709 89.12C162.996 89.12 163.216 89.0567 163.369 88.93C163.529 88.7967 163.609 88.6067 163.609 88.36C163.609 88.1133 163.526 87.92 163.359 87.78C163.199 87.64 162.976 87.57 162.689 87.57H161.449V89.12H162.709Z" fill="#676767"/>
</svg>
