<svg width="12" height="13" viewBox="0 0 12 13" fill="none" xmlns="http://www.w3.org/2000/svg">
<path d="M11.25 5.34766H10.6167L8.93344 3.66484C8.87271 3.60375 8.80046 3.55531 8.72089 3.52233C8.64131 3.48934 8.55599 3.47245 8.46984 3.47266H6.46875V2.16016H7.6875C7.76209 2.16016 7.83363 2.13052 7.88637 2.07778C7.93912 2.02504 7.96875 1.9535 7.96875 1.87891C7.96875 1.80431 7.93912 1.73278 7.88637 1.68003C7.83363 1.62729 7.76209 1.59766 7.6875 1.59766H4.6875C4.61291 1.59766 4.54137 1.62729 4.48863 1.68003C4.43588 1.73278 4.40625 1.80431 4.40625 1.87891C4.40625 1.9535 4.43588 2.02504 4.48863 2.07778C4.54137 2.13052 4.61291 2.16016 4.6875 2.16016H5.90625V3.47266H3C2.82595 3.47266 2.65903 3.5418 2.53596 3.66487C2.41289 3.78794 2.34375 3.95486 2.34375 4.12891V6.66016H1.03125V5.44141C1.03125 5.36681 1.00162 5.29528 0.948874 5.24253C0.896129 5.18979 0.824592 5.16016 0.75 5.16016C0.675408 5.16016 0.603871 5.18979 0.551126 5.24253C0.498382 5.29528 0.46875 5.36681 0.46875 5.44141V8.44141C0.46875 8.516 0.498382 8.58753 0.551126 8.64028C0.603871 8.69302 0.675408 8.72266 0.75 8.72266C0.824592 8.72266 0.896129 8.69302 0.948874 8.64028C1.00162 8.58753 1.03125 8.516 1.03125 8.44141V7.22266H2.34375V8.28625C2.34355 8.37239 2.36043 8.45772 2.39342 8.53729C2.42641 8.61687 2.47485 8.68911 2.53594 8.74984L4.37906 10.593C4.4398 10.6541 4.51204 10.7025 4.59161 10.7355C4.67119 10.7685 4.75652 10.7854 4.84266 10.7852H8.46984C8.55599 10.7854 8.64131 10.7685 8.72089 10.7355C8.80046 10.7025 8.87271 10.6541 8.93344 10.593L10.6167 8.91016H11.25C11.424 8.91016 11.591 8.84101 11.714 8.71794C11.8371 8.59487 11.9063 8.42795 11.9063 8.25391V6.00391C11.9063 5.82986 11.8371 5.66294 11.714 5.53987C11.591 5.4168 11.424 5.34766 11.25 5.34766ZM11.3438 8.25391C11.3438 8.27877 11.3339 8.30262 11.3163 8.3202C11.2987 8.33778 11.2749 8.34766 11.25 8.34766H10.5C10.4254 8.34772 10.3539 8.3774 10.3013 8.43016L8.53594 10.1955C8.51836 10.2129 8.4946 10.2227 8.46984 10.2227H4.84266C4.8179 10.2227 4.79414 10.2129 4.77656 10.1955L2.93344 8.35234C2.916 8.33477 2.90623 8.31101 2.90625 8.28625V4.12891C2.90625 4.10404 2.91613 4.0802 2.93371 4.06261C2.95129 4.04503 2.97514 4.03516 3 4.03516H8.46984C8.4946 4.03514 8.51836 4.04491 8.53594 4.06234L10.3013 5.82766C10.3539 5.88042 10.4254 5.91009 10.5 5.91016H11.25C11.2749 5.91016 11.2987 5.92003 11.3163 5.93761C11.3339 5.9552 11.3438 5.97904 11.3438 6.00391V8.25391Z" fill="#1A1A1A"/>
</svg>
