<svg width="65" height="78" viewBox="0 0 65 78" fill="none" xmlns="http://www.w3.org/2000/svg">
<g clip-path="url(#clip0_2172_2160)">
<path d="M60.0376 57.1048L60.0505 57.1221C61.1695 59.0139 61.7962 61.1577 61.8713 63.3566C61.8615 63.6996 61.8653 64.0982 61.8688 64.4695C61.8705 64.6494 61.8721 64.8228 61.8721 64.9804V71.4804C61.8721 72.8066 61.3454 74.0784 60.4079 75.0161C59.4704 75.9537 58.199 76.4804 56.8734 76.4804H6.50847C5.18283 76.4804 3.91142 75.9537 2.97396 75.0161C2.03649 74.0784 1.50977 72.8066 1.50977 71.4804V64.9804C1.50977 64.8215 1.51141 64.6472 1.51311 64.4669C1.51665 64.0918 1.52043 63.6904 1.51018 63.3453C1.58805 61.114 2.23372 58.9396 3.38587 57.0277L3.38652 57.0268C6.27652 53.1908 10.2986 50.3746 14.8698 48.9664L17.822 54.1221C17.9252 55.2212 18.4081 56.2555 19.1949 57.0425C20.0839 57.9317 21.2887 58.4329 22.546 58.4367H22.5505C23.9443 58.4367 25.1414 57.8297 26.1875 56.6766C27.1795 55.583 28.082 53.9534 29.011 51.7551L27.6446 51.1777H29.1292V51.1712V51.0705C29.1292 50.3907 29.3992 49.7389 29.8796 49.2584C30.3601 48.7779 31.0116 48.508 31.6909 48.508C32.3702 48.508 33.0218 48.7779 33.5022 49.2584C33.9827 49.7389 34.2526 50.3907 34.2526 51.0705V51.1745V51.4609L34.3582 51.7273C35.2306 53.9277 36.0998 55.5649 37.0781 56.6667C38.1118 57.831 39.3115 58.44 40.7079 58.44L40.7124 58.4399C41.9697 58.4362 43.1744 57.9349 44.0634 57.0458C44.8472 56.2618 45.3295 55.2324 45.4352 54.1381L48.4961 48.9706C53.1026 50.3818 57.1491 53.2274 60.0376 57.1048ZM31.6877 39.125C26.8282 39.125 22.9737 36.1026 20.2566 31.682C17.5371 27.2577 16.1286 21.6737 16.1286 17.1925V16.9812C16.1286 14.9375 16.5311 12.9137 17.313 11.0256C18.0949 9.13744 19.241 7.42184 20.6858 5.97675C22.1307 4.53165 23.8459 3.38535 25.7336 2.60329C27.6213 1.82122 29.6445 1.4187 31.6877 1.4187C33.7309 1.4187 35.7541 1.82122 37.6418 2.60329C39.5295 3.38535 41.2447 4.53165 42.6895 5.97675C44.1343 7.42184 45.2804 9.13744 46.0624 11.0256C46.8443 12.9137 47.2468 14.9375 47.2468 16.9812V17.1925C47.2468 21.6645 45.7943 27.2479 43.0487 31.6772C40.3016 36.1088 36.4445 39.125 31.6877 39.125Z" stroke="#898989" stroke-width="3"/>
</g>
<defs>
<clipPath id="clip0_2172_2160">
<rect width="65" height="78" fill="white"/>
</clipPath>
</defs>
</svg>
