<svg width="350" height="350" viewBox="0 0 350 350" fill="none" xmlns="http://www.w3.org/2000/svg">
<path d="M196.322 283.835L191.37 253.976" stroke="#263238" stroke-width="1.75" stroke-miterlimit="10" stroke-linecap="round" stroke-linejoin="round"/>
<path d="M299.19 224.6L259.829 196.438" stroke="#263238" stroke-width="1.75" stroke-miterlimit="10" stroke-linecap="round" stroke-linejoin="round"/>
<path d="M314.591 75.4255L265.431 95.1417" stroke="#263238" stroke-width="1.75" stroke-miterlimit="10" stroke-linecap="round" stroke-linejoin="round"/>
<path d="M160.453 21.3352L164.515 50.4986" stroke="#263238" stroke-width="1.75" stroke-miterlimit="10" stroke-linecap="round" stroke-linejoin="round"/>
<path d="M64.9983 61.6868L108.074 92.5064" stroke="#263238" stroke-width="1.75" stroke-miterlimit="10" stroke-linecap="round" stroke-linejoin="round"/>
<path d="M35.4087 182.713L55.3573 182.932" stroke="#263238" stroke-width="1.75" stroke-miterlimit="10" stroke-linecap="round" stroke-linejoin="round"/>
<path d="M75.7505 286.819L88.3834 265.901" stroke="#263238" stroke-width="1.75" stroke-miterlimit="10" stroke-linecap="round" stroke-linejoin="round"/>
<path d="M228.464 286.819L221.506 269.205" stroke="#263238" stroke-width="1.75" stroke-miterlimit="10" stroke-linecap="round" stroke-linejoin="round"/>
<path d="M267.827 70.5103L250.201 82.3949" stroke="#263238" stroke-width="1.75" stroke-miterlimit="10" stroke-linecap="round" stroke-linejoin="round"/>
<path d="M74.7705 96.3179L101.608 107.957" stroke="#263238" stroke-width="1.75" stroke-miterlimit="10" stroke-linecap="round" stroke-linejoin="round"/>
<path d="M44.0544 203.616L80.8681 192.648" stroke="#263238" stroke-width="1.75" stroke-miterlimit="10" stroke-linecap="round" stroke-linejoin="round"/>
<path d="M148.056 63.6235L141.724 42.6067" stroke="#263238" stroke-width="1.75" stroke-miterlimit="10" stroke-linecap="round" stroke-linejoin="round"/>
<g clip-path="url(#clip0_2156_460)">
<path d="M273.729 118.339C258.591 120.288 240.252 121.241 217.213 132.494L231.877 177.666C248.888 177.262 254.46 176.174 282.866 163.643C309.914 151.712 303.03 114.566 273.729 118.339Z" fill="white" stroke="#263238" stroke-width="1.75" stroke-miterlimit="10" stroke-linecap="round" stroke-linejoin="round"/>
<path d="M193.431 116.151C205.053 115.594 211.23 117.549 217.871 117.44C222.389 117.366 238.974 117.228 238.974 117.228C238.974 117.228 245.711 114.644 248.427 138.685C252.891 178.204 267.658 173.9 267.658 173.9C266.168 183.298 247.325 184.428 241.079 187.984C236.58 190.546 236.492 193.164 236.492 193.164" fill="#F2F2F2"/>
<path d="M193.431 116.151C205.053 115.594 211.23 117.549 217.871 117.44C222.389 117.366 238.974 117.228 238.974 117.228C238.974 117.228 245.711 114.644 248.427 138.685C252.891 178.204 267.658 173.9 267.658 173.9C266.168 183.298 247.325 184.428 241.079 187.984C236.58 190.546 236.492 193.164 236.492 193.164" stroke="#263238" stroke-width="1.75" stroke-miterlimit="10" stroke-linecap="round" stroke-linejoin="round"/>
<path d="M268.536 173.852C268.872 172.327 267.634 169.049 267.634 169.049L261.263 171.885C261.263 171.885 267.818 177.108 268.536 173.852Z" fill="#263238"/>
<path d="M243.128 187.023C241.078 187.985 241.155 193.057 241.155 193.057" stroke="#263238" stroke-width="1.75" stroke-miterlimit="10" stroke-linecap="round" stroke-linejoin="round"/>
<path d="M284.118 163.062C304.01 154.077 304.439 134.313 296.575 121.736C285.34 103.767 224.112 88.6376 220.691 87.9376C217.269 87.2376 205.767 114.43 209.481 117.103C216.168 121.918 226.658 132.101 255.427 146.136" fill="white"/>
<path d="M284.118 163.062C304.01 154.077 304.439 134.313 296.575 121.736C285.34 103.767 224.112 88.6376 220.691 87.9376C217.269 87.2376 205.767 114.43 209.481 117.103C216.168 121.918 226.658 132.101 255.427 146.136" stroke="#263238" stroke-width="1.75" stroke-miterlimit="10" stroke-linecap="round" stroke-linejoin="round"/>
<path d="M182.284 65.3094C178.371 61.0933 181.676 55.9336 187.536 59.8347C194.611 64.545 201.993 69.8923 206.293 73.603" fill="white"/>
<path d="M182.284 65.3094C178.371 61.0933 181.676 55.9336 187.536 59.8347C194.611 64.545 201.993 69.8923 206.293 73.603" stroke="#263238" stroke-width="1.75" stroke-miterlimit="10" stroke-linecap="round" stroke-linejoin="round"/>
<path d="M242.775 94.1747C242.775 94.1747 223.427 87.7004 221.324 86.6868C221.324 86.6868 209.31 75.9677 203.494 71.1027C199.194 67.5054 185.987 64.7306 183.462 64.1426C173.987 61.9341 173.284 67.1673 181.446 72.4712C184.542 74.4837 191.255 77.4615 193.23 79.7477C194.96 81.7504 197.102 86.6476 197.968 91.2886C200.284 103.716 201.493 113.591 213.156 119.664" fill="white"/>
<path d="M242.775 94.1747C242.775 94.1747 223.427 87.7004 221.324 86.6868C221.324 86.6868 209.31 75.9677 203.494 71.1027C199.194 67.5054 185.987 64.7306 183.462 64.1426C173.987 61.9341 173.284 67.1673 181.446 72.4712C184.542 74.4837 191.255 77.4615 193.23 79.7477C194.96 81.7504 197.102 86.6476 197.968 91.2886C200.284 103.716 201.493 113.591 213.156 119.664" stroke="#263238" stroke-width="1.75" stroke-miterlimit="10" stroke-linecap="round" stroke-linejoin="round"/>
<path d="M262.21 324.18H86.8378C86.8378 305.927 85.6058 299.297 88.9266 282.849C90.7809 273.685 100.571 242.382 101.692 235.913H243.071L262.21 324.18Z" fill="#263238"/>
<path d="M262.212 324.177H253.961L234.82 235.911H243.071L262.212 324.177Z" fill="white"/>
<path d="M118.018 281.483C118.018 281.483 154.691 287.295 156.047 251.734" stroke="white" stroke-width="1.75" stroke-miterlimit="10" stroke-linecap="round" stroke-linejoin="round"/>
<path d="M248.697 276.727C248.697 276.727 234.834 287.152 229.755 252.178" stroke="white" stroke-width="1.75" stroke-miterlimit="10" stroke-linecap="round" stroke-linejoin="round"/>
<path d="M191.855 295.738L186.636 323.523" stroke="white" stroke-width="1.75" stroke-miterlimit="10" stroke-linecap="round" stroke-linejoin="round"/>
<path d="M188.964 311.128L192.364 324.18" stroke="white" stroke-width="1.75" stroke-miterlimit="10" stroke-linecap="round" stroke-linejoin="round"/>
<path d="M175.367 298.336L204.903 293.13" stroke="white" stroke-width="1.75" stroke-miterlimit="10" stroke-linecap="round" stroke-linejoin="round"/>
<path d="M199.722 244.865V293.792" stroke="white" stroke-width="1.75" stroke-miterlimit="10" stroke-linecap="round" stroke-linejoin="round"/>
<path d="M184.653 246.81V295.738" stroke="white" stroke-width="1.75" stroke-miterlimit="10" stroke-linecap="round" stroke-linejoin="round"/>
<path d="M114.649 239.145C114.649 239.145 101.804 287.926 101.377 292.034C100.38 301.625 101.003 324.177 101.003 324.177" stroke="white" stroke-width="1.75" stroke-miterlimit="10" stroke-linecap="round" stroke-linejoin="round"/>
<path d="M121.386 239.145C121.386 239.145 108.542 287.926 108.115 292.034C107.118 301.625 107.741 324.177 107.741 324.177" stroke="white" stroke-width="1.75" stroke-miterlimit="10" stroke-linecap="round" stroke-linejoin="round"/>
<path d="M262.21 324.18H86.8378C86.8378 305.927 85.6058 299.297 88.9266 282.849C90.7809 273.685 100.571 242.382 101.692 235.913H243.071L262.21 324.18Z" stroke="#263238" stroke-width="1.75" stroke-miterlimit="10" stroke-linecap="round" stroke-linejoin="round"/>
<path d="M227.593 145.926C242.931 181.519 247.992 229.507 247.992 229.507C250.195 237.809 261.56 268.932 256.467 273.087C256.467 273.087 199.15 295.733 100.364 268.955C86.8714 265.297 86.5711 276.258 86.5711 276.258C83.2573 275.231 81.2924 269.025 82.2143 263.329C84.4508 249.504 97.3042 228.99 98.7938 212.81C102.305 174.768 101.905 138.618 131.52 120.684C144.837 112.62 160.153 115.662 178.457 115.643C183.315 115.638 192.185 116.036 196.818 116.064" fill="#F2F2F2"/>
<path d="M251.968 242.467C236.687 247.045 183.05 259.259 100.362 236.844C96.495 235.8 93.7174 235.948 91.7098 236.704C95.0502 228.533 98.1099 220.215 98.791 212.808C98.8575 212.045 98.9317 211.282 98.9982 210.519C99.435 210.608 99.8872 210.719 100.361 210.845C175.227 231.142 226.279 223.052 246.604 217.941C247.568 225.082 247.99 229.503 247.99 229.503C248.679 232.096 250.264 236.926 251.968 242.467Z" fill="#F2F2F2"/>
<path d="M251.968 242.467C236.687 247.045 183.05 259.259 100.362 236.844C96.495 235.8 93.7174 235.948 91.7098 236.704C95.0502 228.533 98.1099 220.215 98.791 212.808C98.8575 212.045 98.9317 211.282 98.9982 210.519C99.435 210.608 99.8872 210.719 100.361 210.845C175.227 231.142 226.279 223.052 246.604 217.941C247.568 225.082 247.99 229.503 247.99 229.503C248.679 232.096 250.264 236.926 251.968 242.467Z" fill="#DADADA" stroke="#263238" stroke-width="1.75" stroke-miterlimit="10" stroke-linecap="round" stroke-linejoin="round"/>
<path d="M86.8658 216.348C86.5914 217.393 86.5697 218.148 86.5697 218.148C86.4437 218.111 86.3254 218.067 86.2064 218.014C86.4213 217.459 86.6439 216.904 86.8658 216.348Z" fill="#F2F2F2"/>
<path d="M256.465 273.088C256.465 273.088 253.968 274.073 249.117 275.392C251.406 267.177 241.25 239.17 239.132 231.185C239.132 231.185 238.391 180.86 224.621 143.045L227.591 145.926C242.932 181.518 247.991 229.503 247.991 229.503C250.198 237.807 261.561 268.933 256.465 273.088Z" fill="white"/>
<path d="M227.593 145.926C242.931 181.519 247.992 229.507 247.992 229.507C250.195 237.809 261.56 268.932 256.467 273.087C256.467 273.087 199.15 295.733 100.364 268.955C86.8714 265.297 86.5711 276.258 86.5711 276.258C83.2573 275.231 81.2924 269.025 82.2143 263.329C84.4508 249.504 97.3042 228.99 98.7938 212.81C102.305 174.768 101.575 138.061 131.52 120.684C144.364 113.231 157.448 115.703 178.457 115.643C183.315 115.629 192.185 116.036 196.818 116.064" stroke="#263238" stroke-width="1.75" stroke-miterlimit="10" stroke-linecap="round" stroke-linejoin="round"/>
<path d="M86.0735 276.676C86.3024 277.797 89.1584 278.115 89.1584 278.115L92.0858 268.932C92.0858 268.932 85.2783 272.778 86.0735 276.676Z" fill="#263238"/>
<path d="M75.3442 117.909C90.502 119.702 108.85 120.467 132.003 131.482L117.805 176.803C100.79 176.574 95.2081 175.543 66.6747 163.305C39.5042 151.652 46.0065 114.437 75.3442 117.909Z" fill="white" stroke="#263238" stroke-width="1.75" stroke-miterlimit="10" stroke-linecap="round" stroke-linejoin="round"/>
<path d="M156.876 115.098C145.244 114.809 139.114 116.906 132.473 116.95C127.953 116.98 111.37 117.224 111.37 117.224C111.37 117.224 104.576 114.796 102.414 138.893C98.8607 178.505 83.999 174.542 83.999 174.542C85.7049 183.904 104.569 184.6 110.896 188.011C115.452 190.468 115.601 193.084 115.601 193.084" fill="#F2F2F2"/>
<path d="M156.876 115.098C145.244 114.809 139.114 116.906 132.473 116.95C127.953 116.98 111.37 117.224 111.37 117.224C111.37 117.224 104.576 114.796 102.414 138.893C98.8607 178.505 83.999 174.542 83.999 174.542C85.7049 183.904 104.569 184.6 110.896 188.011C115.452 190.468 115.601 193.084 115.601 193.084" stroke="#263238" stroke-width="1.75" stroke-miterlimit="10" stroke-linecap="round" stroke-linejoin="round"/>
<path d="M83.1205 174.513C82.7488 172.996 83.9122 169.69 83.9122 169.69L90.3466 172.38C90.3466 172.38 83.9136 177.752 83.1205 174.513Z" fill="#263238"/>
<path d="M108.825 187.096C110.896 188.009 110.936 193.083 110.936 193.083" stroke="#263238" stroke-width="1.75" stroke-miterlimit="10" stroke-linecap="round" stroke-linejoin="round"/>
<path d="M163.196 113.298C160.196 115.485 160.504 120.78 162.549 123.578C164.594 126.376 169.378 132.192 170.819 133.143C172.261 134.094 181.568 145.573 181.568 145.573C181.568 145.573 183.41 130.934 183.512 130.603C183.613 130.272 187.922 121.671 184.288 116.339C180.655 111.008 168.9 109.138 163.196 113.298Z" fill="white" stroke="#263238" stroke-width="1.75" stroke-miterlimit="10" stroke-linecap="round" stroke-linejoin="round"/>
<path d="M179.787 118.232C179.787 118.232 183.918 127.173 179.18 127.433C171.75 127.841 163.652 114.809 163.652 114.809L179.787 118.232Z" fill="#263238"/>
<path d="M162.482 111.579C162.482 111.579 157.302 117.282 156.987 119.348C156.166 124.73 160.176 144.124 160.176 144.124C160.176 144.124 167.02 132.081 178.642 142.003C178.642 142.003 159.04 120.775 162.482 111.579Z" fill="#F2F2F2" stroke="#263238" stroke-width="1.75" stroke-miterlimit="10" stroke-linecap="round" stroke-linejoin="round"/>
<path d="M182.136 141.082C182.136 141.082 186.349 115.926 180.077 112.241C180.077 112.241 188.322 119.443 189.192 120.709C191.911 124.662 192.6 139.969 192.6 139.969C192.6 139.969 188.135 133.057 182.136 141.082Z" fill="#F2F2F2" stroke="#263238" stroke-width="1.75" stroke-miterlimit="10" stroke-linecap="round" stroke-linejoin="round"/>
<path d="M155.83 104.926C152.095 92.8633 157.234 80.5062 167.31 77.3254C177.386 74.1446 188.582 81.3448 192.317 93.4072C196.052 105.47 190.913 117.827 180.837 121.007C170.761 124.188 159.566 116.988 155.83 104.926Z" fill="white"/>
<path d="M180.834 121.008C170.761 124.191 159.566 116.988 155.825 104.923C155.643 104.334 155.486 103.748 155.354 103.163C152.61 91.6812 157.723 80.3544 167.306 77.3227C176.996 74.2665 187.717 80.8024 191.84 92.0283C192.016 92.4812 192.169 92.9397 192.315 93.4073C196.056 105.472 190.916 117.823 180.834 121.008Z" fill="white"/>
<path d="M180.837 121.009C178.024 121.894 175.117 121.974 172.317 121.354C173.708 121.313 175.095 121.082 176.468 120.654C186.018 117.634 190.89 105.922 187.351 94.4825C183.806 83.0431 173.192 76.2216 163.642 79.2344C163.402 79.3135 163.155 79.3912 162.923 79.485C164.249 78.5589 165.719 77.8246 167.311 77.3248C177.383 74.1475 188.581 81.3463 192.318 93.4087C196.054 105.471 190.916 117.824 180.837 121.009Z" fill="white"/>
<path d="M155.83 104.926C152.095 92.8633 157.234 80.5062 167.31 77.3254C177.386 74.1446 188.582 81.3448 192.317 93.4072C196.052 105.47 190.913 117.827 180.837 121.007C170.761 124.188 159.566 116.988 155.83 104.926Z" stroke="#263238" stroke-width="1.75" stroke-miterlimit="10" stroke-linecap="round" stroke-linejoin="round"/>
<path d="M180.835 72.8064C182.679 77.0834 180.696 82.0401 176.433 83.8776C174.635 84.6525 171.908 84.6161 170.16 84.1576C160.433 93.413 167.998 108.109 158.412 112.176C158.412 112.176 144.755 95.8525 157.419 81.2127C160.04 78.1824 161.99 77.1975 164.675 76.1216C164.68 72.8729 166.576 69.7782 169.764 68.4041C174.027 66.5666 178.991 68.5294 180.835 72.8064Z" fill="#263238"/>
<path d="M177.665 78.461C177.665 78.461 185.284 81.2911 189.343 87.3335C189.343 87.3335 187.938 72.0035 177.665 78.461Z" fill="#263238"/>
<path d="M64.6904 162.38C46.5989 154.568 45.6182 133.899 52.9241 120.99C63.3618 102.546 123.868 92.8973 127.255 92.0482C130.642 91.1991 143.325 117.861 139.733 120.694C133.262 125.797 122.597 131.97 95.1019 143.565" fill="white"/>
<path d="M64.6904 162.38C46.5989 154.568 45.6182 133.899 52.9241 120.99C63.3618 102.546 123.868 92.8973 127.255 92.0482C130.642 91.1991 143.325 117.861 139.733 120.694C133.262 125.797 122.597 131.97 95.1019 143.565" stroke="#263238" stroke-width="1.75" stroke-miterlimit="10" stroke-linecap="round" stroke-linejoin="round"/>
<path d="M164.634 67.7595C168.358 63.3761 164.83 58.3662 159.147 62.5207C152.285 67.5362 145.144 73.2013 141.012 77.0975" fill="white"/>
<path d="M164.634 67.7595C168.358 63.3761 164.83 58.3662 159.147 62.5207C152.285 67.5362 145.144 73.2013 141.012 77.0975" stroke="#263238" stroke-width="1.75" stroke-miterlimit="10" stroke-linecap="round" stroke-linejoin="round"/>
<path d="M103.78 97.0097C103.78 97.0097 124.513 91.9312 126.569 90.8266C126.569 90.8266 138.101 79.5923 143.699 74.4767C147.837 70.6946 160.911 67.3444 163.407 66.6458C172.776 64.025 173.707 69.2218 165.787 74.8785C162.782 77.0247 156.205 80.2937 154.332 82.6646C152.692 84.7415 150.766 89.7276 150.105 94.4022C148.334 106.919 147.56 116.838 136.174 123.416" fill="white"/>
<path d="M103.78 97.0097C103.78 97.0097 124.513 91.9312 126.569 90.8266C126.569 90.8266 138.101 79.5923 143.699 74.4767C147.837 70.6946 160.911 67.3444 163.407 66.6458C172.776 64.025 173.707 69.2218 165.787 74.8785C162.782 77.0247 156.205 80.2937 154.332 82.6646C152.692 84.7415 150.766 89.7276 150.105 94.4022C148.334 106.919 147.56 116.838 136.174 123.416" stroke="#263238" stroke-width="1.75" stroke-miterlimit="10" stroke-linecap="round" stroke-linejoin="round"/>
</g>
<path d="M310.934 247.318L300.472 245.944C298.132 245.637 296.483 243.49 296.79 241.149L304.03 186.033C304.337 183.692 306.484 182.043 308.825 182.351L319.286 183.725C321.627 184.032 323.276 186.179 322.968 188.52L315.729 243.637C315.422 245.978 313.275 247.626 310.934 247.318ZM305.978 285.05L295.516 283.676C293.176 283.369 291.527 281.222 291.834 278.881L293.524 266.019C293.831 263.678 295.978 262.029 298.319 262.337L308.781 263.711C311.121 264.018 312.77 266.165 312.463 268.506L310.773 281.368C310.466 283.709 308.319 285.358 305.978 285.05Z" fill="white" stroke="#FFD300" stroke-width="1.75" stroke-miterlimit="10" stroke-linecap="round" stroke-linejoin="round"/>
<path d="M51.4859 86.3709L42.7716 87.9529C40.5057 88.3645 38.335 86.8609 37.9241 84.5943L29.1006 35.9849C28.689 33.719 30.1926 31.5483 32.4592 31.1367L41.1735 29.5547C43.4394 29.1431 45.6101 30.6467 46.0217 32.9133L54.8452 81.5234C55.2561 83.7893 53.7525 85.96 51.4859 86.3709ZM57.6053 120.082L48.891 121.664C46.6251 122.076 44.4544 120.572 44.0435 118.306L42.0723 107.446C41.6607 105.181 43.1643 103.01 45.4309 102.598L54.1452 101.016C56.4111 100.605 58.5818 102.108 58.9934 104.375L60.9646 115.234C61.3748 117.5 59.8712 119.671 57.6053 120.082Z" fill="white" stroke="#FFD300" stroke-width="1.75" stroke-miterlimit="10" stroke-linecap="round" stroke-linejoin="round"/>
<path d="M275.554 266.65L266.769 267.399C264.416 267.6 262.347 265.856 262.146 263.503L257.915 213.915C257.714 211.562 259.458 209.493 261.811 209.292L270.597 208.543C272.95 208.342 275.019 210.086 275.22 212.439L279.45 262.027C279.651 264.38 277.907 266.449 275.554 266.65ZM278.496 301.126L269.71 301.876C267.357 302.077 265.288 300.332 265.087 297.98L264.151 287C263.95 284.647 265.694 282.578 268.047 282.377L276.832 281.628C279.185 281.427 281.254 283.171 281.455 285.524L282.392 296.503C282.593 298.856 280.848 300.925 278.496 301.126Z" fill="#FFD300"/>
<defs>
<clipPath id="clip0_2156_460">
<path d="M48.6648 58.4514H301.335V197.846C301.335 267.618 244.773 324.181 175 324.181C105.227 324.181 48.6648 267.618 48.6648 197.846V58.4514Z" fill="white"/>
</clipPath>
</defs>
</svg>
