<svg width="11" height="12" viewBox="0 0 11 12" fill="none" xmlns="http://www.w3.org/2000/svg">
<g clip-path="url(#clip0_2888_1436)">
<path d="M6.52671 2.24C6.52671 2.13333 6.49616 2.04667 6.43505 1.98C6.37394 1.91333 6.29449 1.88 6.19671 1.88H2.75005C2.65227 1.88 2.57283 1.91333 2.51171 1.98C2.4506 2.04667 2.42005 2.13333 2.42005 2.24V5.24C2.42005 5.34667 2.4506 5.44 2.51171 5.52C2.57283 5.6 2.65227 5.64 2.75005 5.64H6.19671C6.29449 5.64 6.37394 5.6 6.43505 5.52C6.49616 5.44 6.52671 5.34667 6.52671 5.24V2.24ZM5.83005 4.88H3.08005V2.64H5.83005V4.88ZM10.4867 2.64L9.09338 1.92C9.02005 1.86667 8.93449 1.85333 8.83671 1.88C8.73894 1.90667 8.67171 1.96667 8.63505 2.06C8.59838 2.15333 8.59227 2.25333 8.61671 2.36C8.64116 2.46667 8.70227 2.53333 8.80005 2.56L9.31338 2.88L9.27672 3C9.27672 3.24 9.34394 3.45333 9.47838 3.64C9.61283 3.82667 9.77783 3.96 9.97338 4.04V8.6C9.97338 8.70667 9.93672 8.8 9.86338 8.88C9.79005 8.96 9.7106 9 9.62505 9C9.53949 9 9.46005 8.96 9.38671 8.88C9.31338 8.8 9.27672 8.70667 9.27672 8.6V5.6C9.27672 5.17333 9.13616 4.78667 8.85505 4.44C8.57394 4.09333 8.26227 3.88 7.92005 3.8V1.48C7.92005 1.08 7.7856 0.733334 7.51671 0.440001C7.24783 0.146667 6.93005 0 6.56338 0H2.42005C2.05338 0 1.72949 0.146667 1.44838 0.440001C1.16727 0.733334 1.02671 1.08 1.02671 1.48V9.88L0.550048 10.16C0.403381 10.24 0.330048 10.3467 0.330048 10.48V11.6C0.330048 11.7067 0.366714 11.8 0.440048 11.88C0.513381 11.96 0.598936 12 0.696714 12H8.25005C8.34783 12 8.42727 11.96 8.48838 11.88C8.54949 11.8 8.58005 11.7067 8.58005 11.6V10.48C8.58005 10.3467 8.51894 10.24 8.39672 10.16L7.92005 9.88V4.56C8.09116 4.64 8.24394 4.78 8.37838 4.98C8.51283 5.18 8.58005 5.38667 8.58005 5.6V8.6C8.58005 8.92 8.68394 9.19333 8.89172 9.42C9.09949 9.64667 9.34394 9.76 9.62505 9.76C9.90616 9.76 10.1506 9.64667 10.3584 9.42C10.5662 9.19333 10.67 8.92 10.67 8.6V3C10.67 2.84 10.6089 2.72 10.4867 2.64ZM7.92005 11.24H1.02671V10.72L1.54005 10.44C1.66227 10.3867 1.72338 10.28 1.72338 10.12V1.48C1.72338 1.29333 1.7906 1.12667 1.92505 0.98C2.05949 0.833334 2.22449 0.76 2.42005 0.76H6.56338C6.73449 0.76 6.88727 0.833334 7.02171 0.98C7.15616 1.12667 7.22338 1.29333 7.22338 1.48V10.12C7.22338 10.28 7.28449 10.3867 7.40671 10.44L7.92005 10.72V11.24Z" fill="#1A1A1A"/>
</g>
<defs>
<clipPath id="clip0_2888_1436">
<rect width="11" height="12" fill="white" transform="matrix(1 0 0 -1 0 12)"/>
</clipPath>
</defs>
</svg>
