<svg width="44" height="40" viewBox="0 0 44 40" fill="none" xmlns="http://www.w3.org/2000/svg">
<path d="M15.75 19.7991C15.75 18.5299 15.75 17.8953 16.0061 17.3374C16.2631 16.7794 16.7444 16.3673 17.7079 15.5411L18.6425 14.7402C20.3855 13.2477 21.2547 12.5 22.2921 12.5C23.3294 12.5 24.1995 13.2467 25.9416 14.7393L26.8762 15.5402C27.8388 16.3664 28.321 16.7785 28.5771 17.3364C28.8341 17.8944 28.8341 18.529 28.8341 19.7981V23.7617C28.8341 25.5243 28.8341 26.4047 28.2864 26.9523C27.7388 27.5 26.8584 27.5 25.0958 27.5H19.4883C17.7257 27.5 16.8453 27.5 16.2977 26.9523C15.75 26.4047 15.75 25.5243 15.75 23.7617V19.7991Z" stroke="#898989" stroke-width="1.25"/>
<path d="M24.6285 27.4999V22.827C24.6285 22.5792 24.53 22.3415 24.3547 22.1662C24.1795 21.9909 23.9417 21.8925 23.6939 21.8925H20.8901C20.6423 21.8925 20.4046 21.9909 20.2293 22.1662C20.054 22.3415 19.9556 22.5792 19.9556 22.827V27.4999" stroke="#898989" stroke-width="1.25" stroke-linecap="round" stroke-linejoin="round"/>
</svg>
