<svg width="273" height="286" viewBox="0 0 273 286" fill="none" xmlns="http://www.w3.org/2000/svg">
<g clip-path="url(#clip0_2123_3062)">
<path d="M0.321045 167.755C0.321045 187.489 5.23048 206.085 13.8914 222.356C23.1503 239.77 36.6663 254.534 53.1697 265.263C53.408 265.427 53.6492 265.591 53.9001 265.733C71.8317 277.22 93.1349 283.879 115.986 283.879C138.587 283.879 159.67 277.374 177.483 266.106C177.592 266.051 177.711 265.975 177.822 265.898C177.973 265.809 178.116 265.722 178.258 265.623C181.351 263.638 184.347 261.504 187.234 259.229C187.551 258.987 187.878 258.725 188.195 258.462C195.186 252.862 201.504 246.464 207.021 239.396C210.918 234.412 214.402 229.116 217.438 223.561C217.58 223.32 217.71 223.069 217.842 222.817C220.881 217.168 223.446 211.274 225.509 205.197C226.473 202.348 227.325 199.463 228.062 196.546C228.704 194.041 229.257 191.514 229.719 188.969C230.445 185.031 230.966 181.057 231.279 177.064C231.529 173.968 231.652 170.862 231.649 167.755C231.649 128.575 212.333 93.9258 182.73 72.911C180.617 71.4007 178.452 69.9652 176.239 68.607C176.141 68.5313 176.035 68.4653 175.924 68.4099C173.281 66.7995 170.573 65.2979 167.808 63.9089C167.58 63.7893 167.35 63.6682 167.11 63.5599C164.414 62.2156 161.663 60.9844 158.864 59.8695H158.854C156.6 58.9573 154.315 58.1245 152.003 57.3727C144.882 55.019 137.545 53.383 130.102 52.4888C129.469 52.4001 128.837 52.3354 128.203 52.2692C125.575 51.983 122.937 51.7966 120.295 51.7105C118.86 51.6482 117.424 51.6191 115.987 51.6232C115.321 51.6232 114.667 51.6331 114.002 51.6443H113.565C109.568 51.7278 105.578 52.0167 101.611 52.5099C99.4159 52.7819 97.2298 53.1213 95.0555 53.5275C41.1709 63.4051 0.321045 110.79 0.321045 167.755Z" fill="white"/>
<path d="M199.349 86.8138C199.349 71.9595 211.342 59.9187 226.138 59.9187C240.934 59.9187 252.927 71.9595 252.927 86.8138C252.927 100.784 242.317 112.264 228.745 113.581L233.039 126.266L222.214 113.419C209.28 111.513 199.349 100.33 199.349 86.8138Z" fill="#FFD300"/>
<path fill-rule="evenodd" clip-rule="evenodd" d="M231.035 75.2813C232.508 75.4066 231.546 81.6613 231.546 81.6613C231.546 81.6613 235.068 81.5994 236.22 81.5375C237.373 81.4755 239.484 81.5994 239.676 82.776C239.87 83.9526 239.164 85.8724 239.164 85.8724C239.164 85.8724 239.676 86.8013 239.933 87.8541C240.189 88.9069 239.101 90.7028 239.101 90.7028C239.101 90.7028 239.421 92.0033 238.972 93.4896C238.601 94.7239 228.298 94.593 224.813 94.5114V94.9843H216.601L216.14 82.047L223.896 81.1645L223.966 81.7457L226.298 81.4755C226.298 81.4755 229.563 75.1588 231.035 75.2813ZM223.108 82.0976L223.658 94.1469H217.438L217.033 82.7887L223.108 82.0976Z" fill="white"/>
<path d="M194.744 162.677L174.756 191.657L168.778 236.668L168.884 237.041C168.981 237.376 169.126 237.868 169.319 238.497C169.707 239.756 170.288 241.557 171.062 243.729C172.608 248.074 174.918 253.886 177.98 259.774C181.044 265.664 184.845 271.601 189.359 276.212C193.875 280.822 199.059 284.061 204.896 284.668C207.801 284.969 210.225 284.478 212.259 283.412C214.297 282.344 215.985 280.676 217.377 278.569C220.174 274.338 221.732 268.41 222.545 262.313C223.356 256.231 223.418 250.061 223.275 245.402C223.218 243.522 223.118 241.644 222.977 239.768C222.926 239.102 222.868 238.437 222.801 237.772L222.798 237.748L222.744 237.63L222.442 236.977C222.182 236.407 221.803 235.575 221.333 234.524C220.067 231.681 218.838 228.821 217.649 225.944C214.756 218.943 211.262 209.827 208.885 201.401C206.527 193.046 202.871 183.077 199.798 175.184C198.165 170.994 196.48 166.825 194.744 162.677Z" fill="white" stroke="#24272C" stroke-width="1.6073"/>
<path d="M196.646 215.066L196.77 215.108L197.029 215.194L197.032 215.195L220.657 223.009L242.372 184.734C243.617 182.527 242.316 179.731 239.816 179.291L220.794 175.916L220.596 175.944L220.325 175.983L220.103 175.83C219.422 175.811 218.749 175.982 218.158 176.322C217.567 176.663 217.081 177.161 216.754 177.761L196.646 215.066Z" fill="#24272C" stroke="#24272C" stroke-width="1.6073"/>
<path d="M196.548 215.775L196.81 215.864C202.646 204.738 208.677 193.261 214.872 182.048C215.734 180.493 216.705 178.729 218.014 177.316C218.865 176.386 219.814 175.675 220.806 175.204L220.731 175.192C220.599 175.171 220.469 175.149 220.338 175.139C219.388 175.653 218.531 176.327 217.806 177.13C216.487 178.566 215.506 180.351 214.644 181.917C208.449 193.161 202.394 204.638 196.548 215.775ZM220.152 179.779C220.469 179.572 220.829 179.495 221.199 179.561L226.762 180.601C226.941 180.634 227.112 180.702 227.265 180.801C227.418 180.901 227.549 181.029 227.653 181.18C227.756 181.33 227.829 181.499 227.867 181.678C227.905 181.857 227.908 182.041 227.875 182.221C227.817 182.541 227.648 182.831 227.399 183.039C227.15 183.248 226.836 183.362 226.512 183.361C226.424 183.361 226.337 183.361 226.25 183.339L220.687 182.299C220.325 182.231 220.004 182.022 219.793 181.719C219.587 181.414 219.508 181.041 219.574 180.679C219.605 180.497 219.672 180.324 219.771 180.17C219.87 180.015 220 179.882 220.152 179.779Z" fill="white"/>
<path d="M148.85 115.094C148.152 114.753 148.109 113.505 148.109 113.505L194.891 161.229C182.958 131.596 154.686 117.907 148.85 115.094ZM178.017 243.038L194.162 161.298C182.294 132.069 154.362 118.532 148.547 115.727L148.545 115.726C147.907 115.416 147.65 114.752 147.542 114.361C147.521 114.284 147.502 114.207 147.486 114.13L125.859 111.115L97.4384 107.157L97.1538 107.299C96.8412 107.457 96.3772 107.693 95.7786 108.007C94.5786 108.635 92.8374 109.575 90.6715 110.817C84.7875 114.201 79.073 117.873 73.5487 121.822C60.0106 131.487 43.5398 145.684 31.7232 163.848C22.423 178.144 17.3453 200.404 14.613 222.223C23.8137 239.446 37.2088 254.049 53.5493 264.672L53.5633 264.681C53.8072 264.848 54.0231 264.995 54.2446 265.121L54.26 265.129L54.2769 265.14C72.0992 276.558 93.272 283.175 115.985 283.175C138.449 283.175 159.405 276.71 177.108 265.51L177.126 265.499L177.208 261.109L177.48 245.833L177.481 245.771L177.492 245.71L178.017 243.038ZM209.12 218.548L208.827 219.187L208.825 219.185L208.816 219.181L208.783 219.166L208.647 219.104L208.126 218.869C205.615 217.743 203.075 216.684 200.509 215.691C198.386 214.88 196.251 214.147 194.581 213.744C193.742 213.541 193.058 213.433 192.568 213.427C192.401 213.42 192.234 213.437 192.072 213.478C192.097 213.612 192.144 213.741 192.209 213.861C192.392 214.23 192.732 214.704 193.217 215.261C194.182 216.368 195.598 217.672 197.08 218.933C198.433 220.078 199.814 221.188 201.222 222.263C201.797 222.703 202.278 223.064 202.616 223.315L203.008 223.605L203.112 223.679L203.137 223.699L203.144 223.703L203.146 223.705L203.49 223.954L203.429 224.376V224.382L203.426 224.401L203.415 224.486C203.352 225.003 203.302 225.521 203.265 226.041C203.17 227.36 203.157 228.683 203.227 230.003C203.311 231.523 203.531 233.128 203.989 234.558C204.449 235.992 205.131 237.197 206.102 237.989C208.121 239.636 211.658 240.24 215.143 239.965C216.864 239.83 218.524 239.482 219.909 238.974C221.189 238.506 222.179 237.92 222.785 237.285V237.28C222.802 236.123 222.842 234.968 222.905 233.813C223.029 231.596 223.274 228.666 223.767 225.831C224.275 222.924 225.71 219.733 227.056 217.136C227.733 215.83 228.396 214.658 228.921 213.731C229.462 212.774 229.818 212.144 229.934 211.852V211.851C230.044 211.578 230.282 211.233 230.533 210.894C230.906 210.398 231.288 209.908 231.68 209.426C232.431 208.48 233.328 207.354 234.175 206.165C235.078 204.895 235.902 203.584 236.424 202.377C236.956 201.143 237.111 200.161 236.882 199.474C236.299 197.719 234.352 194.691 232.201 192.256C231.132 191.046 230.051 190.026 229.111 189.398C228.64 189.084 228.237 188.891 227.913 188.807C227.593 188.725 227.411 188.763 227.306 188.822C227.25 188.853 227.138 188.953 227.072 189.306C227.009 189.658 227.016 190.152 227.103 190.774C227.275 192.013 227.735 193.577 228.287 195.136C228.837 196.687 229.465 198.2 229.957 199.327C230.202 199.89 230.414 200.355 230.562 200.679L230.738 201.053L230.784 201.15L230.795 201.175L230.798 201.181L230.799 201.183L230.991 201.582L230.714 201.93L227.279 206.217L226.924 206.659L226.418 206.404L226.416 206.403L226.404 206.397L226.357 206.373L226.172 206.283C225.163 205.794 224.143 205.33 223.111 204.891C221.209 204.085 218.889 203.213 217.09 202.879M209.12 218.548L209.419 217.912V217.91H209.416L209.406 217.905L209.363 217.883L209.195 217.803C208.22 217.334 207.251 216.854 206.286 216.365C203.996 215.212 201.734 214.005 199.502 212.743C197.067 211.357 194.708 209.896 193.06 208.611C192.232 207.964 191.622 207.392 191.27 206.922C191.142 206.766 191.042 206.588 190.976 206.397C190.966 206.366 190.961 206.333 190.962 206.3V206.297C191.012 206.264 191.067 206.239 191.124 206.223C191.307 206.162 191.59 206.118 191.986 206.11C192.779 206.095 193.872 206.221 195.193 206.463C197.823 206.947 201.208 207.869 204.57 208.89C207.635 209.828 210.682 210.824 213.71 211.876C214.983 212.317 216.253 212.767 217.519 213.226L217.738 213.305L217.793 213.326L217.807 213.33L217.811 213.332V213.333L218.329 213.523L218.636 213.063L219.472 211.805L219.951 211.081L219.148 210.76H219.147L219.144 210.759L219.134 210.755L219.091 210.736L218.92 210.667L218.269 210.403C217.708 210.173 216.907 209.841 215.948 209.434C213.59 208.441 211.252 207.402 208.934 206.32C206.39 205.126 203.882 203.86 202.041 202.734C201.117 202.168 200.392 201.655 199.918 201.221C199.741 201.067 199.583 200.892 199.45 200.698C199.432 200.669 199.416 200.638 199.402 200.607L199.408 200.601C199.492 200.534 199.587 200.485 199.69 200.455C200.024 200.338 200.544 200.266 201.25 200.256C202.648 200.235 204.547 200.453 206.593 200.784C209.321 201.226 212.178 201.841 214.368 202.313C215.485 202.553 216.427 202.756 217.09 202.879M209.12 218.548L208.827 219.187L209.419 217.912L209.12 218.548ZM217.09 202.879L217.218 202.187L217.09 202.879ZM217.09 202.879L217.218 202.187L217.09 202.879ZM217.218 202.187C216.591 202.071 215.67 201.872 214.568 201.636C209.063 200.451 199.046 198.296 198.697 200.51M217.218 202.187L199.39 200.62L217.218 202.187ZM198.697 200.51L199.39 200.62L198.697 200.51ZM198.697 200.51L199.39 200.62L198.697 200.51ZM198.697 200.51C198.326 202.88 214.697 209.703 218.224 211.145L199.39 200.62" fill="white"/>
<path d="M208.827 219.187L209.12 218.548L209.419 217.912M208.827 219.187L208.825 219.185L208.816 219.181L208.783 219.166L208.647 219.104L208.126 218.869C205.615 217.743 203.075 216.684 200.509 215.691C198.386 214.88 196.251 214.147 194.581 213.744C193.742 213.541 193.058 213.433 192.568 213.427C192.401 213.42 192.234 213.437 192.072 213.478C192.097 213.612 192.144 213.741 192.209 213.861C192.392 214.23 192.732 214.704 193.217 215.261C194.182 216.368 195.598 217.672 197.08 218.933C198.433 220.078 199.814 221.188 201.222 222.263C201.797 222.703 202.278 223.064 202.616 223.315L203.008 223.605L203.112 223.679L203.137 223.699L203.144 223.703L203.146 223.705M208.827 219.187L209.419 217.912M203.146 223.705L202.735 224.275M203.146 223.705L203.49 223.954L203.429 224.376V224.382L203.426 224.401L203.415 224.486C203.352 225.003 203.302 225.521 203.265 226.041C203.17 227.36 203.157 228.683 203.227 230.003C203.311 231.523 203.531 233.128 203.989 234.558C204.449 235.992 205.131 237.197 206.102 237.989C208.121 239.636 211.658 240.24 215.143 239.965C216.864 239.83 218.524 239.482 219.909 238.974C221.189 238.506 222.179 237.92 222.785 237.285V237.28C222.802 236.123 222.842 234.968 222.905 233.813C223.029 231.596 223.274 228.666 223.767 225.831C224.275 222.924 225.71 219.733 227.056 217.136C227.733 215.83 228.396 214.658 228.921 213.731C229.462 212.774 229.818 212.144 229.934 211.852V211.851C230.044 211.578 230.282 211.233 230.533 210.894C230.906 210.398 231.288 209.908 231.68 209.426C232.431 208.48 233.328 207.354 234.175 206.165C235.078 204.895 235.902 203.584 236.424 202.377C236.956 201.143 237.111 200.161 236.882 199.474C236.299 197.719 234.352 194.691 232.201 192.256C231.132 191.046 230.051 190.026 229.111 189.398C228.64 189.084 228.237 188.891 227.913 188.807C227.593 188.725 227.411 188.763 227.306 188.822C227.25 188.853 227.138 188.953 227.072 189.306C227.009 189.658 227.016 190.152 227.103 190.774C227.275 192.013 227.735 193.577 228.287 195.136C228.837 196.687 229.465 198.2 229.957 199.327C230.202 199.89 230.414 200.355 230.562 200.679L230.738 201.053L230.784 201.15L230.795 201.175L230.798 201.181L230.799 201.183L230.991 201.582L230.714 201.93L227.279 206.217L226.925 206.659L226.418 206.404L226.416 206.403L226.404 206.397L226.357 206.373L226.172 206.283C225.163 205.794 224.143 205.33 223.111 204.891C221.209 204.085 218.889 203.213 217.09 202.879M217.09 202.879C216.427 202.756 215.485 202.553 214.368 202.313C212.178 201.841 209.321 201.226 206.593 200.784C204.547 200.453 202.648 200.235 201.25 200.256C200.544 200.266 200.024 200.338 199.69 200.455C199.587 200.485 199.492 200.534 199.408 200.601L199.402 200.607C199.416 200.638 199.432 200.669 199.45 200.698C199.583 200.892 199.741 201.067 199.918 201.221C200.392 201.655 201.117 202.168 202.041 202.734C203.882 203.86 206.39 205.126 208.934 206.32C211.252 207.402 213.59 208.441 215.948 209.434C216.907 209.841 217.708 210.173 218.269 210.403L218.92 210.667L219.091 210.736L219.134 210.755L219.144 210.759L219.147 210.76H219.148M217.09 202.879L217.218 202.187M209.419 217.912V217.91H209.416L209.406 217.905L209.363 217.883L209.195 217.803C208.22 217.334 207.251 216.854 206.286 216.365C203.996 215.212 201.734 214.005 199.502 212.743C197.067 211.357 194.708 209.896 193.06 208.611C192.232 207.964 191.622 207.392 191.27 206.922C191.142 206.766 191.042 206.588 190.976 206.397C190.966 206.366 190.961 206.333 190.962 206.3V206.297C191.012 206.264 191.067 206.239 191.124 206.223C191.307 206.162 191.59 206.118 191.986 206.11C192.779 206.095 193.872 206.221 195.193 206.463C197.823 206.947 201.208 207.869 204.57 208.89C207.635 209.828 210.682 210.824 213.71 211.876C214.983 212.317 216.253 212.767 217.519 213.226L217.738 213.305L217.793 213.326L217.807 213.33L217.811 213.332V213.333M217.811 213.333L218.053 212.672M217.811 213.333L218.329 213.523L218.636 213.063L219.472 211.805L219.951 211.081L219.148 210.76M219.148 210.76L218.889 211.413M217.218 202.187C216.591 202.071 215.67 201.872 214.568 201.636C209.063 200.451 199.046 198.296 198.697 200.51M217.218 202.187L199.39 200.62M198.697 200.51L199.39 200.62M198.697 200.51C198.326 202.88 214.697 209.703 218.224 211.145L199.39 200.62M192.016 213.501H192.019M148.85 115.094C148.152 114.753 148.109 113.505 148.109 113.505L194.891 161.229C182.958 131.596 154.686 117.907 148.85 115.094ZM178.017 243.038L194.162 161.298C182.294 132.069 154.362 118.532 148.547 115.727L148.545 115.726C147.907 115.416 147.65 114.752 147.542 114.361C147.521 114.284 147.502 114.207 147.486 114.13L125.859 111.115L97.4384 107.157L97.1538 107.299C96.8412 107.457 96.3772 107.693 95.7786 108.007C94.5786 108.635 92.8374 109.575 90.6715 110.817C84.7875 114.201 79.073 117.873 73.5487 121.822C60.0106 131.487 43.5398 145.684 31.7232 163.848C22.423 178.144 17.3453 200.404 14.613 222.223C23.8137 239.446 37.2088 254.049 53.5493 264.672L53.5633 264.681C53.8072 264.848 54.0231 264.995 54.2446 265.121L54.26 265.129L54.2769 265.14C72.0992 276.558 93.272 283.175 115.986 283.175C138.449 283.175 159.405 276.71 177.108 265.51L177.126 265.499L177.208 261.109L177.48 245.833L177.481 245.771L177.492 245.71L178.017 243.038Z" stroke="#24272C" stroke-width="1.6073"/>
<path d="M149.129 4.70002C158 2.5635 166.423 -0.396386 176.581 4.2243C184.161 7.67257 188.042 14.4453 188.271 22.7014C194.978 22.1286 201.667 26.7859 204.856 32.7394C208.044 38.693 207.208 46.6156 202.726 51.6585C199.024 55.8246 193.359 57.8119 187.807 58.1497C182.256 58.4889 176.731 57.3502 171.3 56.1497C169.741 55.8048 168.561 54.2721 167.501 53.0729C161.337 46.1036 155.973 38.461 151.51 30.289C149.447 26.5086 147.563 22.5747 146.652 18.3622C145.742 14.1483 147.297 8.59727 149.129 4.70002Z" fill="#24272C"/>
<path d="M153.488 8.43531C149.327 2.6394 141.906 -0.614621 134.845 0.258003C127.784 1.13063 121.37 6.09333 118.733 12.7281C112.275 10.7605 104.731 14.4128 101.403 20.3072C98.0734 26.2017 98.4702 33.7569 101.437 39.8442C97.1243 43.8019 94.8939 49.6176 95.0005 55.4811C95.2164 67.505 102.976 79.063 113.996 83.7738C124.309 58.2284 138.113 31.2699 153.488 8.43531Z" fill="#24272C"/>
<path d="M129.223 126.427L129.245 126.423L129.267 126.42L129.272 126.418L129.293 126.416L129.318 126.413L129.381 126.403L129.737 126.344C130.048 126.288 130.505 126.197 131.079 126.062C132.63 125.691 134.153 125.209 135.635 124.618C139.266 123.173 143.707 120.661 147.056 116.389L147.06 116.383C147.464 115.877 147.847 115.352 148.21 114.791L149.403 110.984V110.983L152.481 101.108L113.485 72.8323L98.0767 106.471L98.0809 106.482C98.1426 106.661 98.2393 106.924 98.3697 107.259C98.6318 107.929 99.0328 108.886 99.5893 110.022C100.702 112.295 102.43 115.27 104.886 118.093C109.784 123.725 117.556 128.742 129.223 126.427Z" fill="white" stroke="#24272C" stroke-width="1.6073"/>
<path d="M121.777 104.427C125.245 111.118 131.496 116.528 138.859 118.061C140.648 118.434 142.512 118.576 144.301 118.203C145.479 117.954 146.6 117.486 147.607 116.824C148.043 116.276 148.456 115.706 148.849 115.094L150.071 111.194C140.582 100.551 130.853 89.0306 118.329 82.3931C117.436 89.885 118.308 97.726 121.777 104.427Z" fill="#24272C"/>
<path d="M114.288 55.4472C113.729 61.2445 113.285 69.3444 113.477 79.8271C113.7 91.6709 120.007 100.648 128.795 105.958C137.599 111.278 148.869 112.9 158.922 110.007C160.001 109.69 161.041 109.249 162.02 108.693C166.379 106.249 169.735 102.195 172.426 97.5569C175.118 92.9193 177.116 87.7554 178.788 83.1459C180.683 77.9271 182.125 72.597 183.548 67.2022L184.1 65.1305C185.847 58.614 187.537 52.3114 186.782 45.6133C186.051 39.1389 183.522 32.9321 179.566 27.7681C174.803 21.5411 168.14 17.0502 160.596 14.9813C141.484 9.69913 121.753 20.8856 116.523 39.9623C115.85 42.4451 115.439 44.9921 115.298 47.5612L115.296 47.5978L115.291 47.633C114.87 50.2258 114.536 52.832 114.288 55.4472Z" fill="white"/>
<path d="M179.566 27.7681C183.522 32.9321 186.051 39.1389 186.782 45.6133C187.537 52.3114 185.847 58.614 184.1 65.1305L183.548 67.2022C182.125 72.597 180.683 77.9271 178.788 83.1459C177.116 87.7554 175.118 92.9194 172.426 97.5569C169.735 102.195 166.379 106.249 162.02 108.693C161.041 109.249 160.001 109.69 158.922 110.007C148.869 112.9 137.599 111.278 128.795 105.958C120.007 100.648 113.7 91.6709 113.477 79.8272C113.285 69.3444 113.729 61.2445 114.288 55.4472C114.536 52.832 114.87 50.2258 115.291 47.633L115.296 47.5978L115.298 47.5612C115.439 44.9921 115.85 42.4451 116.523 39.9623C121.753 20.8856 141.484 9.69913 160.596 14.9813C168.14 17.0502 174.803 21.5411 179.566 27.7681ZM179.566 27.7681L180.123 27.3388" stroke="#24272C" stroke-width="1.6073"/>
<path d="M167.315 62.9617H167.313" stroke="#24272C" stroke-width="1.6073"/>
<path d="M154.617 90.5339C156.021 90.5339 157.176 89.346 157.608 88.9013C157.679 88.8281 157.718 88.7295 157.717 88.6272C157.716 88.5249 157.674 88.4273 157.601 88.3559C157.528 88.2844 157.43 88.2449 157.328 88.2461C157.227 88.2473 157.129 88.289 157.058 88.3622C155.847 89.6078 154.856 90.0075 153.942 89.6247C152.735 89.1152 152.62 87.6219 152.606 86.1342C152.603 85.9231 152.422 85.7654 152.217 85.7542C152.167 85.7547 152.117 85.7652 152.071 85.7851C152.024 85.805 151.982 85.8339 151.947 85.8701C151.912 85.9063 151.884 85.9491 151.865 85.9961C151.846 86.0431 151.837 86.0934 151.837 86.144C151.85 87.4319 151.872 89.5867 153.644 90.3341C153.978 90.4748 154.303 90.5339 154.617 90.5339Z" fill="#24272C"/>
<mask id="mask0_2123_3062" style="mask-type:luminance" maskUnits="userSpaceOnUse" x="151" y="85" width="7" height="6">
<path d="M154.617 90.5339C156.021 90.5339 157.176 89.346 157.608 88.9013C157.679 88.8281 157.718 88.7295 157.717 88.6272C157.716 88.5249 157.674 88.4273 157.601 88.3559C157.528 88.2844 157.43 88.2449 157.328 88.2461C157.227 88.2473 157.129 88.289 157.058 88.3622C155.847 89.6078 154.856 90.0075 153.942 89.6247C152.735 89.1152 152.62 87.6219 152.606 86.1342C152.603 85.9231 152.422 85.7654 152.217 85.7542C152.167 85.7547 152.117 85.7652 152.071 85.7851C152.024 85.805 151.982 85.8339 151.947 85.8701C151.912 85.9063 151.884 85.9491 151.865 85.9961C151.846 86.0431 151.837 86.0934 151.837 86.144C151.85 87.4319 151.872 89.5867 153.644 90.3341C153.978 90.4748 154.303 90.5339 154.617 90.5339Z" fill="white"/>
</mask>
<g mask="url(#mask0_2123_3062)">
<path d="M157.608 88.9012L158.616 89.8808L158.612 89.8851L157.608 88.9012ZM157.601 88.3552L158.58 87.3474L158.581 87.3488L157.601 88.3552ZM157.058 88.3622L156.056 87.3798L156.059 87.3755L157.058 88.3622ZM153.942 89.6246L153.402 90.9237L153.4 90.9224L153.942 89.6246ZM152.606 86.1342L154.008 86.1187V86.1215L152.606 86.1342ZM152.218 85.7541L152.202 84.3467H152.25L152.299 84.3495L152.218 85.7541ZM151.838 86.144L153.24 86.1271V86.1286L151.838 86.144ZM153.645 90.334L153.104 91.6331L153.101 91.6317L153.645 90.334ZM154.618 89.1264C154.929 89.1264 155.292 88.9913 155.69 88.7197C156.081 88.4537 156.393 88.1384 156.606 87.9174L158.612 89.8851C158.393 90.1103 157.909 90.6099 157.263 91.0504C156.625 91.4839 155.71 91.9414 154.618 91.9414V89.1264ZM156.601 87.9216C156.415 88.1159 156.312 88.3766 156.316 88.6466C156.32 88.9167 156.43 89.1742 156.622 89.3629L158.581 87.3488C159.287 88.0413 159.299 89.1729 158.616 89.8808L156.601 87.9216ZM156.624 89.3643C156.816 89.5528 157.075 89.6572 157.344 89.6545C157.613 89.6519 157.869 89.5425 158.058 89.3502L156.059 87.3755C156.39 87.0374 156.841 86.8447 157.313 86.8394C157.786 86.8341 158.241 87.0168 158.58 87.3474L156.624 89.3643ZM158.062 89.346C156.772 90.6718 155.173 91.6641 153.402 90.9237L154.482 88.3256C154.564 88.3608 154.658 88.3819 154.866 88.2988C155.124 88.1947 155.515 87.9357 156.056 87.3798L158.062 89.346ZM153.4 90.9224C152.281 90.4509 151.737 89.5191 151.482 88.6409C151.239 87.8105 151.211 86.8871 151.204 86.1482L154.008 86.1215C154.015 86.8689 154.051 87.4361 154.172 87.8513C154.28 88.2186 154.396 88.289 154.485 88.327L153.4 90.9224ZM151.204 86.1496C151.203 86.4053 151.298 86.6518 151.472 86.8392C151.645 87.0267 151.882 87.1409 152.136 87.1588L152.299 84.3495C153.095 84.3946 153.995 85.0321 154.008 86.1187L151.204 86.1496ZM152.233 87.1616C152.503 87.1579 152.761 87.047 152.949 86.8531C153.138 86.6592 153.242 86.3982 153.24 86.1271L150.436 86.1595C150.433 85.924 150.477 85.6904 150.564 85.4718C150.652 85.2533 150.781 85.0541 150.945 84.8858C151.109 84.7174 151.305 84.5832 151.52 84.4907C151.736 84.3982 151.968 84.3493 152.202 84.3467L152.233 87.1616ZM153.24 86.1286C153.247 86.7999 153.261 87.4713 153.428 88.0511C153.582 88.586 153.816 88.8801 154.187 89.0363L153.101 91.6317C151.7 91.042 151.037 89.8836 150.735 88.8323C150.444 87.8259 150.442 86.7746 150.436 86.1581L153.24 86.1286ZM154.186 89.0363C154.322 89.0951 154.469 89.1258 154.618 89.1264V91.9414C154.098 91.9407 153.583 91.8359 153.104 91.6331L154.186 89.0363Z" fill="#24272C"/>
</g>
<path d="M174.278 72.8153C175.064 73.0391 176.077 72.4916 176.405 71.3276C176.733 70.1636 176.155 69.1657 175.369 68.9434C174.582 68.721 173.57 69.2671 173.242 70.431C172.914 71.595 173.493 72.5929 174.278 72.8153ZM151.242 62.1834C150.914 63.3473 151.492 64.3452 152.278 64.5676C153.064 64.79 154.077 64.2439 154.405 63.0799C154.731 61.9159 154.154 60.918 153.367 60.6957C152.581 60.4719 151.569 61.0194 151.242 62.1834Z" fill="white" stroke="#24272C" stroke-width="1.6073"/>
<path d="M112.913 45.0688C109.97 44.4762 106.82 45.591 104.644 47.667C102.468 49.743 101.222 52.6817 100.87 55.674C100.071 62.4481 104.075 69.5163 110.281 72.2919C111.846 72.9914 113.593 73.4417 115.273 73.1138C117.529 72.6761 119.347 70.8745 120.319 68.7858C121.29 66.6972 121.529 64.3425 121.579 62.0371C121.723 55.4868 120.901 46.6803 112.913 45.0688Z" fill="white"/>
<path d="M114.062 62.5044V62.5064" stroke="#24272C" stroke-width="1.6073"/>
<path d="M159.521 12.0372C156.518 8.45801 152.493 5.86546 148.264 3.89783C143.158 1.52064 135.567 4.14132 130.859 7.23773C126.152 10.3356 122.285 14.5621 118.823 19.0153C114.523 24.5424 110.661 30.7634 109.848 37.7275C109.033 44.693 112.015 52.5002 118.342 55.4727C119.578 56.054 120.918 56.4411 122.285 56.4833C125.585 56.586 128.741 54.6015 130.568 51.8373C132.393 49.0744 133.121 45.7782 132.965 42.465C134.318 44.5326 135.958 46.4664 138.062 47.7528C140.166 49.0406 142.788 49.6177 145.143 48.8957C147.036 48.3144 148.553 46.9604 149.619 45.2701L149.631 45.3658C149.962 47.8162 151.166 50.2243 153.208 51.6064C156.025 53.5093 159.904 53.1181 162.904 51.522C165.904 49.9245 168.318 47.4432 170.565 44.8873C170.71 48.5593 173.087 52.3229 176.668 53.0829C179.092 53.5994 181.632 52.6959 183.667 51.2771C187.499 48.6114 189.9 44.192 190.778 39.5952C191.654 34.9998 191.124 30.2286 189.983 25.6909C188.605 20.2131 181.796 15.9443 176.434 14.2258C171.071 12.5058 165.367 12.154 159.74 12.2595L159.705 12.261C159.644 12.185 159.583 12.1118 159.521 12.0372Z" fill="#24272C"/>
<path d="M234.468 163.398H235.255L235.165 164.182L234.356 171.259L239.921 163.684L240.132 163.398H267.927C268.922 163.398 269.876 163.001 270.579 162.295C271.282 161.589 271.677 160.632 271.677 159.633V141.49C271.677 140.491 271.282 139.533 270.579 138.827C269.876 138.121 268.922 137.725 267.927 137.725H221.522C220.527 137.725 219.573 138.121 218.87 138.827C218.167 139.533 217.771 140.491 217.771 141.49V159.633C217.771 160.632 218.167 161.589 218.87 162.295C219.573 163.001 220.527 163.398 221.522 163.398H234.468Z" fill="white" stroke="#FFD300" stroke-width="1.6073"/>
<path d="M263.967 142.838C264.339 142.838 264.696 142.986 264.959 143.25C265.221 143.514 265.369 143.872 265.369 144.245C265.369 144.619 265.221 144.977 264.959 145.241C264.696 145.505 264.339 145.653 263.967 145.653H224.714C224.342 145.653 223.986 145.505 223.723 145.241C223.46 144.977 223.312 144.619 223.312 144.245C223.312 143.872 223.46 143.514 223.723 143.25C223.986 142.986 224.342 142.838 224.714 142.838H263.967ZM248.546 151.283C248.918 151.283 249.275 151.431 249.538 151.695C249.801 151.959 249.948 152.317 249.948 152.69C249.948 153.063 249.801 153.421 249.538 153.685C249.275 153.949 248.918 154.098 248.546 154.098H224.714C224.342 154.098 223.986 153.949 223.723 153.685C223.46 153.421 223.312 153.063 223.312 152.69C223.312 152.317 223.46 151.959 223.723 151.695C223.986 151.431 224.342 151.283 224.714 151.283H248.546Z" fill="#F8F8F8"/>
<path d="M54.2192 264.583L59.1259 181.543" stroke="#24272C" stroke-width="1.6073" stroke-linecap="round"/>
</g>
<defs>
<clipPath id="clip0_2123_3062">
<rect width="273" height="286" fill="white"/>
</clipPath>
</defs>
</svg>
