<svg width="44" height="40" viewBox="0 0 44 40" fill="none" xmlns="http://www.w3.org/2000/svg">
<path d="M17.832 11.6666C17.169 11.6666 16.5331 11.93 16.0643 12.3989C15.5954 12.8677 15.332 13.5036 15.332 14.1666V25.8333C15.332 26.4963 15.5954 27.1322 16.0643 27.6011C16.5331 28.0699 17.169 28.3333 17.832 28.3333H26.1654C26.8284 28.3333 27.4643 28.0699 27.9331 27.6011C28.402 27.1322 28.6654 26.4963 28.6654 25.8333V25C28.6654 24.5397 28.2923 24.1666 27.832 24.1666C27.3718 24.1666 26.9987 24.5397 26.9987 25V25.8333C26.9987 26.0543 26.9109 26.2663 26.7546 26.4225C26.5983 26.5788 26.3864 26.6666 26.1654 26.6666H17.832C17.611 26.6666 17.3991 26.5788 17.2428 26.4225C17.0865 26.2663 16.9987 26.0543 16.9987 25.8333V14.1666C16.9987 13.9456 17.0865 13.7337 17.2428 13.5774C17.3991 13.4211 17.611 13.3333 17.832 13.3333H26.1654C26.3864 13.3333 26.5983 13.4211 26.7546 13.5774C26.9109 13.7337 26.9987 13.9456 26.9987 14.1666V15C26.9987 15.4602 27.3718 15.8333 27.832 15.8333C28.2923 15.8333 28.6654 15.4602 28.6654 15V14.1666C28.6654 13.5036 28.402 12.8677 27.9331 12.3989C27.4643 11.93 26.8284 11.6666 26.1654 11.6666H17.832Z" fill="#D55F5A"/>
<path d="M25.9213 16.9107C25.5958 16.5853 25.0682 16.5853 24.7428 16.9107C24.4173 17.2361 24.4173 17.7638 24.7428 18.0892L25.8202 19.1666H21.9987C21.5385 19.1666 21.1654 19.5397 21.1654 20C21.1654 20.4602 21.5385 20.8333 21.9987 20.8333H25.8202L24.7428 21.9107C24.4173 22.2361 24.4173 22.7638 24.7428 23.0892C25.0682 23.4147 25.5958 23.4147 25.9213 23.0892L28.4213 20.5892C28.7467 20.2638 28.7467 19.7361 28.4213 19.4107L25.9213 16.9107Z" fill="#D55F5A"/>
</svg>
