<svg width="44" height="40" viewBox="0 0 44 40" fill="none" xmlns="http://www.w3.org/2000/svg">
<g clip-path="url(#clip0_2376_1719)">
<path d="M13.3335 20C13.3335 17.7015 14.2466 15.4971 15.8719 13.8718C17.4972 12.2465 19.7016 11.3334 22.0002 11.3334C24.2987 11.3334 26.5031 12.2465 28.1284 13.8718C29.7537 15.4971 30.6668 17.7015 30.6668 20V25.5142C30.6668 26.4329 30.6668 26.89 30.5303 27.2573C30.4218 27.5483 30.252 27.8126 30.0323 28.0322C29.8127 28.2518 29.5484 28.4217 29.2574 28.5302C28.8902 28.6667 28.4319 28.6667 27.5143 28.6667H22.0002C19.7016 28.6667 17.4972 27.7536 15.8719 26.1283C14.2466 24.503 13.3335 22.2986 13.3335 20Z" stroke="#898989" stroke-width="1.25"/>
<path d="M18.75 18.9167H25.25M22 23.2501H25.25" stroke="#898989" stroke-width="1.25" stroke-linecap="round" stroke-linejoin="round"/>
</g>
<defs>
<clipPath id="clip0_2376_1719">
<rect width="20" height="20" fill="white" transform="translate(12 10)"/>
</clipPath>
</defs>
</svg>
