<svg width="44" height="40" viewBox="0 0 44 40" fill="none" xmlns="http://www.w3.org/2000/svg">
<path d="M14.1085 22.3083C13.931 23.47 14.7235 24.2758 15.6935 24.6775C19.4127 26.2191 24.5877 26.2191 28.3068 24.6775C29.2768 24.2758 30.0693 23.4691 29.8918 22.3083C29.7835 21.5941 29.2443 21 28.8452 20.4191C28.3227 19.6491 28.271 18.81 28.2702 17.9166C28.271 14.465 25.4643 11.6666 22.0002 11.6666C18.536 11.6666 15.7293 14.465 15.7293 17.9166C15.7293 18.81 15.6777 19.65 15.1543 20.4191C14.756 21 14.2177 21.5941 14.1085 22.3083Z" stroke="#898989" stroke-width="1.25" stroke-linecap="round" stroke-linejoin="round"/>
<path d="M18.667 25.8333C19.0487 27.2708 20.397 28.3333 22.0003 28.3333C23.6045 28.3333 24.9512 27.2708 25.3337 25.8333" stroke="#898989" stroke-width="1.25" stroke-linecap="round" stroke-linejoin="round"/>
</svg>
