<svg width="93" height="40" viewBox="0 0 93 40" fill="none" xmlns="http://www.w3.org/2000/svg">
<path d="M21.1635 18.3334H21.176M21.1668 23.3334H21.1793M17.8335 20.8334H24.5002" stroke="#898989" stroke-width="1.25" stroke-linecap="round" stroke-linejoin="round"/>
<path d="M26.5835 14.1667C27.2739 14.1667 27.8335 14.7263 27.8335 15.4167C27.8335 16.107 27.2739 16.6667 26.5835 16.6667C25.8931 16.6667 25.3335 16.107 25.3335 15.4167C25.3335 14.7263 25.8931 14.1667 26.5835 14.1667Z" stroke="#898989" stroke-width="1.25" stroke-linecap="round" stroke-linejoin="round"/>
<path d="M14.3119 19.2867C13.4761 20.22 13.4586 21.6284 14.2252 22.62C15.7144 24.5532 17.4471 26.2858 19.3802 27.775C20.3719 28.5417 21.7802 28.5242 22.7136 27.6884C25.2365 25.4316 27.6073 23.0102 29.8102 20.44C30.0326 20.1844 30.1696 19.8656 30.2019 19.5284C30.3386 18.0317 30.6211 13.72 29.4502 12.55C28.2794 11.38 23.9686 11.6617 22.4719 11.7992C22.1346 11.8315 21.8159 11.9684 21.5602 12.1909C18.9901 14.3935 16.5687 16.764 14.3119 19.2867Z" stroke="#898989" stroke-width="1.25" stroke-linecap="round" stroke-linejoin="round"/>
<path d="M46.2159 25.1541C45.5 25.1541 44.8752 24.9901 44.3416 24.6619C43.808 24.3338 43.3937 23.8748 43.0987 23.2848C42.8037 22.6948 42.6562 22.0054 42.6562 21.2166C42.6562 20.4245 42.8037 19.7318 43.0987 19.1385C43.3937 18.5452 43.808 18.0845 44.3416 17.7564C44.8752 17.4283 45.5 17.2642 46.2159 17.2642C46.9318 17.2642 47.5566 17.4283 48.0902 17.7564C48.6238 18.0845 49.0381 18.5452 49.3331 19.1385C49.6281 19.7318 49.7756 20.4245 49.7756 21.2166C49.7756 22.0054 49.6281 22.6948 49.3331 23.2848C49.0381 23.8748 48.6238 24.3338 48.0902 24.6619C47.5566 24.9901 46.9318 25.1541 46.2159 25.1541ZM46.2209 23.9062C46.6849 23.9062 47.0694 23.7836 47.3743 23.5384C47.6792 23.2931 47.9046 22.9666 48.0504 22.5589C48.1996 22.1513 48.2741 21.7022 48.2741 21.2116C48.2741 20.7244 48.1996 20.277 48.0504 19.8693C47.9046 19.4583 47.6792 19.1286 47.3743 18.88C47.0694 18.6314 46.6849 18.5071 46.2209 18.5071C45.7536 18.5071 45.3658 18.6314 45.0575 18.88C44.7526 19.1286 44.5256 19.4583 44.3764 19.8693C44.2306 20.277 44.1577 20.7244 44.1577 21.2116C44.1577 21.7022 44.2306 22.1513 44.3764 22.5589C44.5256 22.9666 44.7526 23.2931 45.0575 23.5384C45.3658 23.7836 45.7536 23.9062 46.2209 23.9062ZM54.7891 17.3636V18.5568H50.4737V17.3636H54.7891ZM51.657 25V16.4787C51.657 16.0014 51.7614 15.6053 51.9702 15.2905C52.179 14.9723 52.4557 14.7353 52.8004 14.5795C53.1451 14.4205 53.5197 14.3409 53.924 14.3409C54.2223 14.3409 54.4775 14.3658 54.6896 14.4155C54.9018 14.4619 55.0592 14.505 55.1619 14.5447L54.8139 15.7479C54.7443 15.728 54.6548 15.7048 54.5455 15.6783C54.4361 15.6484 54.3035 15.6335 54.1477 15.6335C53.7865 15.6335 53.5279 15.723 53.3722 15.902C53.2197 16.081 53.1435 16.3395 53.1435 16.6776V25H51.657ZM59.677 17.3636V18.5568H55.3617V17.3636H59.677ZM56.5449 25V16.4787C56.5449 16.0014 56.6493 15.6053 56.8581 15.2905C57.067 14.9723 57.3437 14.7353 57.6884 14.5795C58.0331 14.4205 58.4076 14.3409 58.812 14.3409C59.1103 14.3409 59.3655 14.3658 59.5776 14.4155C59.7897 14.4619 59.9472 14.505 60.0499 14.5447L59.7019 15.7479C59.6323 15.728 59.5428 15.7048 59.4334 15.6783C59.3241 15.6484 59.1915 15.6335 59.0357 15.6335C58.6744 15.6335 58.4159 15.723 58.2601 15.902C58.1077 16.081 58.0314 16.3395 58.0314 16.6776V25H56.5449ZM63.9212 25.1541C63.1688 25.1541 62.5209 24.9934 61.9773 24.6719C61.437 24.3471 61.0194 23.8913 60.7245 23.3047C60.4328 22.7147 60.287 22.0237 60.287 21.2315C60.287 20.4493 60.4328 19.7599 60.7245 19.1634C61.0194 18.5668 61.4304 18.1011 61.9574 17.7663C62.4877 17.4316 63.1075 17.2642 63.8168 17.2642C64.2477 17.2642 64.6653 17.3355 65.0696 17.478C65.474 17.6205 65.8369 17.8442 66.1584 18.1491C66.4799 18.4541 66.7334 18.8501 66.9191 19.3374C67.1047 19.8213 67.1975 20.4096 67.1975 21.1023V21.6293H61.1272V20.5156H65.7408C65.7408 20.1245 65.6612 19.7782 65.5022 19.4766C65.3431 19.1716 65.1193 18.9313 64.831 18.7557C64.5459 18.58 64.2112 18.4922 63.8267 18.4922C63.4091 18.4922 63.0445 18.5949 62.733 18.8004C62.4247 19.0026 62.1861 19.2678 62.0171 19.5959C61.8513 19.9207 61.7685 20.2737 61.7685 20.6548V21.5249C61.7685 22.0353 61.858 22.4695 62.037 22.8274C62.2192 23.1854 62.4728 23.4588 62.7976 23.6477C63.1224 23.8333 63.5019 23.9261 63.9361 23.9261C64.2178 23.9261 64.4747 23.8864 64.7067 23.8068C64.9387 23.724 65.1392 23.6013 65.3083 23.4389C65.4773 23.2765 65.6066 23.076 65.696 22.8374L67.103 23.0909C66.9903 23.5052 66.7881 23.8681 66.4965 24.1797C66.2081 24.4879 65.8452 24.7282 65.4077 24.9006C64.9735 25.0696 64.478 25.1541 63.9212 25.1541ZM68.5668 25V17.3636H70.0036V18.5767H70.0831C70.2223 18.1657 70.4676 17.8426 70.8189 17.6072C71.1736 17.3686 71.5746 17.2493 72.022 17.2493C72.1148 17.2493 72.2242 17.2526 72.3502 17.2592C72.4794 17.2659 72.5805 17.2741 72.6534 17.2841V18.706C72.5938 18.6894 72.4877 18.6712 72.3353 18.6513C72.1828 18.6281 72.0303 18.6165 71.8779 18.6165C71.5265 18.6165 71.2133 18.6911 70.9382 18.8402C70.6665 18.986 70.451 19.1899 70.2919 19.4517C70.1328 19.7102 70.0533 20.0052 70.0533 20.3366V25H68.5668ZM79.3821 19.228L78.0348 19.4666C77.9785 19.2943 77.889 19.1302 77.7664 18.9744C77.6471 18.8187 77.4846 18.6911 77.2792 18.5916C77.0737 18.4922 76.8168 18.4425 76.5086 18.4425C76.0876 18.4425 75.7363 18.5369 75.4546 18.7259C75.1729 18.9115 75.032 19.1518 75.032 19.4467C75.032 19.7019 75.1265 19.9074 75.3154 20.0632C75.5043 20.219 75.8092 20.3466 76.2301 20.446L77.4432 20.7244C78.1459 20.8868 78.6695 21.1371 79.0142 21.4751C79.3589 21.8132 79.5313 22.2524 79.5313 22.7926C79.5313 23.25 79.3987 23.6577 79.1336 24.0156C78.8717 24.3703 78.5055 24.6487 78.0348 24.8509C77.5675 25.053 77.0256 25.1541 76.4091 25.1541C75.554 25.1541 74.8563 24.9718 74.3161 24.6072C73.7758 24.2393 73.4444 23.7173 73.3218 23.0412L74.7586 22.8224C74.848 23.197 75.032 23.4804 75.3104 23.6726C75.5888 23.8615 75.9517 23.956 76.3992 23.956C76.8864 23.956 77.2758 23.8549 77.5675 23.6527C77.8592 23.4472 78.005 23.197 78.005 22.902C78.005 22.6634 77.9155 22.4628 77.7365 22.3004C77.5609 22.138 77.2908 22.0154 76.9262 21.9325L75.6336 21.6491C74.921 21.4867 74.394 21.2282 74.0526 20.8736C73.7145 20.5189 73.5455 20.0698 73.5455 19.5263C73.5455 19.0755 73.6714 18.6811 73.9233 18.343C74.1752 18.005 74.5232 17.7415 74.9674 17.5526C75.4115 17.3603 75.9203 17.2642 76.4936 17.2642C77.3189 17.2642 77.9685 17.4432 78.4425 17.8011C78.9165 18.1558 79.2297 18.6314 79.3821 19.228Z" fill="#898989"/>
</svg>
