<svg width="324" height="196" viewBox="0 0 324 196" fill="none" xmlns="http://www.w3.org/2000/svg">
<g filter="url(#filter0_d_2638_1630)">
<g clip-path="url(#clip0_2638_1630)">
<rect x="12" y="12" width="300" height="172" rx="16" fill="url(#paint0_linear_2638_1630)"/>
<g opacity="0.5">
<path d="M435.674 9.85889C435.674 9.85889 435.72 10.8011 435.807 12.5687C435.865 14.3364 435.96 16.9338 435.895 20.2399C435.836 23.5455 435.678 27.5647 435.15 32.1589C434.878 34.4554 434.511 36.8958 433.904 39.4411C433.59 40.7113 433.233 42.0106 432.738 43.3098C432.275 44.6162 431.656 45.9214 430.858 47.1821C430.068 48.4346 428.99 49.6634 427.488 50.4333C427.13 50.6435 426.704 50.7412 426.309 50.894C425.906 51.0349 425.468 51.0391 425.045 51.1113C424.581 51.1688 424.281 51.1463 423.864 51.1522C423.476 51.1463 423.088 51.1409 422.696 51.135C419.615 51.0485 416.467 50.8377 413.226 50.6222C406.748 50.1745 399.93 49.6522 392.883 49.0416C385.836 48.4488 378.554 47.8359 371.155 47.2135C363.759 46.5864 356.244 45.977 348.727 45.4316C341.212 44.8602 333.695 44.3426 326.295 43.9766C318.902 43.648 311.603 43.311 304.621 43.6059C302.882 43.6918 301.157 43.8144 299.513 44.0708C298.699 44.2064 297.895 44.3675 297.189 44.6044L296.705 44.7968L296.134 45.0692L294.983 45.6247C291.924 47.1028 288.942 48.5762 286.051 50.03C280.267 52.9388 274.848 55.7837 269.9 58.5066C264.96 61.2431 260.462 63.8078 256.552 66.2044C252.64 68.5986 249.319 70.8312 246.691 72.8115C244.065 74.7923 242.11 76.4961 240.915 77.7947C240.333 78.4544 239.879 78.9607 239.627 79.3415C239.358 79.7099 239.219 79.9006 239.219 79.9006C239.219 79.9006 239.347 79.7028 239.597 79.3208C239.83 78.9246 240.255 78.394 240.806 77.6976C241.945 76.3362 243.795 74.4856 246.369 72.4005C248.932 70.3024 252.179 67.9241 256.012 65.3623C259.837 62.7893 264.248 60.0303 269.155 57.1901C274.054 54.3358 279.42 51.3482 285.149 48.2895C288.013 46.7599 290.967 45.2096 294 43.6503L295.14 43.0653L295.722 42.7709L296.428 42.4683C297.351 42.145 298.245 41.9632 299.141 41.8003C300.928 41.4995 302.706 41.3538 304.497 41.2425C311.65 40.8718 318.979 41.056 326.42 41.384C333.856 41.7222 341.397 42.2054 348.928 42.7532C356.459 43.3305 363.981 43.9725 371.382 44.631C378.783 45.2794 386.057 46.0167 393.097 46.6906C400.134 47.3793 406.935 48.0456 413.384 48.6768C416.606 48.9706 419.747 49.2566 422.762 49.4147C423.133 49.4289 423.504 49.4437 423.872 49.4585C424.209 49.4627 424.667 49.4899 424.946 49.4473C425.257 49.3922 425.586 49.4141 425.885 49.3111C426.18 49.1944 426.497 49.1476 426.775 48.9889C427.922 48.4417 428.875 47.4575 429.607 46.346C431.108 44.1223 431.951 41.5427 432.659 39.1177C433.349 36.669 433.808 34.279 434.167 32.0227C434.87 27.5037 435.187 23.5094 435.377 20.221C435.744 13.6376 435.674 9.85889 435.674 9.85889Z" fill="white"/>
<path d="M239.218 79.9011C240.056 80.9872 240.835 82.1165 241.587 83.2648C242.321 84.4237 243.045 85.5938 243.701 86.8054C244.361 88.0147 244.995 89.2488 245.542 90.5333C245.815 91.1758 246.074 91.829 246.305 92.5011C246.433 92.8304 246.526 93.1804 246.631 93.525C246.74 93.8661 246.837 94.2167 246.905 94.5856L247.013 95.1316C247.065 95.3993 247.06 95.4976 247.086 95.6889L247.199 96.7027L247.426 98.7327C247.493 99.412 247.6 100.078 247.616 100.776L247.717 102.848C247.786 104.232 247.858 105.616 247.878 106.979C247.891 108.347 247.904 109.715 247.891 111.091L247.873 113.024L246.1 112.301C244.202 111.528 242.373 110.672 240.545 109.781C239.635 109.332 238.72 108.895 237.829 108.403C236.93 107.929 236.045 107.427 235.157 106.933C234.274 106.424 233.406 105.896 232.55 105.337C231.686 104.8 230.847 104.208 230.023 103.608L228.814 102.659C228.409 102.347 228.045 101.973 227.663 101.635C227.276 101.305 226.947 100.89 226.604 100.516C226.256 100.142 226.015 99.666 225.728 99.2609C226.112 99.6038 226.426 99.9864 226.845 100.269C227.265 100.55 227.622 100.885 228.064 101.13C228.902 101.667 229.77 102.154 230.641 102.633C231.538 103.075 232.41 103.548 233.316 103.971C234.205 104.418 235.134 104.8 236.029 105.234C237.847 106.062 239.694 106.826 241.528 107.618L244.301 108.756L247.069 109.872L245.279 111.083C245.268 109.736 245.231 108.382 245.194 107.028C245.193 105.668 245.149 104.332 245.105 102.995C245.059 101.656 245.043 100.327 244.947 98.9583L244.828 96.9188L244.77 95.8985C244.757 95.7522 244.755 95.5065 244.735 95.4413L244.667 94.9818C244.635 94.6756 244.583 94.3635 244.51 94.0479C244.444 93.7329 244.391 93.4178 244.298 93.1022C244.141 92.4686 243.954 91.8361 243.748 91.2042C243.323 89.9458 242.901 88.6685 242.39 87.419C241.886 86.1677 241.396 84.901 240.847 83.658C240.315 82.4073 239.773 81.1542 239.218 79.9011Z" fill="white"/>
<path d="M224.269 99.3432C223.186 99.1123 222.056 99.4457 221.178 100.051C220.31 100.683 219.588 101.522 219.114 102.496C218.108 104.411 217.596 106.554 217.274 108.7C217.12 109.776 217.05 110.867 216.942 111.949L216.845 115.219L216.927 118.494C216.939 118.758 216.929 119.058 216.959 119.293C217.017 119.539 217.041 119.732 217.133 119.977L217.398 120.69L217.764 121.376C217.981 121.845 218.308 122.261 218.619 122.686L219.081 123.323L219.628 123.902C219.996 124.284 220.348 124.68 220.725 125.054L221.949 126.091C222.73 126.821 223.652 127.39 224.537 128.001C224.986 128.298 225.415 128.622 225.879 128.896L227.3 129.681C231.045 131.848 235.144 133.384 239.23 134.854C241.292 135.552 243.401 136.123 245.483 136.765C246.518 137.1 247.584 137.342 248.647 137.597L251.83 138.364L255.013 139.126L258.23 139.762C260.374 140.179 262.512 140.629 264.664 141.018L271.149 142.024C273.31 142.363 275.469 142.715 277.649 142.938L284.168 143.735L287.427 144.133L290.689 144.434L297.253 145.029L300.535 145.325L303.81 145.524C308.175 145.784 312.531 146.146 316.912 146.242L323.477 146.474L330.044 146.522C334.423 146.606 338.799 146.451 343.176 146.382C345.364 146.315 347.548 146.181 349.734 146.084C350.828 146.027 351.921 145.987 353.013 145.915L356.286 145.662C360.655 145.387 365.01 144.943 369.356 144.434C373.698 143.892 378.034 143.277 382.329 142.453C386.621 141.656 390.92 140.696 395.058 139.451L394.797 139.629C395.147 139.222 395.513 138.76 395.844 138.296C396.186 137.835 396.498 137.35 396.816 136.87C397.433 135.894 398 134.886 398.516 133.851C398.758 133.325 399.021 132.808 399.247 132.275L399.899 130.663L400.453 129.013C400.648 128.465 400.759 127.894 400.916 127.335L401.137 126.492L401.295 125.635C401.39 125.063 401.527 124.493 401.591 123.915L401.774 122.177C401.858 121.599 401.824 121.015 401.856 120.432C401.858 119.85 401.926 119.263 401.871 118.681L401.772 116.929C401.76 116.341 401.648 115.766 401.568 115.185L401.31 113.443L401.662 115.169C401.774 115.747 401.919 116.319 401.961 116.908L402.158 118.665C402.244 119.251 402.208 119.843 402.239 120.433C402.241 121.023 402.298 121.617 402.236 122.205L402.122 123.977C402.081 124.567 401.967 125.15 401.892 125.738L401.766 126.618L401.578 127.487C401.44 128.064 401.35 128.654 401.172 129.221L400.675 130.933L400.073 132.612C399.862 133.167 399.616 133.71 399.388 134.26C398.9 135.348 398.357 136.41 397.76 137.445C397.452 137.956 397.148 138.471 396.809 138.968C396.478 139.473 396.135 139.95 395.739 140.448L395.642 140.567L395.476 140.625C391.252 142.092 386.968 143.099 382.648 144.032C378.333 144.971 373.979 145.699 369.615 146.352C365.248 146.975 360.868 147.53 356.473 147.917L353.178 148.216C352.078 148.303 350.976 148.356 349.877 148.429C347.674 148.555 345.474 148.716 343.271 148.812C338.863 148.928 334.455 149.169 330.044 149.101L323.429 149.082L316.819 148.874C312.412 148.792 308.004 148.462 303.596 148.195L300.292 147.98L297.01 147.671L290.449 147.048L287.148 146.73L283.867 146.316L277.305 145.485C275.115 145.231 272.94 144.849 270.765 144.48L264.237 143.382C262.069 142.962 259.912 142.48 257.749 142.031L254.508 141.347C253.433 141.093 252.368 140.785 251.298 140.506L248.094 139.649C247.025 139.365 245.954 139.094 244.907 138.726C242.805 138.023 240.684 137.391 238.603 136.629C234.469 135.026 230.336 133.36 226.516 131.028L225.072 130.181C224.599 129.885 224.156 129.537 223.696 129.216C222.789 128.556 221.853 127.944 221.038 127.151L219.778 126.024C219.382 125.619 219.021 125.175 218.645 124.75L218.087 124.107L217.608 123.392C217.289 122.915 216.956 122.45 216.727 121.909L216.35 121.124L216.075 120.281C215.983 120.008 215.938 119.651 215.893 119.359C215.87 119.048 215.894 118.797 215.892 118.512L215.943 115.196L216.175 111.883C216.329 110.784 216.445 109.683 216.646 108.591C217.069 106.422 217.656 104.237 218.807 102.314C219.348 101.339 220.15 100.5 221.082 99.8975C222.026 99.3231 223.2 99.0525 224.269 99.3432Z" fill="white"/>
<path d="M215.885 125.051C214.909 127.103 214.164 129.256 213.573 131.439C212.99 133.623 212.555 135.849 212.385 138.093C212.195 140.334 212.279 142.59 212.64 144.788C213.036 146.978 213.716 149.114 214.762 151.056C215.828 152.984 217.109 154.821 218.869 156.081C220.57 157.358 222.587 158.437 224.614 159.356C228.69 161.22 232.976 162.67 237.297 163.972C241.619 165.282 246.019 166.349 250.426 167.366C254.833 168.388 259.27 169.29 263.724 170.109C265.947 170.536 268.186 170.886 270.416 171.277L277.126 172.335C281.608 172.998 286.098 173.607 290.599 174.144C295.098 174.683 299.608 175.132 304.118 175.577L310.891 176.179L317.671 176.692L324.458 177.111L331.249 177.461C335.778 177.667 340.31 177.853 344.844 177.941C347.112 178 349.379 178.05 351.646 178.062C353.913 178.086 356.182 178.155 358.45 178.144L365.255 178.148L372.06 178.052C374.329 178.03 376.596 177.933 378.865 177.876C381.134 177.824 383.4 177.731 385.667 177.623C390.203 177.443 394.737 177.21 399.273 176.966L399.166 176.988C400.683 176.497 402.197 175.923 403.686 175.313C405.175 174.7 406.649 174.045 408.082 173.312C408.445 173.135 408.798 172.945 409.152 172.752C409.504 172.557 409.866 172.377 410.21 172.169C410.912 171.772 411.602 171.356 412.271 170.908C412.616 170.698 412.935 170.453 413.262 170.216C413.587 169.978 413.918 169.747 414.22 169.479C414.522 169.214 414.847 168.971 415.134 168.685L415.988 167.825L415.18 168.732C414.909 169.034 414.597 169.294 414.306 169.579C414.017 169.866 413.698 170.117 413.384 170.374C413.068 170.631 412.758 170.894 412.424 171.126C411.773 171.615 411.101 172.072 410.416 172.511C410.08 172.742 409.721 172.935 409.374 173.147C409.026 173.356 408.676 173.564 408.317 173.756C406.901 174.557 405.442 175.277 403.965 175.957C402.483 176.633 400.993 177.271 399.452 177.841L399.409 177.857L399.345 177.863C394.816 178.274 390.288 178.755 385.746 179.032C383.477 179.198 381.206 179.347 378.933 179.457C376.66 179.571 374.389 179.725 372.115 179.804L365.291 180.069L358.464 180.236C353.911 180.318 349.357 180.372 344.804 180.294C340.25 180.263 335.697 180.134 331.144 179.986C326.591 179.84 322.043 179.571 317.496 179.302L310.68 178.814L303.87 178.239C299.332 177.83 294.803 177.321 290.278 176.771C285.756 176.212 281.242 175.58 276.734 174.894C272.23 174.191 267.74 173.394 263.265 172.513C258.791 171.631 254.331 170.665 249.897 169.576C245.474 168.448 241.063 167.256 236.719 165.823C232.375 164.396 228.065 162.822 223.922 160.801C221.843 159.787 219.841 158.676 217.944 157.176C217.475 156.79 216.97 156.415 216.618 155.987L216.039 155.364L215.966 155.284L215.93 155.246C215.926 155.244 215.834 155.136 215.858 155.16L215.73 154.981L215.473 154.623C214.773 153.681 214.205 152.649 213.681 151.604C212.655 149.496 212.033 147.221 211.714 144.928C211.432 142.628 211.442 140.306 211.728 138.027C212.291 133.469 213.748 129.062 215.885 125.051Z" fill="white"/>
<path d="M298.502 43.0853C298.502 43.0853 299.057 42.444 300.097 41.2419C301.144 40.0462 302.665 38.2768 304.66 36.0786C306.647 33.875 309.076 31.2114 311.897 28.1865C314.72 25.1639 317.93 21.7737 321.562 18.1951C325.21 14.6295 329.14 10.7501 333.877 7.16025C335.091 6.28322 336.297 5.38901 337.832 4.70444C338.555 4.43796 339.281 4.16969 340.013 3.90025C340.692 3.61363 341.271 3.28852 341.929 2.96992C343.269 2.24864 344.661 1.5392 346.093 0.841599C346.812 0.505829 347.552 0.197886 348.286 -0.127818L349.396 -0.605709L350.534 -1.02261C356.613 -3.29425 363.158 -4.66753 369.823 -5.6251C371.494 -5.81223 373.173 -6.00055 374.856 -6.19005C375.698 -6.28006 376.541 -6.38724 377.385 -6.46423L379.925 -6.63241C381.619 -6.74492 383.319 -6.85744 385.018 -6.97055C386.718 -7.10853 388.421 -7.08602 390.124 -7.15176C393.529 -7.224 396.935 -7.34008 400.323 -7.24414C402.018 -7.22164 403.708 -7.19795 405.394 -7.17545C407.081 -7.14939 408.763 -7.1488 410.433 -7.05227C413.776 -6.89593 417.091 -6.74018 420.367 -6.58622C422.006 -6.52285 423.63 -6.39553 425.242 -6.26762C426.855 -6.14385 428.456 -6.02127 430.042 -5.89987C433.215 -5.63635 436.343 -5.46284 439.389 -5.13714C442.436 -4.81558 445.417 -4.50054 448.318 -4.19438C449.769 -4.041 451.199 -3.88999 452.608 -3.74076C454.025 -3.57021 455.381 -3.50329 456.813 -3.21904C459.573 -2.6991 462.157 -1.93399 464.579 -1.04038C469.427 0.737961 473.587 3.09013 476.893 5.64957C478.515 6.96719 480.037 8.19657 481.266 9.52307C482.587 10.756 483.587 12.0849 484.539 13.2325C485.035 13.7922 485.417 14.3873 485.782 14.9434C486.145 15.4988 486.486 16.0194 486.803 16.5038C487.477 17.446 487.855 18.3644 488.237 19.062C488.964 20.4762 489.351 21.2312 489.351 21.2312C489.351 21.2312 488.919 20.5017 488.109 19.1331C487.358 17.7361 485.991 15.8405 484.133 13.5618C483.141 12.471 482.105 11.2102 480.751 10.0572C479.489 8.81127 477.941 7.67308 476.304 6.4585C472.961 4.10929 468.816 2.0088 464.069 0.415811C461.697 -0.374761 459.16 -1.03564 456.516 -1.44543C455.249 -1.65566 453.813 -1.7137 452.416 -1.84457C451.008 -1.96064 449.577 -2.0779 448.127 -2.19692C445.228 -2.43558 442.249 -2.68015 439.205 -2.93064C436.16 -3.17107 433.045 -3.32978 429.88 -3.53882C428.297 -3.63771 426.701 -3.73779 425.094 -3.83846C423.486 -3.94328 421.868 -4.04751 420.238 -4.08719C416.977 -4.20977 413.679 -4.33354 410.353 -4.45789C408.691 -4.54672 407.022 -4.53902 405.348 -4.55738C403.674 -4.57219 401.995 -4.58699 400.313 -4.60239C396.947 -4.68411 393.577 -4.54791 390.204 -4.46678C388.519 -4.40933 386.827 -4.44131 385.15 -4.31103C383.471 -4.2074 381.794 -4.10376 380.119 -4.00072L377.61 -3.84557C376.777 -3.77392 375.949 -3.67207 375.121 -3.58679C373.464 -3.40913 371.812 -3.23147 370.167 -3.055C363.631 -2.12763 357.223 -0.929045 351.357 1.19099L350.256 1.57591L349.184 2.02005C348.475 2.32325 347.762 2.60691 347.063 2.92196C345.681 3.5781 344.302 4.23957 342.93 4.93598C342.208 5.26997 341.436 5.65609 340.716 5.93501C340.022 6.17188 339.332 6.40758 338.646 6.64208C337.429 7.14307 336.208 7.97569 335.051 8.7787C332.728 10.4327 330.571 12.2507 328.506 14.0249C326.442 15.8056 324.487 17.5804 322.627 19.3042C315.211 26.2287 309.201 32.2104 305.04 36.4351C300.878 40.6674 298.502 43.0853 298.502 43.0853Z" fill="white"/>
<path d="M306.898 42.3322C306.898 42.3322 307.252 41.8981 307.917 41.0827C308.587 40.2726 309.55 39.0675 310.826 37.5769C313.378 34.5971 316.981 30.2978 321.505 25.3133C323.763 22.8178 326.234 20.1323 328.932 17.3638C331.644 14.6042 334.479 11.6853 337.817 8.95412C338.687 8.28318 339.509 7.60038 340.617 7.01056C340.749 6.93476 340.931 6.86844 341.087 6.79974L341.332 6.69967L341.454 6.65051C341.398 6.66236 341.603 6.60847 341.599 6.60965L341.648 6.60018L342.436 6.43969C342.956 6.32658 343.489 6.22533 344.065 6.16611C346.357 5.84336 348.51 5.68111 350.734 5.50759C355.157 5.21565 359.647 4.97521 364.136 4.84197C366.382 4.76676 368.628 4.73183 370.864 4.7034C373.1 4.66017 375.329 4.65011 377.539 4.65129C378.645 4.64951 379.745 4.64714 380.841 4.64478C381.936 4.66373 383.026 4.68327 384.11 4.70222C386.277 4.74604 388.416 4.76676 390.52 4.85085C392.625 4.93198 394.695 4.96574 396.719 5.08122C398.742 5.19669 400.722 5.3098 402.65 5.41994C406.502 5.70064 410.143 5.94878 413.494 6.35146C415.168 6.54393 416.776 6.68308 418.299 6.89805C419.818 7.12486 421.26 7.34041 422.616 7.54235C423.972 7.72474 425.233 7.96458 426.397 8.19316C427.56 8.41464 428.63 8.61895 429.595 8.80312C431.521 9.19101 433.003 9.65646 434.024 9.89926C435.04 10.1646 435.582 10.3061 435.582 10.3061C435.582 10.3061 435.029 10.2143 433.99 10.042C432.951 9.88149 431.44 9.5925 429.503 9.31891C428.532 9.20107 427.457 9.07079 426.286 8.92807C425.117 8.77943 423.854 8.62605 422.491 8.53545C421.135 8.4253 419.691 8.30864 418.167 8.18606C416.643 8.0919 415.04 7.993 413.367 7.88996C411.695 7.78041 409.953 7.68685 408.146 7.63888C406.339 7.58025 404.475 7.47247 402.555 7.42451C398.714 7.32916 394.666 7.25396 390.475 7.21783C386.286 7.1752 381.954 7.20658 377.554 7.24625C375.354 7.26106 373.137 7.28593 370.911 7.34515C368.686 7.38779 366.451 7.44227 364.219 7.52636C359.752 7.62703 355.29 7.83548 350.91 8.09367C348.736 8.25593 346.522 8.39391 344.526 8.61835C344.022 8.65211 343.496 8.73857 342.963 8.84398L342.172 8.98729L342.122 8.99617C342.085 9.00387 342.259 8.96124 342.172 8.98552L342.108 9.01335L341.982 9.06546C341.895 9.10454 341.819 9.11757 341.719 9.17383C340.927 9.56526 340.081 10.2102 339.281 10.8065C336.073 13.3476 333.114 16.1427 330.341 18.7809C327.584 21.4481 324.992 23.9975 322.62 26.3716C317.888 31.1339 313.933 35.1022 311.212 37.9263C308.466 40.7303 306.898 42.3322 306.898 42.3322Z" fill="white"/>
</g>
</g>
</g>
<defs>
<filter id="filter0_d_2638_1630" x="0" y="0" width="324" height="196" filterUnits="userSpaceOnUse" color-interpolation-filters="sRGB">
<feFlood flood-opacity="0" result="BackgroundImageFix"/>
<feColorMatrix in="SourceAlpha" type="matrix" values="0 0 0 0 0 0 0 0 0 0 0 0 0 0 0 0 0 0 127 0" result="hardAlpha"/>
<feOffset/>
<feGaussianBlur stdDeviation="6"/>
<feComposite in2="hardAlpha" operator="out"/>
<feColorMatrix type="matrix" values="0 0 0 0 0 0 0 0 0 0 0 0 0 0 0 0 0 0 0.1 0"/>
<feBlend mode="normal" in2="BackgroundImageFix" result="effect1_dropShadow_2638_1630"/>
<feBlend mode="normal" in="SourceGraphic" in2="effect1_dropShadow_2638_1630" result="shape"/>
</filter>
<linearGradient id="paint0_linear_2638_1630" x1="311.653" y1="19.2441" x2="14.2357" y2="173.126" gradientUnits="userSpaceOnUse">
<stop stop-color="#FFD300"/>
<stop offset="1" stop-color="#F7BB0D"/>
</linearGradient>
<clipPath id="clip0_2638_1630">
<rect x="12" y="12" width="300" height="172" rx="16" fill="white"/>
</clipPath>
</defs>
</svg>
