<svg width="44" height="40" viewBox="0 0 44 40" fill="none" xmlns="http://www.w3.org/2000/svg">
<path d="M15.1619 20.025C15.6094 17.785 15.8335 16.6667 16.5727 15.945C16.7093 15.812 16.8571 15.691 17.0144 15.5833C17.8669 15 19.0085 15 21.2919 15H22.711C24.9935 15 26.1344 15 26.986 15.5833C27.1444 15.6922 27.2916 15.8131 27.4277 15.9458C28.1669 16.6667 28.3919 17.7858 28.8394 20.025C29.4819 23.2383 29.8035 24.845 29.0635 25.9833C28.9296 26.1906 28.7741 26.3803 28.5969 26.5525C27.6252 27.5 25.9877 27.5 22.711 27.5H21.2919C18.0144 27.5 16.376 27.5 15.4044 26.5517C15.2286 26.3797 15.0723 26.1888 14.9385 25.9825C14.1985 24.8442 14.5202 23.2375 15.1635 20.0242L15.1619 20.025Z" stroke="#898989" stroke-width="1.25"/>
<path d="M24.5003 18.3333C24.9606 18.3333 25.3337 17.9602 25.3337 17.5C25.3337 17.0397 24.9606 16.6666 24.5003 16.6666C24.0401 16.6666 23.667 17.0397 23.667 17.5C23.667 17.9602 24.0401 18.3333 24.5003 18.3333Z" fill="#898989"/>
<path d="M19.5003 18.3333C19.9606 18.3333 20.3337 17.9602 20.3337 17.5C20.3337 17.0397 19.9606 16.6666 19.5003 16.6666C19.0401 16.6666 18.667 17.0397 18.667 17.5C18.667 17.9602 19.0401 18.3333 19.5003 18.3333Z" fill="#898989"/>
<path d="M19.5 15V14.1666C19.5 13.5036 19.7634 12.8677 20.2322 12.3989C20.7011 11.93 21.337 11.6666 22 11.6666C22.663 11.6666 23.2989 11.93 23.7678 12.3989C24.2366 12.8677 24.5 13.5036 24.5 14.1666V15" stroke="#898989" stroke-width="1.25" stroke-linecap="round"/>
</svg>
