<svg width="12" height="13" viewBox="0 0 12 13" fill="none" xmlns="http://www.w3.org/2000/svg">
<g clip-path="url(#clip0_2098_10455)">
<path d="M7.12011 2.61891C7.12011 2.51224 7.08677 2.42557 7.02011 2.35891C6.95344 2.29224 6.86677 2.25891 6.76011 2.25891H3.00011C2.89344 2.25891 2.80677 2.29224 2.74011 2.35891C2.67344 2.42557 2.64011 2.51224 2.64011 2.61891V5.61891C2.64011 5.72557 2.67344 5.81891 2.74011 5.89891C2.80677 5.97891 2.89344 6.01891 3.00011 6.01891H6.76011C6.86677 6.01891 6.95344 5.97891 7.02011 5.89891C7.08677 5.81891 7.12011 5.72557 7.12011 5.61891V2.61891ZM6.36011 5.25891H3.36011V3.01891H6.36011V5.25891ZM11.4401 3.01891L9.92011 2.29891C9.84011 2.24557 9.74677 2.23224 9.64011 2.25891C9.53344 2.28557 9.46011 2.34557 9.42011 2.43891C9.38011 2.53224 9.37344 2.63224 9.40011 2.73891C9.42677 2.84557 9.49344 2.91224 9.60011 2.93891L10.1601 3.25891L10.1201 3.37891C10.1201 3.61891 10.1934 3.83224 10.3401 4.01891C10.4868 4.20557 10.6668 4.33891 10.8801 4.41891V8.97891C10.8801 9.08557 10.8401 9.17891 10.7601 9.25891C10.6801 9.33891 10.5934 9.37891 10.5001 9.37891C10.4068 9.37891 10.3201 9.33891 10.2401 9.25891C10.1601 9.17891 10.1201 9.08557 10.1201 8.97891V5.97891C10.1201 5.55224 9.96677 5.16557 9.66011 4.81891C9.35344 4.47224 9.01344 4.25891 8.64011 4.17891V1.85891C8.64011 1.45891 8.49344 1.11224 8.20011 0.818907C7.90677 0.525573 7.56011 0.378906 7.16011 0.378906H2.64011C2.24011 0.378906 1.88677 0.525573 1.58011 0.818907C1.27344 1.11224 1.12011 1.45891 1.12011 1.85891V10.2589L0.600107 10.5389C0.440107 10.6189 0.360107 10.7256 0.360107 10.8589V11.9789C0.360107 12.0856 0.400107 12.1789 0.480107 12.2589C0.560107 12.3389 0.653441 12.3789 0.760107 12.3789H9.00011C9.10677 12.3789 9.19344 12.3389 9.26011 12.2589C9.32677 12.1789 9.36011 12.0856 9.36011 11.9789V10.8589C9.36011 10.7256 9.29344 10.6189 9.16011 10.5389L8.64011 10.2589V4.93891C8.82677 5.01891 8.99344 5.15891 9.14011 5.35891C9.28677 5.55891 9.36011 5.76557 9.36011 5.97891V8.97891C9.36011 9.29891 9.47344 9.57224 9.70011 9.79891C9.92677 10.0256 10.1934 10.1389 10.5001 10.1389C10.8068 10.1389 11.0734 10.0256 11.3001 9.79891C11.5268 9.57224 11.6401 9.29891 11.6401 8.97891V3.37891C11.6401 3.21891 11.5734 3.09891 11.4401 3.01891ZM8.64011 11.6189H1.12011V11.0989L1.68011 10.8189C1.81344 10.7656 1.88011 10.6589 1.88011 10.4989V1.85891C1.88011 1.67224 1.95344 1.50557 2.10011 1.35891C2.24677 1.21224 2.42677 1.13891 2.64011 1.13891H7.16011C7.34677 1.13891 7.51344 1.21224 7.66011 1.35891C7.80677 1.50557 7.88011 1.67224 7.88011 1.85891V10.4989C7.88011 10.6589 7.94677 10.7656 8.08011 10.8189L8.64011 11.0989V11.6189Z" fill="#1A1A1A"/>
</g>
<defs>
<clipPath id="clip0_2098_10455">
<rect width="12" height="12" fill="white" transform="matrix(1 0 0 -1 0 12.3789)"/>
</clipPath>
</defs>
</svg>
