<svg width="44" height="40" viewBox="0 0 44 40" fill="none" xmlns="http://www.w3.org/2000/svg">
<rect width="44" height="40" rx="8" fill="white"/>
<g clip-path="url(#clip0_2649_87)">
<path d="M13.3335 20C13.3335 17.7015 14.2466 15.4971 15.8719 13.8718C17.4972 12.2465 19.7016 11.3334 22.0002 11.3334C24.2987 11.3334 26.5031 12.2465 28.1284 13.8718C29.7537 15.4971 30.6668 17.7015 30.6668 20V25.5142C30.6668 26.4329 30.6668 26.89 30.5303 27.2573C30.4218 27.5483 30.252 27.8126 30.0323 28.0322C29.8127 28.2518 29.5484 28.4217 29.2574 28.5302C28.8902 28.6667 28.4319 28.6667 27.5143 28.6667H22.0002C19.7016 28.6667 17.4972 27.7536 15.8719 26.1283C14.2466 24.503 13.3335 22.2986 13.3335 20Z" stroke="#898989" stroke-width="1.25"/>
<path d="M21.5001 19.5L19.0001 17M18.5001 17.75L19.7501 16.5L18.2501 15.75L17.7501 16.25L18.5001 17.75ZM25.9876 18.4875C26.2276 18.2476 26.3928 17.9432 26.4629 17.6112C26.5331 17.2792 26.5051 16.9339 26.3826 16.6175L25.6716 17.3285H24.6716V16.3285L25.3826 15.6175C25.0661 15.4947 24.7208 15.4665 24.3886 15.5365C24.0565 15.6065 23.7518 15.7715 23.5118 16.0116C23.2718 16.2517 23.1068 16.5563 23.0369 16.8885C22.967 17.2207 22.9952 17.5661 23.1181 17.8825L19.8831 21.118C19.5667 20.9951 19.2213 20.9669 18.8891 21.0368C18.557 21.1067 18.2523 21.2717 18.0122 21.5117C17.7722 21.7517 17.6071 22.0563 17.5371 22.3885C17.4671 22.7207 17.4953 23.066 17.6181 23.3825L18.3286 22.6715H19.3286V23.6715L18.6176 24.3825C18.934 24.5053 19.2792 24.5335 19.6113 24.4636C19.9435 24.3937 20.2481 24.2287 20.4881 23.9888C20.7281 23.7489 20.8932 23.4443 20.9633 23.1123C21.0333 22.7802 21.0053 22.4349 20.8826 22.1185L24.1186 18.8825C24.4349 19.0048 24.7799 19.0326 25.1117 18.9625C25.4436 18.8924 25.7478 18.7273 25.9876 18.4875Z" stroke="#898989" stroke-width="0.8" stroke-linecap="round" stroke-linejoin="round"/>
<path d="M21.8984 21.2499L24.7004 24.0519C24.7631 24.1148 24.8376 24.1646 24.9196 24.1986C25.0016 24.2326 25.0894 24.2501 25.1782 24.2501C25.2669 24.2501 25.3548 24.2326 25.4368 24.1986C25.5188 24.1646 25.5932 24.1148 25.6559 24.0519L26.0519 23.6559C26.1148 23.5932 26.1646 23.5188 26.1986 23.4368C26.2326 23.3548 26.2501 23.2669 26.2501 23.1782C26.2501 23.0894 26.2326 23.0016 26.1986 22.9196C26.1646 22.8376 26.1148 22.7631 26.0519 22.7004L23.2499 19.8984" stroke="#898989" stroke-width="0.8" stroke-linecap="round" stroke-linejoin="round"/>
</g>
<defs>
<clipPath id="clip0_2649_87">
<rect width="20" height="20" fill="white" transform="translate(12 10)"/>
</clipPath>
</defs>
</svg>
