<svg width="58" height="22" viewBox="0 0 58 22" fill="none" xmlns="http://www.w3.org/2000/svg">
<rect width="58" height="22" rx="11" fill="#FFD300"/>
<path d="M12.8584 14.0645C12.4096 14.0645 12.0039 13.9877 11.6413 13.834C11.2847 13.6804 11.002 13.4591 10.793 13.1701C10.584 12.8812 10.4764 12.5401 10.4703 12.1467H11.8533C11.8718 12.411 11.964 12.62 12.13 12.7737C12.3021 12.9273 12.5357 13.0042 12.8307 13.0042C13.1319 13.0042 13.3686 12.9335 13.5407 12.7921C13.7128 12.6446 13.7989 12.454 13.7989 12.2204C13.7989 12.0299 13.7405 11.8731 13.6237 11.7502C13.5069 11.6272 13.3594 11.532 13.1811 11.4643C13.009 11.3906 12.7693 11.3107 12.4619 11.2246C12.0439 11.1017 11.7027 10.9818 11.4384 10.865C11.1802 10.7421 10.9559 10.5607 10.7653 10.321C10.5809 10.0751 10.4887 9.74931 10.4887 9.3436C10.4887 8.96248 10.584 8.63054 10.7745 8.34778C10.9651 8.06501 11.2325 7.84987 11.5767 7.70234C11.921 7.54866 12.3144 7.47182 12.757 7.47182C13.4208 7.47182 13.9587 7.63472 14.3706 7.96051C14.7886 8.28016 15.0191 8.7289 15.0621 9.30672H13.6421C13.6298 9.08543 13.5346 8.90409 13.3563 8.76271C13.1842 8.61518 12.9537 8.54141 12.6648 8.54141C12.4127 8.54141 12.2099 8.60596 12.0562 8.73504C11.9087 8.86413 11.8349 9.05162 11.8349 9.2975C11.8349 9.46962 11.8902 9.61407 12.0009 9.73087C12.1177 9.84151 12.259 9.93372 12.425 10.0075C12.5971 10.0751 12.8369 10.155 13.1442 10.2472C13.5622 10.3702 13.9034 10.4931 14.1677 10.616C14.432 10.739 14.6595 10.9234 14.85 11.1693C15.0406 11.4152 15.1359 11.7379 15.1359 12.1374C15.1359 12.4817 15.0467 12.8013 14.8685 13.0964C14.6902 13.3914 14.429 13.6281 14.0847 13.8064C13.7405 13.9785 13.3317 14.0645 12.8584 14.0645ZM17.5459 8.60596V10.2196H19.7127V11.243H17.5459V12.9489H19.9894V14H16.255V7.55481H19.9894V8.60596H17.5459ZM24.4819 14L23.0619 11.492H22.4533V14H21.1625V7.56403H23.5783C24.0762 7.56403 24.5003 7.65316 24.8507 7.83143C25.2011 8.00354 25.4623 8.24021 25.6344 8.54141C25.8127 8.83647 25.9018 9.16841 25.9018 9.53723C25.9018 9.96138 25.7789 10.3456 25.533 10.6898C25.2871 11.0279 24.9214 11.2615 24.4358 11.3906L25.9756 14H24.4819ZM22.4533 10.5238H23.5322C23.8825 10.5238 24.1438 10.4409 24.3159 10.2749C24.488 10.1028 24.5741 9.8661 24.5741 9.5649C24.5741 9.26984 24.488 9.0424 24.3159 8.88257C24.1438 8.7166 23.8825 8.63362 23.5322 8.63362H22.4533V10.5238ZM32.8507 7.56403L30.4902 14H28.9227L26.5623 7.56403H27.9454L29.7157 12.6815L31.4768 7.56403H32.8507ZM34.9155 7.56403V14H33.6247V7.56403H34.9155ZM35.8774 10.7728C35.8774 10.1396 36.0188 9.57412 36.3016 9.07621C36.5905 8.57215 36.9808 8.18181 37.4726 7.90519C37.9705 7.62243 38.5268 7.48104 39.1415 7.48104C39.8607 7.48104 40.4908 7.66546 41.0317 8.03428C41.5727 8.4031 41.9507 8.91331 42.1659 9.5649H40.6814C40.5338 9.25754 40.3248 9.02703 40.0544 8.87335C39.79 8.71968 39.4827 8.64284 39.1323 8.64284C38.7573 8.64284 38.4223 8.73197 38.1273 8.91023C37.8384 9.08235 37.6109 9.32823 37.4449 9.64788C37.2851 9.96753 37.2052 10.3425 37.2052 10.7728C37.2052 11.1969 37.2851 11.5719 37.4449 11.8977C37.6109 12.2174 37.8384 12.4663 38.1273 12.6446C38.4223 12.8167 38.7573 12.9027 39.1323 12.9027C39.4827 12.9027 39.79 12.8259 40.0544 12.6722C40.3248 12.5124 40.5338 12.2788 40.6814 11.9715H42.1659C41.9507 12.6292 41.5727 13.1425 41.0317 13.5113C40.497 13.874 39.8669 14.0553 39.1415 14.0553C38.5268 14.0553 37.9705 13.917 37.4726 13.6404C36.9808 13.3576 36.5905 12.9673 36.3016 12.4694C36.0188 11.9715 35.8774 11.4059 35.8774 10.7728ZM44.5593 8.60596V10.2196H46.7262V11.243H44.5593V12.9489H47.0028V14H43.2685V7.55481H47.0028V8.60596H44.5593Z" fill="#1A1A1A"/>
</svg>
