<svg width="18" height="18" viewBox="0 0 18 18" fill="none" xmlns="http://www.w3.org/2000/svg">
<g clip-path="url(#clip0_2888_2498)">
<path d="M12.15 0.750013C12.5925 0.750013 13.035 0.810013 13.47 0.922513C13.5975 0.960013 13.7025 1.05751 13.74 1.18501C13.7775 1.31251 13.74 1.45501 13.6425 1.54501L11.28 3.90751C11.1815 4.00542 11.1123 4.12901 11.0805 4.26425C11.0487 4.39948 11.0555 4.54093 11.1 4.67251L11.5275 5.96251C11.6025 6.18751 11.775 6.36001 12 6.43501L13.29 6.86251C13.365 6.88501 13.4475 6.90001 13.53 6.90001C13.725 6.90001 13.92 6.82501 14.0625 6.68251L16.425 4.32001C16.4943 4.24936 16.5886 4.20892 16.6875 4.20751C16.7175 4.20751 16.755 4.20751 16.785 4.22251C16.9125 4.26001 17.0175 4.35751 17.0475 4.48501C17.5125 6.25501 17.0325 8.07751 15.75 9.36001C15.2819 9.82966 14.7254 10.202 14.1127 10.4556C13.5 10.7092 12.8431 10.839 12.18 10.8375C11.775 10.8375 11.37 10.7925 10.9725 10.695C10.875 10.6725 10.785 10.6575 10.6875 10.6575C10.6125 10.6575 10.5375 10.665 10.47 10.68C10.395 10.695 10.2975 10.7325 10.2375 10.77C10.1775 10.8075 10.1175 10.845 10.0725 10.8975L4.35752 16.6125C3.95252 17.0175 3.42002 17.235 2.85002 17.235C2.28002 17.235 1.74002 17.0175 1.34252 16.6125C0.94279 16.2127 0.718231 15.6704 0.718231 15.105C0.718231 14.5396 0.94279 13.9974 1.34252 13.5975L7.05752 7.88251C7.11002 7.83001 7.14752 7.77751 7.18502 7.71751C7.22252 7.65001 7.26002 7.55251 7.27502 7.48501C7.31252 7.32751 7.30502 7.15501 7.26002 6.98251C7.08967 6.27183 7.07178 5.53311 7.20752 4.81501C7.40252 3.82501 7.88252 2.91751 8.59502 2.20501C9.06101 1.73717 9.61513 1.36637 10.2253 1.11405C10.8355 0.861728 11.4897 0.732899 12.15 0.735013M12.15 1.25326e-05C10.8057 -0.00278873 9.50265 0.46409 8.46601 1.31997C7.42936 2.17586 6.72425 3.36698 6.47252 4.68751C6.31502 5.51251 6.33752 6.36001 6.53252 7.17001C6.54752 7.24501 6.54752 7.29751 6.53252 7.33501C6.53252 7.35001 6.53252 7.35751 6.52502 7.36501L0.810024 13.08C0.269596 13.6214 -0.0339355 14.3551 -0.0339355 15.12C-0.0339355 15.885 0.269596 16.6186 0.810024 17.16C1.37252 17.7225 2.10752 18 2.85002 18C3.59252 18 4.32752 17.7225 4.89002 17.16L10.605 11.445C10.605 11.445 10.62 11.445 10.635 11.4375H10.695C10.725 11.4375 10.7625 11.4375 10.8 11.4525C11.25 11.565 11.715 11.6175 12.18 11.6175C13.665 11.6175 15.15 11.055 16.2825 9.91501C17.805 8.39251 18.2775 6.24001 17.775 4.32001C17.67 3.93001 17.37 3.62251 16.98 3.52501C16.8825 3.50251 16.785 3.48751 16.6875 3.48751C16.395 3.48751 16.1025 3.60001 15.8925 3.81751L13.53 6.18001L12.24 5.75251L11.8125 4.46251L14.175 2.10001C14.3154 1.96029 14.4163 1.78593 14.4675 1.59461C14.5187 1.4033 14.5184 1.20183 14.4667 1.01067C14.4149 0.819506 14.3134 0.645444 14.1726 0.506145C14.0319 0.366845 13.8567 0.267266 13.665 0.217513C13.17 0.0900125 12.66 0.0225125 12.1575 0.0225125L12.15 1.25326e-05Z" fill="#898989"/>
</g>
<defs>
<clipPath id="clip0_2888_2498">
<rect width="18" height="18" fill="white"/>
</clipPath>
</defs>
</svg>
