<svg width="88" height="40" viewBox="0 0 88 40" fill="none" xmlns="http://www.w3.org/2000/svg">
<g clip-path="url(#clip0_2570_7254)">
<path d="M13.3335 16.75H30.6668L29.7622 26.6961C29.7133 27.2344 29.465 27.735 29.0659 28.0996C28.6668 28.4642 28.1459 28.6665 27.6053 28.6667H16.395C15.8545 28.6665 15.3335 28.4642 14.9344 28.0996C14.5354 27.735 14.287 27.2344 14.2381 26.6961L13.3335 16.75Z" stroke="#898989" stroke-width="1.25" stroke-linejoin="round"/>
<path d="M17.667 18.9166V15.6666C17.667 14.5174 18.1235 13.4152 18.9362 12.6025C19.7489 11.7899 20.8511 11.3333 22.0003 11.3333C23.1496 11.3333 24.2518 11.7899 25.0645 12.6025C25.8771 13.4152 26.3337 14.5174 26.3337 15.6666V18.9166" stroke="#898989" stroke-width="1.25" stroke-linecap="round"/>
</g>
<path d="M48.6719 17.4929C48.6188 17.0223 48.4001 16.6577 48.0156 16.3991C47.6312 16.1373 47.1473 16.0064 46.5639 16.0064C46.1463 16.0064 45.785 16.0727 45.4801 16.2053C45.1752 16.3345 44.9382 16.5135 44.7692 16.7422C44.6035 16.9676 44.5206 17.2244 44.5206 17.5128C44.5206 17.7547 44.5769 17.9635 44.6896 18.1392C44.8056 18.3149 44.9564 18.4624 45.142 18.5817C45.331 18.6977 45.5331 18.7955 45.7486 18.875C45.964 18.9512 46.1712 19.0142 46.37 19.0639L47.3643 19.3224C47.6892 19.402 48.0223 19.5097 48.3636 19.6456C48.705 19.7815 49.0215 19.9605 49.3132 20.1825C49.6049 20.4046 49.8402 20.6797 50.0192 21.0078C50.2015 21.3359 50.2926 21.7287 50.2926 22.1861C50.2926 22.7628 50.1435 23.2749 49.8452 23.7223C49.5502 24.1697 49.121 24.5227 48.5575 24.7812C47.9974 25.0398 47.3196 25.169 46.5241 25.169C45.7618 25.169 45.1023 25.0481 44.5455 24.8061C43.9886 24.5642 43.5528 24.2211 43.2379 23.777C42.9231 23.3295 42.7491 22.7992 42.7159 22.1861H44.2571C44.2869 22.554 44.4063 22.8606 44.6151 23.1058C44.8272 23.3478 45.0973 23.5284 45.4254 23.6477C45.7569 23.7637 46.1198 23.8217 46.5142 23.8217C46.9484 23.8217 47.3345 23.7538 47.6726 23.6179C48.014 23.4787 48.2824 23.2865 48.478 23.0412C48.6735 22.7926 48.7713 22.5026 48.7713 22.1712C48.7713 21.8696 48.6851 21.6226 48.5128 21.4304C48.3438 21.2382 48.1134 21.0791 47.8217 20.9531C47.5334 20.8272 47.2069 20.7161 46.8423 20.62L45.6392 20.2919C44.8239 20.0698 44.1776 19.7434 43.7003 19.3125C43.2263 18.8816 42.9893 18.3116 42.9893 17.6023C42.9893 17.0156 43.1484 16.5036 43.4666 16.0661C43.7848 15.6286 44.2157 15.2888 44.7592 15.0469C45.3028 14.8016 45.916 14.679 46.5987 14.679C47.2881 14.679 47.8963 14.8 48.4233 15.0419C48.9536 15.2839 49.3712 15.617 49.6761 16.0412C49.9811 16.4621 50.1402 16.946 50.1534 17.4929H48.6719ZM53.2156 20.4659V25H51.7291V14.8182H53.1957V18.6065H53.2901C53.4691 18.1955 53.7426 17.8691 54.1104 17.6271C54.4783 17.3852 54.9589 17.2642 55.5522 17.2642C56.0759 17.2642 56.5333 17.3719 56.9244 17.5874C57.3188 17.8028 57.6237 18.1243 57.8391 18.5518C58.0579 18.9761 58.1673 19.5064 58.1673 20.1428V25H56.6808V20.3217C56.6808 19.7616 56.5366 19.3274 56.2482 19.0192C55.9599 18.7076 55.5588 18.5518 55.0451 18.5518C54.6938 18.5518 54.3789 18.6264 54.1005 18.7756C53.8254 18.9247 53.6083 19.1435 53.4492 19.4318C53.2934 19.7169 53.2156 20.0616 53.2156 20.4659ZM63.0876 25.1541C62.3716 25.1541 61.7469 24.9901 61.2133 24.6619C60.6796 24.3338 60.2653 23.8748 59.9704 23.2848C59.6754 22.6948 59.5279 22.0054 59.5279 21.2166C59.5279 20.4245 59.6754 19.7318 59.9704 19.1385C60.2653 18.5452 60.6796 18.0845 61.2133 17.7564C61.7469 17.4283 62.3716 17.2642 63.0876 17.2642C63.8035 17.2642 64.4282 17.4283 64.9618 17.7564C65.4955 18.0845 65.9098 18.5452 66.2047 19.1385C66.4997 19.7318 66.6472 20.4245 66.6472 21.2166C66.6472 22.0054 66.4997 22.6948 66.2047 23.2848C65.9098 23.8748 65.4955 24.3338 64.9618 24.6619C64.4282 24.9901 63.8035 25.1541 63.0876 25.1541ZM63.0925 23.9062C63.5565 23.9062 63.941 23.7836 64.2459 23.5384C64.5509 23.2931 64.7762 22.9666 64.9221 22.5589C65.0712 22.1513 65.1458 21.7022 65.1458 21.2116C65.1458 20.7244 65.0712 20.277 64.9221 19.8693C64.7762 19.4583 64.5509 19.1286 64.2459 18.88C63.941 18.6314 63.5565 18.5071 63.0925 18.5071C62.6252 18.5071 62.2374 18.6314 61.9292 18.88C61.6242 19.1286 61.3972 19.4583 61.2481 19.8693C61.1022 20.277 61.0293 20.7244 61.0293 21.2116C61.0293 21.7022 61.1022 22.1513 61.2481 22.5589C61.3972 22.9666 61.6242 23.2931 61.9292 23.5384C62.2374 23.7836 62.6252 23.9062 63.0925 23.9062ZM68.0265 27.8636V17.3636H69.4782V18.6016H69.6025C69.6886 18.4425 69.8129 18.2585 69.9753 18.0497C70.1377 17.8409 70.3631 17.6586 70.6515 17.5028C70.9398 17.3438 71.321 17.2642 71.7949 17.2642C72.4114 17.2642 72.9616 17.42 73.4455 17.7315C73.9294 18.0431 74.3089 18.4922 74.584 19.0788C74.8624 19.6655 75.0016 20.3714 75.0016 21.1967C75.0016 22.022 74.8641 22.7296 74.589 23.3196C74.3139 23.9062 73.936 24.3587 73.4555 24.6768C72.9749 24.9917 72.4263 25.1491 71.8099 25.1491C71.3458 25.1491 70.9663 25.0713 70.6714 24.9155C70.3797 24.7597 70.151 24.5774 69.9853 24.3686C69.8196 24.1598 69.692 23.9742 69.6025 23.8118H69.513V27.8636H68.0265ZM69.4832 21.1818C69.4832 21.7187 69.561 22.1894 69.7168 22.5938C69.8726 22.9981 70.098 23.3146 70.393 23.5433C70.6879 23.7687 71.0492 23.8814 71.4768 23.8814C71.9209 23.8814 72.2921 23.7637 72.5904 23.5284C72.8887 23.2898 73.1141 22.9666 73.2665 22.5589C73.4223 22.1513 73.5002 21.6922 73.5002 21.1818C73.5002 20.678 73.424 20.2256 73.2715 19.8246C73.1224 19.4235 72.897 19.107 72.5954 18.875C72.2971 18.643 71.9242 18.527 71.4768 18.527C71.0459 18.527 70.6813 18.638 70.383 18.8601C70.088 19.0821 69.8643 19.392 69.7118 19.7898C69.5594 20.1875 69.4832 20.6515 69.4832 21.1818Z" fill="#898989"/>
<defs>
<clipPath id="clip0_2570_7254">
<rect width="20" height="20" fill="white" transform="translate(12 10)"/>
</clipPath>
</defs>
</svg>
