<svg width="173" height="325" viewBox="0 0 173 325" fill="none" xmlns="http://www.w3.org/2000/svg">
<g clip-path="url(#clip0_2253_1843)">
<path d="M133.939 206.57L133.58 206.332L133.704 206.146L133.927 206.14C142.259 205.902 147.549 202.623 150.733 197.608C153.937 192.563 155.046 185.705 154.863 178.264C154.499 163.387 148.981 146.419 145.214 137.674C137.697 120.224 122.975 102.989 100.51 93.7032L100.675 93.3055L100.51 93.7032C89.9414 89.3346 73.4122 89.1032 57.7592 92.6823C42.1 96.2628 27.4641 103.623 20.5892 114.293L20.2275 114.06L20.5892 114.293C14.9759 123.006 9.23433 137.528 5.32678 153.843C1.42012 170.153 -0.642365 188.209 1.07094 203.982C2.78801 219.79 5.7552 231.803 8.29054 239.86C9.55823 243.888 10.718 246.927 11.5595 248.957C11.9803 249.972 12.3216 250.734 12.557 251.242C12.651 251.445 12.7282 251.607 12.7868 251.728L26.8521 249.945L27.4947 249.864L27.3208 250.487L26.9062 250.372C27.3208 250.487 27.3207 250.488 27.3206 250.488L27.3201 250.49L27.3178 250.498L27.309 250.53L27.2738 250.657C27.2428 250.769 27.1967 250.935 27.1365 251.154C27.0162 251.591 26.8394 252.237 26.614 253.067C26.1632 254.729 25.5179 257.133 24.7401 260.101C23.1843 266.037 21.0984 274.231 18.9778 283.258C14.7808 301.124 10.4587 322.215 9.82649 335.554H71.1104C71.1703 335.467 71.2517 335.347 71.3526 335.192C71.5933 334.821 71.9451 334.247 72.3829 333.447C73.2584 331.846 74.4779 329.336 75.8395 325.722C78.5628 318.492 81.8549 306.842 84.101 289.194L84.9561 289.205L84.5279 289.248C84.9561 289.205 84.9561 289.205 84.9561 289.206L84.9563 289.207L84.9568 289.212L84.9587 289.231L84.9665 289.308L84.9965 289.611C85.0229 289.876 85.0615 290.266 85.1105 290.766C85.2085 291.767 85.3481 293.209 85.5149 294.973C85.8484 298.502 86.2904 303.321 86.7239 308.482C87.5674 318.524 88.3822 329.894 88.2987 335.554H141.77C141.78 335.475 141.793 335.383 141.807 335.28C141.863 334.856 141.944 334.229 142.042 333.416C142.238 331.79 142.504 329.421 142.779 326.455C143.329 320.521 143.919 312.196 144.077 302.632C144.391 283.493 142.974 259.436 136.071 239.652C131.855 227.568 131.208 219.272 131.629 213.976C131.84 211.328 132.317 209.432 132.748 208.19C132.963 207.569 133.166 207.112 133.318 206.806C133.394 206.653 133.458 206.538 133.503 206.46C133.526 206.421 133.544 206.391 133.557 206.369L133.573 206.344L133.578 206.337L133.579 206.334L133.58 206.333C133.58 206.333 133.58 206.332 133.939 206.57Z" fill="white" stroke="#24272C" stroke-width="0.860696"/>
<g filter="url(#filter0_d_2253_1843)">
<path d="M65.4892 73.3792V86.8384L59.4339 90.9572L83.4746 123.067L99.565 96.4521L95.7195 91.6958L95.6185 74.3911L65.4892 73.3792Z" fill="white"/>
</g>
<path d="M67.4418 101.77C67.4418 101.77 81.4747 110.341 94.3304 104.985L83.4747 123.067L67.4418 101.77Z" fill="#24272C"/>
<path d="M65.4892 84.1688L42.4904 100.072L72.647 108.798L59.434 90.9572L65.4892 86.8384V84.1688Z" fill="white"/>
<path d="M59.1877 110.822L83.4747 123.067L72.647 108.798L59.1877 110.822Z" fill="white"/>
<path d="M95.705 89.1673L116.971 106.875L93.0281 107.265L99.5651 96.4521L95.7196 91.6958L95.705 89.1673Z" fill="white"/>
<path d="M83.4747 123.067L103.107 112.947L93.0281 107.265L83.4747 123.067Z" fill="white"/>
<path d="M49.9038 94.7811C47.3007 96.3186 44.6971 97.8562 42.094 99.3937C41.5079 99.7398 41.6338 100.641 42.2815 100.829C45.6811 101.813 49.081 102.797 52.481 103.78C57.8758 105.341 63.2706 106.902 68.6654 108.463C69.9229 108.827 71.1805 109.191 72.4381 109.555C73.4106 109.837 73.826 108.322 72.8554 108.041C69.4555 107.057 66.0559 106.073 62.6559 105.09C57.2611 103.529 51.8663 101.968 46.4715 100.407C45.2139 100.043 43.9564 99.6788 42.6988 99.3149C42.7614 99.7932 42.8237 100.272 42.8863 100.75C45.4895 99.2123 48.0929 97.6747 50.6961 96.1372C51.566 95.6236 50.7769 94.2656 49.9038 94.7811Z" fill="#24272C"/>
<path d="M72.4381 108.041C67.9516 108.716 63.4654 109.39 58.9792 110.065C58.3121 110.165 58.2212 111.212 58.7917 111.5C65.8842 115.076 72.9768 118.652 80.0693 122.228C81.0723 122.733 82.0757 123.239 83.0787 123.745C83.9787 124.199 84.7748 122.845 83.8713 122.389C76.7787 118.813 69.6862 115.238 62.5936 111.662C61.5906 111.156 60.5873 110.65 59.5843 110.145C59.5217 110.623 59.4594 111.101 59.3968 111.58C63.883 110.905 68.3695 110.23 72.8557 109.555C73.8514 109.405 73.4284 107.892 72.4381 108.041Z" fill="#24272C"/>
<path d="M101.636 95.1237C105.952 98.7171 110.267 102.311 114.583 105.904C115.194 106.413 115.805 106.922 116.416 107.431C116.601 106.984 116.786 106.537 116.971 106.09C110.273 106.199 103.576 106.308 96.8777 106.417C95.9211 106.433 94.9642 106.448 94.0076 106.464C92.9982 106.48 92.9951 108.051 94.0076 108.034C100.705 107.925 107.403 107.816 114.101 107.707C115.057 107.692 116.014 107.676 116.971 107.661C117.601 107.65 118.072 106.775 117.526 106.32C113.211 102.727 108.895 99.1335 104.58 95.54C103.969 95.0312 103.358 94.5224 102.747 94.0136C101.975 93.371 100.858 94.476 101.636 95.1237Z" fill="#24272C"/>
<path d="M83.871 123.745C89.595 120.794 95.3194 117.843 101.044 114.893C101.863 114.47 102.683 114.048 103.503 113.625C104.03 113.354 103.999 112.548 103.503 112.269C100.567 110.614 97.6315 108.959 94.6956 107.303C93.8143 106.806 93.0217 108.162 93.903 108.659C96.8389 110.314 99.7748 111.97 102.711 113.625C102.711 113.173 102.711 112.721 102.711 112.269C96.9863 115.22 91.2623 118.171 85.5379 121.121C84.7183 121.543 83.8983 121.966 83.0787 122.389C82.1799 122.852 82.9735 124.207 83.871 123.745Z" fill="#24272C"/>
<path d="M43.4686 272.162C43.8547 271.972 43.8547 271.972 43.8548 271.972L43.8552 271.973L43.8564 271.976L43.8613 271.986L43.8801 272.024C43.8966 272.058 43.9208 272.108 43.9521 272.173C44.0146 272.303 44.1053 272.494 44.2187 272.736C44.4454 273.221 44.7627 273.915 45.1261 274.75C45.3594 275.287 45.612 275.883 45.8719 276.521C45.8993 276.564 45.927 276.608 45.955 276.651C47.4083 278.897 49.5949 280.871 52.7108 280.373C54.3268 280.114 55.1744 279.532 55.5804 278.868C55.9899 278.198 56.0154 277.34 55.754 276.392C55.4936 275.447 54.9621 274.47 54.3478 273.63C53.7317 272.787 53.0575 272.117 52.5387 271.768C51.8287 271.29 51.3986 270.361 51.1058 269.32C50.8068 268.257 50.6226 266.97 50.4788 265.655C50.4071 265 50.3449 264.332 50.2839 263.676L50.2829 263.665C50.2214 263.005 50.1611 262.358 50.0931 261.743C49.9561 260.505 49.7909 259.432 49.537 258.671L49.5369 258.671C49.2933 257.94 48.6436 256.948 47.7579 255.842C46.8821 254.749 45.8098 253.585 44.7652 252.516C43.7217 251.448 42.7109 250.48 41.9607 249.779C41.5858 249.428 41.2762 249.145 41.0607 248.949C40.9876 248.883 40.9253 248.826 40.8749 248.781L19.5616 252.086C19.5379 252.255 19.5061 252.489 19.4691 252.782C19.3872 253.431 19.2798 254.366 19.178 255.508C18.9745 257.794 18.7944 260.907 18.8865 264.218C18.9788 267.532 19.3434 271.027 20.2214 274.085C21.1012 277.15 22.4812 279.723 24.5644 281.261L24.3088 281.607L24.5645 281.261C28.8907 284.456 32.8627 285.748 35.7427 286.244C37.1835 286.492 38.3525 286.541 39.157 286.529C39.5593 286.523 39.8703 286.501 40.0786 286.482C40.1827 286.472 40.2611 286.463 40.3123 286.456C40.3379 286.453 40.3567 286.45 40.3685 286.448L40.381 286.446L40.3829 286.446L40.3832 286.446L40.3833 286.446L40.3834 286.446L40.8302 286.372L40.8803 286.822L40.8804 286.822L40.8804 286.822L40.8804 286.823L40.8805 286.823L40.8814 286.831C40.8824 286.838 40.884 286.85 40.8864 286.866C40.8913 286.899 40.8993 286.949 40.9116 287.014C40.9361 287.143 40.9774 287.33 41.0433 287.551C41.1759 287.995 41.4044 288.567 41.787 289.098C42.1675 289.626 42.6967 290.109 43.4373 290.396C44.1776 290.683 45.1634 290.786 46.4797 290.497C47.0331 290.376 47.4006 290.061 47.6408 289.573C47.8911 289.064 48.0059 288.358 47.9906 287.482C47.9602 285.733 47.416 283.476 46.6853 281.217C46.1999 279.716 45.6375 278.23 45.1031 276.915C44.4075 275.801 43.9054 274.677 43.5732 273.819C43.3966 273.362 43.2672 272.978 43.1816 272.707C43.1387 272.572 43.1068 272.464 43.0855 272.39C43.0748 272.353 43.0667 272.324 43.0612 272.304L43.0549 272.281L43.0532 272.275L43.0527 272.273L43.0526 272.272C43.0525 272.272 43.0525 272.272 43.4686 272.162ZM43.4686 272.162L43.8547 271.972L43.0525 272.272L43.4686 272.162Z" fill="white" stroke="#24272C" stroke-width="0.860696"/>
<path d="M34.1059 272.61C34.5295 274.338 35.1795 276.024 35.8793 277.655C37.3034 280.974 39.1928 284.141 41.7438 286.719C42.4557 287.439 43.2512 287.439 42.5397 286.719C40.0846 284.238 38.2823 281.171 36.9208 277.973C36.2788 276.466 35.6966 274.898 35.3057 273.303C35.0648 272.322 33.8647 271.627 34.1059 272.61Z" fill="#24272C"/>
<path d="M172.651 136.786H138.999L88.8695 189.667L123.349 193.535L172.651 136.786Z" fill="#FFD300" stroke="#24272C" stroke-width="0.317809"/>
<path d="M131.913 175.835C131.786 175.784 131.626 175.719 131.444 175.64C130.975 175.436 130.351 175.139 129.742 174.767C129.138 174.398 128.523 173.94 128.095 173.407C127.664 172.871 127.385 172.205 127.587 171.468C127.749 170.874 128.064 170.16 128.414 169.403C128.493 169.232 128.574 169.058 128.657 168.882C128.945 168.264 129.248 167.615 129.527 166.946C130.252 165.208 130.753 163.463 130.416 162.024L130.416 162.024C130.211 161.146 130.286 160.133 130.458 159.118C130.595 158.315 130.8 157.475 130.997 156.667C131.049 156.453 131.101 156.241 131.15 156.033C131.391 155.022 131.585 154.098 131.61 153.326C131.635 152.547 131.484 152.027 131.149 151.717C130.835 151.425 130.382 151.35 129.755 151.571C129.122 151.795 128.382 152.304 127.631 153.055C126.133 154.554 124.688 156.915 124.033 159.469L124.033 159.469C123.696 160.784 123.427 161.805 123.186 162.598C122.947 163.387 122.73 163.975 122.49 164.412C122.245 164.859 121.966 165.168 121.602 165.374C121.251 165.574 120.856 165.658 120.431 165.725L120.431 165.725C119.469 165.876 118.648 165.65 117.966 165.174C117.295 164.706 116.775 164.011 116.368 163.246C115.555 161.719 115.129 159.793 114.878 158.441C114.755 157.778 114.156 156.686 113.146 155.935C112.163 155.204 110.81 154.808 109.134 155.469C108.282 155.804 107.651 156.737 107.222 157.693C107.014 158.157 106.865 158.599 106.769 158.926C106.721 159.089 106.686 159.222 106.664 159.314C106.653 159.36 106.644 159.395 106.639 159.418L106.633 159.444L106.632 159.45L106.632 159.451L106.632 159.451L106.632 159.451L106.632 159.451L106.492 160.122L105.95 159.705L105.949 159.705L105.949 159.704L105.949 159.704L105.949 159.704L105.94 159.698C105.931 159.691 105.916 159.681 105.894 159.667C105.852 159.639 105.787 159.598 105.701 159.552C105.53 159.46 105.281 159.349 104.979 159.275C104.382 159.13 103.566 159.125 102.671 159.721L102.671 159.721C101.874 160.252 101.753 161.17 101.896 162.096C101.966 162.548 102.096 162.966 102.21 163.274C102.267 163.427 102.318 163.55 102.356 163.635C102.374 163.677 102.389 163.709 102.399 163.73L102.41 163.753L102.412 163.758L102.413 163.758L102.413 163.758L102.413 163.758L102.413 163.758L102.896 164.724L101.883 164.356L101.883 164.356L101.883 164.355L101.882 164.355L101.877 164.354C101.87 164.351 101.858 164.348 101.841 164.343C101.807 164.333 101.754 164.319 101.684 164.304C101.543 164.276 101.336 164.246 101.083 164.246C100.579 164.246 99.8899 164.363 99.1631 164.848L99.163 164.848C98.8884 165.031 98.7004 165.362 98.5987 165.837C98.4976 166.309 98.4946 166.868 98.5433 167.421C98.5917 167.969 98.689 168.489 98.775 168.874C98.8178 169.066 98.8575 169.222 98.8862 169.33C98.9006 169.384 98.9122 169.426 98.9201 169.454L98.929 169.485L98.9312 169.492L98.9316 169.494L98.9316 169.494L98.9317 169.494L99.0044 169.736L98.8281 169.917L98.828 169.917L98.8278 169.917L98.8275 169.918L98.8268 169.918L98.8188 169.927C98.8112 169.935 98.799 169.948 98.7827 169.966C98.7502 170.003 98.7016 170.059 98.6411 170.133C98.52 170.283 98.3516 170.507 98.169 170.797C97.8032 171.379 97.3847 172.221 97.1699 173.263C96.7464 175.318 97.095 178.244 100.443 181.591C103.824 184.972 108.687 187.51 112.735 189.207C114.754 190.053 116.56 190.685 117.86 191.106C118.51 191.317 119.034 191.474 119.394 191.579C119.574 191.631 119.713 191.67 119.807 191.696C119.822 191.7 119.837 191.704 119.85 191.708C125.061 190.572 128.086 186.593 129.819 182.812C130.69 180.914 131.226 179.084 131.544 177.726C131.703 177.048 131.807 176.49 131.871 176.103C131.888 176.001 131.902 175.912 131.913 175.835Z" fill="white" stroke="#24272C" stroke-width="0.860696"/>
<path d="M97.7967 170.393C98.8843 172.718 100.353 174.995 102.126 176.851C102.827 177.586 103.61 178.259 104.49 178.773C105.161 179.164 105.768 178.123 105.098 177.732C103.638 176.88 102.473 175.556 101.485 174.205C100.638 173.046 99.8861 171.815 99.219 170.544C99.0874 170.293 98.9574 170.041 98.8373 169.785C98.509 169.083 97.4697 169.694 97.7967 170.393Z" fill="#24272C"/>
<path d="M101.446 164.11C101.873 165.288 102.439 166.431 103.058 167.518C104.221 169.561 105.695 171.508 107.66 172.836C108.304 173.271 108.908 172.227 108.269 171.795C106.452 170.567 105.115 168.712 104.05 166.825C103.649 166.113 103.283 165.382 102.953 164.635C102.837 164.371 102.737 164.145 102.609 163.79C102.347 163.066 101.181 163.378 101.446 164.11Z" fill="#24272C"/>
<path d="M105.629 159.523C106.491 161.723 107.722 163.871 109.272 165.655C109.907 166.386 110.625 167.045 111.438 167.574C112.09 167.997 112.695 166.955 112.046 166.533C110.387 165.455 109.186 163.742 108.209 162.055C107.816 161.377 107.455 160.681 107.126 159.969C107.029 159.759 106.935 159.547 106.844 159.334C106.924 159.521 106.816 159.266 106.791 159.202C106.672 158.899 106.387 158.689 106.05 158.781C105.761 158.861 105.51 159.218 105.629 159.523Z" fill="#24272C"/>
<path d="M132.387 175.554C132.387 175.554 130.767 189.296 119.838 192.15C119.838 192.15 124.809 199.474 131.199 199.833C131.199 199.833 140.718 192.15 132.387 175.554Z" fill="white"/>
<path d="M119.931 192.15C119.931 192.15 123.004 197.784 131.199 199.833C131.199 199.833 125.406 205.322 119.838 201.883C115.328 199.098 119.931 192.15 119.931 192.15Z" fill="white"/>
<g filter="url(#filter1_d_2253_1843)">
<path d="M53.6594 33.238C53.6594 33.238 46.8847 58.4196 59.9228 75.2924C72.9609 92.1652 94.3307 93.4635 103.255 73.6306C111.308 55.735 113.737 24.0345 98.6539 18.6658C83.5703 13.2973 57.2383 12.5301 53.6594 33.238Z" fill="white"/>
</g>
<path d="M67.4644 0.386964C67.4644 0.386964 86.7659 -1.53038 98.2703 9.46264C109.775 20.4557 98.1426 25.4408 83.4426 26.0799C68.7427 26.719 45.862 18.6661 57.2386 12.0191C68.6149 5.37211 70.5322 3.45478 67.4644 0.386964Z" fill="#24272C"/>
<path d="M56.0881 56.7527C56.0881 56.7527 54.8098 44.9661 59.795 40.5081C64.7802 36.0502 66.7725 25.8225 63.8588 23.075C60.9455 20.3276 49.3308 17.8757 58.7348 11.1394C58.7348 11.1394 38.3203 25.5686 56.0881 56.7527Z" fill="#24272C"/>
<path d="M100.759 12.1987C100.759 12.1987 106.202 13.5529 109.65 23.779C113.098 34.0048 112.041 47.8047 108.341 56.7527C108.341 56.7527 107.56 31.1646 94.1496 20.7109C94.1496 20.7109 107.083 20.559 100.759 12.1987Z" fill="#24272C"/>
<path d="M131.891 206.289C132.034 206.279 132.197 206.268 132.378 206.254C133.145 206.194 134.247 206.09 135.58 205.913C138.248 205.558 141.835 204.91 145.524 203.739C152.935 201.385 160.583 196.976 162.226 188.759L162.648 188.843L162.226 188.759C163.897 180.406 162.038 172.589 159.747 166.845C158.602 163.975 157.353 161.629 156.39 160.002C155.909 159.189 155.5 158.556 155.212 158.127C155.161 158.052 155.114 157.982 155.071 157.92L139.48 175.865L139.351 176.013H139.155H132.955C133.129 176.308 133.347 176.695 133.59 177.165C134.19 178.328 134.94 180.004 135.548 182.064C136.764 186.184 137.412 191.855 135.12 198.022C133.687 201.88 132.805 204.107 132.281 205.371C132.119 205.762 131.991 206.061 131.891 206.289Z" fill="white" stroke="#24272C" stroke-width="0.860696"/>
<path d="M117.337 200.956C119.133 204.412 123.355 206.497 127.008 207.133C129.364 207.543 131.739 207.478 134.1 207.151C134.865 207.045 134.539 205.884 133.78 205.989C128.484 206.721 122.359 205.706 118.955 201.223C118.745 200.947 118.538 200.656 118.378 200.347C118.02 199.659 116.979 200.268 117.337 200.956Z" fill="#24272C"/>
<path d="M82.6897 126.625C82.6897 130.375 82.6897 134.126 82.6897 137.876C82.6897 146.816 82.6897 155.756 82.6897 164.696C82.6897 175.501 82.6897 186.305 82.6897 197.11C82.6897 206.475 82.6897 215.84 82.6897 225.204C82.6897 229.738 82.5308 234.303 82.6897 238.835C82.6919 238.897 82.6897 238.959 82.6897 239.021C82.6897 240.032 84.2599 240.034 84.2599 239.021C84.2599 235.271 84.2599 231.52 84.2599 227.77C84.2599 218.83 84.2599 209.89 84.2599 200.95C84.2599 190.145 84.2599 179.341 84.2599 168.536C84.2599 159.171 84.2599 149.807 84.2599 140.442C84.2599 135.908 84.4188 131.342 84.2599 126.811C84.2577 126.749 84.2599 126.687 84.2599 126.625C84.2599 125.615 82.6897 125.613 82.6897 126.625Z" fill="#24272C"/>
<path d="M33.7913 205.895C34.2975 209.566 34.9417 213.222 35.6362 216.861C36.9808 223.907 38.5482 230.964 40.8609 237.763C41.9694 241.021 43.2362 244.323 45.1227 247.221C45.6722 248.065 47.0321 247.279 46.4785 246.428C44.8491 243.925 43.7085 241.123 42.7135 238.319C41.5086 234.924 40.5323 231.45 39.6596 227.956C38.1237 221.808 36.9084 215.577 35.8936 209.323C35.6861 208.043 35.4826 206.762 35.3053 205.478C35.168 204.481 33.6546 204.905 33.7913 205.895Z" fill="#24272C"/>
<path d="M22.9234 251.497C29.2914 250.588 35.6596 249.679 42.0275 248.77C42.9263 248.642 43.8251 248.513 44.7238 248.385C45.7202 248.243 45.2965 246.73 44.3063 246.871C37.9383 247.78 31.5703 248.689 25.2021 249.598C24.3033 249.727 23.4046 249.855 22.5058 249.983C21.5098 250.125 21.9334 251.639 22.9234 251.497Z" fill="#24272C"/>
<path d="M35.7684 194.451C35.7677 192.296 35.941 190.13 36.1806 187.991C36.6373 183.91 37.4073 179.692 39.1102 175.93C39.9873 173.991 41.1505 172.054 42.887 170.767C43.6901 170.172 42.908 168.809 42.0944 169.412C38.676 171.944 37.0304 176.228 35.9927 180.21C34.9951 184.038 34.4959 188.008 34.2814 191.953C34.2362 192.785 34.1981 193.619 34.1984 194.452C34.1984 195.462 35.7687 195.464 35.7684 194.451Z" fill="#24272C"/>
<path d="M77.6729 166.268C73.9551 166.268 70.2374 166.268 66.5197 166.268C60.5544 166.268 54.5891 166.268 48.6238 166.268C47.2544 166.268 45.8846 166.268 44.5152 166.268C44.7767 166.53 45.0386 166.792 45.3001 167.053C45.3001 163.326 45.3001 159.599 45.3001 155.871C45.0383 156.133 44.7767 156.395 44.5152 156.657C48.2329 156.657 51.9506 156.657 55.6681 156.657C61.6333 156.657 67.5986 156.657 73.5639 156.657C74.9333 156.657 76.3031 156.657 77.6725 156.657C77.4107 156.395 77.1491 156.133 76.8872 155.871C76.8872 159.599 76.8872 163.326 76.8872 167.053C76.8872 168.064 78.4575 168.065 78.4575 167.053C78.4575 163.326 78.4575 159.599 78.4575 155.871C78.4575 155.447 78.0978 155.086 77.6725 155.086C73.9548 155.086 70.2371 155.086 66.5193 155.086C60.5541 155.086 54.5888 155.086 48.6235 155.086C47.254 155.086 45.8843 155.086 44.5149 155.086C44.0903 155.086 43.7295 155.446 43.7295 155.871C43.7295 159.599 43.7295 163.326 43.7295 167.053C43.7295 167.478 44.0893 167.839 44.5149 167.839C48.2326 167.839 51.9503 167.839 55.6677 167.839C61.633 167.839 67.5983 167.839 73.5636 167.839C74.933 167.839 76.3028 167.839 77.6722 167.839C78.6831 167.838 78.6848 166.268 77.6729 166.268Z" fill="#24272C"/>
<path d="M116.971 155.853C118.008 155.853 119.046 155.853 120.083 155.853C120.23 155.853 120.377 155.853 120.524 155.853C120.934 155.853 121.328 155.492 121.309 155.068C121.289 154.643 120.964 154.283 120.524 154.283C119.486 154.283 118.448 154.283 117.411 154.283C117.264 154.283 117.118 154.283 116.971 154.283C116.56 154.283 116.167 154.644 116.185 155.068C116.205 155.493 116.531 155.853 116.971 155.853Z" fill="#24272C"/>
<path d="M96.5955 166.268C93.9084 166.268 91.2217 166.268 88.5346 166.268C88.7965 166.53 89.058 166.792 89.3199 167.053C89.3199 163.058 89.3199 159.063 89.3199 155.068C89.0583 155.329 88.7965 155.591 88.5346 155.853C93.6965 155.853 98.8583 155.853 104.02 155.853C104.75 155.853 105.48 155.853 106.21 155.853C107.22 155.853 107.222 154.283 106.21 154.283C101.048 154.283 95.8865 154.283 90.7246 154.283C89.9946 154.283 89.2646 154.283 88.5346 154.283C88.1103 154.283 87.7496 154.642 87.7496 155.068C87.7496 159.063 87.7496 163.058 87.7496 167.053C87.7496 167.478 88.1094 167.839 88.5346 167.839C91.2217 167.839 93.9084 167.839 96.5955 167.839C97.6058 167.838 97.6074 166.268 96.5955 166.268Z" fill="#24272C"/>
<path d="M64.9344 80.8496C66.7179 82.8235 68.9464 84.5028 71.1997 85.892C75.6665 88.6458 80.9075 90.2113 86.1618 89.3354C89.9457 88.7046 93.3294 86.793 96.2284 84.3382C97.0007 83.6842 95.8852 82.5782 95.118 83.2278C90.4875 87.1486 84.6898 88.9706 78.7251 87.4635C74.7242 86.4529 71.0468 84.2559 67.9501 81.5612C67.2894 80.9863 66.6328 80.3901 66.0445 79.7392C65.3657 78.9879 64.2581 80.1012 64.9344 80.8496Z" fill="#24272C"/>
<path fill-rule="evenodd" clip-rule="evenodd" d="M71.6417 53.0708C71.6417 55.4131 70.3673 57.312 68.7954 57.312C67.2236 57.312 65.9491 55.4131 65.9491 53.0708C65.9491 50.7286 67.2236 48.8297 68.7954 48.8297C70.3673 48.8297 71.6417 50.7282 71.6417 53.0708Z" fill="#24272C"/>
<path fill-rule="evenodd" clip-rule="evenodd" d="M99.8422 53.0708C99.8422 55.4131 98.5678 57.312 96.9959 57.312C95.4237 57.312 94.1496 55.4131 94.1496 53.0708C94.1496 50.7286 95.424 48.8297 96.9959 48.8297C98.5681 48.8297 99.8422 50.7282 99.8422 53.0708Z" fill="#24272C"/>
<path d="M71.8076 43.1425C68.5587 42.1687 64.5565 42.8295 62.2912 45.4775C61.9988 45.8191 61.9555 46.32 62.2912 46.6556C62.5905 46.955 63.1756 46.9991 63.4693 46.6556C64.771 45.1342 66.6245 44.4589 68.5183 44.4153C68.9159 44.4061 69.3138 44.4198 69.7098 44.4538C69.882 44.4684 70.054 44.4868 70.2253 44.5094C70.0213 44.4824 70.4385 44.5447 70.5097 44.5574C70.7964 44.6079 71.0853 44.6651 71.3646 44.749C72.3943 45.0576 72.8341 43.4498 71.8076 43.1425Z" fill="#24272C"/>
<path d="M92.8643 44.749C93.1437 44.6651 93.4326 44.6082 93.7192 44.5574C93.7993 44.5431 93.8797 44.5307 93.9605 44.5174C94.0059 44.5097 94.2061 44.4827 94.004 44.5094C94.1753 44.4868 94.3472 44.4684 94.5195 44.4538C94.9155 44.4198 95.3137 44.4064 95.7109 44.4153C97.6063 44.4589 99.4579 45.1336 100.76 46.6556C101.053 46.9975 101.638 46.9562 101.938 46.6556C102.278 46.3165 102.232 45.8204 101.938 45.4775C99.6728 42.8295 95.6706 42.1687 92.4216 43.1425C91.3967 43.4495 91.8334 45.0579 92.8643 44.749Z" fill="#24272C"/>
<path fill-rule="evenodd" clip-rule="evenodd" d="M72.8827 69.6341H92.6428C92.6428 69.6341 90.8243 77.136 82.7628 77.136C74.7012 77.136 72.8827 69.6341 72.8827 69.6341Z" fill="#24272C"/>
<path d="M84.3791 54.2747C84.5758 54.6561 84.7503 55.0496 84.92 55.4436C84.9915 55.6095 84.9022 55.3979 84.9734 55.5711C85.0147 55.6718 85.0557 55.7726 85.0961 55.8736C85.1835 56.0932 85.2677 56.3144 85.3484 56.5366C85.527 57.0282 85.6885 57.5266 85.827 58.0312C86.1121 59.0714 86.292 59.9565 86.23 61.0231C86.2129 61.3177 86.2164 61.3272 86.1471 61.6323C86.1255 61.7267 86.1013 61.8205 86.0727 61.913C86.0301 62.0509 85.9773 62.1774 85.9748 62.1825C85.9268 62.2826 85.8747 62.3808 85.8159 62.4749C85.7933 62.5111 85.6405 62.7154 85.7231 62.6144C85.6522 62.7011 85.5744 62.7796 85.4946 62.8578C85.3564 62.9929 85.4282 62.9369 85.2601 63.0386C84.8005 63.3164 84.2904 63.4419 83.7149 63.4677C82.7767 63.51 81.8506 63.3361 80.9452 63.1073C80.1472 62.9055 79.8065 64.1383 80.6055 64.3404C82.1551 64.7322 83.9494 65.0354 85.4702 64.369C86.4922 63.9209 87.1647 62.9954 87.3932 61.9149C87.8537 59.7366 87.0732 57.3578 86.2577 55.355C86.0206 54.7721 85.7727 54.1892 85.4838 53.6296C85.1056 52.898 84.0018 53.5438 84.3791 54.2747Z" fill="#24272C"/>
<path d="M52.6723 52.2439C52.6723 52.2439 49.4367 48.5847 47.3061 49.2708C45.1755 49.957 44.3072 54.3024 45.5699 58.1142C46.8325 61.926 52.2776 62.3074 53.6982 61.4687C53.6982 61.4687 52.5636 56.9513 52.6723 52.2439Z" fill="white"/>
<path d="M52.241 52.5779C51.6699 52.0885 50.958 51.6776 50.221 51.5142C49.6191 51.3807 49.0057 51.4122 48.4473 51.6868C47.8117 51.9995 47.3754 52.6116 47.1017 53.2469C46.4899 54.6656 46.7032 56.2569 47.3331 57.6298C47.9191 58.9068 48.9139 59.8519 50.277 60.2521C51.2793 60.5463 52.4841 60.561 53.4855 60.2317C54.2991 59.9644 53.9508 58.6732 53.1303 58.9427C52.9466 59.0031 52.7549 59.0399 52.5652 59.0736C52.5683 59.073 52.3815 59.1013 52.4768 59.0882C52.5782 59.0743 52.3612 59.1006 52.372 59.0994C52.2642 59.1102 52.1565 59.1178 52.0487 59.1226C51.7757 59.134 51.4974 59.1302 51.2266 59.094C50.6545 59.0174 50.1082 58.8086 49.6299 58.4841C49.6016 58.465 49.4186 58.3236 49.532 58.417C49.4993 58.39 49.4659 58.362 49.4351 58.3331C49.3601 58.2626 49.287 58.1907 49.2174 58.1145C49.0543 57.9355 48.9507 57.789 48.8125 57.5643C48.2509 56.6519 47.9045 55.4817 48.1263 54.4107C48.2334 53.8936 48.4543 53.3206 48.8811 52.9825C49.0124 52.8782 49.1058 52.8369 49.2905 52.7928C49.3337 52.7826 49.3795 52.7721 49.4237 52.7664C49.3077 52.7813 49.4519 52.7686 49.4802 52.7692C49.5358 52.7708 49.5918 52.7683 49.6474 52.7711C49.6738 52.7724 49.86 52.7978 49.7351 52.7772C49.9328 52.8099 50.2312 52.9034 50.3462 52.9517C50.4413 52.9917 50.6987 53.1258 50.8503 53.2173C50.9917 53.3028 51.1249 53.3982 51.2599 53.4926C51.3947 53.5866 51.1522 53.4023 51.2514 53.4859C51.266 53.4983 51.2812 53.5101 51.2959 53.5228C51.5698 53.7573 51.9718 53.7919 52.241 53.5228C52.4813 53.2828 52.5163 52.8137 52.241 52.5779Z" fill="#24272C"/>
<path d="M107.593 52.2439C107.593 52.2439 110.829 48.5847 112.96 49.2708C115.09 49.957 115.959 54.3024 114.696 58.1142C113.433 61.926 107.988 62.3074 106.568 61.4687C106.568 61.4687 107.702 56.9513 107.593 52.2439Z" fill="white"/>
<path d="M108.025 52.5779C108.596 52.0885 109.308 51.6776 110.045 51.5142C110.647 51.3807 111.26 51.4122 111.819 51.6868C112.454 51.9995 112.89 52.6116 113.164 53.2469C113.776 54.6656 113.563 56.2569 112.932 57.6298C112.346 58.9068 111.352 59.8519 109.989 60.2521C108.986 60.5463 107.781 60.561 106.78 60.2317C105.966 59.9644 106.315 58.6732 107.135 58.9427C107.319 59.0031 107.511 59.0399 107.701 59.0736C107.697 59.073 107.884 59.1013 107.789 59.0882C107.688 59.0743 107.905 59.1006 107.894 59.0994C108.002 59.1102 108.109 59.1178 108.217 59.1226C108.49 59.134 108.769 59.1302 109.04 59.094C109.612 59.0174 110.158 58.8086 110.637 58.4841C110.665 58.465 110.848 58.3236 110.734 58.417C110.768 58.39 110.8 58.362 110.831 58.3331C110.906 58.2626 110.98 58.1907 111.049 58.1145C111.212 57.9355 111.316 57.789 111.454 57.5643C112.016 56.6519 112.362 55.4817 112.14 54.4107C112.033 53.8936 111.812 53.3206 111.385 52.9825C111.254 52.8782 111.161 52.8369 110.976 52.7928C110.933 52.7826 110.887 52.7721 110.843 52.7664C110.959 52.7813 110.815 52.7686 110.786 52.7692C110.731 52.7708 110.675 52.7683 110.619 52.7711C110.593 52.7724 110.407 52.7978 110.531 52.7772C110.333 52.8099 110.035 52.9034 109.92 52.9517C109.825 52.9917 109.568 53.1258 109.416 53.2173C109.275 53.3028 109.142 53.3982 109.007 53.4926C108.872 53.5866 109.114 53.4023 109.015 53.4859C109.001 53.4983 108.985 53.5101 108.971 53.5228C108.697 53.7573 108.295 53.7919 108.025 53.5228C107.785 53.2828 107.75 52.8137 108.025 52.5779Z" fill="#24272C"/>
<path d="M15.0622 292.465C64.5528 331.13 92.8649 335.091 144.597 303.224" stroke="#24272C" stroke-width="1.29104"/>
</g>
<defs>
<filter id="filter0_d_2253_1843" x="55.9912" y="73.3792" width="47.0166" height="56.5731" filterUnits="userSpaceOnUse" color-interpolation-filters="sRGB">
<feFlood flood-opacity="0" result="BackgroundImageFix"/>
<feColorMatrix in="SourceAlpha" type="matrix" values="0 0 0 0 0 0 0 0 0 0 0 0 0 0 0 0 0 0 127 0" result="hardAlpha"/>
<feOffset dy="3.44279"/>
<feGaussianBlur stdDeviation="1.72139"/>
<feComposite in2="hardAlpha" operator="out"/>
<feColorMatrix type="matrix" values="0 0 0 0 0 0 0 0 0 0 0 0 0 0 0 0 0 0 0.05 0"/>
<feBlend mode="normal" in2="BackgroundImageFix" result="effect1_dropShadow_2253_1843"/>
<feBlend mode="normal" in="SourceGraphic" in2="effect1_dropShadow_2253_1843" result="shape"/>
</filter>
<filter id="filter1_d_2253_1843" x="48.4572" y="15.4429" width="64.6356" height="79.6692" filterUnits="userSpaceOnUse" color-interpolation-filters="sRGB">
<feFlood flood-opacity="0" result="BackgroundImageFix"/>
<feColorMatrix in="SourceAlpha" type="matrix" values="0 0 0 0 0 0 0 0 0 0 0 0 0 0 0 0 0 0 127 0" result="hardAlpha"/>
<feOffset dy="3.44279"/>
<feGaussianBlur stdDeviation="1.72139"/>
<feComposite in2="hardAlpha" operator="out"/>
<feColorMatrix type="matrix" values="0 0 0 0 0 0 0 0 0 0 0 0 0 0 0 0 0 0 0.05 0"/>
<feBlend mode="normal" in2="BackgroundImageFix" result="effect1_dropShadow_2253_1843"/>
<feBlend mode="normal" in="SourceGraphic" in2="effect1_dropShadow_2253_1843" result="shape"/>
</filter>
<clipPath id="clip0_2253_1843">
<path d="M173 0.258728H3.05176e-05V238.672C3.05176e-05 286.207 38.9651 324.741 86.5 324.741C134.035 324.741 173 286.207 173 238.672V0.258728Z" fill="white"/>
</clipPath>
</defs>
</svg>
