<svg width="22" height="342" viewBox="0 0 22 342" fill="none" xmlns="http://www.w3.org/2000/svg">
<path d="M11 1V131" stroke="#898989" stroke-linecap="round"/>
<rect width="80" height="21" transform="matrix(0 1 -1 0 21.5 131)" fill="white"/>
<path d="M11.049 170.988C11.049 171.739 10.93 172.43 10.692 173.06C10.454 173.685 10.118 174.224 9.684 174.677C9.25 175.13 8.72733 175.482 8.116 175.734C7.50933 175.981 6.83733 176.105 6.1 176.105C5.36267 176.105 4.69067 175.981 4.084 175.734C3.47733 175.482 2.957 175.13 2.523 174.677C2.089 174.224 1.753 173.685 1.515 173.06C1.277 172.43 1.158 171.739 1.158 170.988C1.158 170.237 1.277 169.548 1.515 168.923C1.753 168.293 2.089 167.752 2.523 167.299C2.957 166.842 3.47733 166.487 4.084 166.235C4.69067 165.983 5.36267 165.857 6.1 165.857C6.83733 165.857 7.50933 165.983 8.116 166.235C8.72733 166.487 9.25 166.842 9.684 167.299C10.118 167.752 10.454 168.293 10.692 168.923C10.93 169.548 11.049 170.237 11.049 170.988ZM9.656 170.988C9.656 170.372 9.572 169.819 9.404 169.329C9.236 168.839 8.998 168.426 8.69 168.09C8.382 167.749 8.00867 167.488 7.57 167.306C7.13133 167.124 6.64133 167.033 6.1 167.033C5.56333 167.033 5.07567 167.124 4.637 167.306C4.19833 167.488 3.82267 167.749 3.51 168.09C3.202 168.426 2.964 168.839 2.796 169.329C2.628 169.819 2.544 170.372 2.544 170.988C2.544 171.604 2.628 172.157 2.796 172.647C2.964 173.132 3.202 173.545 3.51 173.886C3.82267 174.222 4.19833 174.481 4.637 174.663C5.07567 174.84 5.56333 174.929 6.1 174.929C6.64133 174.929 7.13133 174.84 7.57 174.663C8.00867 174.481 8.382 174.222 8.69 173.886C8.998 173.545 9.236 173.132 9.404 172.647C9.572 172.157 9.656 171.604 9.656 170.988ZM15.9459 170.827C16.3379 170.827 16.6833 170.78 16.9819 170.687C17.2853 170.589 17.5373 170.454 17.7379 170.281C17.9433 170.104 18.0973 169.894 18.1999 169.651C18.3026 169.408 18.3539 169.14 18.3539 168.846C18.3539 168.249 18.1579 167.798 17.7659 167.495C17.3739 167.192 16.7859 167.04 16.0019 167.04H14.5179V170.827H15.9459ZM20.5799 176H19.3759C19.1286 176 18.9466 175.904 18.8299 175.713L16.2259 172.129C16.1466 172.017 16.0603 171.938 15.9669 171.891C15.8783 171.84 15.7383 171.814 15.5469 171.814H14.5179V176H13.1669V165.969H16.0019C16.6366 165.969 17.1849 166.034 17.6469 166.165C18.1089 166.291 18.4893 166.475 18.7879 166.718C19.0913 166.961 19.3153 167.255 19.4599 167.6C19.6046 167.941 19.6769 168.323 19.6769 168.748C19.6769 169.103 19.6209 169.434 19.5089 169.742C19.3969 170.05 19.2336 170.328 19.0189 170.575C18.8089 170.818 18.5499 171.025 18.2419 171.198C17.9386 171.371 17.5933 171.501 17.2059 171.59C17.3786 171.688 17.5279 171.83 17.6539 172.017L20.5799 176Z" fill="#898989"/>
<path d="M11 211V341" stroke="#898989" stroke-linecap="round"/>
</svg>
