<svg width="12" height="11" viewBox="0 0 12 11" fill="none" xmlns="http://www.w3.org/2000/svg">
<path d="M12 6.45913C12 7.81913 11.6 9.03246 10.8 10.0991C10.72 10.2058 10.6133 10.2658 10.48 10.2791C10.3467 10.2925 10.2267 10.2591 10.12 10.1791C10.0133 10.0991 9.95333 9.99913 9.94 9.87913C9.92667 9.75913 9.96 9.64579 10.04 9.53913C10.7333 8.63246 11.08 7.60579 11.08 6.45913C11.08 5.55246 10.8533 4.71246 10.4 3.93913C9.94667 3.16579 9.32667 2.55246 8.54 2.09913C7.75333 1.64579 6.90667 1.41913 6 1.41913C5.09333 1.41913 4.24667 1.64579 3.46 2.09913C2.67333 2.55246 2.05333 3.16579 1.6 3.93913C1.14667 4.71246 0.92 5.55246 0.92 6.45913C0.92 7.60579 1.26667 8.63246 1.96 9.53913C2.04 9.64579 2.07333 9.75913 2.06 9.87913C2.04667 9.99913 1.98667 10.0991 1.88 10.1791C1.77333 10.2591 1.65333 10.2925 1.52 10.2791C1.38667 10.2658 1.28 10.2058 1.2 10.0991C0.4 9.03246 0 7.81913 0 6.45913C0 5.39246 0.266667 4.39913 0.8 3.47913C1.33333 2.55913 2.06 1.83246 2.98 1.29913C3.9 0.765793 4.90667 0.499126 6 0.499126C7.09333 0.499126 8.1 0.765793 9.02 1.29913C9.94 1.83246 10.6667 2.55913 11.2 3.47913C11.7333 4.39913 12 5.39246 12 6.45913ZM8.96 3.65913C9.06667 3.73913 9.12 3.84579 9.12 3.97913C9.12 4.11246 9.06667 4.21913 8.96 4.29913L7.44 5.85913C7.57333 6.09913 7.64 6.35246 7.64 6.61913C7.64 7.07246 7.48 7.45913 7.16 7.77913C6.84 8.09913 6.45333 8.25913 6 8.25913C5.54667 8.25913 5.16 8.09913 4.84 7.77913C4.52 7.45913 4.36 7.07246 4.36 6.61913C4.36 6.16579 4.52 5.77913 4.84 5.45913C5.16 5.13913 5.54667 4.97913 6 4.97913C6.26667 4.97913 6.52 5.04579 6.76 5.17913L8.32 3.65913C8.4 3.55246 8.50667 3.49913 8.64 3.49913C8.77333 3.49913 8.88 3.55246 8.96 3.65913ZM6.72 6.61913C6.72 6.43246 6.64667 6.27246 6.5 6.13913C6.35333 6.00579 6.18667 5.93913 6 5.93913C5.81333 5.93913 5.64667 6.00579 5.5 6.13913C5.35333 6.27246 5.28 6.43246 5.28 6.61913C5.28 6.80579 5.35333 6.97246 5.5 7.11913C5.64667 7.26579 5.81333 7.33913 6 7.33913C6.18667 7.33913 6.35333 7.26579 6.5 7.11913C6.64667 6.97246 6.72 6.80579 6.72 6.61913Z" fill="#1A1A1A"/>
</svg>
