<svg width="42" height="42" viewBox="0 0 42 42" fill="none" xmlns="http://www.w3.org/2000/svg">
<g clip-path="url(#clip0_2888_2448)">
<path d="M37.8369 21L40.3799 24.1787C40.626 24.4932 40.8174 24.835 40.9541 25.2041C41.0908 25.5732 41.1592 25.9629 41.1592 26.373C41.1592 26.7832 41.0977 27.1729 40.9746 27.542C40.8516 27.9111 40.6738 28.2461 40.4414 28.5469C40.209 28.8477 39.9287 29.1074 39.6006 29.3262C39.2725 29.5449 38.917 29.709 38.5342 29.8184L34.6172 30.9053C34.6445 31.6025 34.6787 32.3066 34.7197 33.0176C34.7607 33.7285 34.7881 34.4395 34.8018 35.1504C34.8018 35.6426 34.7129 36.1006 34.5352 36.5244C34.3574 36.9482 34.1045 37.3174 33.7764 37.6318C33.4482 37.9463 33.0723 38.1992 32.6484 38.3906C32.2246 38.582 31.7598 38.6777 31.2539 38.6777C30.8301 38.6777 30.4131 38.6025 30.0029 38.4521L26.209 37.0166L23.9736 40.4004C23.6455 40.8926 23.2217 41.2822 22.7021 41.5693C22.1826 41.8564 21.6152 42 21 42C20.3984 42 19.8379 41.8564 19.3184 41.5693C18.7988 41.2822 18.3682 40.8926 18.0264 40.4004L15.791 37.0166L11.9971 38.4521C11.5869 38.6025 11.1699 38.6777 10.7461 38.6777C10.2539 38.6777 9.7959 38.5889 9.37207 38.4111C8.94824 38.2334 8.57227 37.9805 8.24414 37.6523C7.91602 37.3242 7.66309 36.9482 7.48535 36.5244C7.30762 36.1006 7.21191 35.6426 7.19824 35.1504C7.19824 34.4395 7.21875 33.7285 7.25977 33.0176C7.30078 32.3066 7.3418 31.6025 7.38281 30.9053L3.46582 29.8184C3.06934 29.709 2.71387 29.5449 2.39941 29.3262C2.08496 29.1074 1.81152 28.8477 1.5791 28.5469C1.34668 28.2461 1.16895 27.9111 1.0459 27.542C0.922852 27.1729 0.854492 26.7832 0.84082 26.373C0.84082 25.9766 0.90918 25.5938 1.0459 25.2246C1.18262 24.8555 1.37402 24.5068 1.62012 24.1787L4.16309 21L1.62012 17.8213C1.10059 17.1787 0.84082 16.4473 0.84082 15.627C0.84082 15.2168 0.902344 14.8271 1.02539 14.458C1.14844 14.0889 1.32617 13.7539 1.55859 13.4531C1.79102 13.1523 2.06445 12.8926 2.37891 12.6738C2.69336 12.4551 3.05566 12.291 3.46582 12.1816L7.38281 11.0947C7.35547 10.3975 7.32129 9.69336 7.28027 8.98242C7.23926 8.27148 7.21191 7.56055 7.19824 6.84961C7.19824 6.35742 7.28711 5.89941 7.46484 5.47559C7.64258 5.05176 7.89551 4.68262 8.22363 4.36816C8.55176 4.05371 8.92773 3.80078 9.35156 3.60938C9.77539 3.41797 10.2402 3.32227 10.7461 3.32227C11.1699 3.32227 11.5869 3.39746 11.9971 3.54785L15.791 4.9834L18.0264 1.59961C18.3545 1.10742 18.7783 0.717773 19.2979 0.430664C19.8174 0.143555 20.3848 0 21 0C21.6016 0 22.1621 0.143555 22.6816 0.430664C23.2012 0.717773 23.6318 1.10742 23.9736 1.59961L26.209 4.9834L30.0029 3.54785C30.4131 3.39746 30.8301 3.32227 31.2539 3.32227C31.7461 3.32227 32.2041 3.41113 32.6279 3.58887C33.0518 3.7666 33.4277 4.01953 33.7559 4.34766C34.084 4.67578 34.3369 5.05176 34.5146 5.47559C34.6924 5.89941 34.7881 6.35742 34.8018 6.84961C34.8018 7.56055 34.7812 8.27148 34.7402 8.98242C34.6992 9.69336 34.6582 10.3975 34.6172 11.0947L38.5342 12.1816C38.917 12.291 39.2725 12.4551 39.6006 12.6738C39.9287 12.8926 40.2021 13.1523 40.4209 13.4531C40.6396 13.7539 40.8174 14.0889 40.9541 14.458C41.0908 14.8271 41.1592 15.2168 41.1592 15.627C41.1592 16.4473 40.8994 17.1787 40.3799 17.8213L37.8369 21ZM38.5342 26.373C38.5342 26.1816 38.4658 25.9971 38.3291 25.8193L34.4736 21L38.3291 16.1807C38.4658 16.0029 38.5342 15.8184 38.5342 15.627C38.5342 15.1621 38.3018 14.8613 37.8369 14.7246L33.9199 13.6377L31.9102 13.084C31.9512 12.0449 32.0059 11.0059 32.0742 9.9668C32.1426 8.92773 32.1768 7.88867 32.1768 6.84961C32.1768 6.61719 32.0811 6.41211 31.8896 6.23438C31.6982 6.05664 31.4863 5.96094 31.2539 5.94727C31.1719 5.94727 30.9873 5.98828 30.7002 6.07031C30.4131 6.15234 30.0781 6.26855 29.6953 6.41895C29.3125 6.56934 28.8887 6.7334 28.4238 6.91113C27.959 7.08887 27.5215 7.25977 27.1113 7.42383C26.7012 7.58789 26.3184 7.73828 25.9629 7.875C25.6074 8.01172 25.3408 8.11426 25.1631 8.18262L24.0146 6.43945L21.7793 3.03516C21.6016 2.76172 21.3418 2.625 21 2.625C20.6582 2.625 20.3984 2.76172 20.2207 3.03516L17.9854 6.43945L16.8369 8.18262C16.6592 8.11426 16.3994 8.01172 16.0576 7.875C15.7158 7.73828 15.3262 7.58789 14.8887 7.42383C14.4512 7.25977 14.0137 7.08887 13.5762 6.91113C13.1387 6.7334 12.7217 6.57617 12.3252 6.43945C11.9287 6.30273 11.5869 6.18652 11.2998 6.09082C11.0127 5.99512 10.8281 5.94727 10.7461 5.94727C10.5137 5.94727 10.3018 6.03613 10.1104 6.21387C9.91895 6.3916 9.82324 6.60352 9.82324 6.84961C9.82324 7.88867 9.85742 8.92773 9.92578 9.9668C9.99414 11.0059 10.0488 12.0449 10.0898 13.084L8.08008 13.6377L4.16309 14.7246C3.69824 14.8613 3.46582 15.1621 3.46582 15.627C3.46582 15.8184 3.53418 16.0029 3.6709 16.1807L7.52637 21L3.6709 25.8193C3.53418 25.9971 3.46582 26.1816 3.46582 26.373C3.46582 26.8379 3.69824 27.1387 4.16309 27.2754L8.08008 28.3623L10.0898 28.916C10.0488 29.9551 9.99414 30.9941 9.92578 32.0332C9.85742 33.0723 9.82324 34.1113 9.82324 35.1504C9.82324 35.3828 9.91895 35.5879 10.1104 35.7656C10.3018 35.9434 10.5137 36.0391 10.7461 36.0527C10.8281 36.0527 11.0127 36.0117 11.2998 35.9297C11.5869 35.8477 11.9219 35.7314 12.3047 35.5811C12.6875 35.4307 13.1113 35.2666 13.5762 35.0889C14.041 34.9111 14.4785 34.7402 14.8887 34.5762C15.2988 34.4121 15.6816 34.2617 16.0371 34.125C16.3926 33.9883 16.6592 33.8857 16.8369 33.8174L17.9854 35.5605L20.2207 38.9648C20.3984 39.2383 20.6582 39.375 21 39.375C21.3418 39.375 21.6016 39.2383 21.7793 38.9648L24.0146 35.5605L25.1631 33.8174C25.3408 33.8857 25.6006 33.9883 25.9424 34.125C26.2842 34.2617 26.6738 34.4121 27.1113 34.5762C27.5488 34.7402 27.9863 34.9111 28.4238 35.0889C28.8613 35.2666 29.2783 35.4238 29.6748 35.5605C30.0713 35.6973 30.4131 35.8135 30.7002 35.9092C30.9873 36.0049 31.1719 36.0527 31.2539 36.0527C31.4863 36.0527 31.6982 35.9639 31.8896 35.7861C32.0811 35.6084 32.1768 35.3965 32.1768 35.1504C32.1768 34.1113 32.1426 33.0723 32.0742 32.0332C32.0059 30.9941 31.9512 29.9551 31.9102 28.916L33.9199 28.3623L37.8369 27.2754C38.3018 27.1387 38.5342 26.8379 38.5342 26.373ZM18.375 24.3838L27.9521 14.8271L29.7979 16.6729L18.375 28.1162L12.2021 21.9229L14.0479 20.0771L18.375 24.3838Z" fill="white"/>
</g>
<defs>
<clipPath id="clip0_2888_2448">
<rect width="42" height="42" fill="white"/>
</clipPath>
</defs>
</svg>
