<svg width="12" height="12" viewBox="0 0 12 12" fill="none" xmlns="http://www.w3.org/2000/svg">
<g clip-path="url(#clip0_2888_1417)">
<path d="M10.8105 6L11.5371 6.9082C11.6074 6.99805 11.6621 7.0957 11.7012 7.20117C11.7402 7.30664 11.7598 7.41797 11.7598 7.53516C11.7598 7.65234 11.7422 7.76367 11.707 7.86914C11.6719 7.97461 11.6211 8.07031 11.5547 8.15625C11.4883 8.24219 11.4082 8.31641 11.3145 8.37891C11.2207 8.44141 11.1191 8.48828 11.0098 8.51953L9.89062 8.83008C9.89844 9.0293 9.9082 9.23047 9.91992 9.43359C9.93164 9.63672 9.93945 9.83984 9.94336 10.043C9.94336 10.1836 9.91797 10.3145 9.86719 10.4355C9.81641 10.5566 9.74414 10.6621 9.65039 10.752C9.55664 10.8418 9.44922 10.9141 9.32812 10.9688C9.20703 11.0234 9.07422 11.0508 8.92969 11.0508C8.80859 11.0508 8.68945 11.0293 8.57227 10.9863L7.48828 10.5762L6.84961 11.543C6.75586 11.6836 6.63477 11.7949 6.48633 11.877C6.33789 11.959 6.17578 12 6 12C5.82812 12 5.66797 11.959 5.51953 11.877C5.37109 11.7949 5.24805 11.6836 5.15039 11.543L4.51172 10.5762L3.42773 10.9863C3.31055 11.0293 3.19141 11.0508 3.07031 11.0508C2.92969 11.0508 2.79883 11.0254 2.67773 10.9746C2.55664 10.9238 2.44922 10.8516 2.35547 10.7578C2.26172 10.6641 2.18945 10.5566 2.13867 10.4355C2.08789 10.3145 2.06055 10.1836 2.05664 10.043C2.05664 9.83984 2.0625 9.63672 2.07422 9.43359C2.08594 9.23047 2.09766 9.0293 2.10938 8.83008L0.990234 8.51953C0.876953 8.48828 0.775391 8.44141 0.685547 8.37891C0.595703 8.31641 0.517578 8.24219 0.451172 8.15625C0.384766 8.07031 0.333984 7.97461 0.298828 7.86914C0.263672 7.76367 0.244141 7.65234 0.240234 7.53516C0.240234 7.42188 0.259766 7.3125 0.298828 7.20703C0.337891 7.10156 0.392578 7.00195 0.462891 6.9082L1.18945 6L0.462891 5.0918C0.314453 4.9082 0.240234 4.69922 0.240234 4.46484C0.240234 4.34766 0.257812 4.23633 0.292969 4.13086C0.328125 4.02539 0.378906 3.92969 0.445312 3.84375C0.511719 3.75781 0.589844 3.68359 0.679688 3.62109C0.769531 3.55859 0.873047 3.51172 0.990234 3.48047L2.10938 3.16992C2.10156 2.9707 2.0918 2.76953 2.08008 2.56641C2.06836 2.36328 2.06055 2.16016 2.05664 1.95703C2.05664 1.81641 2.08203 1.68555 2.13281 1.56445C2.18359 1.44336 2.25586 1.33789 2.34961 1.24805C2.44336 1.1582 2.55078 1.08594 2.67188 1.03125C2.79297 0.976562 2.92578 0.949219 3.07031 0.949219C3.19141 0.949219 3.31055 0.970703 3.42773 1.01367L4.51172 1.42383L5.15039 0.457031C5.24414 0.316406 5.36523 0.205078 5.51367 0.123047C5.66211 0.0410156 5.82422 0 6 0C6.17188 0 6.33203 0.0410156 6.48047 0.123047C6.62891 0.205078 6.75195 0.316406 6.84961 0.457031L7.48828 1.42383L8.57227 1.01367C8.68945 0.970703 8.80859 0.949219 8.92969 0.949219C9.07031 0.949219 9.20117 0.974609 9.32227 1.02539C9.44336 1.07617 9.55078 1.14844 9.64453 1.24219C9.73828 1.33594 9.81055 1.44336 9.86133 1.56445C9.91211 1.68555 9.93945 1.81641 9.94336 1.95703C9.94336 2.16016 9.9375 2.36328 9.92578 2.56641C9.91406 2.76953 9.90234 2.9707 9.89062 3.16992L11.0098 3.48047C11.1191 3.51172 11.2207 3.55859 11.3145 3.62109C11.4082 3.68359 11.4863 3.75781 11.5488 3.84375C11.6113 3.92969 11.6621 4.02539 11.7012 4.13086C11.7402 4.23633 11.7598 4.34766 11.7598 4.46484C11.7598 4.69922 11.6855 4.9082 11.5371 5.0918L10.8105 6ZM11.0098 7.53516C11.0098 7.48047 10.9902 7.42773 10.9512 7.37695L9.84961 6L10.9512 4.62305C10.9902 4.57227 11.0098 4.51953 11.0098 4.46484C11.0098 4.33203 10.9434 4.24609 10.8105 4.20703L9.69141 3.89648L9.11719 3.73828C9.12891 3.44141 9.14453 3.14453 9.16406 2.84766C9.18359 2.55078 9.19336 2.25391 9.19336 1.95703C9.19336 1.89062 9.16602 1.83203 9.11133 1.78125C9.05664 1.73047 8.99609 1.70312 8.92969 1.69922C8.90625 1.69922 8.85352 1.71094 8.77148 1.73438C8.68945 1.75781 8.59375 1.79102 8.48438 1.83398C8.375 1.87695 8.25391 1.92383 8.12109 1.97461C7.98828 2.02539 7.86328 2.07422 7.74609 2.12109C7.62891 2.16797 7.51953 2.21094 7.41797 2.25C7.31641 2.28906 7.24023 2.31836 7.18945 2.33789L6.86133 1.83984L6.22266 0.867188C6.17188 0.789062 6.09766 0.75 6 0.75C5.90234 0.75 5.82812 0.789062 5.77734 0.867188L5.13867 1.83984L4.81055 2.33789C4.75977 2.31836 4.68555 2.28906 4.58789 2.25C4.49023 2.21094 4.37891 2.16797 4.25391 2.12109C4.12891 2.07422 4.00391 2.02539 3.87891 1.97461C3.75391 1.92383 3.63477 1.87891 3.52148 1.83984C3.4082 1.80078 3.31055 1.76758 3.22852 1.74023C3.14648 1.71289 3.09375 1.69922 3.07031 1.69922C3.00391 1.69922 2.94336 1.72461 2.88867 1.77539C2.83398 1.82617 2.80664 1.88672 2.80664 1.95703C2.80664 2.25391 2.81641 2.55078 2.83594 2.84766C2.85547 3.14453 2.87109 3.44141 2.88281 3.73828L2.30859 3.89648L1.18945 4.20703C1.05664 4.24609 0.990234 4.33203 0.990234 4.46484C0.990234 4.51953 1.00977 4.57227 1.04883 4.62305L2.15039 6L1.04883 7.37695C1.00977 7.42773 0.990234 7.48047 0.990234 7.53516C0.990234 7.66797 1.05664 7.75391 1.18945 7.79297L2.30859 8.10352L2.88281 8.26172C2.87109 8.55859 2.85547 8.85547 2.83594 9.15234C2.81641 9.44922 2.80664 9.74609 2.80664 10.043C2.80664 10.1094 2.83398 10.168 2.88867 10.2188C2.94336 10.2695 3.00391 10.2969 3.07031 10.3008C3.09375 10.3008 3.14648 10.2891 3.22852 10.2656C3.31055 10.2422 3.40625 10.209 3.51562 10.166C3.625 10.123 3.74609 10.0762 3.87891 10.0254C4.01172 9.97461 4.13672 9.92578 4.25391 9.87891C4.37109 9.83203 4.48047 9.78906 4.58203 9.75C4.68359 9.71094 4.75977 9.68164 4.81055 9.66211L5.13867 10.1602L5.77734 11.1328C5.82812 11.2109 5.90234 11.25 6 11.25C6.09766 11.25 6.17188 11.2109 6.22266 11.1328L6.86133 10.1602L7.18945 9.66211C7.24023 9.68164 7.31445 9.71094 7.41211 9.75C7.50977 9.78906 7.62109 9.83203 7.74609 9.87891C7.87109 9.92578 7.99609 9.97461 8.12109 10.0254C8.24609 10.0762 8.36523 10.1211 8.47852 10.1602C8.5918 10.1992 8.68945 10.2324 8.77148 10.2598C8.85352 10.2871 8.90625 10.3008 8.92969 10.3008C8.99609 10.3008 9.05664 10.2754 9.11133 10.2246C9.16602 10.1738 9.19336 10.1133 9.19336 10.043C9.19336 9.74609 9.18359 9.44922 9.16406 9.15234C9.14453 8.85547 9.12891 8.55859 9.11719 8.26172L9.69141 8.10352L10.8105 7.79297C10.9434 7.75391 11.0098 7.66797 11.0098 7.53516ZM5.25 6.9668L7.98633 4.23633L8.51367 4.76367L5.25 8.0332L3.48633 6.26367L4.01367 5.73633L5.25 6.9668Z" fill="#1A1A1A"/>
</g>
<defs>
<clipPath id="clip0_2888_1417">
<rect width="12" height="12" fill="white"/>
</clipPath>
</defs>
</svg>
