<svg width="69" height="52" viewBox="0 0 69 52" fill="none" xmlns="http://www.w3.org/2000/svg">
<path d="M55.7881 21.1055C55.0866 10.361 47.5328 0 33.6786 0C21.0072 0 11.2355 9.31612 10.718 21.749C3.78514 23.8826 0 31.2211 0 36.5625C0 44.7866 6.90986 52 14.7857 52H25.4643C25.6821 52 25.8911 51.9144 26.0451 51.762C26.1992 51.6097 26.2857 51.403 26.2857 51.1875C26.2857 50.972 26.1992 50.7653 26.0451 50.613C25.8911 50.4606 25.6821 50.375 25.4643 50.375H14.7857C7.78386 50.375 1.64286 43.9205 1.64286 36.5625C1.64286 31.6046 6.03586 22.75 14.7857 22.75H17.25C17.4679 22.75 17.6768 22.6644 17.8308 22.512C17.9849 22.3597 18.0714 22.153 18.0714 21.9375C18.0714 21.722 17.9849 21.5153 17.8308 21.363C17.6768 21.2106 17.4679 21.125 17.25 21.125H14.7857C13.9495 21.125 13.1593 21.2176 12.3888 21.3509C13.0328 11.6171 20.5127 1.625 33.6786 1.625C47.7874 1.625 54.2143 12.5759 54.2143 22.75V25.1875C54.2143 25.403 54.3008 25.6097 54.4549 25.762C54.6089 25.9144 54.8179 26 55.0357 26C55.2536 26 55.4625 25.9144 55.6166 25.762C55.7706 25.6097 55.8571 25.403 55.8571 25.1875V22.7354C60.8169 23.2733 67.3571 28.5382 67.3571 36.5625C67.3571 42.7798 61.2934 50.375 54.2143 50.375H41.8929C36.5733 50.375 34.5 48.3242 34.5 43.0625V20.7724L41.1996 27.3861C41.2752 27.4638 41.3658 27.5258 41.4659 27.5686C41.5661 27.6113 41.6739 27.6338 41.7829 27.6349C41.892 27.636 42.0002 27.6156 42.1012 27.5749C42.2022 27.5342 42.294 27.474 42.3712 27.3978C42.4484 27.3216 42.5096 27.231 42.551 27.1312C42.5924 27.0314 42.6134 26.9245 42.6126 26.8166C42.6118 26.7087 42.5893 26.6021 42.5464 26.5029C42.5035 26.4037 42.4411 26.3139 42.3627 26.2389L35.0339 19.0044C34.0581 18.0424 33.3007 18.0424 32.3265 19.0044L24.9977 26.2389C24.8481 26.3921 24.7653 26.5974 24.7672 26.8104C24.769 27.0234 24.8554 27.2272 25.0077 27.3779C25.16 27.5285 25.366 27.6139 25.5814 27.6158C25.7968 27.6176 26.0043 27.5358 26.1592 27.3878L32.8571 20.7724V43.0625C32.8571 49.244 35.6434 52 41.8929 52H54.2143C62.1772 52 69 43.511 69 36.5625C69 28.1661 62.0622 21.5995 55.7881 21.1055Z" fill="#FFD300"/>
</svg>
