<svg width="10" height="10" viewBox="0 0 10 10" fill="none" xmlns="http://www.w3.org/2000/svg">
<path d="M9.21875 3.61719C9.27031 3.61719 9.3125 3.575 9.3125 3.52344V2.82031C9.3125 2.76875 9.27031 2.72656 9.21875 2.72656H7.29688V0.78125C7.29688 0.729687 7.25469 0.6875 7.20312 0.6875H6.45312C6.40156 0.6875 6.35938 0.729687 6.35938 0.78125V2.72656H3.6875V0.78125C3.6875 0.729687 3.64531 0.6875 3.59375 0.6875H2.84375C2.79219 0.6875 2.75 0.729687 2.75 0.78125V2.72656H0.78125C0.729687 2.72656 0.6875 2.76875 0.6875 2.82031V3.52344C0.6875 3.575 0.729687 3.61719 0.78125 3.61719H2.75V6.38281H0.78125C0.729687 6.38281 0.6875 6.425 0.6875 6.47656V7.17969C0.6875 7.23125 0.729687 7.27344 0.78125 7.27344H2.75V9.21875C2.75 9.27031 2.79219 9.3125 2.84375 9.3125H3.59375C3.64531 9.3125 3.6875 9.27031 3.6875 9.21875V7.27344H6.35938V9.21875C6.35938 9.27031 6.40156 9.3125 6.45312 9.3125H7.20312C7.25469 9.3125 7.29688 9.27031 7.29688 9.21875V7.27344H9.21875C9.27031 7.27344 9.3125 7.23125 9.3125 7.17969V6.47656C9.3125 6.425 9.27031 6.38281 9.21875 6.38281H7.29688V3.61719H9.21875ZM6.35938 6.38281H3.6875V3.61719H6.35938V6.38281Z" fill="#1A1A1A"/>
</svg>
