<svg width="350" height="350" viewBox="0 0 350 350" fill="none" xmlns="http://www.w3.org/2000/svg">
<path d="M329.832 183.861C322.348 211.786 304.574 242.936 276.459 254.347C233.978 271.592 232.128 307.343 153.488 311.574C141.226 312.235 129.774 311.599 119.142 309.851C113.427 308.911 107.946 307.644 102.71 306.078C55.1761 291.927 27.4001 253.42 21.3311 210.928C13.3399 155.043 49.9457 124.536 73.9004 106.431C97.8558 88.3267 122.723 24.6834 200 19.9164C211.782 19.1947 223.653 19.6777 235.301 21.6685C261.891 26.201 289.724 39.193 307.206 60.4086C308.519 62.0025 309.782 63.6412 311.002 65.3177C334.82 98.1176 340.038 145.79 329.832 183.861Z" fill="#F2F2F2"/>
<path opacity="0.7" d="M329.832 183.861C322.348 211.786 304.574 242.936 276.459 254.347C233.978 271.592 232.128 307.343 153.488 311.574C141.226 312.235 129.774 311.599 119.142 309.851C113.427 308.911 107.946 307.644 102.71 306.078C55.1761 291.927 27.4001 253.42 21.3311 210.928C13.3399 155.043 49.9457 124.536 73.9004 106.431C97.8558 88.3267 122.723 24.6834 200 19.9164C211.782 19.1947 223.653 19.6777 235.301 21.6685C261.891 26.201 289.724 39.193 307.206 60.4086C308.519 62.0025 309.782 63.6412 311.002 65.3177C334.82 98.1176 340.038 145.79 329.832 183.861Z" fill="white"/>
<path opacity="0.3" d="M61.852 77.5103V73.5441C61.852 65.7132 56.6426 62.9419 51.3191 62.9419C45.8913 62.9419 40.9038 66.9319 40.9038 73.5441V77.5103H39.4212V99.4763H63.2177V77.5103H61.852ZM52.0219 89.5825V93.562H49.7679V89.5825C48.6675 89.1366 47.8898 88.0607 47.8898 86.8C47.8898 85.1403 49.2352 83.7949 50.8949 83.7949C52.5546 83.7949 53.9 85.1403 53.9 86.8C53.9 88.0607 53.1223 89.1359 52.0219 89.5825ZM58.5543 77.5103H44.0839V73.5441C44.0839 69.5548 47.3298 66.3089 51.3191 66.3089C55.3084 66.3089 58.5543 69.0382 58.5543 73.5441V77.5103Z" stroke="#1A1A1A" stroke-width="0.7" stroke-miterlimit="10"/>
<path opacity="0.3" d="M145.809 55.0039H78.3615C73.1521 55.0039 68.929 50.7808 68.929 45.5714C68.929 40.362 73.1521 36.1389 78.3615 36.1389H145.809C151.019 36.1389 155.242 40.362 155.242 45.5714C155.242 50.7808 151.019 55.0039 145.809 55.0039Z" stroke="#1A1A1A" stroke-width="0.7" stroke-miterlimit="10"/>
<g opacity="0.3">
<path d="M86.8763 44.6935L88.8426 46.8642L87.8969 47.5698L86.4304 44.9903L84.9835 47.5698L84.0378 46.8642L85.9859 44.6935L83.1096 44.0999L83.4617 42.9673L86.1707 44.1552L85.8368 41.2236H87.024L86.709 44.1552L89.418 42.9869L89.7701 44.1181L86.8763 44.6935Z" fill="#1A1A1A"/>
<path d="M94.2032 44.6935L96.1695 46.8642L95.2231 47.5698L93.7566 44.9903L92.3097 47.5698L91.3633 46.8642L93.3114 44.6935L90.4365 44.0999L90.7886 42.9673L93.4976 44.1552L93.1637 41.2236H94.3516L94.0366 44.1552L96.7456 42.9869L97.0977 44.1181L94.2032 44.6935Z" fill="#1A1A1A"/>
<path d="M101.531 44.6935L103.497 46.8642L102.551 47.5698L101.084 44.9903L99.6366 47.5698L98.6902 46.8642L100.639 44.6935L97.7641 44.0999L98.1162 42.9673L100.825 44.1552L100.491 41.2236H101.679L101.364 44.1552L104.073 42.9869L104.425 44.1181L101.531 44.6935Z" fill="#1A1A1A"/>
<path d="M108.858 44.6935L110.824 46.8642L109.878 47.5698L108.411 44.9903L106.963 47.5698L106.017 46.8642L107.966 44.6935L105.091 44.0999L105.443 42.9673L108.153 44.1552L107.819 41.2236H109.007L108.692 44.1552L111.401 42.9869L111.753 44.1181L108.858 44.6935Z" fill="#1A1A1A"/>
<path d="M116.185 44.6935L118.152 46.8642L117.205 47.5698L115.739 44.9903L114.292 47.5698L113.345 46.8642L115.293 44.6935L112.419 44.0999L112.771 42.9673L115.48 44.1552L115.146 41.2236H116.334L116.019 44.1552L118.728 42.9869L119.08 44.1181L116.185 44.6935Z" fill="#1A1A1A"/>
<path d="M123.512 44.6935L125.479 46.8642L124.533 47.5698L123.066 44.9903L121.619 47.5698L120.673 46.8642L122.621 44.6935L119.746 44.0999L120.098 42.9673L122.807 44.1552L122.473 41.2236H123.661L123.346 44.1552L126.055 42.9869L126.407 44.1181L123.512 44.6935Z" fill="#1A1A1A"/>
<path d="M130.841 44.6935L132.807 46.8642L131.86 47.5698L130.394 44.9903L128.946 47.5698L128.001 46.8642L129.949 44.6935L127.073 44.0999L127.425 42.9673L130.134 44.1552L129.8 41.2236H130.988L130.673 44.1552L133.382 42.9869L133.734 44.1181L130.841 44.6935Z" fill="#1A1A1A"/>
<path d="M138.167 44.6935L140.134 46.8642L139.188 47.5698L137.721 44.9903L136.274 47.5698L135.327 46.8642L137.276 44.6935L134.4 44.0999L134.752 42.9673L137.461 44.1552L137.127 41.2236H138.315L138 44.1552L140.709 42.9869L141.061 44.1181L138.167 44.6935Z" fill="#1A1A1A"/>
</g>
<path opacity="0.3" d="M58.5935 164.809C57.9712 163.734 57.0997 163.123 56.1876 163.123H54.6V161.7C55.7333 160.367 56.4662 158.339 56.4662 156.259C56.4662 152.689 54.3179 149.794 51.6677 149.794C49.0175 149.794 46.8692 152.689 46.8692 156.259C46.8692 158.259 47.5433 160.213 48.6017 161.545V163.124H46.4793C45.5441 163.124 44.6509 163.734 44.0125 164.81L41.1369 169.656H50.8676H51.9337H61.3977L58.5935 164.809Z" stroke="#1A1A1A" stroke-width="0.7" stroke-miterlimit="10"/>
<path opacity="0.3" d="M65.3213 166.89C68.5049 159.204 64.8552 150.393 57.1694 147.209C49.4836 144.026 40.6722 147.675 37.4886 155.361C34.305 163.047 37.9547 171.858 45.6405 175.042C53.3263 178.226 62.1377 174.576 65.3213 166.89Z" stroke="#1A1A1A" stroke-width="0.7" stroke-miterlimit="10"/>
<g opacity="0.2">
<path d="M164.029 226.624C137.951 212.059 120.275 184.183 120.275 152.253C120.275 105.315 158.462 67.1286 205.4 67.1286C211.261 67.1286 216.981 67.7362 222.511 68.8709L220.338 76.1516L244.528 70.3955L227.448 52.3257L225.374 59.2746C218.931 57.8914 212.25 57.1536 205.399 57.1536C152.961 57.1536 110.299 99.8151 110.299 152.253C110.299 188.987 131.235 220.919 161.801 236.754L155.784 226.785L164.029 226.624Z" fill="#FFD300"/>
<path d="M240.493 63.8652L247.965 71.7703L238.788 73.9543C269.177 86.9624 290.524 117.16 290.524 152.253C290.524 199.19 252.337 237.377 205.4 237.377C196.832 237.377 188.56 236.098 180.755 233.732L183.71 228.376L158.85 228.858L171.697 250.146L175.838 242.643C185.147 245.696 195.082 247.353 205.399 247.353C257.837 247.353 300.499 204.692 300.499 152.254C300.5 112.202 275.612 77.8582 240.493 63.8652Z" fill="#FFD300"/>
</g>
<path d="M317.82 48.4594L301.79 45.4004L301.763 45.455C300.963 47.0727 299.659 47.9729 298.449 47.7426L297.754 47.6096C296.544 47.3786 295.663 46.0612 295.515 44.2629L295.51 44.202L279.481 41.143C275.016 40.2911 270.706 43.2192 269.854 47.6838L249.062 153.181C248.574 155.743 250.254 158.216 252.816 158.704L298.045 167.335C300.607 167.824 303.08 166.144 303.568 163.582L324.361 58.0851C325.212 53.6212 322.284 49.3113 317.82 48.4594Z" fill="#F2F2F2" stroke="#263238" stroke-width="0.7" stroke-miterlimit="10" stroke-linecap="round" stroke-linejoin="round"/>
<path d="M323.911 60.4408L324.36 58.0853C325.212 53.6207 322.284 49.3108 317.82 48.4589L301.79 45.3999L301.763 45.4545C300.963 47.0722 299.659 47.9724 298.449 47.7421L297.753 47.6091C296.544 47.3781 295.663 46.0607 295.515 44.2624L295.51 44.2015L279.481 41.1425C275.016 40.2906 270.706 43.2187 269.854 47.6833L269.405 50.0388L323.911 60.4408Z" fill="white" stroke="#263238" stroke-width="0.7" stroke-miterlimit="10" stroke-linecap="round" stroke-linejoin="round"/>
<path d="M320.398 94.2227L322.353 83.9789L321.426 83.8018L327.253 56.7223C328.105 52.2577 325.177 47.9478 320.713 47.0959L277.292 38.81C272.828 37.9581 268.518 40.8862 267.666 45.3508L246.292 153.896C245.44 158.36 248.369 162.67 252.833 163.522L296.253 171.808C300.718 172.66 305.028 169.731 305.88 165.267L317.805 102.775L318.732 102.952L319.887 96.8995L318.96 96.7224L319.471 94.0449L320.398 94.2227ZM304.441 159.009C303.589 163.474 299.279 166.402 294.815 165.55L256.476 158.233C252.011 157.382 249.083 153.072 249.935 148.607L269.854 47.6839C270.706 43.2193 275.016 40.2912 279.481 41.1431L295.51 44.2021L295.515 44.263C295.663 46.062 296.544 47.3787 297.753 47.6097L298.449 47.7427C299.659 47.9737 300.963 47.0735 301.763 45.4551L301.79 45.4005L317.82 48.4595C322.284 49.3114 325.212 53.6213 324.36 58.0859L304.441 159.009Z" fill="#707070" stroke="#263238" stroke-width="0.7" stroke-miterlimit="10" stroke-linecap="round" stroke-linejoin="round"/>
<path d="M319.084 47.9401L278.496 40.1946C273.767 39.2923 269.201 42.3947 268.298 47.1246L247.533 152.482C246.63 157.212 249.733 161.777 254.463 162.68L295.05 170.425C299.78 171.328 304.345 168.225 305.248 163.496L326.014 58.1391C326.916 53.4085 323.814 48.8424 319.084 47.9401ZM304.441 159.009C303.589 163.474 299.279 166.402 294.815 165.55L256.476 158.234C252.011 157.382 249.083 153.072 249.935 148.607L269.854 47.6839C270.706 43.2193 275.016 40.2912 279.481 41.1431L295.51 44.2021L295.515 44.263C295.663 46.062 296.544 47.3787 297.753 47.6097L298.449 47.7427C299.659 47.9737 300.963 47.0735 301.763 45.4551L301.79 45.4005L317.82 48.4595C322.284 49.3114 325.212 53.6213 324.36 58.0859L304.441 159.009Z" fill="#263238" stroke="#263238" stroke-width="0.7" stroke-miterlimit="10" stroke-linecap="round" stroke-linejoin="round"/>
<path d="M299.169 45.3018C299.249 44.8825 298.974 44.4779 298.555 44.3981C298.136 44.3183 297.731 44.5927 297.651 45.012C297.571 45.4313 297.847 45.8359 298.265 45.9157C298.684 45.9962 299.088 45.7211 299.169 45.3018Z" fill="#707070"/>
<path d="M275.612 43.8205C275.465 44.5884 274.55 44.7004 274.435 45.2856L274.427 45.3255L275.264 45.4851L275.215 45.7434L274.098 45.5306L274.14 45.3122C274.296 44.4897 275.19 44.4946 275.326 43.7778C275.376 43.516 275.315 43.3613 275.104 43.3207C274.897 43.2815 274.777 43.4131 274.734 43.6385L274.691 43.8639L274.426 43.8135L274.465 43.6063C274.539 43.2171 274.767 42.9924 275.159 43.0673C275.556 43.1429 275.686 43.4313 275.612 43.8205Z" fill="#263238"/>
<path d="M277.007 44.083L276.994 44.1481C276.944 44.4099 276.804 44.5758 276.585 44.6129C276.785 44.734 276.842 44.9447 276.794 45.1995L276.756 45.3962C276.682 45.7854 276.452 46.0052 276.058 45.9303C275.669 45.8561 275.536 45.5663 275.61 45.1771L275.644 45.0021L275.909 45.0525L275.872 45.245C275.828 45.4746 275.897 45.6306 276.1 45.6698C276.307 45.709 276.424 45.5922 276.473 45.3339L276.511 45.1372C276.559 44.8859 276.476 44.7459 276.263 44.6976L276.11 44.6682L276.159 44.4134L276.326 44.4456C276.517 44.4743 276.657 44.377 276.699 44.1551L276.721 44.0382C276.771 43.7764 276.706 43.6245 276.499 43.5846C276.295 43.5454 276.173 43.6693 276.13 43.8989L276.104 44.0298L275.839 43.9794L275.862 43.8632C275.936 43.474 276.165 43.2577 276.555 43.3319C276.947 43.4082 277.081 43.6938 277.007 44.083Z" fill="#263238"/>
<path d="M277.52 44.3811L277.453 44.7339L277.18 44.6821L277.247 44.3293L277.52 44.3811ZM277.255 45.7671L277.188 46.1199L276.915 46.0681L276.982 45.7153L277.255 45.7671Z" fill="#263238"/>
<path d="M278.051 44.7201C278.157 44.5969 278.298 44.5486 278.469 44.5815C278.797 44.6438 278.896 44.9119 278.827 45.2759L278.732 45.7743C278.658 46.1635 278.424 46.3826 278.035 46.3084C277.645 46.2342 277.512 45.9444 277.586 45.5552L277.619 45.3844L277.884 45.4348L277.848 45.6238C277.804 45.8534 277.873 46.0095 278.077 46.048C278.28 46.0872 278.401 45.9668 278.445 45.7372L278.54 45.2423C278.584 45.0134 278.515 44.8566 278.312 44.8181C278.156 44.788 278.033 44.8552 277.972 45.0365L277.961 45.0946L277.696 45.0442L278.035 43.6421L279.039 43.8339L278.991 44.0887L278.241 43.9459L278.051 44.7201Z" fill="#263238"/>
<path d="M280.399 44.7269L280.39 44.7745L280.125 44.7241L280.137 44.659C280.181 44.4294 280.112 44.2768 279.905 44.2376C279.69 44.1963 279.569 44.3167 279.517 44.5897L279.408 45.1609C279.51 44.9992 279.668 44.9278 279.871 44.9663C280.199 45.0286 280.299 45.2932 280.229 45.6607L280.155 46.0464C280.081 46.4356 279.839 46.6533 279.45 46.5791C279.057 46.5042 278.913 46.2123 278.987 45.8231L279.235 44.5239C279.312 44.12 279.542 43.9037 279.946 43.9807C280.339 44.0549 280.474 44.3377 280.399 44.7269ZM279.341 45.513L279.268 45.8952C279.224 46.1248 279.292 46.2809 279.5 46.3201C279.703 46.3586 279.828 46.2396 279.872 46.01L279.945 45.6278C279.989 45.3982 279.917 45.2414 279.713 45.2029C279.505 45.163 279.384 45.2834 279.341 45.513Z" fill="#263238"/>
<path d="M308.195 50.1461L307.476 50.0088L307.133 51.8069L307.852 51.9442L308.195 50.1461Z" fill="#263238"/>
<path d="M309.218 49.9653L308.499 49.8281L308.087 51.9865L308.806 52.1237L309.218 49.9653Z" fill="#263238"/>
<path d="M310.226 49.8928L309.506 49.7556L309.046 52.1698L309.765 52.307L310.226 49.8928Z" fill="#263238"/>
<path d="M311.269 49.6314L310.55 49.4941L310.004 52.3525L310.724 52.4898L311.269 49.6314Z" fill="#263238"/>
<path d="M319.626 54.1408L315.311 53.3176L315.815 50.6807L320.13 51.5039L319.626 54.1408ZM315.597 53.1237L319.432 53.8559L319.844 51.6985L316.009 50.9663L315.597 53.1237Z" fill="#263238"/>
<path d="M318.605 51.7191L316.328 51.2847L316.016 52.9205L318.293 53.355L318.605 51.7191Z" fill="#263238"/>
<path d="M320.334 52.592L319.791 52.4885L319.673 53.1094L320.216 53.2129L320.334 52.592Z" fill="#263238"/>
<path d="M313.839 52.4418C313.811 52.4362 313.783 52.4236 313.76 52.4033C312.982 51.7138 312.309 52.0875 312.281 52.1036C312.202 52.1491 312.102 52.1218 312.057 52.0441C312.011 51.9657 312.036 51.8663 312.115 51.8208C312.151 51.7991 313.014 51.305 313.978 52.1583C314.046 52.2185 314.052 52.3221 313.992 52.39C313.953 52.4348 313.893 52.4523 313.839 52.4418Z" fill="#263238"/>
<path d="M314.267 51.9622C314.239 51.9566 314.212 51.944 314.189 51.9237C313.064 50.9262 312.071 51.4939 312.061 51.4995C311.983 51.5457 311.882 51.5198 311.836 51.4414C311.79 51.3637 311.816 51.2629 311.894 51.2167C311.907 51.209 313.104 50.5244 314.407 51.678C314.475 51.7382 314.481 51.8418 314.421 51.9097C314.381 51.9545 314.322 51.9727 314.267 51.9622Z" fill="#263238"/>
<path d="M314.681 51.391C314.653 51.3854 314.626 51.3728 314.603 51.3525C313.178 50.0897 311.937 50.7855 311.884 50.8163C311.806 50.8618 311.706 50.8352 311.66 50.7575C311.615 50.6798 311.641 50.5797 311.718 50.5335C311.733 50.5244 313.211 49.6802 314.821 51.1075C314.889 51.1677 314.895 51.2713 314.835 51.3392C314.796 51.384 314.736 51.4015 314.681 51.391Z" fill="#263238"/>
<path d="M313.303 52.6196C313.26 52.8429 313.044 52.9892 312.821 52.9465C312.598 52.9038 312.451 52.6882 312.494 52.4649C312.537 52.2416 312.752 52.0953 312.976 52.138C313.198 52.1807 313.345 52.3963 313.303 52.6196Z" fill="#263238"/>
<path d="M302.25 128.79L264.263 121.541C262.235 121.154 260.906 119.197 261.293 117.171L267.378 85.2852C267.765 83.258 269.722 81.9287 271.748 82.3151L309.736 89.5643C311.763 89.9514 313.093 91.9079 312.705 93.9351L306.62 125.821C306.234 127.847 304.277 129.177 302.25 128.79Z" fill="white" stroke="#263238" stroke-width="0.7" stroke-miterlimit="10"/>
<path d="M278.768 77.5507L278.279 73.8113L278.914 73.9324L279.255 76.7905L280.631 74.26L281.21 74.3706L279.371 77.6662L278.996 79.6325L278.393 79.517L278.768 77.5507Z" fill="#263238"/>
<path d="M281.233 75.7476C281.393 74.909 281.911 74.4477 282.75 74.608C283.595 74.7697 283.908 75.3892 283.748 76.2278L283.207 79.0642C283.049 79.8951 282.529 80.3641 281.682 80.2024C280.844 80.0421 280.534 79.4149 280.692 78.584L281.233 75.7476ZM281.289 78.7303C281.193 79.2315 281.35 79.5619 281.789 79.6459C282.235 79.7313 282.494 79.48 282.589 78.9788L283.142 76.0801C283.237 75.5866 283.09 75.2499 282.643 75.1645C282.204 75.0805 281.936 75.3381 281.842 75.8316L281.289 78.7303Z" fill="#263238"/>
<path d="M284.361 79.3167C284.267 79.8102 284.406 80.1455 284.853 80.2309C285.292 80.3149 285.544 80.0545 285.638 79.561L286.438 75.3694L287.011 75.4786L286.217 79.6387C286.059 80.4696 285.568 80.9519 284.722 80.7909C283.884 80.6306 283.606 80.0013 283.765 79.1711L284.559 75.011L285.161 75.1258L284.361 79.3167Z" fill="#263238"/>
<path d="M288.838 75.8266C289.699 75.9911 289.976 76.4986 289.821 77.3134L289.735 77.76C289.62 78.3634 289.336 78.6994 288.838 78.7582C289.311 79.0025 289.421 79.4463 289.309 80.0336L289.146 80.8876C289.1 81.1305 289.064 81.3587 289.13 81.5666L288.511 81.4483C288.47 81.2782 288.465 81.1312 288.536 80.763L288.701 79.9013C288.819 79.2825 288.566 79.0312 288.057 78.9339L287.626 78.852L287.179 81.1942L286.568 81.0773L287.614 75.5928L288.838 75.8266ZM288.187 78.3823C288.673 78.4747 288.993 78.3739 289.107 77.7782L289.207 77.2532C289.301 76.7597 289.17 76.4664 288.715 76.3796L288.12 76.2662L287.733 78.2955L288.187 78.3823Z" fill="#263238"/>
<path d="M294.087 78.201L293.993 78.6945L293.413 78.5839L293.513 78.0589C293.607 77.5654 293.468 77.2301 293.022 77.1447C292.583 77.0607 292.322 77.3197 292.228 77.8132L291.675 80.7119C291.58 81.2054 291.727 81.5421 292.166 81.6261C292.613 81.7115 292.866 81.4511 292.959 80.9576L293.095 80.245L293.675 80.3556L293.545 81.0374C293.386 81.8683 292.89 82.3415 292.043 82.1798C291.205 82.0202 290.918 81.3972 291.076 80.5663L291.617 77.7299C291.776 76.8997 292.272 76.4258 293.111 76.5854C293.959 76.7471 294.246 77.3708 294.087 78.201Z" fill="#263238"/>
<path d="M294.598 78.2983C294.758 77.4604 295.276 76.9984 296.115 77.1587C296.961 77.3204 297.273 77.9399 297.114 78.7785L296.573 81.6149C296.414 82.4458 295.894 82.9148 295.048 82.7531C294.209 82.5928 293.899 81.9656 294.058 81.1347L294.598 78.2983ZM294.654 81.281C294.558 81.7822 294.715 82.1126 295.153 82.1966C295.6 82.282 295.859 82.0307 295.955 81.5295L296.508 78.6308C296.602 78.1373 296.454 77.8006 296.008 77.7152C295.57 77.6319 295.301 77.8888 295.207 78.3823L294.654 81.281Z" fill="#263238"/>
<path d="M299.232 77.8104C300.086 77.9735 300.379 78.565 300.218 79.4113L299.69 82.177C299.53 83.0149 299.039 83.4573 298.185 83.2942L296.901 83.0492L297.947 77.5647L299.232 77.8104ZM298.283 82.737C298.722 82.821 298.986 82.5865 299.081 82.0853L299.62 79.265C299.716 78.7638 299.557 78.4488 299.11 78.3634L298.452 78.2381L297.618 82.6096L298.283 82.737Z" fill="#263238"/>
<path d="M302.538 80.9582L302.434 81.5063L301.094 81.2508L300.722 83.2017L302.367 83.516L302.26 84.0725L300.004 83.642L301.051 78.1575L303.307 78.588L303.2 79.1445L301.555 78.8302L301.198 80.7027L302.538 80.9582Z" fill="#263238"/>
<path d="M274.551 99.7737C274.984 99.2739 275.558 99.0772 276.252 99.2095C277.583 99.4636 277.987 100.552 277.705 102.03L277.319 104.055C277.017 105.636 276.066 106.527 274.484 106.226C272.903 105.924 272.361 104.748 272.663 103.167L272.796 102.471L273.875 102.677L273.728 103.446C273.55 104.378 273.827 105.012 274.655 105.17C275.483 105.328 275.974 104.84 276.152 103.908L276.536 101.897C276.713 100.966 276.436 100.331 275.608 100.173C274.973 100.052 274.476 100.325 274.228 101.059L274.184 101.295L273.105 101.09L274.483 95.3931L278.564 96.1715L278.366 97.2061L275.32 96.6251L274.551 99.7737Z" fill="#263238"/>
<path d="M284.091 99.8016L284.054 99.9941L282.975 99.7883L283.026 99.5223C283.204 98.5913 282.924 97.9711 282.081 97.8101C281.209 97.6435 280.717 98.1321 280.505 99.2409L280.062 101.561C280.479 100.906 281.116 100.614 281.944 100.772C283.274 101.026 283.683 102.099 283.398 103.592L283.099 105.159C282.797 106.741 281.816 107.626 280.234 107.325C278.638 107.02 278.052 105.836 278.353 104.254L279.361 98.977C279.674 97.3362 280.608 96.457 282.249 96.7706C283.845 97.0737 284.392 98.2196 284.091 99.8016ZM279.788 102.994L279.492 104.546C279.315 105.478 279.592 106.113 280.435 106.274C281.262 106.431 281.769 105.946 281.947 105.015L282.243 103.463C282.42 102.532 282.128 101.893 281.3 101.736C280.458 101.575 279.966 102.063 279.788 102.994Z" fill="#263238"/>
<path d="M289.841 100.899L289.805 101.091L288.725 100.885L288.776 100.619C288.954 99.6882 288.674 99.068 287.831 98.907C286.959 98.7404 286.468 99.229 286.256 100.338L285.813 102.658C286.229 102.002 286.867 101.711 287.695 101.869C289.025 102.123 289.433 103.196 289.148 104.689L288.849 106.256C288.548 107.838 287.567 108.723 285.985 108.421C284.388 108.117 283.802 106.933 284.104 105.351L285.111 100.074C285.424 98.4331 286.359 97.5539 287.999 97.8675C289.595 98.1713 290.143 99.3172 289.841 100.899ZM285.539 104.092L285.243 105.644C285.065 106.576 285.343 107.21 286.185 107.371C287.012 107.53 287.519 107.044 287.697 106.112L287.993 104.56C288.171 103.629 287.879 102.991 287.052 102.833C286.208 102.672 285.717 103.161 285.539 104.092Z" fill="#263238"/>
<path d="M295.588 102.011L294.581 107.288C294.268 108.929 293.331 109.823 291.675 109.506C290.094 109.205 289.535 108.041 289.836 106.459L289.873 106.267L290.951 106.473L290.9 106.739C290.723 107.67 291.018 108.293 291.845 108.452C292.732 108.621 293.224 108.132 293.432 107.039L293.875 104.718C293.46 105.374 292.825 105.652 291.997 105.493C290.667 105.239 290.256 104.181 290.541 102.688L290.842 101.106C291.144 99.5244 292.107 98.6508 293.703 98.9553C295.301 99.2598 295.891 100.43 295.588 102.011ZM291.993 101.264L291.697 102.816C291.519 103.747 291.811 104.385 292.638 104.543C293.481 104.704 293.973 104.215 294.15 103.283L294.447 101.732C294.627 100.785 294.347 100.165 293.505 100.005C292.677 99.8464 292.174 100.318 291.993 101.264Z" fill="#263238"/>
<path d="M301.45 103.083L301.388 103.409C301.187 104.458 300.672 105.157 299.799 105.312C300.591 105.815 300.761 106.69 300.564 107.725L300.417 108.494C300.112 110.09 299.095 110.923 297.484 110.615C295.873 110.308 295.234 109.159 295.538 107.563L295.685 106.794C295.886 105.745 296.36 105.023 297.3 104.835C296.52 104.348 296.309 103.527 296.509 102.477L296.572 102.152C296.876 100.555 297.902 99.7554 299.499 100.06C301.095 100.366 301.754 101.487 301.45 103.083ZM297.705 102.399L297.609 102.902C297.417 103.907 297.82 104.443 298.633 104.599C299.446 104.754 300.018 104.403 300.21 103.398L300.306 102.896C300.509 101.831 300.114 101.251 299.302 101.095C298.488 100.941 297.908 101.335 297.705 102.399ZM296.85 106.879L296.684 107.751C296.481 108.815 296.857 109.408 297.685 109.566C298.513 109.723 299.067 109.308 299.285 108.247L299.451 107.375C299.643 106.37 299.293 105.798 298.436 105.634C297.578 105.47 297.042 105.873 296.85 106.879Z" fill="#263238"/>
<path d="M264.159 130.555L299.898 137.376" stroke="#263238" stroke-width="0.7" stroke-miterlimit="10"/>
<path d="M262.828 137.529L298.568 144.35" stroke="#263238" stroke-width="0.7" stroke-miterlimit="10"/>
<path d="M322.113 104.283L330.758 102.953" stroke="#263238" stroke-width="0.7" stroke-miterlimit="10"/>
<path d="M320.783 114.259L325.439 115.589" stroke="#263238" stroke-width="0.7" stroke-miterlimit="10"/>
<path d="M318.123 122.904L326.769 128.89" stroke="#263238" stroke-width="0.7" stroke-miterlimit="10"/>
<path d="M239.243 120.891C240.178 120.891 240.937 120.133 240.937 119.197V105.203C240.937 104.267 240.178 103.509 239.243 103.509H239.166V98.0349C239.166 94.306 236.143 91.2827 232.414 91.2827H84.714C80.9851 91.2827 77.9618 94.306 77.9618 98.0349V200.07C77.9618 203.8 80.9851 206.823 84.714 206.823H232.414C236.143 206.823 239.166 203.799 239.166 200.07V163.463H239.243C240.178 163.463 240.937 162.704 240.937 161.769V147.774C240.937 146.838 240.178 146.08 239.243 146.08H239.166V144.313H239.243C240.178 144.313 240.937 143.555 240.937 142.619V128.624C240.937 127.688 240.178 126.93 239.243 126.93H239.166V120.891H239.243Z" fill="#263238"/>
<path d="M233.145 95.7837H83.9833V202.321H233.145V95.7837Z" fill="#F2F2F2" stroke="#263238" stroke-width="0.7" stroke-miterlimit="10"/>
<path d="M200.523 109.48H117.105V176.48H200.523V109.48Z" fill="#E3E3E3" stroke="#263238" stroke-width="0.7" stroke-miterlimit="10"/>
<path d="M148.489 157.911V158.33H147.465V159.821H148.723V160.246H146.999V156.055H148.723V156.48H147.465V157.911H148.489Z" fill="#B2B2B2"/>
<path d="M149.566 160.246H149.147V156.055H149.74L150.71 159.085V156.055H151.123V160.246H150.638L149.566 156.857V160.246Z" fill="#B2B2B2"/>
<path d="M152.206 160.246V156.48H151.433V156.055H153.439V156.48H152.666V160.246H152.206Z" fill="#B2B2B2"/>
<path d="M155.247 157.911V158.33H154.223V159.821H155.48V160.246H153.756V156.055H155.48V156.48H154.223V157.911H155.247Z" fill="#B2B2B2"/>
<path d="M156.844 156.055C157.503 156.055 157.778 156.39 157.778 157.013V157.354C157.778 157.815 157.616 158.103 157.257 158.217C157.64 158.33 157.783 158.642 157.783 159.091V159.743C157.783 159.929 157.79 160.103 157.867 160.247H157.394C157.34 160.127 157.317 160.019 157.317 159.738V159.079C157.317 158.606 157.095 158.456 156.706 158.456H156.377V160.246H155.91V156.055H156.844ZM156.724 158.031C157.095 158.031 157.317 157.911 157.317 157.456V157.055C157.317 156.677 157.179 156.48 156.832 156.48H156.377V158.031H156.724Z" fill="#B2B2B2"/>
<path d="M161.046 157.067V157.445H160.603V157.044C160.603 156.666 160.453 156.439 160.112 156.439C159.777 156.439 159.622 156.666 159.622 157.044V159.259C159.622 159.636 159.777 159.864 160.112 159.864C160.454 159.864 160.603 159.636 160.603 159.259V158.715H161.046V159.235C161.046 159.87 160.747 160.289 160.1 160.289C159.46 160.289 159.16 159.87 159.16 159.235V157.068C159.16 156.433 159.46 156.015 160.1 156.015C160.747 156.013 161.046 156.433 161.046 157.067Z" fill="#B2B2B2"/>
<path d="M161.435 157.067C161.435 156.427 161.752 156.014 162.392 156.014C163.039 156.014 163.356 156.427 163.356 157.067V159.235C163.356 159.869 163.039 160.288 162.392 160.288C161.752 160.288 161.435 159.869 161.435 159.235V157.067ZM161.896 159.258C161.896 159.641 162.057 159.863 162.393 159.863C162.735 159.863 162.89 159.642 162.89 159.258V157.043C162.89 156.666 162.735 156.438 162.393 156.438C162.058 156.438 161.896 156.666 161.896 157.043V159.258Z" fill="#B2B2B2"/>
<path d="M164.781 156.055C165.433 156.055 165.733 156.451 165.733 157.097V159.21C165.733 159.851 165.433 160.246 164.781 160.246H163.799V156.055H164.781ZM164.774 159.821C165.11 159.821 165.271 159.612 165.271 159.228V157.073C165.271 156.69 165.11 156.48 164.768 156.48H164.265V159.82L164.774 159.821Z" fill="#B2B2B2"/>
<path d="M167.66 157.911V158.33H166.636V159.821H167.894V160.246H166.169V156.055H167.894V156.48H166.636V157.911H167.66Z" fill="#B2B2B2"/>
<path d="M193.938 131.61H123.546V139.553H193.938V131.61Z" fill="white" stroke="#263238" stroke-width="0.7" stroke-miterlimit="10"/>
<path d="M193.938 144.209H123.546V152.152H193.938V144.209Z" fill="white" stroke="#263238" stroke-width="0.7" stroke-miterlimit="10"/>
<path d="M168.687 162.129H162.041V170.072H168.687V162.129Z" fill="white" stroke="#263238" stroke-width="0.7" stroke-miterlimit="10"/>
<path d="M160.229 162.129H153.582V170.072H160.229V162.129Z" fill="white" stroke="#263238" stroke-width="0.7" stroke-miterlimit="10"/>
<path d="M151.769 162.129H145.123V170.072H151.769V162.129Z" fill="white" stroke="#263238" stroke-width="0.7" stroke-miterlimit="10"/>
<path d="M143.311 162.129H136.967V170.072H143.311V162.129Z" fill="white" stroke="#263238" stroke-width="0.7" stroke-miterlimit="10"/>
<path d="M177.387 162.129H170.5V170.072H177.387V162.129Z" fill="white" stroke="#263238" stroke-width="0.7" stroke-miterlimit="10"/>
<path d="M162.169 118.572V117.048C162.169 114.572 160.155 112.558 157.679 112.558C155.203 112.558 153.189 114.572 153.189 117.048V118.572H153.105V127.016H162.253V118.572H162.169ZM157.949 123.213V124.743H157.083V123.213C156.66 123.042 156.361 122.628 156.361 122.144C156.361 121.506 156.878 120.989 157.516 120.989C158.154 120.989 158.671 121.506 158.671 122.144C158.672 122.628 158.372 123.042 157.949 123.213ZM160.46 118.572H154.897V117.048C154.897 115.514 156.145 114.267 157.678 114.267C159.212 114.267 160.46 115.514 160.46 117.048V118.572H160.46Z" fill="#263238"/>
<path d="M148.48 147.782L149.115 148.483L148.809 148.71L148.336 147.878L147.869 148.71L147.564 148.483L148.193 147.782L147.265 147.59L147.378 147.225L148.252 147.608L148.144 146.662H148.527L148.426 147.608L149.3 147.23L149.414 147.595L148.48 147.782Z" fill="#B2B2B2"/>
<path d="M150.844 147.782L151.479 148.483L151.173 148.71L150.7 147.878L150.233 148.71L149.928 148.483L150.557 147.782L149.628 147.59L149.742 147.225L150.616 147.608L150.508 146.662H150.891L150.79 147.608L151.664 147.23L151.777 147.595L150.844 147.782Z" fill="#B2B2B2"/>
<path d="M153.208 147.782L153.842 148.483L153.537 148.71L153.064 147.878L152.597 148.71L152.292 148.483L152.921 147.782L151.992 147.59L152.106 147.225L152.98 147.608L152.872 146.662H153.255L153.154 147.608L154.028 147.23L154.141 147.595L153.208 147.782Z" fill="#B2B2B2"/>
<path d="M155.572 147.782L156.206 148.483L155.901 148.71L155.428 147.878L154.961 148.71L154.656 148.483L155.284 147.782L154.356 147.59L154.47 147.225L155.344 147.608L155.236 146.662H155.619L155.518 147.608L156.392 147.23L156.505 147.595L155.572 147.782Z" fill="#B2B2B2"/>
<path d="M157.937 147.782L158.571 148.483L158.266 148.71L157.793 147.878L157.326 148.71L157.02 148.483L157.649 147.782L156.721 147.59L156.834 147.225L157.709 147.608L157.601 146.662H157.984L157.882 147.608L158.756 147.23L158.87 147.595L157.937 147.782Z" fill="#B2B2B2"/>
<path d="M160.301 147.782L160.935 148.483L160.63 148.71L160.156 147.878L159.69 148.71L159.384 148.483L160.013 147.782L159.085 147.59L159.198 147.225L160.072 147.608L159.965 146.662H160.348L160.246 147.608L161.12 147.23L161.234 147.595L160.301 147.782Z" fill="#B2B2B2"/>
<path d="M162.665 147.782L163.3 148.483L162.994 148.71L162.521 147.878L162.054 148.71L161.749 148.483L162.378 147.782L161.449 147.59L161.563 147.225L162.437 147.608L162.329 146.662H162.712L162.611 147.608L163.485 147.23L163.598 147.595L162.665 147.782Z" fill="#B2B2B2"/>
<path d="M165.029 147.782L165.663 148.483L165.358 148.71L164.885 147.878L164.418 148.71L164.113 148.483L164.741 147.782L163.813 147.59L163.927 147.225L164.801 147.608L164.693 146.662H165.076L164.975 147.608L165.849 147.23L165.962 147.595L165.029 147.782Z" fill="#B2B2B2"/>
<path d="M165.869 338.599C190.599 338.599 210.646 319.76 210.646 296.521C210.646 273.282 190.599 254.444 165.869 254.444C141.139 254.444 121.091 273.282 121.091 296.521C121.091 319.76 141.139 338.599 165.869 338.599Z" fill="#FFD300"/>
<path d="M164.929 336.407C189.659 336.407 209.707 317.569 209.707 294.33C209.707 271.091 189.659 252.252 164.929 252.252C140.199 252.252 120.152 271.091 120.152 294.33C120.152 317.569 140.199 336.407 164.929 336.407Z" fill="white" stroke="#263238" stroke-width="0.7" stroke-miterlimit="10"/>
<path d="M164.929 330.65C186.275 330.65 203.579 314.389 203.579 294.33C203.579 274.271 186.275 258.01 164.929 258.01C143.583 258.01 126.279 274.271 126.279 294.33C126.279 314.389 143.583 330.65 164.929 330.65Z" fill="white" stroke="#263238" stroke-width="0.7" stroke-miterlimit="10"/>
<path d="M175.636 269.875C160.124 269.875 147.548 285.677 147.548 305.17C147.548 317.745 152.786 328.777 160.666 335.028C161.967 335.138 163.283 335.203 164.614 335.203C180.92 335.203 195.142 326.855 202.733 314.466C203.375 311.503 203.724 308.389 203.724 305.17C203.724 285.677 191.149 269.875 175.636 269.875Z" fill="#263238"/>
<path d="M147.881 289.254H129.587V293.63H147.881V289.254Z" fill="white" stroke="#263238" stroke-width="0.7" stroke-miterlimit="10"/>
<path d="M171.38 317.42C186.788 317.42 199.278 305.682 199.278 291.203C199.278 276.725 186.788 264.987 171.38 264.987C155.972 264.987 143.481 276.725 143.481 291.203C143.481 305.682 155.972 317.42 171.38 317.42Z" fill="white" stroke="#263238" stroke-width="0.7" stroke-miterlimit="10"/>
<path d="M171.38 313.09C184.243 313.09 194.671 303.291 194.671 291.204C194.671 279.116 184.243 269.317 171.38 269.317C158.516 269.317 148.089 279.116 148.089 291.204C148.089 303.291 158.516 313.09 171.38 313.09Z" fill="#FFD300" stroke="#263238" stroke-width="0.7" stroke-miterlimit="10"/>
<path d="M161.622 271.132C161.473 270.768 161.301 270.411 161.102 270.064C158.726 265.931 159.023 260.67 160.805 255.786" stroke="#263238" stroke-width="0.7" stroke-miterlimit="10"/>
<path d="M161.992 279.832C161.992 279.832 163.237 275.103 161.621 271.133" stroke="white" stroke-width="0.7" stroke-miterlimit="10"/>
<path d="M170.304 270.064C167.929 265.931 168.226 260.67 170.008 255.786" stroke="#263238" stroke-width="0.7" stroke-miterlimit="10"/>
<path d="M171.195 279.832C171.195 279.832 172.679 274.196 170.304 270.063" stroke="white" stroke-width="0.7" stroke-miterlimit="10"/>
<path d="M179.8 270.62C179.71 270.432 179.612 270.246 179.507 270.064C177.132 265.931 177.429 260.67 179.211 255.786" stroke="#263238" stroke-width="0.7" stroke-miterlimit="10"/>
<path d="M180.398 279.832C180.398 279.832 181.754 274.684 179.8 270.62" stroke="white" stroke-width="0.7" stroke-miterlimit="10"/>
<path d="M268.897 252.169C268.897 252.169 268.168 252.209 266.864 252.35C265.628 248.154 261.92 235.732 259.486 229.315C256.528 221.517 252.495 210.494 249.806 205.923C247.117 201.352 247.386 198.663 242.278 194.361C237.169 190.059 232.598 191.942 232.598 191.942C232.598 191.942 231.792 188.715 226.683 187.102C221.574 185.488 214.584 188.715 214.584 188.715C214.584 188.715 213.508 186.833 208.4 187.371C203.291 187.908 201.409 192.479 201.409 192.479C201.409 192.479 190.923 171.507 186.889 169.894C182.856 168.28 178.823 172.314 180.436 176.077C182.05 179.841 194.148 200.814 195.762 205.654C197.375 210.494 200.871 218.56 200.871 218.56C200.871 218.56 189.309 210.225 185.814 209.418C182.318 208.611 177.21 208.073 174.252 211.3C171.294 214.526 178.285 215.333 183.931 220.442C189.577 225.551 198.719 237.381 203.021 244.91C207.323 252.438 216.464 253.783 220.498 258.085C223.336 261.113 227.371 265.337 229.514 267.574C228.164 268.979 227.489 269.915 227.489 269.915L236.362 291.694C236.362 291.694 238.244 288.737 245.773 282.821C253.301 276.906 276.693 269.646 276.693 269.646L268.897 252.169Z" fill="#263238" stroke="#263238" stroke-width="0.7" stroke-miterlimit="10"/>
<path d="M230.655 263.483C230.655 263.483 224.202 256.761 220.169 252.459C216.136 248.157 206.994 246.813 202.692 239.285C198.39 231.756 189.249 219.925 183.602 214.817C177.955 209.708 170.965 208.902 173.922 205.675C176.88 202.448 181.988 202.986 185.484 203.792C188.979 204.599 200.541 212.934 200.541 212.934C200.541 212.934 197.046 204.868 195.432 200.029C193.819 195.189 181.72 174.217 180.107 170.452C178.493 166.688 182.526 162.655 186.56 164.268C190.593 165.882 201.079 186.854 201.079 186.854C201.079 186.854 202.962 182.283 208.07 181.745C213.179 181.208 214.255 183.09 214.255 183.09C214.255 183.09 221.246 179.864 226.354 181.476C231.463 183.09 232.269 186.316 232.269 186.316C232.269 186.316 236.84 184.434 241.949 188.736C247.057 193.038 246.789 195.727 249.477 200.298C252.166 204.869 256.199 215.893 259.157 223.69C262.114 231.487 266.954 248.158 266.954 248.158L232.269 266.979L230.655 263.483Z" fill="white" stroke="#263238" stroke-width="0.7" stroke-miterlimit="10"/>
<path d="M201.079 186.854L210.489 200.836" stroke="#263238" stroke-width="0.7" stroke-miterlimit="10"/>
<path d="M214.254 183.09L222.858 196.534" stroke="#263238" stroke-width="0.7" stroke-miterlimit="10"/>
<path d="M232.268 186.316L238.183 196.802" stroke="#263238" stroke-width="0.7" stroke-miterlimit="10"/>
<path d="M204.688 224.963L205.918 228.529" stroke="#263238" stroke-width="0.7" stroke-miterlimit="10"/>
<path d="M200.541 212.935L203.834 222.483" stroke="#263238" stroke-width="0.7" stroke-miterlimit="10"/>
<path d="M215.598 204.062L217.749 207.02" stroke="#263238" stroke-width="0.7" stroke-miterlimit="10"/>
<path d="M225.546 201.104L227.966 204.331" stroke="#263238" stroke-width="0.7" stroke-miterlimit="10"/>
<path d="M238.721 199.491L240.335 204.6" stroke="#263238" stroke-width="0.7" stroke-miterlimit="10"/>
<path d="M227.16 264.289C227.16 264.289 233.344 255.685 245.981 251.383C258.618 247.081 268.566 246.543 268.566 246.543L276.364 264.02C276.364 264.02 252.972 271.28 245.443 277.195C237.915 283.11 236.032 286.068 236.032 286.068L227.16 264.289Z" fill="white" stroke="#263238" stroke-width="0.7" stroke-miterlimit="10"/>
<path d="M248.401 322.366C248.401 322.366 238.183 296.823 235.495 291.446C232.806 286.068 237.108 283.38 237.108 283.38C237.108 283.38 243.293 275.045 259.425 268.591C275.557 262.138 276.902 261.869 280.935 266.44C284.968 271.011 311.42 322.414 311.42 322.414" fill="white"/>
<path d="M248.401 322.366C248.401 322.366 238.183 296.823 235.495 291.446C232.806 286.068 237.108 283.38 237.108 283.38C237.108 283.38 243.293 275.045 259.425 268.591C275.557 262.138 276.902 261.869 280.935 266.44C284.968 271.011 311.42 322.414 311.42 322.414" stroke="#263238" stroke-width="0.7" stroke-miterlimit="10"/>
<path d="M80.5574 295.49C80.5574 295.49 84.2121 287.653 92.9159 283.212C101.62 278.772 107.276 276.861 115.605 268.646C123.934 260.431 137.661 253.093 143.321 252.082C148.981 251.07 150.86 248.635 148.421 245.857C145.982 243.08 139.329 242.927 133.403 244.929C127.476 246.931 122.002 249.38 122.002 249.38C125.003 243.47 127 236.355 129.954 230.423C132.051 226.214 135.494 219.269 137.532 215.031C138.862 212.265 142.826 207.659 141.063 204.639C139.289 201.599 135.052 203.621 132.903 206.51C129.488 211.101 112.778 236.29 112.778 236.29C115.953 229.571 119.127 222.851 122.301 216.132C127.125 205.919 129.425 201.05 128.743 202.495C130.15 199.515 132.889 195.526 131.217 192.09C129.522 188.606 124.615 188.248 122.579 191.565C120.257 195.351 102.498 228.958 102.498 228.958C102.498 228.958 113.614 200.112 115.035 196.797C116.77 192.748 115.745 189.219 113.185 189.239C109.465 189.269 107.706 193.388 106.248 196.189C106.519 195.795 106.79 195.401 107.061 195.007C103.583 199.645 101.243 205.739 98.3346 210.771C94.9347 216.653 91.4144 222.466 87.7779 228.205C88.4926 222.26 90.8782 216.692 93.8336 211.536C95.6172 208.426 103.042 200.788 101.774 197.033C100.682 193.801 92.5386 199.874 87.8024 206.505C85.2208 210.119 78.456 219.972 76.5961 226.903C74.7362 233.834 61.7029 257.442 58.2225 264.019C54.7421 270.596 50.5631 282.211 50.5631 282.211L80.5574 295.49Z" fill="#263238" stroke="#263238" stroke-width="0.7" stroke-miterlimit="10"/>
<path d="M90.4863 289.152C90.4863 289.152 83.7838 280.946 70.9052 277.431C58.0273 273.916 48.0642 273.993 48.0642 273.993L41.3596 291.917C41.3596 291.917 65.1547 297.721 73.0339 303.161C80.9131 308.601 82.9739 311.436 82.9739 311.436L90.4863 289.152Z" fill="#263238" stroke="#263238" stroke-width="0.7" stroke-miterlimit="10"/>
<path d="M79.6712 292.386C79.6712 292.386 83.3259 284.549 92.0297 280.108C100.734 275.668 106.39 273.757 114.719 265.542C123.047 257.327 136.774 249.99 142.435 248.978C148.095 247.967 149.974 245.531 147.535 242.754C145.096 239.976 138.443 239.823 132.516 241.825C126.59 243.826 121.115 246.275 121.115 246.275C124.116 240.366 126.113 233.25 129.068 227.319C131.165 223.11 134.608 216.165 136.646 211.926C137.976 209.161 141.94 204.555 140.177 201.534C138.403 198.494 134.166 200.516 132.017 203.405C128.602 207.997 111.892 233.185 111.892 233.185C115.067 226.466 118.241 219.747 121.414 213.027C126.239 202.814 128.539 197.945 127.856 199.39C129.264 196.411 132.003 192.422 130.331 188.985C128.636 185.501 123.729 185.144 121.693 188.461C119.37 192.247 101.613 225.854 101.613 225.854C101.613 225.854 112.729 197.007 114.149 193.692C115.884 189.643 114.86 186.115 112.3 186.134C108.579 186.164 106.821 190.282 105.363 193.084C105.634 192.69 105.904 192.296 106.175 191.902C102.697 196.54 100.358 202.634 97.4491 207.666C94.0492 213.548 90.5289 219.361 86.8924 225.1C87.6071 219.155 89.9927 213.587 92.9481 208.431C94.7317 205.32 102.157 197.683 100.888 193.928C99.7962 190.695 91.6531 196.77 86.9169 203.4C84.3353 207.014 77.5705 216.867 75.7106 223.798C73.85 230.728 60.8174 254.337 57.337 260.914C53.8566 267.491 49.6776 279.106 49.6776 279.106L79.6712 292.386Z" fill="white" stroke="#263238" stroke-width="0.7" stroke-miterlimit="10"/>
<path d="M101.613 225.855L98.4025 232.341" stroke="#263238" stroke-width="0.7" stroke-miterlimit="10"/>
<path d="M111.892 233.187L109.388 236.433" stroke="#263238" stroke-width="0.7" stroke-miterlimit="10"/>
<path d="M121.115 246.277L117.898 250.965" stroke="#263238" stroke-width="0.7" stroke-miterlimit="10"/>
<path d="M104.469 243.196L104.211 245.984" stroke="#263238" stroke-width="0.7" stroke-miterlimit="10"/>
<path d="M96.4474 238.104L96.4579 240.801" stroke="#263238" stroke-width="0.7" stroke-miterlimit="10"/>
<path d="M84.6469 232.486L85.2944 237.069" stroke="#263238" stroke-width="0.7" stroke-miterlimit="10"/>
<path d="M89.5994 286.049C89.5994 286.049 82.8969 277.842 70.0183 274.328C57.1404 270.813 47.1773 270.89 47.1773 270.89L40.4727 288.814C40.4727 288.814 64.2678 294.618 72.147 300.058C80.0262 305.497 82.087 308.333 82.087 308.333L89.5994 286.049Z" fill="white" stroke="#263238" stroke-width="0.7" stroke-miterlimit="10"/>
<path d="M78.9356 324.805C78.9356 324.805 80.603 319.2 82.955 313.666C85.307 308.134 80.8473 305.715 80.8473 305.715C80.8473 305.715 74.1609 297.777 57.6612 292.331C41.1615 286.885 39.8035 286.7 36.0599 291.511C32.3163 296.322 20.27 325.234 20.27 325.234" fill="white"/>
<path d="M78.9356 324.805C78.9356 324.805 80.603 319.2 82.955 313.666C85.307 308.134 80.8473 305.715 80.8473 305.715C80.8473 305.715 74.1609 297.777 57.6612 292.331C41.1615 286.885 39.8035 286.7 36.0599 291.511C32.3163 296.322 20.27 325.234 20.27 325.234" stroke="#263238" stroke-width="0.7" stroke-miterlimit="10"/>
</svg>
