<svg width="94" height="15" viewBox="0 0 94 15" fill="none" xmlns="http://www.w3.org/2000/svg">
<path d="M12.1691 1.49L7.47111 14H5.09511L0.379109 1.49H2.57511L6.28311 11.894L10.0091 1.49H12.1691ZM14.9292 2.768C14.5572 2.768 14.2452 2.642 13.9932 2.39C13.7412 2.138 13.6152 1.826 13.6152 1.454C13.6152 1.082 13.7412 0.769999 13.9932 0.518C14.2452 0.265999 14.5572 0.139999 14.9292 0.139999C15.2892 0.139999 15.5952 0.265999 15.8472 0.518C16.0992 0.769999 16.2252 1.082 16.2252 1.454C16.2252 1.826 16.0992 2.138 15.8472 2.39C15.5952 2.642 15.2892 2.768 14.9292 2.768ZM15.9372 4.082V14H13.8852V4.082H15.9372ZM27.7213 8.798C27.7213 9.17 27.6973 9.506 27.6493 9.806H20.0713C20.1313 10.598 20.4253 11.234 20.9533 11.714C21.4813 12.194 22.1293 12.434 22.8973 12.434C24.0013 12.434 24.7813 11.972 25.2373 11.048H27.4512C27.1513 11.96 26.6053 12.71 25.8133 13.298C25.0333 13.874 24.0613 14.162 22.8973 14.162C21.9493 14.162 21.0973 13.952 20.3413 13.532C19.5973 13.1 19.0093 12.5 18.5773 11.732C18.1573 10.952 17.9473 10.052 17.9473 9.032C17.9473 8.012 18.1513 7.118 18.5593 6.35C18.9793 5.57 19.5613 4.97 20.3053 4.55C21.0613 4.13 21.9253 3.92 22.8973 3.92C23.8333 3.92 24.6673 4.124 25.3993 4.532C26.1313 4.94 26.7013 5.516 27.1093 6.26C27.5173 6.992 27.7213 7.838 27.7213 8.798ZM25.5793 8.15C25.5673 7.394 25.2973 6.788 24.7693 6.332C24.2413 5.876 23.5873 5.648 22.8073 5.648C22.0993 5.648 21.4933 5.876 20.9893 6.332C20.4853 6.776 20.1853 7.382 20.0893 8.15H25.5793ZM43.0606 4.082L39.9826 14H37.8226L35.8246 6.674L33.8266 14H31.6666L28.5706 4.082H30.6586L32.7286 12.056L34.8346 4.082H36.9766L38.9926 12.02L41.0446 4.082H43.0606ZM56.8119 11.444H51.5739L50.6739 14H48.5319L53.0139 1.472H55.3899L59.8719 14H57.7119L56.8119 11.444ZM56.2359 9.77L54.2019 3.956L52.1499 9.77H56.2359ZM63.8727 0.68V14H61.8207V0.68H63.8727ZM68.6188 0.68V14H66.5668V0.68H68.6188Z" fill="#898989"/>
<path d="M93.6107 1H85.0551C84.8401 1 84.6662 1.17394 84.6662 1.3889C84.6662 1.60386 84.8401 1.7778 85.0551 1.7778H92.6719L80.1135 14.3362C79.9615 14.4881 79.9615 14.7342 80.1135 14.8861C80.1894 14.962 80.2889 15 80.3884 15C80.4879 15 80.5874 14.962 80.6634 14.8861L93.2218 2.3277V9.94447C93.2218 10.1594 93.3957 10.3334 93.6107 10.3334C93.8257 10.3334 93.9996 10.1594 93.9996 9.94447V1.3889C93.9996 1.17394 93.8256 1 93.6107 1Z" fill="#898989"/>
</svg>
