<svg width="44" height="40" viewBox="0 0 44 40" fill="none" xmlns="http://www.w3.org/2000/svg">
<rect x="0.5" y="0.5" width="43" height="39" rx="7.5" fill="#FFF8D4"/>
<rect x="0.5" y="0.5" width="43" height="39" rx="7.5" stroke="#FFD300"/>
<path d="M20.7595 13.0542C20.9158 12.8796 21.1072 12.7399 21.3212 12.6443C21.5351 12.5487 21.7668 12.4993 22.0012 12.4993C22.2355 12.4993 22.4672 12.5487 22.6812 12.6443C22.8952 12.7399 23.0865 12.8796 23.2429 13.0542L23.8262 13.7058C23.9929 13.8921 24.1994 14.0384 24.4303 14.1341C24.6613 14.2297 24.9108 14.2722 25.1604 14.2583L26.0354 14.21C26.2694 14.1971 26.5035 14.2337 26.7224 14.3174C26.9414 14.4012 27.1402 14.5301 27.3059 14.6959C27.4716 14.8617 27.6005 15.0605 27.6841 15.2795C27.7677 15.4985 27.8042 15.7326 27.7912 15.9667L27.7429 16.8408C27.7291 17.0903 27.7717 17.3396 27.8673 17.5704C27.9629 17.8012 28.1092 18.0075 28.2954 18.1742L28.947 18.7575C29.1217 18.9138 29.2615 19.1053 29.3572 19.3193C29.4529 19.5333 29.5024 19.7651 29.5024 19.9996C29.5024 20.234 29.4529 20.4658 29.3572 20.6799C29.2615 20.8939 29.1217 21.0853 28.947 21.2417L28.2954 21.825C28.1091 21.9917 27.9628 22.1982 27.8671 22.4291C27.7715 22.6601 27.729 22.9096 27.7429 23.1592L27.7912 24.0342C27.8041 24.2682 27.7675 24.5023 27.6838 24.7213C27.6 24.9402 27.4711 25.139 27.3053 25.3047C27.1395 25.4704 26.9406 25.5993 26.7217 25.6829C26.5027 25.7665 26.2686 25.803 26.0345 25.79L25.1604 25.7417C24.9109 25.7279 24.6616 25.7705 24.4308 25.8661C24.2 25.9617 23.9937 26.108 23.827 26.2942L23.2437 26.9458C23.0874 27.1206 22.8959 27.2603 22.6819 27.356C22.4679 27.4517 22.2361 27.5012 22.0016 27.5012C21.7672 27.5012 21.5353 27.4517 21.3213 27.356C21.1073 27.2603 20.9159 27.1206 20.7595 26.9458L20.1762 26.2942C20.0095 26.1079 19.803 25.9616 19.5721 25.8659C19.3411 25.7703 19.0916 25.7278 18.842 25.7417L17.967 25.79C17.733 25.8029 17.4989 25.7663 17.2799 25.6826C17.061 25.5988 16.8622 25.4699 16.6965 25.3041C16.5308 25.1383 16.4019 24.9394 16.3183 24.7205C16.2347 24.5015 16.1982 24.2674 16.2112 24.0333L16.2595 23.1592C16.2732 22.9097 16.2307 22.6604 16.1351 22.4296C16.0395 22.1988 15.8932 21.9925 15.707 21.8258L15.0554 21.2425C14.8806 21.0862 14.7409 20.8947 14.6452 20.6807C14.5495 20.4667 14.5 20.2349 14.5 20.0004C14.5 19.766 14.5495 19.5341 14.6452 19.3201C14.7409 19.1061 14.8806 18.9147 15.0554 18.7583L15.707 18.175C15.8933 18.0083 16.0396 17.8018 16.1353 17.5709C16.2309 17.3399 16.2734 17.0904 16.2595 16.8408L16.2112 15.9658C16.1984 15.7319 16.2351 15.4978 16.3189 15.279C16.4027 15.0602 16.5317 14.8615 16.6974 14.6959C16.8632 14.5302 17.062 14.4015 17.2809 14.3179C17.4998 14.2343 17.7339 14.1978 17.9679 14.2108L18.842 14.2592C19.0915 14.2729 19.3408 14.2304 19.5716 14.1347C19.8024 14.0391 20.0087 13.8928 20.1754 13.7067L20.7595 13.0542Z" stroke="#FFD300" stroke-width="1.25"/>
<path d="M19.918 17.9166H19.9263V17.925H19.918V17.9166ZM24.0846 22.0833H24.093V22.0916H24.0846V22.0833Z" stroke="#FFD300" stroke-width="1.25" stroke-linejoin="round"/>
<path d="M24.5 17.5L19.5 22.5" stroke="#FFD300" stroke-width="1.25" stroke-linecap="round" stroke-linejoin="round"/>
</svg>
