<svg width="44" height="40" viewBox="0 0 44 40" fill="none" xmlns="http://www.w3.org/2000/svg">
<path d="M20.7585 13.0542C20.9149 12.8796 21.1063 12.7399 21.3202 12.6443C21.5342 12.5487 21.7659 12.4993 22.0002 12.4993C22.2346 12.4993 22.4663 12.5487 22.6802 12.6443C22.8942 12.7399 23.0856 12.8796 23.2419 13.0542L23.8252 13.7058C23.9919 13.8921 24.1984 14.0384 24.4294 14.1341C24.6603 14.2297 24.9098 14.2722 25.1594 14.2583L26.0344 14.21C26.2684 14.1971 26.5025 14.2337 26.7215 14.3174C26.9404 14.4012 27.1392 14.5301 27.3049 14.6959C27.4706 14.8617 27.5995 15.0605 27.6831 15.2795C27.7667 15.4985 27.8032 15.7326 27.7902 15.9667L27.7419 16.8408C27.7282 17.0903 27.7707 17.3396 27.8663 17.5704C27.962 17.8012 28.1082 18.0075 28.2944 18.1742L28.946 18.7575C29.1208 18.9138 29.2605 19.1053 29.3562 19.3193C29.4519 19.5333 29.5014 19.7651 29.5014 19.9996C29.5014 20.234 29.4519 20.4658 29.3562 20.6799C29.2605 20.8939 29.1208 21.0853 28.946 21.2417L28.2944 21.825C28.1081 21.9917 27.9618 22.1982 27.8661 22.4291C27.7705 22.6601 27.728 22.9096 27.7419 23.1592L27.7902 24.0342C27.8031 24.2682 27.7665 24.5023 27.6828 24.7213C27.5991 24.9402 27.4701 25.139 27.3043 25.3047C27.1385 25.4704 26.9397 25.5993 26.7207 25.6829C26.5017 25.7665 26.2676 25.803 26.0335 25.79L25.1594 25.7417C24.9099 25.7279 24.6606 25.7705 24.4298 25.8661C24.199 25.9617 23.9927 26.108 23.826 26.2942L23.2427 26.9458C23.0864 27.1206 22.895 27.2603 22.6809 27.356C22.4669 27.4517 22.2351 27.5012 22.0006 27.5012C21.7662 27.5012 21.5344 27.4517 21.3203 27.356C21.1063 27.2603 20.9149 27.1206 20.7585 26.9458L20.1752 26.2942C20.0085 26.1079 19.802 25.9616 19.5711 25.8659C19.3401 25.7703 19.0906 25.7278 18.841 25.7417L17.966 25.79C17.732 25.8029 17.4979 25.7663 17.279 25.6826C17.06 25.5988 16.8612 25.4699 16.6955 25.3041C16.5298 25.1383 16.4009 24.9394 16.3173 24.7205C16.2337 24.5015 16.1972 24.2674 16.2102 24.0333L16.2585 23.1592C16.2723 22.9097 16.2297 22.6604 16.1341 22.4296C16.0385 22.1988 15.8922 21.9925 15.706 21.8258L15.0544 21.2425C14.8797 21.0862 14.7399 20.8947 14.6442 20.6807C14.5485 20.4667 14.499 20.2349 14.499 20.0004C14.499 19.766 14.5485 19.5341 14.6442 19.3201C14.7399 19.1061 14.8797 18.9147 15.0544 18.7583L15.706 18.175C15.8923 18.0083 16.0387 17.8018 16.1343 17.5709C16.2299 17.3399 16.2724 17.0904 16.2585 16.8408L16.2102 15.9658C16.1974 15.7319 16.2341 15.4978 16.3179 15.279C16.4017 15.0602 16.5307 14.8615 16.6964 14.6959C16.8622 14.5302 17.061 14.4015 17.2799 14.3179C17.4989 14.2343 17.7329 14.1978 17.9669 14.2108L18.841 14.2592C19.0905 14.2729 19.3398 14.2304 19.5706 14.1347C19.8014 14.0391 20.0078 13.8928 20.1744 13.7067L20.7585 13.0542Z" stroke="#898989" stroke-width="1.25"/>
<path d="M19.917 17.9166H19.9253V17.925H19.917V17.9166ZM24.0837 22.0833H24.092V22.0916H24.0837V22.0833Z" stroke="#898989" stroke-width="1.25" stroke-linejoin="round"/>
<path d="M24.5 17.5L19.5 22.5" stroke="#898989" stroke-width="1.25" stroke-linecap="round" stroke-linejoin="round"/>
</svg>
