<svg width="18" height="18" viewBox="0 0 18 18" fill="none" xmlns="http://www.w3.org/2000/svg">
<path fill-rule="evenodd" clip-rule="evenodd" d="M3.86819 3.5584L2.78999 7.78571C2.38325 7.86851 2.01763 8.08935 1.75505 8.41082C1.49246 8.73228 1.34905 9.13462 1.34909 9.54971V12.1498C1.34909 12.6272 1.53873 13.085 1.8763 13.4226C2.21386 13.7602 2.6717 13.9498 3.14909 13.9498H14.8491C15.3265 13.9498 15.7843 13.7602 16.1219 13.4226C16.4594 13.085 16.6491 12.6272 16.6491 12.1498V9.54971C16.6491 9.13462 16.5057 8.73228 16.2431 8.41082C15.9805 8.08935 15.6149 7.86851 15.2082 7.78571L14.1309 3.5584C14.0499 3.24022 13.8833 2.95027 13.6493 2.71993C13.4153 2.48959 13.1228 2.32764 12.8034 2.2516C11.5576 1.95279 10.2811 1.80115 8.99999 1.7998C7.73039 1.7998 6.46199 1.9504 5.19479 2.2516C4.87537 2.32764 4.58284 2.48959 4.34885 2.71993C4.11486 2.95027 3.94923 3.24022 3.86819 3.5584ZM3.14999 8.6497C3.25001 8.64983 3.34722 8.61663 3.42626 8.55535C3.50531 8.49407 3.56169 8.4082 3.58649 8.3113L4.74029 3.7798C4.78085 3.62066 4.86418 3.47564 4.98126 3.36047C5.09834 3.24529 5.2447 3.16435 5.40449 3.1264C6.58218 2.84405 7.78893 2.70087 8.99999 2.6998C10.197 2.6998 11.3955 2.8423 12.5955 3.1273C12.7551 3.16539 12.9013 3.2464 13.0182 3.36157C13.1351 3.47673 13.2183 3.62167 13.2588 3.7807L14.4126 8.3113C14.4374 8.4082 14.4938 8.49407 14.5728 8.55535C14.6519 8.61663 14.7491 8.64983 14.8491 8.6497C15.0878 8.6497 15.3167 8.74453 15.4855 8.91331C15.6543 9.08209 15.7491 9.31101 15.7491 9.54971V12.1498C15.7491 12.3885 15.6543 12.6174 15.4855 12.7862C15.3167 12.955 15.0878 13.0498 14.8491 13.0498H3.14909C2.9104 13.0498 2.68148 12.955 2.51269 12.7862C2.34391 12.6174 2.24909 12.3885 2.24909 12.1498V9.54971C2.24909 9.31101 2.34391 9.08209 2.51269 8.91331C2.68148 8.74453 2.9113 8.6497 3.14999 8.6497Z" fill="#FFD300"/>
<path fill-rule="evenodd" clip-rule="evenodd" d="M4.95 14.3998C4.95 14.0418 4.80777 13.6984 4.55459 13.4452C4.30142 13.192 3.95804 13.0498 3.6 13.0498C3.24196 13.0498 2.89858 13.192 2.64541 13.4452C2.39223 13.6984 2.25 14.0418 2.25 14.3998V15.2998C2.25 15.6578 2.39223 16.0012 2.64541 16.2544C2.89858 16.5076 3.24196 16.6498 3.6 16.6498C3.95804 16.6498 4.30142 16.5076 4.55459 16.2544C4.80777 16.0012 4.95 15.6578 4.95 15.2998V14.3998ZM3.15 14.3998C3.15 14.2805 3.19741 14.166 3.2818 14.0816C3.36619 13.9972 3.48065 13.9498 3.6 13.9498C3.71935 13.9498 3.83381 13.9972 3.9182 14.0816C4.00259 14.166 4.05 14.2805 4.05 14.3998V15.2998C4.05 15.4192 4.00259 15.5336 3.9182 15.618C3.83381 15.7024 3.71935 15.7498 3.6 15.7498C3.48065 15.7498 3.36619 15.7024 3.2818 15.618C3.19741 15.5336 3.15 15.4192 3.15 15.2998V14.3998ZM15.75 14.3998C15.75 14.0418 15.6078 13.6984 15.3546 13.4452C15.1014 13.192 14.758 13.0498 14.4 13.0498C14.042 13.0498 13.6986 13.192 13.4454 13.4452C13.1922 13.6984 13.05 14.0418 13.05 14.3998V15.2998C13.05 15.6578 13.1922 16.0012 13.4454 16.2544C13.6986 16.5076 14.042 16.6498 14.4 16.6498C14.758 16.6498 15.1014 16.5076 15.3546 16.2544C15.6078 16.0012 15.75 15.6578 15.75 15.2998V14.3998ZM13.95 14.3998C13.95 14.2805 13.9974 14.166 14.0818 14.0816C14.1662 13.9972 14.2807 13.9498 14.4 13.9498C14.5193 13.9498 14.6338 13.9972 14.7182 14.0816C14.8026 14.166 14.85 14.2805 14.85 14.3998V15.2998C14.85 15.4192 14.8026 15.5336 14.7182 15.618C14.6338 15.7024 14.5193 15.7498 14.4 15.7498C14.2807 15.7498 14.1662 15.7024 14.0818 15.618C13.9974 15.5336 13.95 15.4192 13.95 15.2998V14.3998ZM13.5 12.1498C13.858 12.1498 14.2014 12.0076 14.4546 11.7544C14.7078 11.5012 14.85 11.1578 14.85 10.7998C14.85 10.4418 14.7078 10.0984 14.4546 9.84521C14.2014 9.59204 13.858 9.44981 13.5 9.44981C13.142 9.44981 12.7986 9.59204 12.5454 9.84521C12.2922 10.0984 12.15 10.4418 12.15 10.7998C12.15 11.1578 12.2922 11.5012 12.5454 11.7544C12.7986 12.0076 13.142 12.1498 13.5 12.1498ZM13.5 10.3498C13.6193 10.3498 13.7338 10.3972 13.8182 10.4816C13.9026 10.566 13.95 10.6805 13.95 10.7998C13.95 10.9192 13.9026 11.0336 13.8182 11.118C13.7338 11.2024 13.6193 11.2498 13.5 11.2498C13.3807 11.2498 13.2662 11.2024 13.1818 11.118C13.0974 11.0336 13.05 10.9192 13.05 10.7998C13.05 10.6805 13.0974 10.566 13.1818 10.4816C13.2662 10.3972 13.3807 10.3498 13.5 10.3498ZM4.5 12.1498C4.85804 12.1498 5.20142 12.0076 5.45459 11.7544C5.70777 11.5012 5.85 11.1578 5.85 10.7998C5.85 10.4418 5.70777 10.0984 5.45459 9.84521C5.20142 9.59204 4.85804 9.44981 4.5 9.44981C4.14196 9.44981 3.79858 9.59204 3.54541 9.84521C3.29223 10.0984 3.15 10.4418 3.15 10.7998C3.15 11.1578 3.29223 11.5012 3.54541 11.7544C3.79858 12.0076 4.14196 12.1498 4.5 12.1498ZM4.5 10.3498C4.61935 10.3498 4.73381 10.3972 4.8182 10.4816C4.90259 10.566 4.95 10.6805 4.95 10.7998C4.95 10.9192 4.90259 11.0336 4.8182 11.118C4.73381 11.2024 4.61935 11.2498 4.5 11.2498C4.38065 11.2498 4.26619 11.2024 4.1818 11.118C4.09741 11.0336 4.05 10.9192 4.05 10.7998C4.05 10.6805 4.09741 10.566 4.1818 10.4816C4.26619 10.3972 4.38065 10.3498 4.5 10.3498ZM11.3832 4.04981H6.6168C6.31463 4.04978 6.02119 4.15114 5.78345 4.33764C5.54571 4.52415 5.37742 4.78502 5.3055 5.07851L4.8645 6.87851C4.8158 7.07726 4.81291 7.28448 4.85607 7.48451C4.89922 7.68454 4.98729 7.87214 5.1136 8.03313C5.23992 8.19412 5.40118 8.3243 5.58519 8.41381C5.76921 8.50331 5.97117 8.54982 6.1758 8.54981H11.8242C12.0288 8.54982 12.2308 8.50331 12.4148 8.41381C12.5988 8.3243 12.7601 8.19412 12.8864 8.03313C13.0127 7.87214 13.1008 7.68454 13.1439 7.48451C13.1871 7.28448 13.1842 7.07726 13.1355 6.87851L12.6945 5.07851C12.6225 4.78487 12.4541 4.52389 12.2162 4.33737C11.9783 4.15084 11.6855 4.04958 11.3832 4.04981ZM6.1794 5.29271C6.20338 5.19483 6.25953 5.10783 6.33884 5.04566C6.41814 4.98348 6.51603 4.94973 6.6168 4.94981H11.3832C11.4838 4.94993 11.5815 4.98378 11.6606 5.04594C11.7397 5.10809 11.7958 5.19498 11.8197 5.29271L12.2607 7.09271C12.2769 7.15891 12.2779 7.22793 12.2635 7.29456C12.2492 7.36119 12.2199 7.42369 12.1779 7.47734C12.1358 7.531 12.0821 7.5744 12.0209 7.60427C11.9596 7.63415 11.8924 7.64972 11.8242 7.64981H6.1758C6.10756 7.64986 6.04021 7.63439 5.97883 7.60457C5.91746 7.57475 5.86367 7.53137 5.82153 7.4777C5.77939 7.42403 5.75001 7.36148 5.73561 7.29478C5.7212 7.22808 5.72216 7.15898 5.7384 7.09271L6.1794 5.29271Z" fill="#FFD300"/>
</svg>
