<svg width="16" height="18" viewBox="0 0 16 18" fill="none" xmlns="http://www.w3.org/2000/svg">
<g clip-path="url(#clip0_2888_2466)">
<path d="M9.49341 3.36C9.49341 3.2 9.44896 3.07 9.36007 2.97C9.27118 2.87 9.15563 2.82 9.01341 2.82H4.00007C3.85785 2.82 3.74229 2.87 3.65341 2.97C3.56452 3.07 3.52007 3.2 3.52007 3.36V7.86C3.52007 8.02 3.56452 8.16 3.65341 8.28C3.74229 8.4 3.85785 8.46 4.00007 8.46H9.01341C9.15563 8.46 9.27118 8.4 9.36007 8.28C9.44896 8.16 9.49341 8.02 9.49341 7.86V3.36ZM8.48007 7.32H4.48007V3.96H8.48007V7.32ZM15.2534 3.96L13.2267 2.88C13.1201 2.8 12.9956 2.78 12.8534 2.82C12.7112 2.86 12.6134 2.95 12.5601 3.09C12.5067 3.23 12.4979 3.38 12.5334 3.54C12.569 3.7 12.6579 3.8 12.8001 3.84L13.5467 4.32L13.4934 4.5C13.4934 4.86 13.5912 5.18 13.7867 5.46C13.9823 5.74 14.2223 5.94 14.5067 6.06V12.9C14.5067 13.06 14.4534 13.2 14.3467 13.32C14.2401 13.44 14.1245 13.5 14.0001 13.5C13.8756 13.5 13.7601 13.44 13.6534 13.32C13.5467 13.2 13.4934 13.06 13.4934 12.9V8.4C13.4934 7.76 13.289 7.18 12.8801 6.66C12.4712 6.14 12.0178 5.82 11.5201 5.7V2.22C11.5201 1.62 11.3245 1.1 10.9334 0.66C10.5423 0.220001 10.0801 0 9.54674 0H3.52007C2.98674 0 2.51563 0.220001 2.10674 0.66C1.69785 1.1 1.49341 1.62 1.49341 2.22V14.82L0.800072 15.24C0.586739 15.36 0.480072 15.52 0.480072 15.72V17.4C0.480072 17.56 0.533405 17.7 0.640072 17.82C0.746739 17.94 0.871183 18 1.01341 18H12.0001C12.1423 18 12.2578 17.94 12.3467 17.82C12.4356 17.7 12.4801 17.56 12.4801 17.4V15.72C12.4801 15.52 12.3912 15.36 12.2134 15.24L11.5201 14.82V6.84C11.769 6.96 11.9912 7.17 12.1867 7.47C12.3823 7.77 12.4801 8.08 12.4801 8.4V12.9C12.4801 13.38 12.6312 13.79 12.9334 14.13C13.2356 14.47 13.5912 14.64 14.0001 14.64C14.409 14.64 14.7645 14.47 15.0667 14.13C15.369 13.79 15.5201 13.38 15.5201 12.9V4.5C15.5201 4.26 15.4312 4.08 15.2534 3.96ZM11.5201 16.86H1.49341V16.08L2.24007 15.66C2.41785 15.58 2.50674 15.42 2.50674 15.18V2.22C2.50674 1.94 2.60452 1.69 2.80007 1.47C2.99563 1.25 3.23563 1.14 3.52007 1.14H9.54674C9.79563 1.14 10.0178 1.25 10.2134 1.47C10.409 1.69 10.5067 1.94 10.5067 2.22V15.18C10.5067 15.42 10.5956 15.58 10.7734 15.66L11.5201 16.08V16.86Z" fill="#FFD300"/>
</g>
<defs>
<clipPath id="clip0_2888_2466">
<rect width="16" height="18" fill="white" transform="matrix(1 0 0 -1 0 18)"/>
</clipPath>
</defs>
</svg>
