<svg width="18" height="18" viewBox="0 0 18 18" fill="none" xmlns="http://www.w3.org/2000/svg">
<path d="M15.3281 6.92578C15.4055 6.92578 15.4688 6.8625 15.4688 6.78516V5.73047C15.4688 5.65313 15.4055 5.58984 15.3281 5.58984H12.4453V2.67188C12.4453 2.59453 12.382 2.53125 12.3047 2.53125H11.1797C11.1023 2.53125 11.0391 2.59453 11.0391 2.67188V5.58984H7.03125V2.67188C7.03125 2.59453 6.96797 2.53125 6.89062 2.53125H5.76562C5.68828 2.53125 5.625 2.59453 5.625 2.67188V5.58984H2.67188C2.59453 5.58984 2.53125 5.65313 2.53125 5.73047V6.78516C2.53125 6.8625 2.59453 6.92578 2.67188 6.92578H5.625V11.0742H2.67188C2.59453 11.0742 2.53125 11.1375 2.53125 11.2148V12.2695C2.53125 12.3469 2.59453 12.4102 2.67188 12.4102H5.625V15.3281C5.625 15.4055 5.68828 15.4688 5.76562 15.4688H6.89062C6.96797 15.4688 7.03125 15.4055 7.03125 15.3281V12.4102H11.0391V15.3281C11.0391 15.4055 11.1023 15.4688 11.1797 15.4688H12.3047C12.382 15.4688 12.4453 15.4055 12.4453 15.3281V12.4102H15.3281C15.4055 12.4102 15.4688 12.3469 15.4688 12.2695V11.2148C15.4688 11.1375 15.4055 11.0742 15.3281 11.0742H12.4453V6.92578H15.3281ZM11.0391 11.0742H7.03125V6.92578H11.0391V11.0742Z" fill="#FFD300"/>
</svg>
